<?xml version="1.0" encoding="UTF-8" standalone="no"?>
<svg
   version="1.0"
   width="1385.8915pt"
   height="1114.771pt"
   viewBox="0 0 1385.8915 1114.771"
   preserveAspectRatio="xMidYMid meet"
   id="svg34"
   xmlns="http://www.w3.org/2000/svg"
   xmlns:svg="http://www.w3.org/2000/svg">
  <defs
     id="defs38">
    <linearGradient
       id="linearGradient10501">
      <stop
         style="stop-color:#b10000;stop-opacity:1;"
         offset="0"
         id="stop10499" />
    </linearGradient>
  </defs>
  <g
     transform="matrix(0.1,0,0,-0.1,-923.05678,1535.7706)"
     fill="#000000"
     stroke="none"
     id="g32"
     style="display:inline">
    <path
       id="path2"
       style="fill:#000000;fill-opacity:1;stroke-width:0.133333"
       d="m -99.867188,-977.75391 c -29.333332,6.4 -44.267052,25.06771 -44.400392,55.73438 -0.13333,23.86667 4.5336,38.13242 26.9336,83.73242 23.599996,47.73333 27.600516,61.60117 29.867183,103.20117 1.066667,20.66667 5.200391,48.66615 8.400391,58.13282 6.266666,18.13333 12.000521,27.86718 21.867187,37.86718 16.933334,16.8 46.398698,29.06602 83.332031,34.66602 7.066667,1.06666 12.934506,2.13372 13.201172,2.40039 0.266667,0.26667 -2.934505,1.86627 -7.201172,3.59961 -46.133333,18.93333 -72.00026,39.46588 -86.933593,69.19922 -7.466667,15.06666 -9.59974,26.00065 -9.066407,49.33398 l 0.400391,20.5332 -10.265625,3.06641 c -25.2,7.46667 -62.534898,25.33359 -85.601558,40.93359 -37.33334,25.06667 -61.99974,49.20079 -89.06641,86.80079 -4.66667,6.53333 -9.2,12.13372 -10,12.40039 -1.46667,0.53333 -27.06641,-23.06745 -27.06641,-24.80078 0,-0.40001 5.20013,-4.26602 11.4668,-8.66602 42.4,-29.06667 73.33281,-62.40143 102.13281,-110.13477 5.73334,-9.33333 7.73451,-13.4651 17.20117,-34.39843 8.53334,-18.93334 16.66602,-49.06758 22.66602,-84.26758 2.66667,-15.46667 2.40013,-68.13334 -0.5332,-84 -4.26667,-24 -7.19948,-29.33399 -16.13282,-29.33399 -6.53333,0 -22.66822,7.0681 -45.60156,20.13477 -67.86666,38.4 -116.26497,90.66654 -146.93164,158.5332 -13.73333,30.26667 -24.66823,74.39961 -27.60156,111.59961 -0.66667,6.93334 -1.46654,11.06641 -2.5332,11.06641 -0.8,0 -6.93243,-1.73386 -13.73243,-3.86719 -6.66666,-2.13333 -15.86757,-4.66628 -20.26757,-5.59961 -4.53334,-0.8 -8.13282,-1.86562 -8.13282,-2.26562 0,-0.4 2.66667,-6.53438 6,-13.73438 11.73334,-25.46667 20.26732,-51.7332 25.33399,-76.5332 5.33333,-26.93334 6.39961,-41.33268 5.59961,-74.66602 -0.8,-33.73333 -2.93321,-50.4 -10.53321,-78 -6.13333,-22.66666 -24.00039,-66.13463 -26.40039,-64.66797 -0.66666,0.4 -1.06601,0.002 -0.66601,-0.93164 1.46666,-3.86666 -26.53399,-47.60117 -39.33399,-61.20117 -8.53333,-9.06667 -11.60065,-8.93216 -21.33398,1.20117 -10.26667,10.93334 -27.19844,36.26628 -38.39844,57.59961 -15.2,28.93334 -25.73346,57.6 -31.4668,86 -6.13333,29.86667 -6.66796,36.26667 -6.66796,70 0,27.6 0.53359,35.33203 2.93359,49.33203 5.73333,32.4 16.13463,65.33503 28.66797,91.06836 l 7.0664,14.26563 -4.80078,1.33398 c -2.53333,0.66667 -7.46744,1.86654 -10.80078,2.53321 -3.46666,0.8 -11.33294,3.06588 -17.59961,5.19921 l -11.19922,3.86719 L -558,-400.95312 c -1.06667,-13.86667 -5.06628,-37.33347 -9.59961,-55.4668 -14.4,-57.46667 -32.53463,-92.93334 -70.66797,-138 -20.53333,-24.26667 -40.66588,-41.59987 -75.19922,-64.5332 -22,-14.66667 -35.33255,-22.00066 -53.19922,-29.33399 -9.06666,-3.73333 -11.86783,-4.26536 -15.20117,-3.33203 -6.13333,1.73333 -7.46705,3.73216 -10.40039,14.79883 -7.33333,29.06666 -7.06588,85.60117 0.80078,121.20117 2.4,10.4 8.93334,34.13255 12,43.19922 6.13334,18 20.53386,47.06666 33.86719,68 24.26667,38.53333 54.13385,69.20026 91.86719,94.93359 6,4.13334 10.93164,8.26641 10.93164,9.06641 0,1.6 -23.73346,24 -25.4668,24 -0.53333,0 -5.59922,-6.13294 -11.19922,-13.59961 -12.66666,-17.06667 -21.86679,-27.33425 -23.46679,-26.26758 -0.66667,0.4 -0.80039,-0.26536 -0.40039,-1.33203 0.93333,-2.53333 -21.33347,-24.80065 -39.4668,-39.33398 -46.8,-37.46667 -96.26667,-59.99948 -154,-70.13282 -36.13333,-6.26666 -64.93242,-7.20117 -103.73242,-3.20117 -20.2667,2 -24.9336,4.66719 -24.9336,13.86719 0,9.46666 14.4003,41.46706 28.9336,64.40039 13.06666,20.66667 37.46666,50.66562 52,64.26562 14.53333,13.6 23.06653,20.13451 24.5332,19.20118 0.93333,-0.53334 1.20078,-0.39961 0.80078,0.40039 -1.06667,1.73333 8.13177,8.93281 28.39844,22.13281 32.13333,20.93333 62.66823,34.26627 99.60156,43.59961 19.6,5.06666 42.39935,9.06666 56.66602,10 16.8,1.2 17.19909,1.4668 15.73242,5.4668 -2.13333,5.6 -10.66602,36.39986 -10.66602,38.5332 0,2.66666 -0.13372,2.6668 -10.40039,-2.5332 -25.73333,-12.93334 -54.93294,-22.66667 -89.59961,-30 -35.6,-7.6 -77.20065,-8.26667 -115.33398,-2 -52.66667,8.8 -105.33162,31.06614 -146.93162,62.13281 -18.9334,14.26666 -21.7336,18.66719 -16.9336,27.86719 6.8,13.33333 55.9999,43.999474 96.5332,60.132808 42.13332,16.799999 86.53319,24.667317 130.53319,23.333984 47.06667,-1.466667 83.20013,-9.466667 127.4668,-28 8.8,-3.6 17.33307,-7.599349 19.0664,-8.666016 1.6,-1.066666 3.33295,-1.733984 3.59961,-1.333984 0.4,0.266667 2.13334,6.533854 4,13.867187 1.86667,7.2 4.26732,15.465625 5.33399,18.265625 3.86666,9.733334 3.73242,9.734115 -12.26758,10.800782 -54.93333,3.733333 -114.66706,23.60013 -160.40039,53.4667965 C -923.46745,27.447396 -957.86667,59.847396 -978,86.914062 c -22.5333,30.133338 -46.1328,75.866408 -46.1328,89.066408 0,7.2 0.9335,9.33242 5.4668,11.73242 12,6.13333 66.13254,9.46719 97.1992,5.86719 79.2,-8.93334 148.53282,-42.00013 204.13282,-97.466799 10.8,-10.8 32.93385,-37.332812 41.86718,-50.132812 2.26667,-3.2 4.40078,-5.600651 4.80078,-5.333985 1.33334,0.533334 27.86524,25.600391 27.86524,26.400391 0,0.4 -6.13294,4.933333 -13.59961,10 -35.6,24.000005 -60.93385,48.933205 -83.86719,82.533205 -40.26666,58.8 -60.79857,133.46588 -55.86523,203.19922 2.93333,41.6 5.3319,51.0681 13.86523,54.13476 4.8,1.73334 12.2668,-0.93398 37.4668,-13.33398 35.33333,-17.33334 62.53333,-36.79987 90,-64.5332 37.2,-37.33334 64.26667,-80.79909 80,-127.73243 9.33333,-28.4 16,-62.40078 16,-82.80078 0,-6 0.40078,-10.93359 0.80078,-10.93359 0.53333,0 6.66576,1.73385 13.73242,3.86719 7.06667,2.13333 17.06758,4.93281 22.26758,6.13281 l 9.59961,2.26758 -8.40039,17.46679 c -29.6,61.46667 -38.93203,138.13242 -25.33203,205.73243 9.33333,45.86666 29.46653,91.9996 56.5332,129.5996 14.8,20.4 18.93281,24.26758 26.13281,24.26758 5.46667,0 10.26758,-4.26771 20.26758,-17.73437 46.53333,-62.8 68.39844,-126.79961 68.39844,-199.59961 0,-54 -9.59987,-95.33334 -34.5332,-148 -2.93334,-6.26667 -5.06693,-11.46628 -4.9336,-11.59961 0.66667,-0.66667 38.80013,-11.20013 41.4668,-11.4668 2.4,-0.26666 2.66758,1.06576 4.26758,17.73242 4,44.93334 13.19974,77.46732 33.0664,117.33399 18.13334,36.53333 46.66732,73.46719 77.33399,99.86719 31.86666,27.46666 64.13255,47.46588 99.19922,61.19921 17.73333,6.93334 21.19961,3.46693 25.59961,-25.0664 3.46666,-23.33334 4.26731,-65.59935 1.33398,-84.66602 -7.86667,-53.06666 -25.0668,-99.33463 -51.4668,-138.66797 -25.2,-37.46666 -50.79974,-62.93268 -89.0664,-88.666012 l -14.53321,-9.732422 14.53321,-13.601562 c 7.86666,-7.6 14.93346,-13.466407 15.46679,-13.066406 0.53334,0.399999 7.19883,8.800781 14.79883,18.800781 21.33334,28.266666 53.73412,58.799481 82.80078,78.132811 45.6,30.4 100.399352,50.4 152.6660188,56 9.2,0.93333 17.8673172,1.73386 19.3339842,1.86719 49.866667,2.13333 45.600651,2.26706 61.333985,-1.59961 30.800002,-7.73333 61.600392,-25.86758 88.400392,-52.26758 6.66666,-6.66667 12.26562,-11.19896 12.26562,-10.26562 0,11.06666 -6.53398,37.99922 -13.33398,55.19922 -14.26667,35.73333 -33.4655,66.13255 -62.798829,99.19921 -70.133334,79.2 -161.734506,138.00065 -267.201171,171.33399 -36.93333,11.73333 -81.46602,20.66679 -116.66602,23.4668 -13.06666,1.06666 -17.73268,2.93268 -20.66601,8.66601 -2.93334,5.46667 -0.66784,12.40065 4.79883,15.33399 4.66666,2.26666 8.66718,1.99973 43.86718,-2.9336 64.93334,-9.33333 115.60065,-24.66562 179.333988,-54.26562 57.599999,-26.66667 121.866666,-71.20157 164,-113.60157 42.133332,-42.26666 61.332422,-66.66614 83.732422,-106.13281 4.93333,-8.66667 13.06667,-27.73385 18,-41.86719 8.8,-25.46666 12.66797,-48.13268 12.66797,-72.66601 V 98.380859 l 8.26562,-12.134765 c 18.66667,-27.066667 40.40052,-71.466146 53.86719,-110.132813 22.66667,-65.466666 36.53385,-159.866541 33.86719,-232.533201 -0.8,-24.53334 -2.1349,-30.40078 -7.60156,-32.80078 -4.53334,-2.13334 -11.19896,-0.1319 -14.26563,4.13476 -2.26667,3.06667 -2.53307,7.33268 -3.06641,48.66602 -0.8,62.53333 -2.80026,81.86732 -14.93359,143.333982 -9.06667,45.6 -32.80104,106.933204 -55.73437,144.533204 -6.4,10.4 -7.33282,11.332682 -8.13282,8.666015 -2.13333,-6.533333 -10.66666,-23.6 -16,-32 -10.8,-16.8 -28.40026,-31.5997393 -48.93359,-41.066406 -18.53333,-8.666667 -26.39974,-10.132813 -53.066407,-10.132813 -20.666667,0 -24.400651,0.39974 -33.333984,3.066407 -13.466667,4.266666 -28.532943,10.9321612 -37.5996096,16.7988279 -8,5.0666666 -8.1325521,5.2005208 -17.1992184,13.8671871 l -6,5.59961 -18.800782,-11.199219 c -24.133333,-14.5333333 -33.199739,-18.932552 -55.066406,-27.199219 -36.133333,-13.6 -65.066403,-20.00039 -101.066403,-22.40039 -11.73334,-0.8 -13.73256,-1.19974 -13.19922,-3.066407 0.4,-1.2 2.79961,-10.00013 5.59961,-19.466797 2.66666,-9.6 5.06536,-18.00026 5.33203,-18.933593 0.4,-1.066667 4.40091,0.133854 12.26758,3.867187 30.93333,14.266667 63.46575,23.998438 101.732419,30.398438 14.266666,2.4 57.333203,3.20013 72.533203,1.466797 60.666667,-7.466667 100.800521,-20.666927 147.867188,-48.933594 3.6,-2.133337 7.46745,-4.532557 8.80078,-5.199217 1.2,-0.8 9.20052,-6.39935 17.86719,-12.66602 11.73333,-8.53333 15.99818,-12.53333 17.46484,-16 3.73334,-9.46666 0.53477,-15.06784 -15.86523,-27.20117 -62.13334,-46 -146.533466,-71.59896 -219.466799,-66.26562 -44.8,3.2 -81.333201,12.26627 -126.533201,31.59961 -11.46667,4.93333 -16.80013,6.66627 -17.4668,5.5996 -0.53333,-0.8 -2.26719,-7.19947 -3.86719,-14.13281 -1.6,-7.06666 -4.00065,-15.86771 -5.33398,-19.73437 l -2.39844,-6.93164 2.79883,-0.80078 c 1.6,-0.4 5.33424,-0.80079 8.26758,-0.80079 4.8,0 33.06601,-4.66523 48.66601,-7.86523 21.2,-4.53333 59.599222,-17.86771 79.199222,-27.73438 30.4,-15.2 56.267057,-33.60026 82.40039,-58.93359 l 14.400391,-13.86523 13.199219,6.26562 c 33.066667,15.46667 56.534766,18.93294 80.134768,11.59961 29.73333,-9.33333 59.86549,-39.06575 92.79883,-91.73242 14.13333,-22.53333 36.00065,-63.06602 41.33398,-76.66602 1.46667,-3.6 2.93398,-6.40039 3.33398,-6.40039 0.4,0 1.19909,10.39974 1.73243,23.06641 0.8,20.53333 2.13424,37.20052 4.26757,51.86719 0.93334,7.2 4.13308,14.13242 7.06641,15.73242 3.2,1.6 9.86693,1.73281 8.93359,0.13281 -0.4,-0.66667 0.26628,-1.06693 1.59961,-0.93359 3.33334,0.26666 7.73217,-9.73321 10.79883,-24.53321 3.06667,-15.06666 6.80078,-46.79882 6.80078,-58.79882 0.13334,-10 0.53399,-9.46784 7.33399,8.79882 15.46666,41.33334 34.53307,80.53347 55.0664,113.4668 37.06667,59.06667 77.59961,78.13307 129.59961,61.06641 15.73334,-5.2 43.46602,-19.59818 56.66602,-29.46485 15.33333,-11.33333 35.06654,-31.06705 46.5332,-46.40039 10.26667,-13.6 20.53412,-33.86797 24.80078,-48.66797 3.6,-12.53333 4.93412,-38.93255 2.80078,-53.19921 -2.4,-15.73334 -18.79974,-47.19987 -23.0664,-44.53321 -0.93334,0.4 -1.06849,0.13399 -0.53516,-0.66601 1.2,-2 -8.13281,-11.33477 -10.13281,-10.13477 -0.93333,0.53333 -1.06654,0.40013 -0.5332,-0.5332 2.53333,-4 -35.46693,-30.5336 -52.9336,-36.9336 -4.8,-1.73333 -3.19935,-3.33203 3.33399,-3.33203 11.2,0 42.13359,-4.40013 52.93359,-7.46679 6.26667,-1.86667 15.73216,-5.33386 20.79883,-7.86719 10.4,-4.93334 22.53502,-14.80026 21.06836,-16.9336 -0.4,-0.8 -0.13399,-1.06601 0.66601,-0.66601 0.66667,0.53333 3.86693,-1.86732 6.9336,-5.33399 8.4,-9.46666 16.53333,-26.80039 20,-42.40039 3.2,-14 3.2,-14.13268 6,-34.66601 6.13333,-45.33334 12.93281,-64.13399 38.13281,-105.33399 25.33333,-41.2 31.86693,-57.33164 32.93359,-80.93164 0.66667,-15.73333 -0.39987,-25.46758 -2.5332,-22.26757 -0.93333,1.33333 -1.06654,0.80039 -0.5332,-1.59961 1.46666,-6.13334 -10.53412,-24.93399 -14.80078,-23.33399 -1.06667,0.4 -1.73347,10e-4 -1.4668,-0.79883 0.4,-2 -7.19948,-7.06797 -16.13281,-10.66797 -6.8,-2.8 -9.73295,-3.06692 -27.59961,-2.93359 -34.13334,0.13333 -64.66797,8.26758 -112.66797,30.26758 -29.6,13.46667 -93.73203,54.53229 -91.33203,58.26562 0.4,0.8 -2.6e-4,1.06797 -0.9336,0.66797 -4,-1.6 -51.33268,41.06641 -76.66601,69.06641 -28.13334,31.06667 -66.00182,79.46719 -76.53516,97.86719 -2.26666,3.86666 -4.26653,7.0664 -4.5332,7.0664 -0.4,0 -1.46654,-1.73385 -2.5332,-3.86718 -1.86667,-3.46667 -1.86667,-3.99961 0,-5.59961 4,-3.2 7.59987,-9.60079 8.5332,-14.80079 1.2,-6.53333 -0.2655,-12.39974 -4.79883,-19.0664 l -3.33398,-5.06641 3.33398,-10.26758 c 6.13333,-19.06666 19.46706,-46.53164 30.40039,-62.93164 5.2,-7.73333 6.13242,-9.86705 3.73242,-8.40039 -0.8,0.4 -0.93372,-0.13398 -0.40039,-1.33398 0.53334,-1.6 1.06771,-1.73268 1.73438,-0.66602 0.53333,0.93334 3.46523,-1.73307 7.86523,-7.0664 8.26667,-10.4 19.06823,-20.53438 29.60156,-27.73438 9.2,-6.13333 10.66511,-9.46667 6.39844,-14 -1.6,-1.73333 -3.9987,-3.19922 -5.33203,-3.19922 -5.46667,0 -35.86745,28.13203 -46.80078,43.33203 -5.6,7.86667 -13.33281,20.40026 -20.13281,32.9336 -5.33334,9.73333 -20.13295,43.60065 -21.59961,49.33398 -1.46667,5.6 -12.40078,6.00039 -12.80078,0.40039 -0.53334,-6.4 -14.66693,-47.20143 -20.9336,-60.13476 -1.06666,-2.4 -2.53255,-4.13243 -3.19922,-3.73242 -0.53333,0.4 -0.66757,-0.2668 -0.26757,-1.4668 1.86666,-4.66667 -26.79844,-47.99896 -38.39844,-58.26563 -11.2,-9.86666 -16.80039,-11.73359 -20.40039,-6.93359 -3.33334,4.4 -2.26628,6.5319 6.40039,13.86523 13.06666,10.93334 27.19922,27.86732 33.19922,39.33399 16,31.2 21.20026,44.40052 30.93359,77.86719 2,6.93333 2.00013,7.33307 -0.5332,9.0664 -1.46667,1.06667 -4.2681,4.53386 -6.13477,7.86719 -3.06666,5.2 -3.46549,7.06536 -2.79883,13.33203 0.53334,4.8 1.99987,9.06693 4.53321,12.93359 3.86666,5.46667 3.86627,5.73347 1.59961,9.4668 l -2.26563,3.73438 -3.73437,-6.40039 c -5.73334,-10.26667 -25.19987,-42.79987 -32.53321,-54.53321 -3.6,-5.86666 -7.33281,-10.53424 -8.13281,-10.26758 -0.8,0.13334 -1.06654,-0.2664 -0.5332,-1.0664 0.4,-0.66667 -2.40091,-5.8668 -6.26758,-11.4668 -10,-14.4 -10.93372,-15.73398 -12.40039,-17.33398 -0.66667,-0.8 -2.79935,-3.46524 -4.66602,-5.86524 -4,-5.33333 -25.46653,-32.40065 -26.5332,-33.33398 -0.53333,-0.4 -3.46602,-3.73399 -6.66602,-7.33399 -12.8,-14.53333 -32.53385,-33.8664 -33.86718,-33.0664 -0.8,0.4 -0.93321,0.13398 -0.53321,-0.66602 1.6,-2.4 -33.999345,-33.0668 -36.666012,-31.46679 -0.933333,0.53333 -1.068489,0.40013 -0.535156,-0.53321 1.2,-2 -18.532682,-16.80013 -20.666016,-15.46679 -0.933333,0.53333 -1.199349,0.40013 -0.666015,-0.53321 1.333333,-2.13333 -35.733724,-26.13294 -58.400391,-37.59961 -49.6,-25.2 -86.667188,-34.53463 -113.867188,-28.66797 z M 81.509766,0.10742188 c 9.114583,0.40625 17.989843,1.97330732 26.089844,4.80664062 23.73333,8.3999995 39.4668,22.2654945 53.4668,46.7988285 4.66666,8.4 10.40013,22.533203 11.46679,28.533203 0.13334,1.066666 0.66589,4.133594 1.19922,6.933594 0.8,4.4 0.2681,5.600651 -5.86523,13.333982 -9.86667,12.26667 -27.20065,29.46641 -39.33399,39.06641 -9.2,7.2 -31.599216,22 -33.199216,22 -0.266666,0 -4.534505,-7.99909 -9.201172,-17.73242 -18.4,-37.33334 -35.599088,-61.333988 -65.732421,-91.333988 L 0,32.246094 7.4667969,24.914062 C 24.666797,8.1140625 54.166016,-1.1113281 81.509766,0.10742188 Z"
       transform="matrix(7.5,0,0,-7.5,17561,8011.8512)" />
    <path
       style="fill:#60fcf5;fill-opacity:1"
       d="m 20505,12410 c 230,-12 400,-34 546,-70 454,-114 797,-323 937,-571 211,-374 -58,-901 -618,-1212 -87,-48 -259,-104 -345,-112 -166,-16 -333,67 -466,231 -226,280 -461,755 -634,1284 l -57,175 17,125 c 9,69 19,133 21,142 4,15 27,17 212,17 114,1 288,-3 387,-9 z"
       id="path3930" />
    <path
       style="fill:#ffff00;fill-opacity:1"
       d="m 13977,7002 c 10,-6 13,-140 15,-574 3,-538 4,-567 22,-587 23,-25 77,-37 105,-22 51,28 51,30 51,610 0,298 3,548 6,556 10,25 58,18 86,-12 43,-47 159,-312 203,-466 66,-226 86,-354 92,-594 8,-295 -16,-489 -91,-728 -44,-145 -65,-195 -143,-350 -63,-126 -197,-339 -229,-366 -14,-12 -20,-9 -44,19 -48,58 -183,294 -238,417 -219,490 -267,975 -145,1475 61,253 196,574 256,611 36,21 37,22 54,11 z"
       id="path3954" />
    <path
       d="m 15470,3863 c -77,-12 -160,-67 -197,-131 -24,-41 -28,-58 -28,-127 0,-69 4,-86 27,-127 95,-161 333,-183 456,-42 45,50 62,100 62,178 0,69 -17,111 -64,164 -60,66 -162,100 -256,85 z"
       id="path6" />
    <path
       d="M 1475,3713 C 1152,3685 884,3597 650,3441 533,3364 350,3180 271,3061 113,2823 35,2596 8,2298 -10,2109 20,1868 85,1673 200,1329 489,1003 837,827 c 93,-48 308,-115 433,-136 226,-39 572,-26 805,30 225,53 459,155 600,261 l 70,53 3,578 2,577 h -195 -195 v -482 -483 l -33,-22 c -144,-97 -407,-178 -622,-189 -380,-21 -730,108 -970,357 -251,261 -364,587 -326,940 22,202 80,372 182,529 179,276 465,459 808,516 148,24 378,15 517,-20 205,-51 370,-135 534,-271 l 78,-64 95,102 c 52,56 105,115 119,131 l 25,29 -68,62 c -109,100 -196,161 -321,225 -129,65 -229,99 -388,130 -151,30 -381,45 -515,33 z"
       id="path8" />
    <path
       d="m 12160,2949 c -276,-42 -466,-130 -641,-296 -151,-144 -230,-264 -289,-439 -84,-247 -89,-514 -15,-768 114,-393 460,-693 880,-762 130,-21 369,-14 498,15 211,48 401,152 548,300 220,221 323,482 324,821 0,315 -104,582 -314,804 -127,134 -335,253 -526,300 -123,31 -350,43 -465,25 z m 390,-368 c 131,-45 192,-82 286,-175 155,-156 234,-358 234,-599 -1,-386 -225,-692 -570,-778 -73,-19 -104,-21 -225,-16 -125,4 -149,8 -224,36 -109,40 -169,79 -264,171 -90,86 -136,156 -177,269 -63,172 -77,390 -35,551 38,147 137,309 243,398 158,131 312,184 517,178 103,-3 133,-8 215,-35 z"
       id="path10" />
    <path
       d="m 19745,2949 c -296,-17 -556,-112 -799,-290 -10,-8 -2,-24 91,-176 l 74,-121 72,54 c 92,70 228,137 342,170 73,21 118,27 240,31 266,9 402,-32 531,-161 108,-108 154,-218 154,-373 v -71 l -447,-5 c -471,-5 -508,-8 -675,-57 -203,-60 -361,-197 -428,-372 -28,-73 -35,-126 -34,-243 2,-238 98,-411 293,-529 373,-225 956,-164 1246,132 32,33 63,58 68,55 5,-3 6,-69 2,-149 l -7,-144 h 181 c 99,0 183,-1 186,-2 3,-2 7,337 8,752 2,696 1,762 -16,845 -40,195 -156,370 -322,487 -79,56 -105,69 -226,109 -161,53 -321,70 -534,58 z m 707,-1351 c -4,-158 -16,-218 -60,-298 -68,-124 -204,-230 -367,-286 -68,-24 -100,-29 -215,-32 -95,-2 -156,1 -207,12 -149,31 -263,108 -320,217 -24,47 -28,65 -28,139 0,73 4,93 27,140 71,143 195,214 403,230 55,5 251,6 435,5 l 334,-4 z"
       id="path12" />
    <path
       d="m 27147,2949 c -491,-32 -800,-292 -799,-674 0,-195 90,-349 264,-448 116,-67 219,-96 703,-201 301,-65 408,-128 445,-265 13,-51 1,-127 -31,-177 -58,-95 -202,-164 -373,-180 l -71,-6 -70,-72 c -67,-68 -145,-198 -145,-241 0,-35 366,-11 545,36 334,87 516,282 541,578 9,102 -8,196 -52,286 -79,164 -262,282 -524,339 -36,7 -164,35 -285,60 -312,66 -404,99 -485,172 -103,93 -89,270 27,362 105,82 198,106 413,107 246,0 377,-35 594,-159 70,-39 91,-47 94,-36 3,8 36,75 74,147 37,73 68,137 68,141 0,15 -171,111 -254,143 -113,44 -264,76 -392,84 -60,3 -120,8 -134,9 -14,2 -83,0 -153,-5 z"
       id="path14" />
    <path
       d="m 4552,2935 c -268,-49 -472,-177 -591,-368 -12,-20 -26,-37 -29,-37 -4,0 -7,89 -7,198 v 197 h -185 -185 l -3,-1112 -2,-1113 h 199 200 l 3,618 4,617 26,95 c 34,121 51,160 103,241 139,216 374,328 658,317 l 118,-5 -1,183 -2,184 -116,-1 c -64,-1 -150,-7 -190,-14 z"
       id="path16" />
    <path
       d="m 9404,2936 c -151,-29 -297,-86 -403,-159 -53,-36 -155,-137 -191,-190 -14,-20 -28,-37 -32,-37 -5,0 -8,86 -8,190 v 190 H 8585 8400 V 1465 0 h 195 195 v 532 533 l 59,-66 c 217,-240 530,-356 868,-320 123,12 231,36 322,71 395,152 652,502 690,940 33,393 -86,735 -340,973 -137,129 -275,203 -484,258 -103,27 -391,36 -501,15 z m 376,-341 c 202,-52 377,-193 469,-375 156,-309 110,-733 -106,-970 -73,-80 -136,-124 -247,-176 -115,-53 -196,-67 -351,-61 -124,4 -135,6 -228,44 -135,56 -198,96 -287,183 -384,373 -288,1061 180,1295 72,36 118,52 200,71 74,18 285,11 370,-11 z"
       id="path18" />
    <path
       d="m 17288,2931 c -245,-53 -414,-140 -578,-298 -125,-119 -212,-258 -271,-430 -42,-126 -59,-236 -59,-392 0,-288 74,-515 237,-729 97,-127 229,-228 398,-304 423,-190 944,-125 1254,159 71,64 180,219 164,233 -19,17 -251,158 -269,164 -14,4 -27,-5 -49,-35 -60,-82 -165,-169 -260,-214 -119,-58 -194,-75 -319,-75 -391,0 -698,273 -757,671 -21,148 3,353 57,485 27,67 122,200 177,250 82,75 187,138 278,168 207,69 468,34 650,-87 55,-36 145,-124 185,-180 l 20,-28 149,96 c 83,53 152,98 153,100 8,7 -64,101 -122,160 -133,134 -271,211 -491,272 -78,22 -116,26 -275,29 -154,3 -200,0 -272,-15 z"
       id="path20" />
    <path
       d="m 22660,2934 c -267,-48 -446,-160 -583,-361 -23,-34 -44,-63 -47,-63 -3,0 -4,95 -2,210 l 3,210 -188,-2 -188,-3 -3,-1105 c -1,-608 0,-1109 2,-1115 2,-6 77,-9 205,-7 l 201,3 v 582 c 0,576 2,625 36,762 71,290 276,479 578,535 68,13 241,9 279,-6 16,-6 17,8 17,185 v 191 l -117,-1 c -65,-1 -152,-7 -193,-15 z"
       id="path22" />
    <path
       d="m 5380,2252 c 0,-401 4,-711 10,-759 33,-260 146,-479 317,-612 123,-96 286,-167 438,-191 93,-15 333,-15 415,-1 146,27 297,87 406,162 67,46 148,124 185,178 19,28 37,51 42,51 4,0 7,-85 7,-190 V 700 h 185 185 v 1115 1115 h -201 -201 l 4,-417 c 5,-591 -3,-857 -31,-953 -74,-253 -230,-420 -467,-500 -87,-29 -115,-34 -229,-38 -155,-5 -231,10 -350,68 -176,85 -279,248 -315,497 -6,42 -10,335 -10,706 l -1,635 -194,1 -195,1 z"
       id="path24" />
    <path
       d="M 15320,1816 V 701 l 184,-3 c 100,-2 190,-2 200,0 15,3 16,89 14,1115 l -3,1112 -197,3 -198,2 z"
       id="path26" />
    <path
       d="m 23493,2223 c 4,-769 5,-774 64,-961 59,-188 201,-360 383,-464 119,-67 353,-128 496,-128 108,0 262,20 352,46 184,53 368,167 463,288 24,30 47,55 50,55 6,1 6,7 8,-204 l 1,-160 h 180 180 v 463 c 0,254 0,756 0,1115 v 652 l -194,3 -195,2 -3,-652 c -4,-652 -4,-653 -27,-728 -54,-174 -129,-287 -250,-378 -145,-110 -310,-158 -505,-149 -315,14 -490,150 -577,447 -22,74 -22,88 -26,768 l -4,692 h -200 -200 z"
       id="path28" />
    <path
       d="m 26407,1228 c -87,-154 -137,-254 -133,-265 14,-35 250,-158 400,-208 92,-31 407.306,-81.92383 446.306,-81.92383 23,0 892.509,30.62486 26.458,76.34155 -27,54 72.486,16.98573 18.486,71.98573 -74,75 144,-58 0,0 -35,14 271.284,71.20807 119.75,176.59655 -90.268,-46.74979 -235.408,-8.30744 -235.408,-8.30744 C 26988.356,964.01537 26580,1176 26543,1199 c -38,23 -78,49 -90,57 -20,15 -22,13 -46,-28 z"
       id="path30" />
    <path
       style="display:inline;fill:#ffff00;fill-opacity:1;stroke:#fbff00;stroke-opacity:1"
       d="m 14265,10860 c 152,-15 238,-34 395,-87 160,-54 369,-158 500,-251 137,-97 359,-321 447,-452 257,-382 363,-813 309,-1252 -41,-324 -162,-626 -354,-881 -174,-232 -393,-418 -637,-540 -222,-111 -379,-158 -640,-193 -239,-31 -567,3 -784,81 -438,158 -782,440 -1001,818 -176,307 -244,532 -256,857 -18,447 116,862 393,1218 282,362 720,610 1183,671 47,6 96,13 110,15 55,8 231,5 335,-4 z"
       id="path3936" />
    <path
       style="fill:#ffff00;fill-opacity:1"
       d="m 15300,7345 c 130,-66 321,-213 458,-353 171,-174 290,-337 393,-538 167,-328 249,-658 249,-1009 0,-145 -14,-332 -25,-343 -3,-3 -10,0 -17,5 -7,5 -29,16 -48,24 -58,22 -206,106 -309,173 -593,387 -986,1063 -1018,1751 l -5,130 26,24 c 16,15 30,21 35,15 5,-5 41,-65 79,-134 145,-259 411,-707 449,-755 36,-46 43,-50 85,-53 43,-3 47,-1 68,33 38,62 40,58 -183,437 -48,81 -117,200 -153,265 -102,179 -139,245 -160,280 -18,31 -18,32 0,52 11,12 21,21 23,21 2,0 26,-11 53,-25 z"
       id="path3952" />
    <path
       d="m 14019,10441 c -16,-16 -29,-38 -29,-49 0,-32 21,-82 39,-92 10,-5 75,-14 145,-20 200.142,-16.982 381.893,-71.482 541.236,-161.717 103.387,-58.547 197.34,-132.1371 280.764,-220.283 196,-207 330,-525 347,-825 5,-92 13,-107 63,-123 42,-14 88,1 106,34 28,51 -2,304 -57,481 -114,367 -364,669 -694,838 -161,82 -272,117 -471,147 -193,29 -234,27 -271,-9 z"
       id="path4"
       style="fill:#000000;fill-opacity:1" />
    <path
       style="fill:#ffff00;fill-opacity:1"
       d="m 12935,7350 c 17,-19 16,-22 -33,-107 -28,-48 -147,-257 -266,-463 -179,-309 -216,-381 -216,-413 0,-53 35,-87 89,-87 37,0 44,4 75,48 19,26 67,103 107,172 40,69 94,161 119,205 91,156 204,351 254,439 28,49 56,91 63,93 7,3 24,-8 38,-24 26,-28 26,-29 20,-148 -3,-66 -13,-166 -21,-222 -15,-104 -72,-329 -98,-386 -8,-18 -18,-43 -21,-57 -4,-14 -45,-101 -90,-195 -135,-277 -299,-491 -530,-694 -175,-154 -315,-250 -523,-357 l -106,-55 -10,23 c -5,13 -10,135 -10,278 -1,279 9,369 64,590 86,342 226,617 451,885 141,167 377,367 546,462 68,38 74,39 98,13 z"
       id="path3950" />
    <path
       style="fill:#ffff00;fill-opacity:1"
       d="m 17584,7488 c 194,-200 321,-377 437,-611 73,-146 75,-139 -36,-158 -369,-62 -688,201 -661,546 10,131 85,355 119,355 6,0 70,-59 141,-132 z"
       id="path3948" />
    <path
       style="fill:#ffff00;fill-opacity:1"
       d="m 16195,8149 c 207,-20 450,-83 675,-176 82,-33 339,-174 389,-212 l 25,-19 -51,-103 c -69,-140 -96,-250 -96,-399 0,-167 42,-302 127,-413 21,-27 35,-51 33,-54 -12,-12 -262,69 -427,139 -194,82 -430,225 -591,356 -154,126 -348,339 -450,494 -70,107 -75,122 -55,154 l 17,24 50,-25 c 27,-14 136,-76 242,-137 106,-61 217,-124 247,-141 30,-17 99,-57 153,-89 53,-32 99,-58 101,-58 3,0 48,-25 101,-56 84,-48 102,-55 132,-49 79,15 107,89 56,144 -16,17 -104,73 -198,127 -361,205 -707,405 -745,429 -40,25 -40,26 -23,50 26,34 64,36 288,14 z"
       id="path3944" />
    <path
       style="fill:#ffff00;fill-opacity:1"
       d="m 12249,8144 c 12,-15 21,-29 21,-33 -1,-10 -184,-118 -497,-292 -439,-244 -513,-293 -513,-339 0,-55 59,-107 110,-97 15,4 81,37 146,75 137,80 504,289 709,404 l 140,78 23,-24 c 23,-23 24,-24 7,-57 -57,-112 -204,-296 -356,-446 -427,-422 -971,-657 -1574,-680 -168,-6 -341,2 -366,18 -11,7 -2,32 51,136 225,440 549,775 965,1000 130,70 185,94 320,140 201,69 414,115 615,132 169,15 176,14 199,-15 z"
       id="path3942" />
    <path
       style="fill:#ffff00;fill-opacity:1"
       d="m 17577,9515 c 252,-33 559,-129 768,-240 180,-96 359,-210 350,-225 -8,-13 -225,-155 -298,-195 -259,-142 -552,-236 -843,-270 -457,-53 -902,23 -1308,225 -125,62 -131,66 -129,94 1,16 4,30 6,32 2,2 251,4 553,4 622,1 610,-1 628,72 11,46 -7,96 -41,109 -14,5 -261,9 -561,9 -295,0 -547,3 -560,6 -30,8 -40,49 -17,74 62,69 459,223 710,276 217,45 525,57 742,29 z"
       id="path3940" />
    <path
       style="fill:#ffff00;fill-opacity:1"
       d="m 11177,9511 c 284,-42 604,-148 794,-264 62,-38 74,-49 77,-75 3,-26 -1,-30 -29,-36 -17,-3 -275,-6 -573,-6 -297,0 -546,-4 -552,-8 -20,-14 -44,-57 -44,-80 0,-37 27,-79 58,-90 18,-6 242,-10 577,-11 302,-1 552,-4 557,-7 4,-3 8,-20 8,-37 -1,-36 5,-33 -200,-124 -344,-153 -639,-210 -1025,-200 -394,11 -714,97 -1062,286 -97,53 -302,182 -302,191 0,11 90,72 217,149 268,160 554,262 873,310 175,27 450,27 626,2 z"
       id="path3938" />
    <path
       style="fill:#ffff00;fill-opacity:1"
       d="m 17164,11231 c 63,-141 215,-342 351,-466 47,-43 85,-83 85,-89 0,-13 -153,-165 -225,-223 -146,-117 -368,-248 -556,-327 -144,-60 -414,-143 -524,-160 -16,-2 -61,-9 -100,-16 -85,-13 -250,-18 -286,-8 -57,16 -46,59 23,94 26,13 106,57 176,97 70,40 273,156 451,257 235,134 326,191 332,208 15,39 10,69 -15,99 -19,22 -32,28 -63,27 -48,-2 -55,-5 -453,-232 -179,-101 -374,-213 -435,-247 -131,-74 -153,-83 -161,-60 -10,26 59,154 148,271 87,113 264,297 352,364 218,167 423,292 611,371 96,41 243,97 256,98 4,1 18,-26 33,-58 z"
       id="path3934" />
    <path
       style="fill:#60fcf5;fill-opacity:1"
       d="m 19224,12456 c 131,-14 242,-26 246,-26 4,0 10,-57 13,-127 l 6,-128 -45,-98 c -24,-53 -67,-150 -95,-215 -214,-490 -506,-945 -731,-1139 -147,-126 -309,-170 -473,-128 -156,40 -373,175 -537,334 -125,120 -191,203 -249,314 -59,114 -87,206 -99,326 -18,173 7,278 94,410 163,245 635,452 1151,505 111,11 493,-4 719,-28 z"
       id="path3928" />
    <path
       style="fill:#60fcf5;fill-opacity:1"
       d="m 22758,14900 c 156,-54 196,-195 121,-425 -30,-93 -57,-144 -199,-375 -88,-144 -174,-316 -208,-415 -30,-91 -69,-272 -92,-440 -37,-259 -71,-367 -148,-472 -59,-80 -205,-160 -342,-189 -247,-51 -591,-57 -1010,-18 -210,19 -355,26 -615,30 l -340,4 3,118 c 4,117 4,117 45,187 115,195 342,513 517,725 117,141 399,426 535,541 449,377 933,638 1345,723 111,23 116,23 228,25 79,1 116,-4 160,-19 z"
       id="path3920" />
    <path
       style="fill:#60fcf5;fill-opacity:1"
       d="m 17162,15147 c 355,-107 689,-297 1079,-611 41,-33 158,-143 260,-245 210,-210 409,-451 570,-693 83,-124 229,-361 229,-372 0,-1 43,-81 96,-177 l 95,-174 -6,-135 c -4,-74 -8,-136 -8,-136 -1,-1 -42,4 -92,12 -189,29 -457,45 -805,49 -475,4 -672,21 -938,81 -242,53 -375,137 -462,288 -53,91 -82,241 -95,481 -20,361 -56,492 -232,835 -151,295 -195,423 -194,572 1,86 17,137 59,181 58,62 112,77 252,73 78,-2 127,-10 192,-29 z"
       id="path3918" />
    <path
       style="fill:#ffff00;fill-opacity:1"
       d="m 10790,11336 c 403,-71 746,-224 1062,-472 101,-79 311,-285 384,-375 121,-151 192,-285 165,-312 -15,-15 -36,-4 -436,224 -187,106 -387,219 -445,252 -129,73 -184,84 -224,44 -17,-17 -26,-37 -26,-57 0,-60 13,-71 220,-187 69,-39 240,-136 380,-215 140,-80 287,-161 326,-181 87,-44 101,-59 86,-92 -10,-21 -19,-25 -59,-27 -319,-13 -761,103 -1094,287 -207,114 -356,223 -517,379 -137,133 -231,243 -304,356 -76,118 -228,372 -228,382 0,7 14,12 70,22 14,3 131,3 260,1 197,-3 258,-7 380,-29 z"
       id="path3932" />
    <path
       style="fill:#ffff00;fill-opacity:1"
       d="m 16390,12894 c 15,-110 11,-398 -5,-529 -33,-255 -119,-521 -247,-765 -74,-141 -113,-199 -239,-355 -151,-189 -374,-387 -577,-514 -58,-37 -102,-37 -102,0 0,11 44,97 97,192 53,95 115,206 138,247 23,41 60,107 82,145 148,261 213,386 213,409 0,17 -12,39 -30,58 -27,26 -36,30 -68,25 -44,-7 -66,-32 -124,-137 -23,-41 -66,-118 -96,-170 -75,-129 -214,-374 -305,-535 -73,-130 -81,-140 -103,-137 -40,7 -46,30 -40,152 18,321 89,594 227,879 188,389 459,690 854,950 146,96 296,174 308,162 5,-5 13,-40 17,-77 z"
       id="path3926" />
    <path
       style="fill:#ffff00;fill-opacity:1"
       d="m 11923,12915 c 102,-57 176,-103 277,-172 139,-96 382,-322 491,-458 293,-367 478,-864 502,-1348 3,-65 0,-80 -15,-97 -35,-37 -35,-37 -168,195 -56,99 -127,223 -158,275 -30,52 -78,136 -107,185 -181,313 -185,318 -247,318 -21,0 -39,-8 -55,-27 -42,-50 -33,-83 87,-291 205,-359 263,-460 310,-543 29,-52 68,-119 86,-150 41,-67 42,-79 9,-94 -35,-16 -61,-2 -230,124 -171,128 -310,259 -417,392 -306,380 -489,835 -517,1284 -8,131 1,442 14,463 10,14 14,13 138,-56 z"
       id="path3924" />
    <path
       style="fill:#ffff00;fill-opacity:1"
       d="m 14153,13503 c 332,-502 459,-1026 387,-1590 -25,-193 -74,-385 -142,-552 -60,-148 -90,-210 -130,-269 -24,-35 -35,-43 -56,-40 -27,3 -27,3 -34,113 -3,61 -6,315 -7,565 v 455 l -26,33 c -39,48 -104,40 -139,-18 -15,-26 -16,-80 -16,-580 1,-302 -2,-555 -5,-560 -3,-6 -17,-10 -30,-10 -36,0 -104,119 -188,330 -203,509 -218,1037 -45,1540 49,141 152,366 220,480 60,98 130,199 140,200 3,0 35,-44 71,-97 z"
       id="path3922" />
  </g>
</svg>
