<?xml version="1.0" encoding="UTF-8" standalone="no"?>
<!-- Created with Inkscape (http://www.inkscape.org/) -->

<svg
   width="683.30573mm"
   height="323.86145mm"
   viewBox="0 0 683.30573 323.86145"
   version="1.1"
   id="svg5"
   xmlns="http://www.w3.org/2000/svg"
   xmlns:svg="http://www.w3.org/2000/svg">
  <defs
     id="defs2" />
  <g
     id="layer1"
     transform="translate(217.70098,-102.96525)">
    <path
       style="fill:#000000;stroke-width:0.264583"
       d="m 117.47866,426.27611 c -3.30142,-1.49514 -5.98731,-6.58154 -7.81251,-14.79503 -0.3719,-1.67349 -0.74316,-3.26493 -0.82505,-3.53655 -0.0819,-0.27159 -1.09373,-1.51117 -2.24851,-2.75455 -1.43592,-1.54614 -2.37971,-2.85358 -2.98587,-4.13636 -1.40579,-2.97511 -3.01025,-10.28224 -3.57804,-16.29545 -0.164414,-1.74093 -0.614391,-3.96349 -1.205311,-5.95313 -2.268088,-7.63682 -3.349969,-13.51274 -3.824076,-20.76979 -0.156871,-2.40109 -0.550783,-6.27062 -0.875321,-8.59896 -0.551418,-3.95586 -0.590629,-5.1958 -0.598355,-18.9177 -0.0071,-12.8669 -0.06334,-14.90227 -0.453311,-16.44482 -0.695272,-2.75024 -1.481799,-8.7371 -1.66317,-12.65935 -0.09083,-1.96453 -0.230267,-3.75047 -0.309854,-3.96875 -0.07961,-0.21828 -0.773324,2.72898 -1.541568,6.54947 -3.115522,15.49326 -6.764814,28.08454 -11.291305,38.95886 -2.063645,4.95761 -5.966275,12.68601 -8.653066,17.13572 -9.344183,15.47524 -23.202185,26.28693 -41.252271,32.18407 -20.3924322,6.66239 -37.7987322,7.50028 -63.282405,3.04617 -17.822434,-3.11507 -30.601107,-6.83643 -41.936458,-12.21261 -4.563421,-2.16437 -5.006081,-2.41657 -10.205361,-5.8148 -5.82534,-3.80743 -15.077618,-10.98433 -21.346898,-16.55863 -1.42383,-1.26598 -3.42002,-3.0122 -4.43597,-3.88046 -3.28412,-2.8067 -10.70788,-10.25816 -12.79341,-12.84112 -5.63752,-6.98217 -8.41464,-12.90667 -9.48783,-20.24063 -1.4949,-10.21583 3.72673,-20.98787 13.90314,-28.68169 6.82933,-5.16329 14.58636,-9.00579 27.432998,-13.58914 6.18713,-2.20741 23.656317,-7.97203 25.532289,-8.42535 0.976292,-0.23591 1.258107,-0.38238 0.856308,-0.44504 -1.988658,-0.31013 -20.032057,2.46399 -34.174605,5.25424 -11.23622,2.21684 -16.70141,2.77164 -25.02232,2.54011 -7.3451,-0.20437 -10.23196,-0.81212 -16.27188,-3.42561 -6.35267,-2.74882 -11.47473,-5.97532 -17.64292,-11.11368 -7.14951,-5.95583 -22.58199,-22.28165 -28.85335,-30.52357 -3.26272,-4.28791 -8.15766,-12.29146 -11.03856,-18.04876 -4.30641,-8.60609 -8.82377,-21.45664 -11.93998,-33.96566 -1.30498,-5.23843 -1.656,-6.77532 -2.49348,-10.91751 -2.23275,-11.0431 -3.03303,-18.43649 -2.83134,-26.15723 0.20358,-7.79269 1.1129,-11.84331 3.59763,-16.02572 4.08396,-6.87433 12.2548,-11.08244 25.69367,-13.23267 6.38968,-1.02235 16.82324,-1.3756 23.68021,-0.80175 10.57619,0.88511 23.87194,3.4991 34.50024,6.78287 10.34827,3.19724 29.58222,10.76094 48.182048,18.94746 9.354673,4.11736 27.590521,12.10196 33.072912,14.48104 2.255573,0.97881 5.232135,2.28567 6.614583,2.90414 1.382448,0.61847 5.251979,2.24744 8.598959,3.61992 3.346979,1.37248 7.21651,2.98365 8.598958,3.58038 5.630873,2.43055 8.434583,3.57094 16.1395828,6.56462 23.3625462,9.07725 29.7894632,11.62797 44.1854152,17.5363 4.379489,1.79742 17.110101,7.41625 20.240625,8.93349 6.255094,3.03159 15.462541,8.06557 19.976041,10.92149 6.348174,4.01682 9.248537,6.01363 10.734437,7.3903 l 1.606312,1.48824 1.557655,-3.09353 c 1.325165,-2.63181 1.875207,-3.41205 3.685354,-5.22768 1.635496,-1.64045 2.639748,-2.39024 4.341151,-3.24114 1.217401,-0.60885 2.37826,-1.10699 2.579688,-1.10699 0.452909,0 0.453129,0.008 -0.03064,-1.14982 -0.905166,-2.16639 -0.148749,-4.43344 1.916219,-5.743 0.67656,-0.42906 1.39732,-0.7801 1.60171,-0.7801 0.20439,0 -0.21736,-0.64444 -0.93724,-1.4321 -1.86563,-2.04129 -2.569471,-4.29514 -2.38514,-7.63756 0.10123,-1.83582 0.31917,-2.89816 0.88046,-4.2918 1.28638,-3.19397 4.5657,-5.90052 7.72281,-6.37396 0.62127,-0.0932 1.201,-0.285 1.28834,-0.4263 0.30903,-0.50002 -4.45241,-4.81156 -7.96163,-7.20937 -1.01378,-0.69269 -1.96628,-1.40728 -2.116666,-1.58797 -0.150389,-0.18069 -0.749696,-0.60749 -1.33178,-0.94845 -0.582083,-0.34096 -1.472406,-0.95454 -1.978501,-1.3635 -0.506121,-0.40897 -1.077066,-0.74357 -1.268809,-0.74357 -0.191744,0 -0.64778,-0.29915 -1.013407,-0.66478 -0.365628,-0.36562 -1.282938,-0.97407 -2.038483,-1.3521 -0.755544,-0.37803 -1.611841,-0.89247 -1.902883,-1.1432 -0.291042,-0.25073 -1.084209,-0.66015 -1.762601,-0.90983 -0.678392,-0.24967 -1.297252,-0.62025 -1.375251,-0.8235 -0.078,-0.20326 -0.763641,-0.55422 -1.523683,-0.77992 -0.760015,-0.2257 -1.670976,-0.59982 -2.02438,-0.83137 -0.353377,-0.23154 -1.302385,-0.64802 -2.108888,-0.9255 -0.806476,-0.27747 -1.606338,-0.62067 -1.777418,-0.76266 -0.341312,-0.28326 -3.064933,-1.26647 -6.361112,-2.2963 -1.164167,-0.36373 -3.545416,-1.11785 -5.291666,-1.67583 -1.74625,-0.55799 -5.318125,-1.57225 -7.9375,-2.25392 -12.412132,-3.23014 -22.384966,-6.31838 -26.458332,-8.19322 -0.436562,-0.20094 -1.421844,-0.6122 -2.189533,-0.91393 -4.259024,-1.67396 -17.178763,-8.42723 -20.988766,-10.97103 -0.6794285,-0.45363 -2.1075942,-1.36057 -3.1737002,-2.01541 -2.482792,-1.52503 -6.50314398,-4.21163 -8.705292,-5.81731 -0.945885,-0.68969 -3.029479,-1.94855 -4.630208,-2.79746 -1.600729,-0.84892 -3.386667,-1.88115 -3.96875,-2.29385 -0.5820828,-0.41271 -1.3559898,-0.94961 -1.7197918,-1.19311 -0.867179,-0.58042 -2.27534,-1.73656 -3.490248,-2.8656 -0.537189,-0.49922 -1.21761,-0.90767 -1.512046,-0.90767 -0.294436,0 -0.657675,-0.22859 -0.807199,-0.50798 -0.149524,-0.27939 -0.679741,-0.64259 -1.178263,-0.80711 -0.49852,-0.16453 -1.097492,-0.59079 -1.331048,-0.94723 -0.233553,-0.35645 -0.553593,-0.6481 -0.711194,-0.6481 -0.157605,0 -0.520687,-0.29765 -0.806855,-0.66145 -0.286168,-0.36381 -0.691338,-0.66146 -0.900383,-0.66146 -0.209044,0 -0.753842,-0.35719 -1.210664,-0.79375 -0.456819,-0.43657 -0.927418,-0.79375 -1.045771,-0.79375 -0.473213,0 -5.811351,-3.75271 -6.215467,-4.36947 -0.348583,-0.532 -0.368853,-0.7371 -0.104347,-1.05582 0.780553,-0.9405 2.801007,-0.26858 6.584022,2.18957 0.916876,0.59577 1.815295,1.02634 1.99649,0.95681 0.181194,-0.0695 0.482161,0.0576 0.668814,0.28249 0.186653,0.2249 0.484931,0.40892 0.662842,0.40892 0.177908,0 0.5456,0.24545 0.817094,0.54545 0.312735,0.34557 0.690142,0.49405 1.029901,0.40521 0.371623,-0.0972 0.710819,0.0786 1.10476,0.5727 0.324244,0.40664 0.837192,0.71567 1.193919,0.71927 0.395033,0.004 0.722902,0.22986 0.890018,0.61312 0.197411,0.45275 0.413036,0.5697 0.84931,0.46064 0.412438,-0.10309 0.668549,0.0104 0.869207,0.38539 0.156461,0.29235 0.549304,0.53155 0.872982,0.53155 0.323678,0 0.743437,0.24809 0.932802,0.55131 0.189362,0.30322 0.506674,0.489 0.705133,0.41284 0.200228,-0.0768 0.552929,0.1547 0.792403,0.52018 0.287258,0.43842 0.588073,0.60898 0.899634,0.51009 0.3177538,-0.10085 0.5786618,0.0581 0.8124338,0.49489 0.1894,0.3539 0.483873,0.58991 0.654386,0.52448 0.170514,-0.0654 0.592955,0.1822 0.938758,0.55029 0.345805,0.36809 0.782383,0.66925 0.970179,0.66925 0.187796,0 0.468887,0.23813 0.624647,0.52917 0.15576,0.29104 0.449583,0.52917 0.652939,0.52917 0.203353,0 0.4411,0.22485 0.528323,0.49967 0.08723,0.27481 0.422669,0.78846 0.745434,1.14144 0.322765,0.35298 1.152618,1.30824 1.844119,2.12281 0.691499,0.81456 1.76306202,1.73236 2.38125002,2.03954 0.618186,0.30718 1.48116398,0.85288 1.91772698,1.21267 0.436562,0.35979 0.942234,0.65475 1.123717,0.65547 0.18148,7.9e-4 0.776793,0.40223 1.322917,0.89225 0.546121,0.49001 1.290605,0.98324 1.654407,1.09606 0.363802,0.11282 1.129374,0.60487 1.701271,1.09344 0.571897,0.48857 1.2662324,0.88831 1.5429707,0.88831 0.2767383,0 1.0117115,0.41672 1.6332725,0.92605 0.62156,0.50932 1.363464,0.92604 1.648672,0.92604 0.285208,0 0.860769,0.35718 1.279022,0.79375 0.418254,0.43656 0.988941,0.79375 1.268198,0.79375 0.279255,0 0.958721,0.35718 1.509927,0.79375 0.551207,0.43656 1.207453,0.79375 1.458357,0.79375 0.250878,0 0.862965,0.35718 1.360196,0.79375 0.566315,0.49724 1.194806,0.79375 1.682459,0.79375 0.538401,0 0.912125,0.20398 1.211871,0.66145 0.299879,0.45771 0.673418,0.66146 1.212586,0.66146 0.479557,0 1.234678,0.34779 1.963684,0.90444 0.678895,0.51836 1.66034,0.98424 2.299229,1.0914 0.613119,0.10283 1.590993,0.51688 2.173076,0.9201 0.582084,0.40322 1.577843,0.80863 2.21279,0.9009 0.634974,0.0923 1.671743,0.52365 2.303992,0.95864 0.74414,0.51199 1.424014,0.76996 1.927992,0.73156 0.496544,-0.0378 1.168321,0.21083 1.854861,0.6866 0.698686,0.48418 1.490345,0.77383 2.256182,0.82546 0.728583,0.0491 1.564825,0.34115 2.186437,0.76355 0.692573,0.47061 1.357683,0.68402 2.131854,0.68402 0.774012,0 1.518735,0.23888 2.385986,0.76534 0.936731,0.56865 1.480026,0.73118 2.113968,0.63241 0.61759,-0.0962 1.184142,0.061 2.051605,0.56936 0.925936,0.54264 1.400784,0.66432 2.088833,0.53524 0.642752,-0.12058 1.203007,-0.008 2.013929,0.40609 0.701516,0.3579 1.360514,0.51364 1.754716,0.4147 0.39669,-0.0996 1.048967,0.0575 1.755325,0.42277 0.629603,0.32556 1.666135,0.59623 2.356459,0.61535 0.864208,0.0239 1.564746,0.25404 2.344684,0.77018 0.801609,0.53047 1.192689,0.65564 1.400175,0.44814 0.470879,-0.47087 1.078389,-0.33515 2.390696,0.53408 0.952579,0.63097 1.324081,0.75303 1.598533,0.52525 0.272997,-0.22657 0.715619,-0.1084 1.871768,0.49977 0.947103,0.49821 1.732042,0.74184 2.095871,0.65052 0.362267,-0.0909 1.139507,0.14744 2.060548,0.63194 0.947261,0.49829 1.720506,0.73173 2.151142,0.64941 0.467016,-0.0893 1.039574,0.12419 1.875367,0.69922 0.845423,0.58168 1.386575,0.78169 1.820386,0.67281 0.441378,-0.11078 1.000548,0.10866 1.961832,0.76992 0.908606,0.62501 1.527546,0.87699 1.909048,0.77723 0.592032,-0.15482 2.671895,1.01887 2.671895,1.50777 0,0.14346 0.471461,0.26083 1.047671,0.26083 0.882676,0 1.20187,0.16666 2.026867,1.05834 0.76618,0.82808 1.171495,1.05833 1.863037,1.05833 0.686461,0 1.117785,0.24107 1.931432,1.07948 0.786024,0.80993 1.180914,1.03717 1.581441,0.91004 0.39952,-0.1268 0.85844,0.13418 1.823825,1.03719 0.751893,0.70331 1.541913,1.20662 1.893941,1.20662 0.380919,0 0.999069,0.4397 1.673829,1.19063 0.64207,0.71453 1.29876,1.19062 1.6423,1.19062 0.36176,0 0.9829,0.48682 1.68791,1.32292 0.61351,0.7276 1.33546,1.32292 1.60427,1.32292 0.26885,0 0.99111,0.59998 1.60507,1.33328 0.61397,0.73331 1.48931,1.48915 1.94519,1.67963 0.4559,0.19049 1.17147,0.84066 1.59017,1.44484 0.86363,1.2462 0.75822,1.2035 1.92728,0.78076 0.7624,-0.27568 0.88178,-0.44201 0.90202,-1.25677 0.15695,-6.31666 1.28984,-10.67476 3.58561,-13.7933 1.82263,-2.4759 2.03943,-2.24584 2.26764,2.4062 0.10342,2.10841 0.28241,4.66692 0.39774,5.68556 0.20122,1.77717 0.23644,1.84845 0.8703,1.76226 1.38131,-0.18782 4.64688,-0.16595 5.04491,0.0338 0.36193,0.18161 0.47337,-0.38215 0.86308,-4.36562 0.24611,-2.51579 0.44606,-5.13971 0.44431,-5.83094 -0.003,-0.90866 0.10052,-1.25677 0.37118,-1.25677 0.43662,0 2.36779,2.34379 3.08296,3.74164 1.05076,2.05383 2.08393,7.28874 2.0937,10.60846 l 0.005,1.78238 0.95834,0.40043 c 0.52711,0.22023 1.03312,0.39608 1.12448,0.39076 0.0914,-0.005 0.49877,-0.53478 0.90533,-1.1766 0.47971,-0.7573 1.10665,-1.32905 1.78594,-1.62875 0.5757,-0.254 1.04674,-0.53654 1.04674,-0.62786 0,-0.43314 1.95149,-2.37796 2.38612,-2.37796 0.27104,0 0.99478,-0.59531 1.6083,-1.32292 0.79941,-0.94804 1.30995,-1.32576 1.80168,-1.33295 0.49514,-0.007 0.8881,-0.30194 1.41128,-1.05834 0.53687,-0.77617 0.9075,-1.04829 1.42777,-1.04829 0.4684,0 1.12933,-0.39907 1.98221,-1.19684 0.97885,-0.91562 1.42049,-1.16186 1.87952,-1.04795 0.46993,0.11661 0.84894,-0.1164 1.74834,-1.07481 0.95509,-1.01776 1.26077,-1.19548 1.81642,-1.05603 0.55197,0.13854 0.8772,-0.0445 1.87185,-1.05337 0.94752,-0.96109 1.33389,-1.18839 1.8149,-1.06766 0.44432,0.11151 0.95123,-0.10622 1.85698,-0.79759 0.88665,-0.67678 1.43312,-0.91517 1.8954,-0.8268 0.45958,0.0879 1.00176,-0.1447 1.85393,-0.79518 0.97296,-0.74266 1.35806,-0.88862 2.00383,-0.75946 0.62944,0.12589 1.04502,-0.0165 1.95463,-0.66973 0.93088,-0.66851 1.33009,-0.80124 2.05576,-0.68348 0.4953,0.0804 0.97033,0.0332 1.05564,-0.1048 0.37118,-0.60059 2.29478,-1.33082 3.06189,-1.16234 0.45026,0.0989 0.93556,0.0455 1.14178,-0.12562 0.89175,-0.74011 2.37453,-1.27308 2.80093,-1.00678 0.3307,0.20652 0.69728,0.0763 1.57501,-0.55953 1.1602,-0.84045 1.95998,-1.04178 2.25327,-0.56722 0.0956,0.15468 0.81786,-0.0698 1.76835,-0.54959 1.06862,-0.53944 1.81694,-0.7583 2.23448,-0.6535 0.40362,0.10131 1.10064,-0.0821 1.95223,-0.51359 0.8527,-0.43209 1.54839,-0.61495 1.95318,-0.51336 0.40886,0.10262 1.11599,-0.0891 2.02224,-0.54835 1.1798,-0.59786 1.48444,-0.65749 1.98641,-0.38884 0.5057,0.27064 0.77346,0.21149 1.82078,-0.40229 0.84905,-0.49757 1.45013,-0.67548 1.94816,-0.57663 0.50046,0.0993 1.14297,-0.0936 2.10534,-0.63202 0.83293,-0.46606 1.77361,-0.77497 2.35984,-0.77497 0.59841,0 1.52866,-0.31258 2.40919,-0.80952 1.0278,-0.58006 1.63619,-0.7652 2.1463,-0.65315 0.52925,0.11624 1.03762,-0.0594 1.98123,-0.6844 0.76187,-0.50463 1.66346,-0.863 2.25518,-0.89638 0.54221,-0.0306 1.4556,-0.35779 2.02972,-0.72711 0.57415,-0.36931 1.52014,-0.75275 2.10222,-0.85208 0.58208,-0.0993 1.60454,-0.52861 2.27211,-0.95398 0.66778,-0.42548 1.58107,-0.77338 2.03028,-0.77338 0.53102,0 1.25582,-0.33538 2.07322,-0.95931 0.69123,-0.52762 1.5874,-0.97594 1.99152,-0.99626 0.40413,-0.0203 1.07461,-0.36254 1.48995,-0.76049 0.41537,-0.39794 1.01245,-0.72353 1.32683,-0.72353 0.31441,0 0.97846,-0.35718 1.47566,-0.79375 0.49723,-0.43656 1.16189,-0.79375 1.47707,-0.79375 0.31514,0 0.83521,-0.28207 1.15567,-0.62682 0.32049,-0.34475 0.95292,-0.70773 1.40541,-0.80661 0.45249,-0.0989 1.15938,-0.53118 1.57083,-0.96067 0.41148,-0.42949 0.95205,-0.7809 1.20126,-0.7809 0.24922,0 1.07466,-0.46702 1.83433,-1.03784 0.7597,-0.57081 1.52049,-0.98441 1.69064,-0.91911 0.17018,0.0653 0.82711,-0.32441 1.45986,-0.86601 0.63276,-0.54161 1.36491,-1.00054 1.62703,-1.01986 0.26213,-0.0193 0.96047,-0.47226 1.55186,-1.00656 0.5914,-0.5343 1.20664,-0.97145 1.36718,-0.97145 0.16053,0 0.72573,-0.33594 1.25601,-0.74653 0.53025,-0.4106 1.36078,-0.90531 1.8456,-1.09938 0.92869,-0.37174 4.20933,-3.88617 4.93181,-5.28324 0.22989,-0.44459 0.58936,-0.80835 0.79877,-0.80835 0.20942,0 0.50821,-0.23812 0.66398,-0.52916 0.15576,-0.29105 0.45341,-0.52917 0.66145,-0.52917 0.20805,0 0.5057,-0.23813 0.66146,-0.52917 0.15976,-0.29853 0.55399,-0.52916 0.90451,-0.52916 0.40764,0 0.67098,-0.19012 0.76586,-0.55289 0.10409,-0.39799 0.28416,-0.50859 0.64278,-0.39477 0.3361,0.10667 0.68897,-0.0613 1.08458,-0.51631 0.32252,-0.37093 0.68609,-0.61281 0.80793,-0.53751 0.12184,0.0753 0.4345,-0.0984 0.69477,-0.38601 0.2603,-0.28761 0.68617,-0.52293 0.94641,-0.52293 0.26025,0 0.65323,-0.25708 0.87331,-0.5713 0.3111,-0.44417 0.48091,-0.50427 0.76306,-0.2701 0.28522,0.2367 0.48773,0.1324 0.9457,-0.48703 0.32052,-0.43353 0.80867,-0.78824 1.08482,-0.78824 0.27612,0 0.74374,-0.30728 1.03918,-0.68285 0.40018,-0.50876 0.6809,-0.63723 1.10103,-0.50388 0.40633,0.12897 0.67247,0.024 0.95229,-0.37547 0.2136,-0.30496 0.54563,-0.55446 0.73785,-0.55446 0.19219,0 0.50218,-0.18402 0.68884,-0.40892 0.18664,-0.2249 0.49924,-0.34757 0.69464,-0.27258 0.19542,0.075 1.3313,-0.51327 2.52417,-1.30722 3.37,-2.24299 6.05372,-2.88917 6.25004,-1.50487 0.0609,0.42928 -0.20653,0.87554 -0.91159,1.52136 -0.54877,0.50264 -1.10265,0.91389 -1.23084,0.91389 -0.12822,0 -1.11927,0.59531 -2.20237,1.32292 -1.0831,0.7276 -2.06758,1.32292 -2.18773,1.32292 -0.12018,0 -0.445,0.25031 -0.72189,0.55625 -0.27686,0.30594 -0.86085,0.73879 -1.29776,0.96189 -0.4369,0.22309 -0.8896,0.56809 -1.00597,0.76666 -0.11636,0.19857 -0.36512,0.36103 -0.55279,0.36103 -0.18767,0 -0.72044,0.41672 -1.18391,0.92604 -0.46347,0.50932 -1.01954,0.92604 -1.23571,0.92604 -0.21619,0 -0.60026,0.24803 -0.85349,0.55118 -0.25323,0.30315 -0.90913,0.73369 -1.45756,0.95676 -0.54843,0.22306 -1.20624,0.65964 -1.4618,0.97017 -1.09125,1.32594 -5.48426,4.36499 -8.76879,6.06618 -1.39184,0.72087 -3.49234,1.99361 -4.66778,2.8283 -2.90894,2.06564 -9.55913,6.4287 -10.68919,7.01298 -0.50607,0.26165 -1.6967,0.97527 -2.64584,1.58582 -3.25495,2.0938 -5.12254,3.13404 -10.69562,5.95747 -10.88165,5.51281 -17.72269,8.01758 -33.23114,12.16717 -12.07262,3.23028 -22.22127,6.39722 -24.25649,7.56938 -0.60799,0.35017 -1.33551,0.63667 -1.61671,0.63667 -0.2812,0 -0.94218,0.29241 -1.46881,0.6498 -0.52665,0.35739 -1.43082,0.77724 -2.00927,0.933 -0.57846,0.15576 -1.38457,0.56048 -1.79137,0.89937 -0.40679,0.3389 -1.18914,0.76272 -1.73855,0.94183 -0.5494,0.1791 -1.33127,0.60531 -1.73749,0.94713 -0.40624,0.34181 -1.23984,0.82204 -1.85248,1.06717 -0.61264,0.24513 -1.25952,0.65247 -1.43751,0.9052 -0.17798,0.25273 -0.85939,0.73191 -1.51423,1.06484 -0.65485,0.33292 -1.3271,0.79904 -1.49392,1.0358 -0.16679,0.23677 -0.83153,0.6943 -1.47717,1.01676 -0.64563,0.32245 -1.38985,0.82491 -1.6538,1.11657 -0.26398,0.29167 -1.02799,0.85005 -1.69783,1.24085 -0.66985,0.3908 -1.33697,0.84514 -1.48249,1.00965 -0.14552,0.16451 -0.74083,0.6472 -1.32292,1.07265 -1.49757,1.09459 -5.42396,4.89905 -5.42396,5.25553 0,0.16378 0.60497,0.4415 1.34435,0.61713 2.05238,0.48753 3.65056,1.38581 5.18711,2.91551 2.25988,2.24977 3.35049,4.98116 3.32012,8.31496 -0.0254,2.79401 -0.61336,4.62861 -2.12278,6.62433 l -1.25741,1.66255 1.31951,0.79375 c 0.72572,0.43656 1.60181,1.21047 1.94686,1.71979 0.53776,0.79379 0.60888,1.15276 0.49807,2.51354 -0.0711,0.87313 -0.20891,1.83406 -0.30623,2.1354 -0.14996,0.46438 -0.0177,0.59559 0.86718,0.86073 1.56755,0.46965 4.75784,2.67725 6.41421,4.43849 1.58131,1.68141 3.01189,3.88534 4.12806,6.35966 0.38494,0.85336 0.72821,1.58761 0.76279,1.63167 0.0346,0.0441 0.70154,-0.53314 1.48209,-1.28268 1.95143,-1.87386 9.77077,-7.03291 16.50045,-10.88666 4.33975,-2.48515 14.205,-7.5873 16.95849,-8.77066 1.15033,-0.49437 2.86541,-1.26017 3.8113,-1.70178 0.94588,-0.4416 2.61276,-1.18468 3.70417,-1.65129 1.0914,-0.4666 2.84757,-1.25359 3.90257,-1.74887 2.48701,-1.16753 6.95839,-3.02142 14.35368,-5.95119 3.27421,-1.29714 6.31031,-2.53336 6.74687,-2.74715 0.43656,-0.21378 2.99641,-1.23511 5.68854,-2.26961 4.64815,-1.78612 9.77054,-3.765 12.96459,-5.00846 0.80036,-0.31158 2.11005,-0.85045 2.91041,-1.19747 0.80037,-0.34702 4.13412,-1.65741 7.40833,-2.91197 6.42115,-2.46035 10.76675,-4.20451 13.49375,-5.41594 0.94589,-0.42018 4.75589,-2.01323 8.46667,-3.5401 3.71078,-1.52687 8.41375,-3.50624 10.45104,-4.39862 2.03729,-0.89237 5.78776,-2.52213 8.33438,-3.62168 2.54661,-1.09956 6.65427,-2.89706 9.12812,-3.99445 8.1842,-3.63048 9.75765,-4.32314 13.36146,-5.8819 6.39302,-2.76518 8.58525,-3.71863 9.39271,-4.08507 4.02357,-1.82596 5.52262,-2.46301 14.02291,-5.95933 2.7649,-1.13725 7.22974,-2.98156 9.92188,-4.09847 4.40994,-1.82959 7.62728,-3.07673 15.68267,-6.07908 7.91314,-2.94933 17.70886,-5.67559 27.0959,-7.54111 17.46539,-3.47096 33.89011,-3.56344 46.95754,-0.26442 9.24501,2.33401 14.99785,5.71925 18.51773,10.89672 2.99048,4.39876 4.72425,12.77693 4.34047,20.97488 -0.37296,7.96758 -1.56073,16.1221 -3.77672,25.92916 -0.65765,2.91042 -1.29368,5.76792 -1.41343,6.35 -1.79898,8.74424 -7.20555,24.37048 -11.67188,33.73438 -6.38056,13.37725 -13.99728,23.42585 -30.24791,39.90548 -8.3082,8.42528 -12.75789,12.26022 -18.63632,16.06162 -3.2734,2.11681 -9.80826,5.28045 -13.0138,6.30021 -5.10733,1.62476 -7.15007,1.88443 -14.78425,1.87931 -7.98182,-0.005 -11.7076,-0.38584 -20.68857,-2.11276 -9.96463,-1.91607 -12.73481,-2.42237 -18.60206,-3.39985 -7.0904,-1.18125 -12.62379,-1.94106 -15.47812,-2.12533 l -2.24896,-0.14519 4.49792,1.46697 c 16.33384,5.32721 26.56901,8.97933 33.46979,11.94271 5.52124,2.37097 6.47234,2.84195 9.92187,4.91323 8.14877,4.89295 14.31171,11.09587 17.32516,17.43752 5.05854,10.64551 3.2354,22.15178 -5.35257,33.78144 -6.26121,8.47881 -27.89476,27.36697 -41.15674,35.93378 -5.78932,3.73972 -10.82505,6.18926 -18.83772,9.16331 -12.25002,4.54681 -34.87245,9.3335 -49.60937,10.49687 -4.71496,0.37222 -15.45077,0.38245 -19.57917,0.0188 -14.47755,-1.27572 -28.96558,-5.35938 -39.98598,-11.27065 -3.33883,-1.79093 -8.35601,-5.10788 -10.41714,-6.88694 -0.80037,-0.69083 -2.39784,-2.03795 -3.54997,-2.9936 -4.24447,-3.5206 -9.35281,-9.73998 -13.49783,-16.43349 -8.67677,-14.01164 -15.15274,-32.07705 -19.8702,-55.4302 -0.8231,-4.07459 -1.54483,-7.45794 -1.60385,-7.51858 -0.059,-0.0606 -0.11711,0.23703 -0.12907,0.66146 -0.0119,0.42444 -0.0615,1.06936 -0.11012,1.43316 -0.0486,0.3638 -0.15742,1.95304 -0.24188,3.53163 -0.18082,3.37982 -0.75165,7.46936 -1.55676,11.15274 -0.55334,2.53166 -0.5789,3.25668 -0.59234,16.80105 -0.0119,12.10333 -0.0802,14.5579 -0.47022,16.93333 -0.25091,1.52797 -0.56798,4.99832 -0.70461,7.71186 -0.45236,8.98329 -1.24368,13.87642 -3.56653,22.05376 -0.78539,2.7649 -1.50326,5.86052 -1.59526,6.87917 -0.092,1.01865 -0.40923,3.3999 -0.70495,5.29167 -1.38756,8.87605 -2.66295,12.12482 -6.18742,15.76093 -1.06762,1.10141 -2.00525,2.29204 -2.08364,2.64584 -1.909,8.61552 -3.89604,13.89814 -6.18125,16.43311 -1.1376,1.26193 -3.21744,2.32674 -4.55827,2.3337 -0.50932,0.003 -1.71545,-0.19748 -2.68028,-0.44471 -1.64822,-0.42238 -1.8379,-0.42251 -3.13923,-0.003 -1.82388,0.58904 -3.30565,0.55684 -4.76382,-0.10351 z"
       id="path882" />
  </g>
</svg>
