<?xml version="1.0" encoding="UTF-8" standalone="no"?>
<!-- Created with Inkscape (http://www.inkscape.org/) -->

<svg
   width="677.64532mm"
   height="312.69516mm"
   viewBox="0 0 677.64532 312.69516"
   version="1.1"
   id="svg1536"
   xmlns="http://www.w3.org/2000/svg"
   xmlns:svg="http://www.w3.org/2000/svg">
  <defs
     id="defs1533" />
  <g
     id="layer1"
     transform="translate(165.60444,-172.98603)">
    <path
       style="fill:#000000;stroke-width:0.264583"
       d="m 23.425715,485.44617 c -11.910576,-0.69488 -23.8425113,-3.40339 -37.693441,-8.55631 -2.48962,-0.92623 -5.062362,-1.91871 -5.717206,-2.20552 -5.149493,-2.25544 -16.967706,-8.2048 -20.505206,-10.32245 -13.92309,-8.33467 -21.26139,-13.3885 -30.01309,-20.66975 -11.86933,-9.87507 -18.01633,-19.363 -19.89919,-30.71453 -0.96463,-5.81562 -0.38441,-12.74442 1.50663,-17.99166 2.88087,-7.99385 8.57061,-15.06364 18.15361,-22.55677 5.89777,-4.61158 15.97756,-10.64462 23.6572,-14.15949 8.0683,-3.69276 11.29255,-5.08152 13.34171,-5.74661 3.530643,-1.14591 3.427844,-1.39904 -0.26458,-0.6515 -1.46857,0.29732 -23.22657,3.85346 -24.87083,4.06491 -4.4856,0.57683 -13.82287,1.25146 -19.18229,1.38595 -11.27433,0.28291 -18.33533,-1.04978 -26.011922,-4.9095 -6.64572,-3.3414 -14.02588,-9.36774 -21.75609,-17.76516 -4.71276,-5.11952 -7.48569,-8.57291 -12.31149,-15.33267 -2.57464,-3.60644 -6.99238,-10.50665 -6.99238,-10.92163 0,-0.0752 -0.49584,-0.95262 -1.10186,-1.94976 -1.42388,-2.34281 -5.08774,-9.69311 -6.77262,-13.58694 -4.67215,-10.79762 -8.52381,-23.61663 -10.6527,-35.45416 -1.57875,-8.7785 -1.95382,-12.5046 -1.94423,-19.31458 0.0164,-11.62971 1.50059,-19.04967 4.81262,-24.05973 1.43375,-2.16881 4.64251,-5.42104 6.69454,-6.78522 5.24951,-3.48987 12.97194,-6.02272 22.458,-7.36591 13.60378,-1.92625 24.15091,-1.69691 47.625002,1.03555 1.96453,0.22868 4.88156,0.65213 6.48229,0.94101 1.60073,0.28887 5.47026,0.94174 8.59896,1.45082 9.11972,1.4839 19.05302,3.54646 25.4,5.2741 0.80036,0.21785 2.34818,0.63929 3.43958,0.93653 1.09141,0.29724 2.93688,0.82747 4.10104,1.17829 1.16417,0.35082 4.319327,1.24962 7.011463,1.99731 9.555032,2.65377 36.1719087,11.38757 46.197252,15.15872 1.761352,0.66255 3.904477,1.44448 4.762499,1.73762 0.85802,0.29315 3.524571,1.26184 5.925664,2.15265 2.401094,0.89081 6.0325,2.20962 8.069792,2.93069 2.037291,0.72107 4.061354,1.48018 4.497916,1.68691 0.436563,0.20672 1.448594,0.61541 2.248959,0.9082 6.160277,2.25351 13.524793,5.15688 20.372916,8.03176 3.128697,1.31345 6.343385,2.65544 7.143749,2.98221 2.329604,0.9511 5.278676,2.22808 7.276042,3.15059 1.018646,0.47047 3.399896,1.55796 5.291667,2.41663 9.810855,4.45314 21.777059,10.78221 29.392239,15.5459 11.58066,7.2443 19.24812,13.18542 26.93276,20.86875 2.60218,2.60174 4.7574,4.69653 4.78936,4.65509 0.032,-0.0414 0.19193,-0.47164 0.35544,-0.95598 0.42711,-1.26505 2.54902,-4.36811 3.58859,-5.24795 0.48776,-0.41282 1.83269,-1.48574 2.98871,-2.38426 1.62907,-1.26617 2.17858,-1.86605 2.44282,-2.66669 0.31586,-0.95709 0.288,-1.1375 -0.37917,-2.45406 -0.96849,-1.91122 -1.42923,-4.68239 -1.15592,-6.95249 0.51221,-4.25481 2.9142,-7.1095 7.06015,-8.39082 0.91686,-0.28336 1.75029,-0.50312 1.85208,-0.48834 0.10176,0.0148 0.46315,0.0127 0.80311,-0.005 0.61357,-0.0311 0.61087,-0.0443 -0.3743,-1.81727 -1.45098,-2.61121 -4.1578,-6.15989 -7.14425,-9.36614 -6.42369,-6.89648 -14.58249,-12.37131 -24.98183,-16.76363 -0.94588,-0.39951 -2.34839,-1.00895 -3.11668,-1.3543 -0.7683,-0.34535 -1.54816,-0.62791 -1.73303,-0.62791 -0.18486,0 -0.44923,-0.10425 -0.58748,-0.23166 -0.13824,-0.12739 -1.44198,-0.6212 -2.89718,-1.09733 -4.3035,-1.40806 -12.59639,-4.38178 -14.02292,-5.02842 -4.37483,-1.98312 -9.142677,-4.42724 -11.90625,-6.10344 -16.033299,-9.72481 -33.184221,-25.00081 -45.866805,-40.85266 -3.867481,-4.83393 -6.468113,-8.49211 -6.330529,-8.90486 0.04695,-0.14084 1.774433,1.74561 3.838863,4.19211 6.715461,7.95828 7.783398,9.13162 13.822857,15.18708 6.597388,6.61488 9.136964,8.91914 14.974413,13.58692 7.886885,6.30659 9.827525,7.75343 14.798702,11.03316 8.860472,5.84569 15.280899,8.86587 28.045829,13.19276 11.7724,3.99045 14.8617,5.27511 21.82813,9.07704 9.25025,5.04832 17.57447,12.47329 23.13418,20.63505 1.68932,2.47992 1.98853,2.54723 1.99917,0.4497 0.01,-1.8514 0.48752,-4.39436 1.3484,-7.17186 0.74027,-2.38832 2.07872,-4.99897 2.56293,-4.99897 0.11922,0 0.21114,2.37125 0.20426,5.26945 -0.007,2.8982 0.06,5.34198 0.14851,5.43061 0.0885,0.0886 0.74338,-0.0977 1.45521,-0.41406 1.67622,-0.745 3.5783,-0.74746 5.1117,-0.007 0.64301,0.31068 1.23777,0.49625 1.32167,0.41238 0.0839,-0.0839 0.15251,-2.4673 0.15251,-5.29649 0,-4.40944 0.0562,-5.13318 0.39333,-5.06826 1.17668,0.22656 3.03352,5.61151 3.63489,10.5414 l 0.43823,3.59239 1.92405,-2.8798 c 4.52554,-6.77352 10.79905,-12.84642 18.48033,-17.88939 2.15932,-1.41766 12.68566,-6.92079 13.23803,-6.92079 0.0838,0 0.65193,-0.22265 1.26243,-0.49477 2.17612,-0.97002 5.70153,-2.25416 12.22246,-4.45205 9.35513,-3.15316 13.72422,-4.9974 20.34098,-8.58615 8.57191,-4.64918 20.85935,-13.8089 31.12047,-23.19889 4.22722,-3.86836 11.04622,-10.79665 13.603,-13.82104 1.17684,-1.39206 3.25509,-3.83285 4.61835,-5.42396 2.70558,-3.15783 2.92346,-3.41966 4.22431,-5.07662 0.81056,-1.03243 1.37531,-1.41631 1.3611,-0.92517 -0.0177,0.6087 -7.0563,9.73998 -11.47215,14.88281 -5.09476,5.93355 -16.36487,16.83102 -22.64661,21.89781 -0.94959,0.76593 -2.08373,1.68963 -2.52029,2.05267 -0.71453,0.59419 -3.74504,2.84877 -8.38676,6.23939 -3.68604,2.69254 -10.82588,6.93553 -14.71808,8.74651 -4.2073,1.95758 -12.31099,5.09709 -17.64099,6.8344 -3.64927,1.18947 -11.01752,4.24496 -14.72277,6.10528 -2.42607,1.21807 -8.40973,4.75828 -9.53624,5.64209 -0.39114,0.30684 -1.2841,0.97299 -1.98438,1.48032 -5.49997,3.98449 -10.63476,9.37663 -14.23892,14.95258 -1.91402,2.96117 -2.15127,3.42836 -1.64179,3.23285 0.69564,-0.26695 3.69829,0.58769 5.17824,1.47387 4.79295,2.87001 6.30401,8.60978 3.7343,14.1848 -0.796,1.72699 -0.81571,1.84777 -0.41981,2.57276 0.61415,1.12473 1.10455,1.62773 3.80132,3.89916 2.49449,2.10107 3.52224,3.35248 4.96776,6.04881 l 0.81188,1.51436 4.0877,-4.1602 c 2.24825,-2.28811 5.40856,-5.29128 7.02294,-6.67373 6.56268,-5.61984 16.53371,-12.65826 23.39081,-16.51128 1.52797,-0.85856 3.07578,-1.74591 3.43958,-1.97187 0.36381,-0.22597 1.25677,-0.72369 1.98438,-1.10606 0.7276,-0.38236 3.28745,-1.76219 5.68854,-3.06629 5.66325,-3.07586 9.79982,-5.09763 20.50521,-10.02202 1.62679,-0.74831 10.11833,-4.30323 13.89062,-5.8152 1.52797,-0.61242 3.79016,-1.53876 5.02709,-2.05853 7.38423,-3.10293 29.09141,-11.3551 36.11562,-13.72967 0.87312,-0.29516 3.84969,-1.37332 6.61458,-2.39591 2.7649,-1.02259 9.01568,-3.20592 13.89063,-4.85186 4.87495,-1.64593 10.58995,-3.58873 12.7,-4.31732 9.78294,-3.378 31.26663,-9.38536 43.69191,-12.2173 3.01974,-0.68826 9.71923,-1.90906 18.08829,-3.29613 1.16417,-0.19294 3.00964,-0.53095 4.10105,-0.75112 3.81931,-0.77047 17.7665,-2.36927 25.2677,-2.89648 7.08004,-0.49761 21.05787,-0.40767 26.45834,0.17025 7.89326,0.84468 12.82959,1.9959 18.93675,4.41632 10.3935,4.1192 15.66815,10.4771 17.54966,21.15383 1.00613,5.70935 1.20131,16.23725 0.42434,22.88646 -2.076,17.76594 -8.46344,38.82127 -16.33398,53.84269 -9.15844,17.47951 -20.36661,32.03835 -32.69525,42.46944 -6.45337,5.46013 -11.7853,8.71887 -17.52854,10.71299 -7.92707,2.75238 -15.65206,3.19798 -32.06059,1.84937 -5.65846,-0.46506 -15.25786,-1.62322 -16.47677,-1.98791 -0.63508,-0.19 -10.57174,-1.91258 -12.17083,-2.10988 -0.80036,-0.0987 -2.28865,-0.3368 -3.30729,-0.529 -4.49951,-0.84895 -4.52308,-0.72372 -0.15026,0.79835 7.1255,2.48023 20.29002,8.94405 28.32838,13.90934 4.72663,2.91964 11.36589,8.16552 15.36991,12.14426 7.84072,7.79117 11.85977,15.69437 12.66767,24.91018 0.78306,8.93265 -1.71738,17.95777 -7.29969,26.34744 -4.66731,7.01453 -15.42693,16.43811 -29.60143,25.92578 -7.29033,4.87976 -16.24917,10.13145 -23.28333,13.64869 -11.09882,5.54969 -21.4063,9.46526 -33.50279,12.72699 -8.38922,2.26208 -20.70584,3.52935 -31.45242,3.23622 -29.63783,-0.80846 -54.61233,-7.31462 -69.18854,-18.02445 -3.85953,-2.83577 -6.62268,-5.37612 -9.56469,-8.79337 -3.89638,-4.5258 -5.22451,-6.2597 -7.55388,-9.86152 -7.08914,-10.96182 -12.84504,-24.48208 -17.40281,-40.87813 -0.88995,-3.20146 -1.78032,-6.35661 -1.9786,-7.01146 -1.2527,-4.13694 -5.18512,-23.60204 -6.25131,-30.94331 -0.39913,-2.74824 -0.6327,-2.28557 -0.86167,1.70686 -0.23445,4.08763 -2.23033,31.61715 -2.57043,35.45416 -0.65873,7.43188 -2.67459,22.38907 -3.54806,26.32604 -1.93273,8.71107 -2.45896,10.29682 -4.44534,13.39581 -0.64694,1.0093 -1.34245,2.00985 -1.54557,2.22342 -1.51617,1.59438 -2.06539,2.46631 -2.32965,3.69858 -0.63971,2.98289 -3.05549,7.65522 -4.72586,9.14025 -0.39717,0.35311 -1.31471,1.02989 -2.03898,1.50394 -1.25532,0.82167 -1.45535,0.86635 -4.27945,0.95602 -4.04866,0.12856 -5.22217,-0.26852 -7.43069,-2.51425 -1.94305,-1.97581 -3.31941,-4.54303 -4.5197,-8.43029 -0.66561,-2.15567 -0.99872,-2.82019 -1.79054,-3.57188 -1.38316,-1.31304 -3.38423,-4.44653 -4.17798,-6.5423 -1.35006,-3.56467 -3.44191,-13.55309 -4.50286,-21.50096 -1.25609,-9.40943 -2.48015,-24.1803 -4.28467,-51.70281 -0.0982,-1.4973 -0.2609,-2.46228 -0.3793,-2.24896 -0.11404,0.2055 -0.52681,2.39771 -0.91729,4.87156 -1.52267,9.64723 -4.92847,25.3724 -7.39706,34.15347 -2.07468,7.37992 -5.26137,16.85216 -6.88432,20.4633 -0.65972,1.46786 -1.19949,2.72436 -1.19949,2.79223 0,0.14092 -0.54867,1.3499 -3.06435,6.75246 -5.42446,11.64934 -13.57829,22.59089 -21.67419,29.08445 -9.415915,7.55232 -22.054479,12.70908 -39.819794,16.24711 -6.583897,1.31122 -16.764611,2.65454 -23.018749,3.03726 -4.888135,0.29914 -14.365669,0.31025 -19.295602,0.0228 z"
       id="path1617" />
  </g>
</svg>
