<?xml version="1.0" encoding="UTF-8" standalone="no"?>
<!-- Created with Inkscape (http://www.inkscape.org/) -->

<svg
   width="631.79828mm"
   height="282.34082mm"
   viewBox="0 0 631.79828 282.34082"
   version="1.1"
   id="svg1302"
   xmlns="http://www.w3.org/2000/svg"
   xmlns:svg="http://www.w3.org/2000/svg">
  <defs
     id="defs1299" />
  <g
     id="layer1"
     transform="translate(135.97519,-101.70882)">
    <path
       style="fill:#000000;stroke-width:0.264583"
       d="m 177.14143,383.88751 c -6.63487,-1.41875 -9.90015,-4.81843 -12.15305,-12.65322 -0.49049,-1.70577 -0.95867,-3.51811 -1.04042,-4.02744 -0.33039,-2.05869 -0.95086,-3.42196 -2.52159,-5.5404 -0.90667,-1.22287 -1.81763,-2.55042 -2.02435,-2.95015 -0.36232,-0.70067 -1.48177,-3.53433 -1.6107,-4.07715 -0.0346,-0.14552 -0.37005,-1.45521 -0.74552,-2.91042 -0.37547,-1.45521 -1.04267,-5.02708 -1.48262,-7.9375 -0.43998,-2.91042 -1.03706,-6.42276 -1.32683,-7.80521 -1.25527,-5.98837 -1.72524,-8.77644 -2.38607,-14.15521 -0.16089,-1.30968 -0.332,-2.6789 -0.3802,-3.0427 -0.39116,-2.95188 -0.75303,-8.60425 -1.45675,-22.75417 -0.25498,-5.12705 -0.64328,-12.36562 -0.91546,-17.06562 -0.0674,-1.16417 -0.18301,-3.3073 -0.25683,-4.7625 -0.16488,-3.24991 -0.6627,-11.77122 -0.8959,-15.33581 l -0.17243,-2.63581 -2.42081,4.48789 c -1.33143,2.46834 -3.81767,7.27744 -5.52495,10.68689 -1.70725,3.40944 -3.46424,6.80272 -3.90437,7.54062 -0.44014,0.7379 -0.93446,1.57976 -1.09845,1.8708 -4.02471,7.14199 -10.26895,13.78956 -17.08163,18.185 -5.77633,3.72678 -15.11837,7.52435 -20.303408,8.25336 -0.402034,0.0565 -1.088152,0.17192 -1.524714,0.2564 -3.248978,0.62884 -8.881613,0.85921 -10.738194,0.43918 -2.471976,-0.55927 -5.034703,-1.36673 -8.047223,-2.53552 -1.600729,-0.62106 -3.981979,-1.45029 -5.291666,-1.84275 -1.309688,-0.39248 -2.8575,-0.87143 -3.439584,-1.06436 -1.692232,-0.56087 -5.935863,-1.43706 -7.805208,-1.61155 -0.945885,-0.0883 -1.779772,-0.19622 -1.853086,-0.2398 -0.07331,-0.0436 -1.50206,-0.15642 -3.175,-0.25077 -1.672936,-0.0944 -4.470455,-0.28776 -6.216705,-0.42976 -1.74625,-0.14203 -3.948906,-0.31792 -4.894792,-0.3909 -6.242219,-0.48159 -14.765866,-2.43861 -20.342417,-4.67057 -3.227692,-1.29186 -9.137563,-4.06022 -10.938888,-5.1241 -0.912625,-0.53901 -2.314163,-1.33958 -3.114527,-1.77907 -3.800369,-2.08678 -12.4475,-8.21166 -15.727159,-11.13974 -3.161022,-2.82217 -8.085341,-7.99929 -8.085341,-8.50042 0,-0.11258 -0.280765,-0.57311 -0.623919,-1.02341 -2.064139,-2.70861 -3.148163,-6.48404 -2.96977,-10.34309 0.268642,-5.81143 2.285203,-9.76635 7.498984,-14.70718 5.701025,-5.40256 16.901205,-11.10267 26.775711,-13.62697 1.7388,-0.44451 1.88051,-0.52454 1.190625,-0.67244 -0.430699,-0.0923 -3.6689,-0.18198 -7.196002,-0.1992 -6.643764,-0.0324 -15.77149,0.50307 -20.177712,1.18377 -12.699084,1.96182 -22.515396,2.4345 -27.516666,1.32501 -5.84354,-1.29636 -12.34609,-4.38548 -19.18229,-9.11281 -12.54423,-8.6745 -20.77531,-15.31724 -33.60208,-27.1179 -5.10791,-4.69928 -11.961769,-11.71503 -15.186579,-15.54528 -0.78553,-0.93301 -1.62475,-1.87498 -1.86495,-2.09326 -0.63876,-0.5805 -6.48856,-7.945 -8.51167,-10.71562 -3.5987,-4.92838 -5.87896,-8.28533 -7.72508,-11.37272 -0.17259,-0.28864 -0.62089,-1.00302 -0.99621,-1.5875 -0.73599,-1.14615 -2.89774,-5.17307 -4.83151,-9.0002 -3.30021,-6.53141 -6.17515,-14.98925 -7.03222,-20.68818 -0.75136,-4.99605 0.0702,-8.59824 2.51957,-11.04764 3.39547,-3.39547 11.3397,-7.18473 17.4349,-8.31615 0.87312,-0.16208 2.48047,-0.46612 3.57187,-0.67565 1.09141,-0.20953 2.46063,-0.44056 3.04271,-0.5134 0.58208,-0.0728 2.1299,-0.28211 3.43958,-0.46506 2.71005,-0.37857 17.095009,-0.48237 21.695839,-0.15656 8.28182,0.58648 16.57526,1.89867 24.07708,3.80947 2.03729,0.51892 3.94229,0.98017 4.23333,1.025 0.29104,0.0448 1.42214,0.31775 2.51354,0.60648 5.43947,1.43901 7.17994,1.92741 9.08689,2.54991 1.14148,0.37262 2.27257,0.71668 2.51354,0.76458 0.24096,0.0479 0.61671,0.15611 0.83499,0.24049 0.21828,0.0844 1.52797,0.47429 2.91042,0.86648 1.38244,0.39219 2.6326,0.78571 2.77812,0.87448 0.14552,0.0888 0.32412,0.17351 0.39688,0.1883 0.0728,0.0148 0.31088,0.0943 0.52916,0.17672 0.21828,0.0824 1.46844,0.476 2.77813,0.87469 1.30969,0.39868 3.27422,1.06343 4.36562,1.47721 1.09141,0.41379 2.817815,1.03376 3.836461,1.37772 4.215765,1.42348 9.047057,3.13265 9.789583,3.46326 0.436563,0.19437 1.448594,0.5609 2.248959,0.81451 0.800364,0.2536 1.568317,0.56553 1.706562,0.69316 0.138245,0.12763 0.435901,0.23389 0.661458,0.23612 0.225558,0.002 1.60073,0.46052 3.055938,1.0184 6.853285,2.62734 11.418419,4.35735 14.816666,5.61492 2.037292,0.75394 4.180417,1.61062 4.7625,1.90374 0.582083,0.29313 1.117865,0.52961 1.190625,0.52553 0.213675,-0.012 1.392079,0.45842 2.248958,0.89777 0.750068,0.38458 3.003436,1.31266 15.610417,6.42939 2.910416,1.18124 5.767916,2.37056 6.349999,2.64295 0.582084,0.27239 2.546615,1.11658 4.365625,1.87598 5.977234,2.49538 7.005363,2.92807 7.540625,3.17345 0.291042,0.13342 1.541198,0.65054 2.778125,1.14917 1.236927,0.49862 4.094427,1.70559 6.35,2.68215 2.255573,0.97657 4.99401,2.1059 6.085416,2.50962 1.091407,0.40373 2.817813,1.09587 3.836459,1.5381 1.018646,0.44222 2.923646,1.23649 4.233333,1.76505 1.309687,0.52855 2.738437,1.12424 3.175,1.32374 1.962018,0.89662 3.529806,1.57232 4.630208,1.99556 1.021027,0.39271 4.960699,2.00199 11.90625,4.86348 0.945885,0.3897 1.957917,0.81672 2.248958,0.94894 1.875473,0.85203 4.778376,2.13867 8.378406,3.71352 2.27978,0.9973 4.86939,2.17891 5.75468,2.62581 0.8853,0.44689 1.60962,0.73671 1.60962,0.64404 0,-0.0927 0.14912,-0.0447 0.33139,0.10653 0.18227,0.15126 0.92641,0.51231 1.65365,0.80232 2.69721,1.07559 18.2341,8.73905 22.09204,10.89675 5.60835,3.13667 9.59345,5.28861 9.79379,5.28861 0.1201,0 0.29957,-0.38695 0.39886,-0.85989 0.35648,-1.69789 2.26447,-6.18556 3.3673,-7.92002 1.55983,-2.45325 4.06675,-5.02262 7.6417,-7.83205 l 1.74622,-1.3723 -0.25865,-1.39276 c -0.38696,-2.08359 -0.0834,-5.71224 0.61327,-7.33181 0.63746,-1.48178 2.59128,-3.4049 4.25556,-4.18869 l 0.96742,-0.4556 -2.95179,-1.93529 c -2.75633,-1.80713 -7.74645,-4.41258 -11.41847,-5.96186 -3.52761,-1.48833 -12.16408,-3.7231 -19.57916,-5.06627 -2.0373,-0.36904 -4.31385,-0.79325 -5.059,-0.94269 -0.74514,-0.14945 -1.69764,-0.32705 -2.11666,-0.39467 -3.13608,-0.50607 -9.66685,-2.69191 -13.46184,-4.50568 -6.67565,-3.19052 -13.533837,-7.95921 -12.188933,-8.4753 0.802137,-0.30781 3.793093,0.83513 12.160513,4.64693 0.6078,0.27689 1.45817,0.58809 1.88968,0.69155 0.43151,0.10346 0.91411,0.28933 1.07244,0.41304 0.96237,0.75195 12.39747,3.64405 17.5715,4.44409 7.52401,1.1634 16.88241,3.82986 23.5789,6.71828 4.39957,1.89768 7.25157,3.58287 12.97221,7.66504 l 1.71534,1.22404 0.88821,-1.85976 c 1.99453,-4.17636 7.336,-6.18265 9.50436,-3.56992 0.34698,0.41809 0.94954,0.23219 1.81192,-0.55902 0.1941,-0.17806 0.82378,-0.45054 1.3993,-0.60551 2.50857,-0.67549 6.00419,1.49679 7.43448,4.61997 0.97456,2.1281 0.99367,2.13259 2.81188,0.6614 7.25491,-5.87022 18.55828,-10.73701 30.35528,-13.06984 5.07275,-1.00312 5.84144,-1.1473 8.59711,-1.61249 2.90433,-0.49029 9.08393,-2.016 11.77581,-2.90739 2.26393,-0.74968 7.00563,-2.65504 10.27295,-4.12799 4.11215,-1.85382 4.53167,-2.02455 6.08375,-2.47575 0.82788,-0.24067 1.71304,-0.39712 1.96699,-0.34764 0.78121,0.15217 -1.78435,2.62325 -4.36946,4.20856 -3.37431,2.06928 -11.00244,5.83697 -13.29278,6.56557 -1.0914,0.3472 -2.10343,0.71572 -2.24895,0.81894 -0.55664,0.39481 -7.07623,1.88753 -11.50938,2.63518 -7.17259,1.20965 -8.74657,1.52007 -12.18335,2.40279 -7.53102,1.93432 -13.37828,4.46595 -19.9463,8.63592 -1.44574,0.91789 -2.72566,1.66889 -2.84427,1.66889 -0.54618,0 -0.10377,0.45942 1.08569,1.12747 0.71546,0.40183 1.82613,1.31487 2.46817,2.02897 1.66573,1.85269 2.16709,3.83004 1.9898,7.84767 -0.0733,1.66034 -0.0418,3.01881 0.07,3.01881 0.36777,0 4.32474,3.35194 5.98067,5.06618 3.12094,3.23085 5.28523,7.18822 6.44138,11.77793 l 0.27744,1.10141 1.25281,-0.66287 c 0.68902,-0.36458 1.90762,-1.05502 2.70798,-1.53432 4.39992,-2.63488 17.61255,-9.42579 24.47396,-12.57891 5.75887,-2.64646 15.52085,-6.96479 19.18229,-8.4855 1.38245,-0.57418 2.71925,-1.16012 2.97069,-1.30209 0.25141,-0.14198 1.73969,-0.77838 3.30729,-1.41423 1.56758,-0.63585 3.38593,-1.40182 4.04077,-1.70216 1.31487,-0.60305 4.85569,-2.03909 6.44075,-2.61217 0.55922,-0.20219 1.50016,-0.61422 2.09092,-0.91561 0.59079,-0.30139 1.50247,-0.70504 2.02595,-0.89699 0.52345,-0.19195 2.5591,-1.02576 4.52363,-1.8529 1.96453,-0.82715 5.42028,-2.25015 7.67945,-3.16222 2.25917,-0.91207 4.69995,-1.95689 5.42396,-2.32182 0.72401,-0.36493 2.50701,-1.11363 3.96221,-1.66379 3.56164,-1.34652 4.12287,-1.56535 4.8948,-1.90861 0.3638,-0.16177 2.14973,-0.90985 3.96875,-1.6624 1.81901,-0.75254 4.67651,-1.96604 6.35,-2.69665 1.67348,-0.73062 4.29286,-1.83416 5.82083,-2.45232 1.52797,-0.61817 3.13531,-1.27334 3.57187,-1.45594 0.43657,-0.1826 1.03188,-0.42944 1.32292,-0.54855 0.29104,-0.11911 1.21729,-0.521 2.05835,-0.8931 0.84106,-0.3721 1.59174,-0.67654 1.66817,-0.67654 0.0764,0 0.63844,-0.22754 1.24894,-0.50564 0.61048,-0.27809 2.06246,-0.884 3.22662,-1.34644 1.16417,-0.46245 2.59292,-1.0513 3.175,-1.30855 3.62212,-1.60084 17.7577,-7.0413 18.93202,-7.2865 0.22614,-0.0472 1.16065,-0.4013 2.07669,-0.78686 2.19544,-0.92404 7.37704,-2.86257 11.00588,-4.11749 1.60072,-0.55355 5.88697,-2.03965 9.525,-3.30244 10.47892,-3.63732 23.81892,-7.95164 26.59062,-8.59974 0.80036,-0.18715 2.38964,-0.6223 3.53174,-0.967 1.1421,-0.3447 3.58288,-0.98393 5.42396,-1.42052 1.84107,-0.43658 4.0618,-0.96589 4.93492,-1.17624 2.4719,-0.59552 11.54055,-2.0444 15.08125,-2.40951 0.72761,-0.075 1.47402,-0.18727 1.65868,-0.24941 0.76192,-0.25642 9.38506,-0.52032 15.93612,-0.48773 7.56872,0.0377 11.34165,0.37673 17.4625,1.56933 6.13492,1.19534 12.37099,3.56395 16.66874,6.33119 6.69899,4.31335 7.42003,9.59623 3.12397,22.88855 -1.92093,5.94346 -5.47757,13.72831 -8.5824,18.78542 -0.58073,0.94588 -1.22401,2.01745 -1.42949,2.38125 -1.23388,2.18447 -2.74328,4.50445 -4.99213,7.67291 -2.64462,3.7261 -5.51122,7.51472 -8.0872,10.68844 -1.16898,1.44025 -2.4193,2.98806 -2.77844,3.43958 -4.57343,5.74965 -15.99507,17.26172 -23.94448,24.13407 -1.15935,1.00226 -2.76669,2.42717 -3.57187,3.16648 -2.64391,2.42755 -11.46816,9.50041 -15.50088,12.42435 -9.63147,6.98332 -12.30456,8.72239 -17.71312,11.52392 -4.2737,2.2137 -7.46418,3.35286 -10.71562,3.82602 -4.85431,0.70642 -13.04568,0.34272 -21.43125,-0.95157 -10.09536,-1.55819 -10.79026,-1.61384 -22.02656,-1.76387 -6.94894,-0.0928 -10.78177,-0.052 -10.78177,0.11483 0,0.14234 0.80367,0.46594 1.78594,0.7191 7.17375,1.84895 14.35727,5.0218 20.57135,9.08606 6.53828,4.2763 10.64188,8.92565 12.47902,14.13867 0.91612,2.5996 1.14186,6.96333 0.48972,9.46642 -1.93638,7.43221 -9.03759,14.85381 -23.1552,24.19993 -5.23399,3.465 -11.16034,6.55933 -18.0181,9.40782 -3.51739,1.461 -9.83072,3.20638 -13.75256,3.80198 -2.64004,0.40092 -7.53713,0.94208 -9.76892,1.07945 -9.66089,0.59478 -13.29227,0.95634 -17.14127,1.70672 -2.4869,0.48482 -9.37562,2.69587 -12.62436,4.05199 -4.35832,1.81927 -7.93421,2.62353 -11.37708,2.55876 -2.44393,-0.046 -6.49904,-0.51083 -8.06979,-0.92509 -0.3638,-0.096 -0.89958,-0.21643 -1.19063,-0.26773 -5.74733,-1.01304 -15.05682,-4.8976 -20.40884,-8.51602 -2.93878,-1.98686 -6.98868,-5.37045 -8.79959,-7.3519 -4.39733,-4.81136 -8.20116,-10.84622 -13.71592,-21.76049 -4.81867,-9.53669 -6.4002,-12.48333 -6.70002,-12.48333 -0.0838,0 -0.29993,2.64914 -0.48038,5.88698 -0.18044,3.23783 -0.37999,6.48229 -0.44347,7.20989 -0.11435,1.31115 -0.41105,6.78594 -0.91434,16.87172 -0.27962,5.60342 -0.70075,12.921 -0.91718,15.93661 -0.0731,1.01865 -0.25575,4.05474 -0.40585,6.74688 -0.23944,4.2949 -0.5734,8.36438 -0.93358,11.37708 -0.0609,0.50933 -0.17989,1.64042 -0.26442,2.51354 -0.1337,1.38105 -0.57563,4.12364 -1.44952,8.99584 -0.38008,2.11907 -1.05728,5.25745 -1.22746,5.68854 -0.0862,0.21828 -0.18804,0.93266 -0.22638,1.5875 -0.22592,3.86069 -1.6198,11.31448 -2.77561,14.84281 -0.96213,2.93711 -1.86287,4.6954 -3.57846,6.98531 -1.40795,1.87929 -1.68016,2.52871 -2.93894,7.01146 -2.74127,9.76209 -4.82023,12.70828 -10.27721,14.56433 -2.40273,0.81725 -6.32523,1.19632 -8.20952,0.79341 z"
       id="path1444" />
  </g>
</svg>
