<?xml version="1.0" encoding="UTF-8" standalone="no"?>
<!-- Created with Inkscape (http://www.inkscape.org/) -->

<svg
   width="510.1795mm"
   height="257.59033mm"
   viewBox="0 0 510.1795 257.59033"
   version="1.1"
   id="svg3572"
   xmlns="http://www.w3.org/2000/svg"
   xmlns:svg="http://www.w3.org/2000/svg">
  <defs
     id="defs3569" />
  <g
     id="layer1"
     transform="translate(-17.047941,-46.092022)">
    <path
       style="fill:#000000;stroke-width:0.264583"
       d="m 269.5507,303.05972 c -2.39069,-1.11318 -3.85625,-3.05191 -5.2266,-6.91404 -0.72824,-2.05245 -1.11543,-3.81108 -1.47183,-6.68477 -0.21476,-1.73183 -0.34811,-2.04753 -1.30214,-3.08256 -2.01634,-2.18744 -2.94021,-4.75573 -2.95593,-8.21716 -0.005,-1.16417 -0.13396,-2.65245 -0.28593,-3.30729 -0.43051,-1.85481 -1.51988,-8.65836 -1.82666,-11.40804 -0.15232,-1.36541 -0.33226,-2.95884 -0.39981,-3.54092 -0.25469,-2.19377 -0.64532,-7.58577 -0.91051,-12.56771 -0.15105,-2.83766 -0.33034,-6.11188 -0.39841,-7.27604 -0.0681,-1.16417 -0.19127,-8.01026 -0.27374,-15.21354 -0.15775,-13.77984 -0.36163,-17.99035 -1.21801,-25.15268 -0.79589,-6.6565 -0.72483,-6.61938 -2.1893,-1.14369 -1.25674,4.69904 -1.92362,7.14263 -3.89106,14.25783 -0.56335,2.03729 -1.44423,5.25197 -1.9575,7.14375 -0.51329,1.89177 -1.34583,4.74927 -1.85007,6.35 -0.50427,1.60072 -1.23185,3.98197 -1.61687,5.29166 -2.30015,7.82444 -5.08479,15.78814 -8.65026,24.73854 -1.56747,3.93486 -5.38562,11.50377 -7.59756,15.06106 -3.75243,6.03473 -9.49227,12.23431 -14.23421,15.37433 -3.11521,2.0628 -7.4494,3.98577 -10.98426,4.87342 -2.55111,0.64061 -9.0751,1.46891 -11.5625,1.46801 -0.80037,0 -3.18162,0.17341 -5.29167,0.38603 -2.11005,0.21259 -5.14615,0.51623 -6.74687,0.67471 -11.01551,1.09061 -17.26868,0.41489 -26.9875,-2.91632 -11.0947,-3.80277 -21.72371,-11.62653 -33.06445,-24.3379 -3.87153,-4.33946 -8.49855,-10.79614 -11.09198,-15.47813 -2.94132,-5.31003 -4.35653,-9.49843 -5.228,-15.47255 -0.514008,-3.5236 -0.532992,-4.11614 -0.22904,-7.14932 0.69704,-6.95593 2.93731,-13.13738 6.65802,-18.37108 2.8447,-4.00146 9.00617,-9.69404 14.41762,-13.32044 4.97766,-3.3357 13.32663,-7.95304 18.58717,-10.2795 0.78817,-0.34856 1.38233,-0.68446 1.32036,-0.74643 -0.11333,-0.11333 -2.92166,0.34265 -12.93325,2.09996 -9.82755,1.72501 -15.70093,2.32266 -23.15104,2.35579 -6.018568,0.0267 -6.861581,-0.0259 -9.355821,-0.58441 -8.457446,-1.89377 -14.741615,-6.77707 -23.384478,-18.1716 C 67.948746,166.10613 64.73972,162.07826 61.68218,158.51346 50.26533,145.20247 41.91188,132.8303 36.2636,120.86639 33.50128,115.01539 31.09466,109.61463 30.07383,106.97577 23.39661,89.715015 18.51593,72.780899 17.27941,62.584035 c -0.44614,-3.679151 -0.22629,-7.961741 0.47839,-9.318681 1.64592,-3.169382 6.29379,-5.415991 13.56266,-6.555684 6.02958,-0.945383 18.10191,-0.657513 26.18568,0.624409 2.2403,0.355266 8.21298,1.644986 11.38515,2.458468 12.542522,3.21645 27.13389,8.886693 47.22812,18.352974 4.93412,2.324436 30.27096,14.878901 34.925,17.305427 12.32288,6.4249 27.5195,14.458129 35.45417,18.741782 2.76489,1.49266 5.80099,3.13074 6.74687,3.64016 2.93532,1.58087 14.58198,8.01487 15.17775,8.38468 0.31072,0.19289 1.27934,0.74225 2.15246,1.22079 3.99542,2.18983 6.03128,3.3409 12.83229,7.2554 4.00183,2.30335 7.99042,4.62984 8.86354,5.16999 11.23712,6.95161 15.70064,9.91756 17.93764,11.91935 0.84341,0.75473 1.56017,1.32809 1.59279,1.27413 0.0326,-0.054 0.32309,-0.6633 0.64548,-1.35407 1.05773,-2.26619 1.89415,-3.34753 3.66707,-4.74081 l 1.74826,-1.37392 -0.15883,-1.15883 c -0.18475,-1.34787 0.30877,-2.77536 1.13869,-3.29365 0.70964,-0.44318 0.69683,-0.54464 -0.23032,-1.82452 -1.46933,-2.02835 -1.58916,-5.08376 -0.29863,-7.61341 0.9235,-1.81024 3.42357,-3.45947 5.26267,-3.47165 0.78605,-0.005 0.85899,-0.068 0.69831,-0.60112 -0.29721,-0.98621 -2.24007,-4.45163 -3.52298,-6.28385 -2.32786,-3.32461 -4.69847,-5.95093 -7.86802,-8.7167 -3.62953,-3.167158 -6.00139,-4.917223 -10.55796,-7.790135 -13.23253,-8.343072 -16.57088,-10.626918 -21.18167,-14.490875 -3.78452,-3.17152 -7.78161,-7.493156 -10.39743,-11.241619 -0.62397,-0.89418 -1.83089,-2.166561 -2.68201,-2.827512 -2.77595,-2.155724 -4.87095,-5.546566 -5.87152,-9.503359 -0.54841,-2.168597 -0.52981,-3.880922 0.054,-4.971722 0.95728,-1.788742 4.72122,1.050523 6.61643,4.991015 1.43336,2.980185 1.88463,4.547698 1.99393,6.925903 0.0951,2.069827 0.18409,2.375402 1.11707,3.836458 1.92812,3.019523 6.9138,8.486796 10.24593,11.235634 4.58764,3.784579 8.53557,6.534124 16.53342,11.514759 9.15797,5.703096 12.89965,8.398227 16.85769,12.142623 3.78814,3.58366 7.49895,8.4244 9.49232,12.38272 0.51483,1.02229 1.0056,1.78912 1.09067,1.70408 0.085,-0.085 0.20143,-0.84138 0.25865,-1.68076 0.27567,-4.0433 1.74309,-17.076904 2.10013,-18.653569 0.22191,-0.979879 0.60275,-2.027132 0.84627,-2.327227 0.38527,-0.474716 0.50647,-0.498989 0.9326,-0.186751 0.37452,0.274407 0.60521,1.133575 0.9801,3.650144 0.26966,1.810194 0.5076,4.005643 0.52877,4.878763 0.0698,2.87942 0.40346,3.10493 0.58724,0.39688 0.16656,-2.45417 0.85701,-7.609178 1.1429,-8.532818 0.2196,-0.709496 1.10569,-0.55531 1.52056,0.264584 0.56671,1.11997 0.92143,3.022264 1.3445,7.209894 1.0768,10.65862 1.59335,15.08125 1.76144,15.08125 0.10197,0 0.44164,-0.54519 0.75486,-1.21153 0.31321,-0.66634 1.21158,-2.24391 1.99633,-3.50572 4.70855,-7.57085 12.10834,-14.068454 24.61226,-21.611552 11.35726,-6.851377 18.75289,-12.720203 23.72711,-18.828731 4.10277,-5.038347 4.18643,-5.182931 4.18643,-7.235796 0,-5.473245 4.49564,-12.958752 7.78277,-12.958752 0.91704,0 1.21306,0.695317 1.21306,2.849325 0,3.996158 -2.54889,8.973245 -6.20832,12.122644 -0.83073,0.714949 -1.94061,1.895218 -2.46641,2.622823 -1.72551,2.387734 -5.53591,6.845548 -7.37762,8.631083 -4.72419,4.580118 -9.62393,8.107728 -22.36959,16.105124 -3.5968,2.256856 -7.82138,5.115406 -9.38795,6.352334 -3.59005,2.834628 -8.21235,7.445468 -10.2317,10.206358 -1.78776,2.44422 -4.71048,7.57782 -4.44627,7.80959 0.0982,0.0861 0.86585,0.30362 1.70595,0.48336 2.8152,0.6023 4.77946,2.82816 5.13345,5.81712 0.23759,2.0061 -0.11002,3.5743 -1.12744,5.08617 -0.50454,0.74975 -0.88442,1.38254 -0.84416,1.40621 1.6304,0.95844 2.22409,2.15909 1.89103,3.82434 -0.1566,0.78311 -0.0297,0.96631 1.93382,2.79041 1.68449,1.56494 2.27293,2.32439 2.96595,3.8279 0.47551,1.03159 0.9254,1.87563 0.99981,1.87563 0.0744,0 0.80693,-0.59863 1.62782,-1.33028 3.33843,-2.9755 13.608,-9.62399 23.99226,-15.53252 2.03729,-1.1592 5.19244,-2.97333 7.01145,-4.0314 3.57572,-2.0799 15.48122,-8.74007 18.91771,-10.58292 1.16417,-0.62429 2.47386,-1.34198 2.91042,-1.59485 2.48145,-1.43735 24.48121,-13.205023 35.85104,-19.176742 13.23888,-6.95338 35.23766,-17.99286 44.18541,-22.173218 19.57872,-9.147106 30.44492,-13.583663 41.33517,-16.876755 11.27551,-3.409582 19.14427,-4.811678 31.16067,-5.552368 14.78256,-0.911196 25.82396,2.440273 27.28102,8.280775 1.064,4.264999 -0.63748,15.279682 -4.2406,27.451523 -0.40924,1.382448 -1.12451,3.823229 -1.58952,5.423958 -0.465,1.60073 -0.95657,3.148542 -1.09235,3.439584 -0.13581,0.291041 -1.18767,3.267604 -2.33749,6.614583 -3.1309,9.11362 -5.37678,14.55992 -9.81956,23.8125 -4.53972,9.45452 -10.12505,18.22499 -18.3633,28.83531 -1.25815,1.6204 -4.21357,5.20369 -7.42932,9.00762 -1.60276,1.89591 -3.80706,4.61777 -4.89847,6.0486 -8.88984,11.65451 -13.44678,16.84144 -17.36627,19.76712 -2.00189,1.49433 -5.87417,3.51679 -8.09254,4.22667 -4.14917,1.32774 -5.04799,1.43596 -11.84744,1.42643 -7.45828,-0.0104 -11.73429,-0.45398 -23.28333,-2.41505 -9.08836,-1.54324 -11.6268,-1.93492 -12.43541,-1.91884 l -0.66146,0.0131 0.66146,0.29587 c 3.04143,1.36043 9.13585,4.58674 14.02291,7.42357 7.71767,4.47992 14.92687,10.44985 18.75669,15.53242 3.04036,4.03483 4.93051,8.13372 6.4289,13.94122 0.81835,3.17177 0.87283,3.65924 0.86635,7.75028 -0.0108,6.76666 -1.12462,11.46034 -4.24104,17.87125 -4.84507,9.96704 -16.04261,23.24121 -26.83798,31.81522 -8.49217,6.74476 -18.90197,11.4658 -29.36875,13.31931 -3.27827,0.58052 -10.57778,0.44233 -19.97604,-0.3782 -19.77091,-1.72611 -20.7087,-1.88793 -26.19375,-4.51963 -4.07128,-1.9534 -7.13756,-4.2108 -10.98021,-8.08366 -6.0221,-6.06941 -10.47909,-13.24406 -15.23122,-24.51846 -3.13578,-7.43961 -9.61522,-26.59532 -11.58073,-34.23708 -0.35557,-1.38245 -1.06468,-3.9423 -1.57578,-5.68855 -0.51112,-1.74625 -1.3036,-4.60375 -1.76112,-6.35 -0.45749,-1.74625 -1.4125,-5.25859 -2.12222,-7.8052 -0.70972,-2.54662 -1.50318,-5.48822 -1.76321,-6.53691 -0.26006,-1.04868 -0.51406,-1.86545 -0.56446,-1.81504 -0.15653,0.15653 -0.80246,5.09878 -1.35213,10.34552 -0.38875,3.71081 -0.56652,7.84357 -0.68249,15.8658 -0.37949,26.24831 -1.68301,44.94517 -3.7274,53.46274 -0.2118,0.88241 -0.38507,2.55405 -0.38507,3.71472 0,3.54404 -0.95798,6.29042 -2.94685,8.44807 -1.01772,1.10413 -1.07656,1.26841 -1.5779,4.40547 -0.53938,3.3754 -0.6714,3.89311 -1.76363,6.91671 -0.60539,1.67587 -1.96847,3.81162 -2.95148,4.62457 -0.22958,0.18987 -1.01275,0.63519 -1.74035,0.98963 -1.7368,0.84597 -3.52436,0.85129 -5.31871,0.0159 z"
       id="path3714" />
  </g>
</svg>
