<?xml version="1.0" encoding="UTF-8" standalone="no"?>
<!-- Created with Inkscape (http://www.inkscape.org/) -->

<svg
   width="610.44427mm"
   height="252.7005mm"
   viewBox="0 0 610.44427 252.7005"
   version="1.1"
   id="svg2860"
   xmlns="http://www.w3.org/2000/svg"
   xmlns:svg="http://www.w3.org/2000/svg">
  <defs
     id="defs2857" />
  <g
     id="layer1"
     transform="translate(164.0272,-121.80835)">
    <path
       style="fill:#000000;stroke-width:0.264583"
       d="m 26.914107,374.29869 c -2.550894,-0.19611 -2.833059,-0.24532 -6.879752,-1.19983 -5.501095,-1.2976 -15.9869096,-5.24457 -20.76833256,-7.81743 -7.23052004,-3.89073 -15.68892444,-10.5382 -23.54879044,-18.50705 -7.950837,-8.06109 -12.019684,-16.20356 -12.613372,-25.24162 -0.405006,-6.16564 1.995831,-15.33646 5.927502,-22.64212 2.305209,-4.28343 7.14859,-10.99439 10.482392,-14.52435 0.722278,-0.76477 0.91711,-1.09614 0.569103,-0.96793 -4.935966,1.81852 -10.274461,3.29188 -14.552083,4.01622 -3.560773,0.60296 -10.15026,0.59205 -12.684595,-0.021 -3.263662,-0.78945 -10.625995,-3.91093 -14.567487,-6.1763 -6.984795,-4.0145 -15.148885,-9.77953 -21.272945,-15.02178 -9.40059,-8.04697 -16.86569,-16.71855 -26.746747,-31.06943 -6.819,-9.90367 -10.32278,-14.27914 -15.19572,-18.97618 -5.52467,-5.32526 -9.92917,-8.12848 -14.69579,-9.35304 -6.81663,-1.75123 -13.46066,1.10493 -17.1282,7.36311 -1.15449,1.96999 -2.62695,5.63193 -3.13109,7.7869 l -0.47592,2.03434 -1.02443,-1.10829 c -2.00931,-2.17379 -2.68969,-4.71764 -2.63167,-9.83955 0.0431,-3.80273 0.0718,-4.12248 0.55872,-6.2177 4.18018,-17.98761 21.38773,-33.73386 45.38755,-41.53316 10.25125,-3.33138 22.058067,-5.56798 33.602077,-6.36534 7.82157,-0.54025 23.82015,-0.19876 30.956248,0.66075 0.582083,0.0701 1.772708,0.19258 2.645833,0.27216 3.556309,0.32413 4.505232,0.42712 10.980208,1.19167 6.451497,0.76179 11.198452,1.39577 16.66875,2.22622 4.9726,0.75488 8.104121,1.22203 10.054166,1.49985 1.091406,0.15548 2.520156,0.38753 3.1750004,0.51566 0.654844,0.12812 1.845469,0.30849 2.645833,0.4008 0.800365,0.0923 4.37224,0.63767 7.93750004,1.2119 3.56525996,0.57423 7.67291696,1.226 9.12812496,1.44838 1.4552076,0.22237 3.7769266,0.57806 5.1593746,0.79041 10.63984,1.63434 15.425097,2.32279 22.754166,3.27362 2.110052,0.27375 5.562865,0.74411 7.672917,1.04525 2.110052,0.30114 5.800989,0.78031 8.202083,1.06483 4.900559,0.58069 8.570092,1.10345 19.786255,2.81872 8.438674,1.29051 8.479525,1.2977 14.080411,2.48036 10.794788,2.27938 20.112723,5.64501 24.148363,8.72239 l 1.35834,1.0358 0.89924,-1.36816 c 1.62272,-2.46892 3.3197,-4.2237 5.98033,-6.18403 1.44142,-1.06205 2.70705,-1.931 2.81246,-1.931 0.10544,0 0.62651,-0.53063 1.15793,-1.17918 l 0.96625,-1.17918 -0.42301,-1.00363 c -1.19192,-2.82802 -0.6454,-6.51716 1.29148,-8.71758 1.16451,-1.32295 3.86403,-2.7371 5.22494,-2.7371 0.42299,0 0.76909,-0.0785 0.76909,-0.17439 0,-0.74693 -4.89349,-6.12923 -7.53509,-8.28776 -6.90597,-5.64307 -15.2182,-9.33719 -28.873717,-12.83207 -9.239805,-2.36476 -17.079409,-4.75268 -22.186132,-6.75783 -7.426457,-2.91598 -14.158833,-6.53306 -22.301411,-11.9818 -3.95769,-2.64835 -4.802637,-3.35782 -3.998992,-3.35782 0.165259,0 1.861899,0.99188 3.770312,2.20418 5.724843,3.63667 13.897584,7.93741 19.180043,10.09312 5.44232,2.22094 14.739196,5.12664 20.405407,6.37761 12.46534,2.75208 22.8332,6.36322 29.44201,10.25467 4.6159,2.71797 9.78628,7.30078 12.89066,11.42572 0.65447,0.86963 1.29866,1.65952 1.43153,1.75531 0.35994,0.25947 0.99118,-0.22363 1.84586,-1.41265 0.41961,-0.58375 1.13393,-1.28759 1.58738,-1.56409 0.9758,-0.59503 2.42583,-0.66575 2.63202,-0.12837 0.20965,0.54636 2.39548,0.35779 2.51129,-0.21665 0.10829,-0.53709 1.14779,-0.5526 2.15426,-0.0321 0.41709,0.21568 1.38155,1.10865 2.14323,1.98437 0.76169,0.87573 1.48072,1.59223 1.59788,1.59223 0.11715,0 0.95443,-0.98226 1.8606,-2.18281 4.61161,-6.10975 10.60754,-10.67787 18.73504,-14.27365 5.79935,-2.56577 11.23815,-4.2375 24.36572,-7.48932 5.91476,-1.46515 13.29764,-3.69384 16.76638,-5.06132 7.11631,-2.80547 15.72082,-7.20875 22.22965,-11.37579 3.0022,-1.92205 4.20595,-2.46535 3.71994,-1.67896 -0.27231,0.44062 -10.83593,7.35447 -13.3572,8.74225 -7.37748,4.06078 -13.1776,6.54651 -20.67758,8.86172 -5.44161,1.67981 -10.4734,3.1266 -11.86617,3.41188 -0.98372,0.20149 -4.45209,1.17156 -9.65729,2.70103 -10.56013,3.10294 -19.32752,7.88468 -25.13542,13.70883 -2.35505,2.36166 -4.74628,5.33205 -4.43534,5.50962 0.1111,0.0635 0.67273,0.20046 1.24804,0.30449 2.48248,0.44885 4.64733,2.02668 5.73384,4.17905 1.06891,2.11751 1.18441,4.91015 0.2857,6.90751 l -0.57791,1.28432 0.59264,0.7353 c 0.32594,0.40441 1.36652,1.25453 2.31241,1.88915 3.8123,2.55775 6.50782,5.14511 8.01904,7.69721 l 0.89604,1.51323 0.90027,-0.67281 c 6.22509,-4.65226 18.58373,-8.39451 37.0159,-11.2086 1.96453,-0.29992 4.22672,-0.65861 5.02708,-0.79707 0.80036,-0.13846 4.01505,-0.61232 7.14375,-1.05302 3.1287,-0.44069 6.9387,-0.97772 8.46667,-1.19338 1.52797,-0.21566 5.09984,-0.69628 7.9375,-1.06805 2.83765,-0.37177 5.51656,-0.72605 5.95312,-0.7873 0.43656,-0.0613 2.63922,-0.35423 4.89479,-0.65105 5.944,-0.78221 17.36133,-2.47204 25.13542,-3.7202 3.71078,-0.59577 8.65187,-1.36627 10.98021,-1.7122 2.32833,-0.34593 5.36442,-0.81132 6.74687,-1.03421 1.38245,-0.22289 5.07339,-0.7676 8.20208,-1.21048 3.1287,-0.44287 6.10527,-0.86715 6.61459,-0.94284 0.50932,-0.0757 3.66448,-0.54578 7.01146,-1.04466 3.34698,-0.49887 6.68073,-0.9752 7.40833,-1.05851 0.7276,-0.0833 3.22792,-0.38364 5.55625,-0.66743 14.72398,-1.79459 30.03087,-2.64709 38.35466,-2.1361 8.49445,0.52146 16.94318,1.48477 21.0443,2.39944 0.65484,0.14605 2.8575,0.62902 4.89479,1.07328 2.03729,0.44426 4.06135,0.91708 4.49791,1.05073 0.43657,0.13364 2.10344,0.61463 3.70417,1.06887 2.95145,0.83752 9.53744,3.18626 12.43542,4.4348 6.72258,2.8963 16.5822,9.1202 20.6375,13.02745 0.87312,0.84126 2.19165,2.10411 2.93005,2.80635 2.2715,2.16028 5.14614,5.66348 7.12295,8.68047 5.75053,8.77638 8.01468,20.01018 5.427,26.9264 -0.50755,1.35652 -2.16763,3.63763 -2.64731,3.63763 -0.12261,0 -0.30049,-0.38695 -0.39527,-0.8599 -0.56872,-2.83787 -2.853,-8.51483 -4.05093,-10.06752 -1.25044,-1.62074 -4.06781,-4.12243 -5.47608,-4.86251 -7.29408,-3.83322 -16.23687,-1.00137 -25.63304,8.11701 -4.80483,4.66279 -8.65473,9.46492 -14.84826,18.52083 -3.76862,5.51032 -9.70904,13.57462 -12.24566,16.62378 -3.18037,3.82303 -11.899,12.61412 -15.03209,15.15704 -7.65548,6.2134 -11.12374,8.74423 -16.51074,12.04801 -6.29412,3.86012 -9.92264,5.73899 -13.92549,7.21073 -5.79411,2.13032 -9.18888,2.65288 -14.17752,2.18234 -4.7988,-0.45263 -7.33022,-1.02444 -14.4949,-3.27418 -1.96453,-0.61687 -3.73272,-1.16476 -3.92933,-1.21753 -0.19658,-0.0528 0.87903,1.37362 2.39025,3.16975 5.0682,6.02369 8.90272,11.90194 10.94726,16.78191 3.48592,8.32037 4.57222,15.76932 3.27782,22.47669 -0.68241,3.53616 -1.50471,5.85258 -3.34023,9.40914 -2.13479,4.13649 -4.35541,6.92314 -10.12224,12.70243 -12.00449,12.03039 -20.86134,17.90735 -33.79862,22.42706 -10.54997,3.68573 -16.72148,4.68281 -24.82387,4.01066 -5.37035,-0.4455 -27.21909,-3.83434 -30.82396,-4.78094 -10.54473,-2.76892 -10.81037,-2.85528 -15.61041,-5.07386 -4.25797,-1.96805 -9.07931,-6.45014 -12.54808,-11.66524 -2.55098,-3.83519 -5.58572,-10.13079 -7.29456,-15.13258 -1.04762,-3.06633 -3.26295,-11.12668 -4.10864,-14.94896 -0.758,-3.42588 -2.1323,-10.33888 -2.52478,-12.7 -0.27816,-1.67349 -0.62405,-3.63802 -0.76864,-4.36562 -0.69663,-3.50588 -2.61361,-16.5252 -3.97365,-26.9875 -0.15134,-1.16417 -0.45524,-3.24776 -0.67532,-4.63021 -0.22011,-1.38245 -0.69527,-4.5376 -1.05595,-7.01146 -0.36068,-2.47385 -0.8581,-5.86713 -1.10535,-7.54062 l -0.44956,-3.04271 -0.46532,4.49792 c -0.58409,5.64617 -1.1966,12.05834 -1.52908,16.00729 -0.14089,1.67349 -0.38116,4.53099 -0.53393,6.35 -0.15277,1.81901 -0.33483,3.78354 -0.4046,4.36562 -0.0698,0.58209 -0.36806,3.49912 -0.66283,6.48229 -1.11099,11.24295 -1.86468,16.40113 -4.65852,31.88229 -0.36767,2.0373 -0.88609,5.01386 -1.15208,6.61459 -0.76845,4.62465 -1.23862,6.11103 -3.19307,10.0947 -1.01047,2.05959 -2.18355,4.61944 -2.60686,5.68854 -2.35228,5.94111 -2.88594,6.98389 -4.4732,8.7408 -1.30712,1.44682 -2.07711,1.77575 -4.53282,1.93641 -2.47597,0.16195 -3.4013,-0.12714 -4.75133,-1.48437 -1.37788,-1.38522 -2.26807,-2.92502 -3.47359,-6.00837 -1.82483,-4.66741 -2.69999,-6.6567 -3.557,-8.08535 -1.88876,-3.14862 -2.84702,-6.05935 -3.45199,-10.48549 -0.0895,-0.65484 -0.44456,-2.61937 -0.78902,-4.36562 -0.34446,-1.74625 -0.8682,-4.42516 -1.16387,-5.95313 -0.8246,-4.26122 -1.97549,-11.30321 -2.27016,-13.89062 -0.0663,-0.58209 -0.30059,-2.48709 -0.52064,-4.23334 -1.24817,-9.9044 -1.50138,-12.26692 -1.99914,-18.65312 -0.30059,-3.8563 -0.595,-7.42818 -0.65426,-7.9375 -0.0593,-0.50932 -0.29758,-3.00963 -0.52957,-5.55625 -0.23201,-2.54661 -0.53789,-5.70177 -0.67974,-7.01146 -0.14187,-1.30968 -0.32218,-3.51234 -0.40071,-4.89479 -0.27845,-4.9013 -0.40923,-4.74676 -1.3435,1.5875 -0.48292,3.27422 -1.0532,7.26281 -1.26727,8.86354 -1.45966,10.91401 -1.80208,13.33309 -2.00372,14.15521 -0.12491,0.50932 -0.30377,1.58089 -0.39748,2.38125 -0.0937,0.80036 -0.27692,2.11005 -0.40715,2.91042 -0.13022,0.80036 -0.37234,2.46724 -0.53805,3.70416 -0.87019,6.49533 -3.31505,20.42811 -4.73565,26.9875 -2.61064,12.05413 -5.03457,19.548 -8.386468,25.92771 -3.908161,7.43847 -7.253632,11.59063 -12.099078,15.01659 -2.040414,1.44267 -6.556746,3.80812 -9.257797,4.84881 -1.24968,0.48148 -8.955617,2.52907 -10.485147,2.78606 -0.363802,0.0611 -1.197239,0.22796 -1.852083,0.37073 -5.438801,1.18584 -22.437512,3.75637 -27.913541,4.22106 -3.449354,0.29271 -5.835361,0.29572 -9.524999,0.0122 z"
       id="path3016" />
  </g>
</svg>
