<?xml version="1.0" encoding="UTF-8" standalone="no"?>
<!-- Created with Inkscape (http://www.inkscape.org/) -->

<svg
   width="508.75684mm"
   height="251.31149mm"
   viewBox="0 0 508.75684 251.31149"
   version="1.1"
   id="svg3838"
   xmlns="http://www.w3.org/2000/svg"
   xmlns:svg="http://www.w3.org/2000/svg">
  <defs
     id="defs3835" />
  <g
     id="layer1"
     transform="translate(-18.868935,-47.595755)">
    <path
       style="fill:#000000;stroke-width:0.264583"
       d="m 172.20343,298.69626 c -1.79226,-0.35372 -3.24326,-1.12615 -5.32209,-2.83313 -2.97476,-2.44266 -3.39302,-2.50283 -9.41664,-1.35427 -3.54767,0.67646 -5.83116,0.58785 -7.6672,-0.2975 -0.80783,-0.38955 -2.46106,-1.76353 -4.36563,-3.62823 -4.04562,-3.96092 -4.5254,-4.18478 -9.28313,-4.33113 -4.47389,-0.13763 -6.75709,-2.27282 -8.88742,-8.31122 -1.24211,-3.52076 -3.95384,-5.68854 -7.11594,-5.68854 -1.22558,0 -3.35318,-1.17671 -4.02995,-2.2288 -0.32253,-0.50144 -0.89509,-2.00948 -1.27234,-3.35126 -0.37726,-1.34178 -0.91181,-2.88235 -1.18789,-3.42353 -0.7439,-1.45817 -2.38045,-2.87853 -4.9638,-4.30807 -2.54097,-1.40611 -3.69171,-2.49815 -4.5998,-4.36515 -0.53264,-1.09511 -0.62436,-1.80036 -0.78078,-6.0034 -0.19403,-5.21353 -0.29142,-5.63454 -2.30935,-9.98331 -2.742068,-5.90929 -2.117122,-10.50768 2.78794,-20.51379 1.79412,-3.65994 4.30866,-7.63476 6.39736,-10.11256 2.1317,-2.5288 6.97546,-7.42525 8.89635,-8.99311 2.16941,-1.77072 9.58004,-6.9213 11.9922,-8.33489 0.9204,-0.53939 1.63155,-1.02261 1.58033,-1.07383 -0.0512,-0.0512 -0.56623,0.0132 -1.14447,0.14309 -1.46206,0.3285 -8.63779,1.23945 -12.29577,1.56093 -6.23912,0.54831 -7.90702,0.58995 -12.03854,0.30051 -10.710845,-0.75036 -16.413584,-2.36213 -23.680212,-6.69276 -1.382448,-0.82388 -3.406298,-1.94943 -4.497443,-2.50121 -1.831845,-0.92634 -2.002155,-1.08347 -2.222039,-2.05015 -0.130974,-0.5758 -0.726498,-1.78402 -1.323388,-2.68493 -0.596889,-0.90091 -1.382911,-2.14453 -1.746713,-2.7636 -1.082259,-1.84165 -3.702907,-4.25264 -6.168916,-5.67539 -6.84619,-3.94986 -7.19245,-4.42237 -8.09677,-11.04903 -0.38711,-2.83662 -1.25563,-4.41274 -3.82574,-6.94263 -1.64199,-1.6163 -2.74438,-2.42611 -4.6633,-3.42568 -3.06723,-1.59771 -4.82714,-3.1719 -5.4351,-4.86155 -0.27988,-0.77787 -0.52068,-2.61409 -0.64807,-4.94194 -0.30315,-5.53971 -1.0649,-6.88025 -5.56478,-9.79293 -3.87148,-2.50593 -4.91981,-4.04283 -5.30152,-7.77229 -0.40551,-3.96201 -1.00848,-5.3788 -3.16548,-7.4379 -1.46315,-1.39676 -2.84717,-3.33388 -3.17081,-4.438 -0.15895,-0.54228 -0.40181,-2.20371 -0.53968,-3.69208 -0.30527,-3.29549 -0.71827,-4.42027 -2.51139,-6.839584 -3.17271,-4.280704 -3.74644,-5.972423 -3.26253,-9.620054 0.47683,-3.594301 0.36222,-5.572691 -0.43356,-7.48417 -2.46304,-5.916293 -2.55313,-6.828404 -1.08776,-11.01266 1.09286,-3.120548 1.2083,-4.76669 0.53515,-7.630892 -0.51351,-2.184882 -0.35289,-4.645949 0.39944,-6.120633 1.62462,-3.184525 7.02548,-5.959808 15.1054,-7.762054 2.58041,-0.575567 3.35245,-0.619668 10.84792,-0.619668 8.12277,0 9.64829,0.110763 16.66875,1.21026 3.57985,0.560652 4.50877,0.7468 8.731246,1.749655 7.66332,1.820074 12.891222,3.417628 20.372916,6.225601 10.763859,4.039809 15.434929,6.10231 28.971879,12.792463 9.30602,4.599173 12.04933,6.020848 21.56354,11.17495 2.83765,1.537234 6.94531,3.738083 9.12812,4.890772 2.18281,1.152692 4.08781,2.189255 4.23333,2.303476 0.14553,0.11422 3.65787,2.023102 7.80521,4.241961 7.05393,3.773903 9.69584,5.218869 22.42344,12.264307 6.49944,3.5978 15.44124,8.69405 19.90989,11.34734 1.96454,1.16645 4.88157,2.89817 6.4823,3.84825 12.14191,7.20661 27.38405,17.91224 32.59431,22.89328 1.36183,1.30194 2.50933,2.32049 2.54997,2.26346 0.0406,-0.057 0.74237,-1.23479 1.55943,-2.61723 1.76953,-2.99406 2.76315,-3.98661 5.80125,-5.7951 2.98744,-1.77832 3.03231,-1.83757 2.64909,-3.4978 -0.45352,-1.96485 -0.3743,-3.11987 0.31533,-4.59773 1.07786,-2.30971 3.77397,-4.10104 6.17239,-4.10104 0.83492,0 0.78189,-0.41572 -0.35396,-2.77554 -1.08519,-2.25453 -1.42306,-2.55262 -5.10117,-4.5005 -1.37387,-0.72761 -2.5423,-1.46378 -2.59649,-1.63595 -0.1089,-0.3461 3.78132,1.22204 5.18732,2.09101 l 0.89035,0.55025 -0.4004,-0.76415 c -0.31924,-0.60933 -1.16525,-1.11385 -4.17533,-2.49002 -3.89509,-1.78076 -5.16541,-2.70975 -2.45346,-1.7942 0.83312,0.28126 2.28259,0.85953 3.22101,1.28503 2.15244,0.97597 2.35355,0.96912 1.55369,-0.0529 -0.52314,-0.66846 -1.36025,-1.08598 -4.3765,-2.18281 -2.05129,-0.74594 -3.72785,-1.47531 -3.7257,-1.62083 0.006,-0.42274 1.09209,-0.16962 3.99552,0.93139 1.49133,0.56552 2.75114,0.98859 2.79958,0.94015 0.0484,-0.0484 -0.3044,-0.49676 -0.78409,-0.99626 -0.7367,-0.76715 -1.26248,-1.00047 -3.38569,-1.50239 -3.76838,-0.89084 -5.17966,-1.38313 -4.71331,-1.64412 0.32954,-0.18442 3.65413,0.48469 6.12537,1.23279 0.4804,0.14544 0.43188,0.0259 -0.30221,-0.74476 -0.84346,-0.88541 -0.99388,-0.93431 -4.23333,-1.37644 -4.0154,-0.54802 -4.54943,-0.6619 -4.54943,-0.97009 0,-0.35748 2.04094,-0.28315 4.63195,0.16868 1.27601,0.22252 2.37001,0.35457 2.43113,0.29345 0.0611,-0.0611 -0.24562,-0.36516 -0.68165,-0.67564 -0.62227,-0.4431 -1.43645,-0.62054 -3.78555,-0.82501 -3.90298,-0.33973 -4.71255,-0.48329 -4.71255,-0.8357 0,-0.29888 5.59319,-0.10209 6.55611,0.23067 0.32499,0.11231 0.26599,-0.0405 -0.20611,-0.53378 -0.63524,-0.66373 -0.81359,-0.69804 -4.49792,-0.86529 -2.11005,-0.0958 -4.01505,-0.27375 -4.23333,-0.39546 -0.39095,-0.21801 2.76828,-0.35621 5.82083,-0.25463 l 1.45521,0.0484 -0.8663,-0.54477 c -0.76813,-0.48305 -1.28767,-0.54476 -4.5861,-0.54476 -2.85895,0 -3.69401,-0.0765 -3.60825,-0.33073 0.12573,-0.37273 0.0995,-0.36987 3.90128,-0.42483 l 2.77812,-0.0402 -0.8663,-0.52818 c -0.7526,-0.458866 -1.33421,-0.528181 -4.43177,-0.528181 -2.20059,0 -3.56547,-0.101283 -3.56547,-0.264583 0,-0.145521 0.56555,-0.283917 1.25677,-0.307544 1.30331,-0.04455 2.10389,-0.08182 3.90261,-0.181639 1.05029,-0.05829 1.0533,-0.06151 0.39819,-0.424085 -0.50789,-0.281109 -1.43197,-0.33102 -4.00769,-0.216466 -1.84119,0.08189 -3.56817,0.06391 -3.83778,-0.03994 -1.00942,-0.388819 0.38684,-0.70675 3.34279,-0.761156 2.84084,-0.05229 2.89502,-0.06459 2.31606,-0.525661 -0.51895,-0.41329 -0.94422,-0.451094 -3.41294,-0.30339 -3.01503,0.180393 -5.32627,-0.03657 -4.68902,-0.440177 0.20097,-0.12728 1.13929,-0.242067 2.08518,-0.255082 0.94588,-0.01302 2.25557,-0.109884 2.91041,-0.215265 1.09847,-0.176771 1.13943,-0.21019 0.52917,-0.431739 -0.3638,-0.132075 -2.0475,-0.203491 -3.74155,-0.158702 -1.69405,0.04479 -3.33116,0.0019 -3.63802,-0.09565 -1.28543,-0.407984 -0.36174,-0.658799 2.68322,-0.728591 2.8335,-0.06495 3.14849,-0.115496 2.50446,-0.401923 -0.40518,-0.180197 -2.18262,-0.394674 -3.94988,-0.476615 -1.76723,-0.08194 -3.31097,-0.209423 -3.43048,-0.283295 -0.63413,-0.391914 0.0551,-0.503007 2.56079,-0.412768 1.52797,0.05503 2.77813,0.03121 2.77813,-0.05292 0,-0.512376 -1.77528,-0.962732 -3.88946,-0.986682 -1.28055,-0.0145 -2.62591,-0.116474 -2.98971,-0.226597 l -0.66146,-0.200223 0.75047,-0.2047 c 0.41277,-0.112586 1.64385,-0.123746 2.73574,-0.02479 1.18924,0.107768 1.92497,0.08234 1.83491,-0.06342 -0.29083,-0.470548 -1.63978,-0.80786 -3.91163,-0.978111 -1.38742,-0.103971 -2.48584,-0.325523 -2.77812,-0.560348 -0.43003,-0.345464 -0.19106,-0.370536 2.16238,-0.22687 l 2.64584,0.161512 -0.74729,-0.510116 c -0.47972,-0.327462 -1.44701,-0.573524 -2.7014,-0.687195 -2.13262,-0.193251 -3.56277,-0.592417 -3.56277,-0.994388 0,-0.141092 0.20836,-0.198549 0.46302,-0.12768 0.25466,0.07087 1.29646,0.200218 2.3151,0.287443 1.83671,0.157276 1.84552,0.154916 1.06212,-0.284438 -0.43447,-0.243668 -1.73059,-0.606263 -2.88025,-0.805772 -3.01813,-0.523754 -3.4801,-0.947809 -0.8277,-0.759765 1.76289,0.124982 2.04361,0.09278 1.6796,-0.192677 -0.2404,-0.188505 -1.32596,-0.492099 -2.41239,-0.674651 -1.08641,-0.182549 -2.19943,-0.510997 -2.47335,-0.729879 -0.46667,-0.372914 -0.44805,-0.389488 0.29572,-0.263231 0.43657,0.0741 1.38907,0.208467 2.11667,0.298585 l 1.32292,0.163851 -0.78857,-0.543073 c -0.43373,-0.298691 -1.1481,-0.611714 -1.5875,-0.695611 -2.31045,-0.441135 -3.31248,-0.735796 -3.31248,-0.974088 0,-0.271941 1.68723,-0.170092 2.91042,0.175684 l 0.66146,0.186981 -0.66146,-0.538385 c -0.3638,-0.296114 -0.93252,-0.60697 -1.26381,-0.690793 -1.08347,-0.274132 -3.49869,-1.471189 -3.49869,-1.734044 0,-0.388943 0.39756,-0.313891 1.70691,0.322241 0.65556,0.318487 1.27315,0.497811 1.37247,0.398497 0.32139,-0.321387 -0.70583,-1.184532 -2.43017,-2.041996 -0.92623,-0.460587 -1.82536,-1.007703 -1.99808,-1.215811 -0.58751,-0.707879 0.0116,-0.709924 1.07892,-0.0037 0.58504,0.387162 1.0637,0.603932 1.0637,0.481713 0,-0.396134 -1.15763,-1.297913 -2.57969,-2.009521 -0.76398,-0.382304 -1.38906,-0.812157 -1.38906,-0.955227 0,-0.340847 0.97949,-0.33718 1.19063,0.0044 0.25408,0.411122 0.6628,0.311361 0.49678,-0.121259 -0.0814,-0.212214 -0.673,-0.693481 -1.31461,-1.069486 -0.64159,-0.376004 -1.16655,-0.797689 -1.16655,-0.937074 0,-0.330364 0.17489,-0.319625 0.87728,0.05387 0.43373,0.230627 0.3469,0.03818 -0.34811,-0.771355 -0.50932,-0.593257 -1.08191,-1.088729 -1.27238,-1.101045 -0.1905,-0.01233 -0.26678,-0.151136 -0.16955,-0.308481 0.0973,-0.157345 -0.1634,-0.641204 -0.57925,-1.07524 -0.57618,-0.601416 -0.63352,-0.742132 -0.24096,-0.591495 0.49806,0.191114 0.4971,0.171956 -0.0288,-0.578405 -0.58573,-0.835829 -3.26535,-5.799839 -3.26535,-6.049103 0,-0.43059 0.50982,-0.03842 1.09368,0.841264 3.37061,5.078529 4.15443,6.117492 4.30985,5.712529 0.27228,-0.709546 0.59799,-0.04349 0.66752,1.365075 0.0143,0.291042 0.25416,0.825958 0.53284,1.188704 l 0.50673,0.659538 -0.156,-1.163061 c -0.10538,-0.785696 -0.0651,-1.1069 0.12407,-0.989973 0.15404,0.0952 0.36584,0.796806 0.47069,1.559121 0.10486,0.762317 0.4594,1.781548 0.78788,2.264955 l 0.59724,0.878925 -0.14049,-1.246558 c -0.10131,-0.898621 -0.0558,-1.194213 0.16295,-1.059011 0.1669,0.103151 0.30345,0.337505 0.30345,0.520787 0,0.782265 0.84149,3.071768 1.33935,3.64413 0.48795,0.560959 0.52832,0.569979 0.41376,0.09244 -0.0698,-0.291042 -0.20818,-1.05025 -0.30747,-1.687131 -0.24062,-1.543283 0.23537,-1.233311 0.65037,0.423545 0.17407,0.694973 0.42748,1.690687 0.56316,2.212699 0.13568,0.522013 0.50602,1.176856 0.82299,1.455209 0.49167,0.431752 0.55253,0.440703 0.41434,0.06094 -0.0891,-0.244835 -0.2353,-1.197335 -0.32488,-2.116667 -0.21284,-2.184477 0.26511,-1.515269 0.82063,1.149011 0.43574,2.089907 0.65143,2.600913 1.33138,3.154363 0.41444,0.337322 0.44095,0.32213 0.26321,-0.150792 -0.10872,-0.289247 -0.2598,-1.301279 -0.33573,-2.248958 -0.1859,-2.3197 0.24688,-1.656527 0.84489,1.29467 0.40328,1.990172 1.16721,3.562469 1.54657,3.183107 0.0659,-0.06588 -0.048,-0.833168 -0.2531,-1.705094 -0.20508,-0.871924 -0.37473,-1.878722 -0.377,-2.237328 -0.008,-1.247738 0.70127,0.01606 1.03399,1.842635 0.45415,2.493293 0.74358,3.268348 1.36564,3.656825 0.49742,0.310642 0.53666,0.294148 0.39114,-0.164362 -0.41005,-1.292026 -0.85966,-4.306371 -0.66064,-4.429371 0.26842,-0.165907 0.96467,2.088346 1.20534,3.902647 0.15972,1.204015 1.27137,3.094802 1.6166,2.749597 0.0703,-0.07032 -0.14584,-1.263078 -0.48033,-2.65058 -0.53326,-2.211953 -0.56882,-3.214653 -0.0973,-2.743139 0.0799,0.07987 0.49028,1.540489 0.912,3.245811 0.69442,2.80793 1.18186,3.797043 1.8887,3.832492 0.0923,0.0046 -0.15648,-1.241743 -0.55277,-2.769711 -0.39632,-1.527969 -0.62484,-2.778125 -0.50784,-2.778125 0.36473,0 0.7016,0.86555 1.38631,3.562069 0.59246,2.33322 1.45619,3.969144 1.87465,3.550679 0.0736,-0.07364 -0.16118,-1.23648 -0.52181,-2.584082 -0.36065,-1.347602 -0.65571,-2.64668 -0.65571,-2.88684 0,-1.011748 0.75776,0.708052 1.4333,3.252965 0.4763,1.794357 0.90955,2.854188 1.34628,3.293261 0.35417,0.356084 0.68884,0.594209 0.74371,0.529167 0.0549,-0.06504 -0.21553,-1.402001 -0.60087,-2.971017 -0.38531,-1.569016 -0.64669,-2.906668 -0.58078,-2.972559 0.32842,-0.328438 1.17927,2.239552 2.01864,6.092565 0.0637,0.292508 0.49776,0.757425 0.96451,1.033153 0.83381,0.49254 0.8451,0.492493 0.64508,-0.0027 -0.11197,-0.277194 -0.47996,-1.516018 -0.81772,-2.752945 -0.3378,-1.236927 -0.70295,-2.476849 -0.81145,-2.755381 -0.14407,-0.369806 -0.10787,-0.451165 0.13414,-0.301583 0.41997,0.259551 1.16351,2.004325 1.58462,3.718422 0.17877,0.727605 0.4986,1.590808 0.71075,1.91823 0.29638,0.457422 0.30771,0.597249 0.0489,0.603673 -0.18526,0.0046 0.004,0.308361 0.42129,0.675026 0.41696,0.366668 0.80463,0.620165 0.86146,0.563332 0.0568,-0.05683 -0.19502,-1.425072 -0.5597,-3.040525 -0.78198,-3.464174 -0.7747,-3.382761 -0.25583,-2.863871 0.22397,0.223962 0.75576,1.810043 1.18177,3.524628 0.56115,2.258618 0.93308,3.246803 1.35006,3.587059 0.31655,0.258303 0.61388,0.431269 0.6608,0.384374 0.0741,-0.07414 -0.86929,-3.990078 -1.36909,-5.682655 -0.19047,-0.645083 0.18206,-0.805264 0.61534,-0.264583 0.32541,0.406051 0.97547,2.676255 1.40428,4.904108 0.23524,1.222221 0.49524,1.800738 0.98097,2.182812 0.36348,0.285917 0.74789,0.519851 0.85426,0.519851 0.10633,0 -0.0314,-0.803672 -0.3061,-1.785938 -1.03518,-3.701462 -1.23822,-4.828646 -0.86979,-4.828646 0.41677,0 0.73681,0.937845 1.53583,4.500542 0.54726,2.440257 0.71056,2.819214 1.46587,3.401692 l 0.85,0.6555 -0.27427,-0.640845 c -0.21632,-0.505407 -0.85979,-3.665849 -1.1643,-5.718582 -0.0257,-0.173379 0.0624,-0.351973 0.19577,-0.396875 0.32345,-0.108876 0.78734,1.482884 1.33506,4.580972 0.39658,2.243201 0.54062,2.612885 1.21147,3.108859 0.98515,0.72835 1.06897,0.7106 0.7779,-0.1647 -0.36563,-1.09954 -1.10051,-5.663525 -0.93808,-5.825953 0.28459,-0.284589 0.89382,1.721784 1.34189,4.419161 0.39185,2.359012 0.57142,2.878392 1.23489,3.571872 l 0.77637,0.81148 -0.15103,-0.92604 c -0.38756,-2.376206 -0.65997,-4.712874 -0.64775,-5.556249 l 0.0135,-0.926042 0.3914,1.058333 c 0.21526,0.582084 0.5738,2.368021 0.79674,3.968748 0.30715,2.20544 0.53919,3.05437 0.958,3.50469 0.30398,0.32685 0.59177,0.55519 0.63952,0.50743 0.13539,-0.13538 -0.37094,-5.81297 -0.5603,-6.283124 -0.10748,-0.266808 -0.0298,-0.418925 0.21378,-0.418925 0.47313,0 0.89453,2.003819 1.13342,5.389529 0.15764,2.23418 0.23516,2.49569 0.93985,3.17085 l 0.76806,0.73583 -0.14904,-1.05418 c -0.47918,-3.38928 -0.61616,-5.31038 -0.39462,-5.53446 0.51451,-0.52035 0.65026,0.16272 1.21303,6.10311 0.0828,0.87402 0.36174,1.67415 0.78243,2.24436 l 0.65376,0.88611 -0.14177,-3.43499 c -0.13009,-3.15273 -0.10996,-3.36693 0.24488,-2.60691 0.23754,0.50874 0.43449,2.00529 0.51077,3.88083 0.0919,2.26068 0.24032,3.23004 0.57182,3.736 0.24622,0.37577 0.50774,0.68323 0.58116,0.68323 0.0734,0 0.0492,-1.23662 -0.0538,-2.74804 -0.13441,-1.9719 -0.10099,-2.80139 0.11829,-2.93691 0.16807,-0.10388 0.34923,-0.14523 0.40259,-0.0919 0.0533,0.0533 0.18185,1.73314 0.28557,3.73287 0.12134,2.33962 0.31332,3.80017 0.53845,4.09669 0.29745,0.39178 0.35113,0.0546 0.35827,-2.25117 0.008,-2.49779 0.24194,-3.33491 0.64157,-2.29347 0.0883,0.23019 0.16242,1.86729 0.16465,3.63802 0.004,3.1212 0.2436,4.46703 0.62058,3.48464 0.093,-0.24239 0.16912,-1.19784 0.16912,-2.12324 0,-0.92539 0.11906,-1.75612 0.26458,-1.84606 0.17037,-0.10529 0.26458,0.89022 0.26458,2.79557 0,2.63268 0.0784,3.13786 0.71086,4.57968 0.39098,0.89132 0.75891,1.68012 0.81767,1.75288 0.0588,0.0728 0.91911,-0.76068 1.91188,-1.85209 1.75535,-1.92976 1.80985,-1.96529 1.98046,-1.29125 0.15219,0.60125 0.35057,0.71386 1.49669,0.84961 1.88733,0.22352 2.80464,-0.0176 3.06755,-0.8064 0.21331,-0.63992 0.26707,-0.60667 2.0152,1.24644 0.9878,1.04713 1.82933,1.86283 1.87005,1.81264 0.0407,-0.0502 0.38936,-0.79024 0.77475,-1.64457 0.62585,-1.38736 0.70073,-1.87502 0.70073,-4.56406 0,-1.65591 0.10287,-3.01074 0.22862,-3.01074 0.26448,0 0.5615,1.90433 0.57317,3.67495 0.006,0.88142 0.0764,1.10289 0.25453,0.79829 0.20566,-0.35175 0.33144,-2.17297 0.50903,-7.37043 0.014,-0.41457 0.1138,-0.55658 0.27639,-0.39399 0.13983,0.13983 0.28866,1.44357 0.33072,2.89719 0.0709,2.45119 0.10422,2.59496 0.45855,1.98149 0.24937,-0.43172 0.44569,-1.90202 0.56526,-4.23333 0.2086,-4.06826 0.15581,-3.70417 0.53716,-3.70417 0.20365,0 0.26328,0.89347 0.19423,2.91042 -0.0548,1.60073 -0.0662,2.91041 -0.0254,2.91041 0.0408,0 0.31017,-0.38695 0.59854,-0.85989 0.42325,-0.6942 0.52445,-1.33441 0.52528,-3.32242 0,-2.46205 0.39819,-4.81352 0.81309,-4.81352 0.12107,0 0.15261,1.45852 0.0701,3.24115 l -0.15001,3.24114 0.65172,-0.85637 c 0.57242,-0.75219 0.67275,-1.22491 0.82473,-3.88594 0.17957,-3.14389 0.52919,-4.66424 0.97099,-4.22243 0.15635,0.15634 0.11833,1.38298 -0.10178,3.28423 -0.19325,1.66907 -0.31607,3.07818 -0.27295,3.13135 0.0431,0.0532 0.3678,-0.2398 0.72155,-0.65104 0.5297,-0.61582 0.67381,-1.1463 0.8169,-3.00709 0.20376,-2.6496 0.66678,-5.260379 0.96573,-5.445135 0.38013,-0.234928 0.49607,0.308766 0.26149,1.226217 -0.12671,0.495665 -0.28861,1.957818 -0.35973,3.249218 l -0.1293,2.34801 0.62317,-0.62821 c 0.51276,-0.51694 0.71316,-1.21978 1.13123,-3.96767 0.52819,-3.471704 1.08283,-5.2083 1.08828,-3.407429 0.003,0.924052 -0.37288,3.920349 -0.68003,5.423959 l -0.16216,0.79375 0.6953,-0.64423 c 0.77152,-0.71486 1.08204,-1.66257 1.6067,-4.903678 0.19527,-1.206223 0.54023,-2.534989 0.76658,-2.952819 l 0.41153,-0.75969 0.006,0.661458 c 0.003,0.363802 -0.21653,1.911615 -0.48889,3.439583 -0.27237,1.527969 -0.47305,2.803706 -0.44598,2.834966 0.0271,0.0313 0.35192,-0.22385 0.72188,-0.56691 0.47125,-0.436954 0.77267,-1.127463 1.00651,-2.305796 0.66018,-3.326762 1.21049,-5.29522 1.47034,-5.259406 0.14552,0.02006 0.24516,0.178324 0.22143,0.351703 -0.13044,0.952513 -0.92133,5.149601 -1.04833,5.563206 -0.14052,0.45771 -0.11161,0.460938 0.50569,0.05647 0.41775,-0.273732 0.77412,-0.880358 0.98457,-1.676095 1.46074,-5.522839 1.82608,-6.518762 2.23967,-6.105165 0.14433,0.14433 -1.25986,5.795086 -1.56122,6.282716 -0.28507,0.461224 0.18198,0.330615 0.87138,-0.243689 0.46209,-0.384945 0.82393,-1.283994 1.38392,-3.438581 0.41704,-1.604544 0.88382,-3.151968 1.03728,-3.43872 0.34546,-0.645523 0.87529,-0.690449 0.6881,-0.05835 -0.0754,0.254661 -0.38693,1.475052 -0.69228,2.711979 -0.30536,1.236927 -0.62254,2.475174 -0.70488,2.751658 -0.14158,0.475335 -0.1075,0.472641 0.62577,-0.0495 0.684,-0.487053 0.86209,-0.92366 1.5095,-3.700698 0.74181,-3.181998 1.0478,-4.019788 1.35575,-3.711855 0.1688,0.168807 -0.71311,4.898967 -1.10022,5.901018 -0.1956,0.506378 -0.1765,0.510759 0.44389,0.101713 0.63106,-0.416075 1.03286,-1.41007 2.25372,-5.575432 0.2426,-0.82773 0.61897,-1.57322 0.83635,-1.656646 0.29239,-0.112196 0.34758,-0.03038 0.21207,0.314344 -0.10076,0.256312 -0.41323,1.418521 -0.69435,2.582688 -0.28115,1.164166 -0.63693,2.33662 -0.79063,2.605452 -0.439,0.767816 -0.14965,0.755438 0.73067,-0.03125 0.62887,-0.561999 0.93134,-1.203571 1.36414,-2.893417 0.65591,-2.561053 1.24077,-4.04641 1.5933,-4.04641 0.14655,0 0.10012,0.53104 -0.10988,1.25677 -1.13406,3.919488 -1.36147,4.828646 -1.20775,4.828646 0.0936,0 0.47041,-0.278336 0.8373,-0.618524 0.50242,-0.465863 0.82386,-1.282835 1.30244,-3.310057 0.37989,-1.609275 0.8287,-2.86649 1.11617,-3.12665 0.26445,-0.239313 0.4808,-0.365723 0.4808,-0.28091 0,0.243212 -1.24748,4.77109 -1.45624,5.28562 -0.10334,0.254662 -0.0745,0.463021 0.064,0.463021 0.63484,0 1.29616,-1.313598 1.95953,-3.89229 0.39642,-1.540997 0.87399,-2.896508 1.06127,-3.01225 0.18727,-0.115739 0.36216,-0.187145 0.38867,-0.158678 0.0265,0.02847 -0.23492,1.182854 -0.58097,2.565302 -0.77902,3.112275 -0.77923,3.131097 -0.0284,2.425707 0.43743,-0.410934 0.79523,-1.344048 1.24346,-3.242807 0.65368,-2.768994 1.29447,-4.184552 1.30694,-2.887067 0.003,0.363802 -0.21448,1.584193 -0.48438,2.711979 -0.2699,1.127787 -0.41777,2.046735 -0.32866,2.042107 0.6192,-0.03216 1.06063,-0.993002 1.60673,-3.497315 0.44231,-2.028394 0.73062,-2.844271 1.00513,-2.844271 0.23945,0 0.32528,0.15544 0.22712,0.411279 -0.0868,0.226205 -0.28366,1.199023 -0.43749,2.16182 -0.1538,0.962795 -0.34068,1.849282 -0.41527,1.969969 -0.0746,0.120687 -0.0164,0.219432 0.1296,0.219432 0.51308,0 1.07899,-1.17588 1.51953,-3.157368 0.24479,-1.101103 0.61092,-2.359194 0.81362,-2.795757 0.35044,-0.754798 0.36131,-0.715846 0.22132,0.79375 -0.081,0.873125 -0.22082,2.004219 -0.31083,2.513542 l -0.16362,0.926041 0.56388,-0.704577 c 0.32306,-0.403662 0.74358,-1.590164 0.98462,-2.778125 0.2314,-1.140452 0.58812,-2.247889 0.79266,-2.460974 0.32608,-0.339649 0.37193,-0.335944 0.37193,0.03003 0,0.570571 -0.44881,2.883206 -0.68554,3.532393 -0.17822,0.488752 -0.14226,0.483066 0.47064,-0.07446 0.43453,-0.39528 0.77597,-1.125863 0.98923,-2.116667 0.59237,-2.752114 0.83047,-3.497413 1.11739,-3.497413 0.18256,0 0.22169,0.354036 0.10969,0.992187 -0.54504,3.105293 -0.54993,2.898741 0.056,2.360002 0.34002,-0.302284 0.70575,-1.208032 0.97319,-2.410188 0.4105,-1.845154 1.17481,-3.458538 1.19428,-2.521016 0.005,0.222949 -0.15277,1.026753 -0.34978,1.786231 -0.30893,1.190969 -0.30655,1.337998 0.0175,1.069118 0.56589,-0.469633 1.01116,-1.504495 1.37454,-3.194563 0.17989,-0.836745 0.43762,-1.521354 0.57269,-1.521354 0.32261,0 0.31263,0.836744 -0.0212,1.768713 l -0.26672,0.744828 0.64664,-0.722646 c 0.39322,-0.439459 0.718,-1.217086 0.82878,-1.984375 0.2553,-1.768152 0.62476,-2.337741 0.64683,-0.997145 0.0172,1.04852 0.0209,1.0522 0.3887,0.396875 0.20417,-0.363802 0.44865,-1.108448 0.54321,-1.654771 0.0946,-0.546322 0.28244,-0.925046 0.41743,-0.841613 0.13502,0.08343 0.17696,0.262533 0.0932,0.398 -0.0837,0.135464 -0.0559,0.243874 0.0618,0.240911 0.11771,-0.003 1.28561,-1.608664 2.59529,-3.568224 2.23473,-3.343595 2.77813,-3.984794 2.77813,-3.278097 0,0.384683 -1.7158,3.691747 -2.86697,5.525894 -0.50136,0.798772 -0.71623,1.290209 -0.4775,1.092083 0.62392,-0.517802 0.53698,0.05857 -0.0951,0.630608 -0.29105,0.26339 -0.52917,0.63903 -0.52917,0.834758 0,0.195726 -0.10906,0.355867 -0.24236,0.355867 -0.1333,0 -0.63267,0.492816 -1.10971,1.095145 -0.70906,0.89525 -0.7614,1.038431 -0.28681,0.784439 0.3193,-0.170886 0.58055,-0.205904 0.58055,-0.07782 0,0.304832 -0.89289,1.108649 -1.23148,1.108649 -0.28303,0 -1.41436,1.113933 -1.41436,1.392613 0,0.09234 0.41672,-0.0062 0.92604,-0.219041 0.50933,-0.212807 0.92605,-0.315113 0.92605,-0.227345 0,0.246509 -1.15462,1.151747 -1.48167,1.161637 -0.43619,0.0132 -2.48708,1.558271 -2.48708,1.8737 0,0.150741 0.53578,-0.03991 1.19062,-0.423678 1.10749,-0.649038 1.45375,-0.639244 0.98814,0.02796 -0.29591,0.424021 -2.05801,1.441241 -2.49663,1.441241 -0.47615,0 -2.59067,1.825675 -2.13236,1.841069 0.18034,0.0061 0.92451,-0.215686 1.65372,-0.492763 0.75756,-0.287853 1.39084,-0.398573 1.47752,-0.258323 0.14539,0.235222 -0.59045,0.604687 -3.4412,1.727859 -1.75173,0.69016 -1.93029,1.236697 -0.2376,0.727278 1.29183,-0.388786 2.24235,-0.302604 1.77851,0.161253 -0.13722,0.137195 -1.15925,0.476798 -2.27124,0.754674 -1.11196,0.277879 -2.29955,0.709107 -2.63906,0.958286 -0.60497,0.443995 -0.59087,0.449512 0.70562,0.275998 0.7276,-0.09738 1.59081,-0.240951 1.91823,-0.319043 0.33488,-0.07987 0.59531,-0.01815 0.59531,0.141081 0,0.321538 -1.34165,0.708044 -3.35227,0.965732 -0.80738,0.103476 -1.54731,0.373587 -1.80578,0.659175 -0.4195,0.463542 -0.39537,0.473999 0.57414,0.248981 0.55663,-0.129185 1.48233,-0.237723 2.05714,-0.241194 1.67791,-0.01013 0.75573,0.515755 -1.47143,0.839092 -1.07521,0.156101 -2.37164,0.509095 -2.88097,0.784434 l -0.92604,0.500612 1.71979,-0.153103 c 0.94589,-0.08421 2.07698,-0.218329 2.51354,-0.298051 0.72356,-0.13213 0.75767,-0.107331 0.38542,0.280498 -0.26686,0.278072 -1.34786,0.546687 -3.12068,0.775457 -1.82872,0.235987 -2.85848,0.496139 -3.1609,0.798555 -0.42166,0.421669 -0.29172,0.437822 2.16877,0.269581 1.83867,-0.125722 2.56505,-0.09445 2.44171,0.105135 -0.23734,0.383992 -1.21532,0.564449 -3.78373,0.698164 -1.42529,0.0742 -2.39186,0.264988 -2.84427,0.561411 -0.3769,0.246957 -0.68527,0.502034 -0.68527,0.566838 0,0.0648 1.13109,0.0348 2.51354,-0.06668 1.6579,-0.121698 2.51354,-0.09233 2.51354,0.08629 0,0.315386 -1.533,0.558985 -3.96875,0.63065 -1.7685,0.05203 -2.91042,0.38123 -2.91042,0.839025 0,0.162915 1.03812,0.20713 2.77813,0.118325 1.52797,-0.07799 2.77812,-0.04358 2.77812,0.07646 0,0.378698 -0.86968,0.518898 -4.07551,0.657 -1.98117,0.08534 -3.37235,0.273433 -3.81976,0.516437 -0.6582,0.357505 -0.54126,0.384914 1.80986,0.424104 1.38244,0.02305 2.87073,0.123653 3.30729,0.22358 0.77795,0.178068 0.78134,0.185878 0.16968,0.392531 -0.34325,0.115964 -2.01012,0.174199 -3.70417,0.12941 -1.69405,-0.04479 -3.37775,0.02663 -3.74155,0.158703 -0.61026,0.221549 -0.56931,0.254968 0.52916,0.431739 0.65485,0.105381 2.04679,0.200427 3.09325,0.211214 1.04642,0.0108 1.97077,0.129905 2.05409,0.26471 0.24006,0.388438 -2.5659,0.627915 -4.99068,0.425932 -1.78379,-0.14859 -2.37741,-0.101629 -3.03884,0.240406 -0.4521,0.233788 -0.82198,0.460779 -0.82198,0.504428 0,0.04365 1.12088,0.08842 2.49084,0.09949 2.85654,0.02307 4.20886,0.249547 3.95388,0.662125 -0.11811,0.191079 -1.3802,0.230007 -3.90493,0.120435 -2.89608,-0.125685 -3.83456,-0.08313 -4.19608,0.19026 -0.41966,0.317375 -0.36741,0.36839 0.52916,0.516577 0.54716,0.09043 1.91757,0.165738 3.04536,0.167339 1.29897,0.0019 2.05052,0.108384 2.05052,0.290679 0,0.195972 -1.07609,0.265081 -3.37344,0.216649 -2.79924,-0.05901 -3.52399,0.0079 -4.25791,0.393198 -0.48647,0.25538 -0.84365,0.50038 -0.79375,0.54445 0.068,0.0601 4.13165,0.32779 6.10999,0.40253 0.10914,0.004 0.19844,0.13277 0.19844,0.2859 0,0.18394 -1.25357,0.26125 -3.69456,0.22785 -3.23739,-0.0443 -3.78577,0.0113 -4.43177,0.4492 l -0.73729,0.49975 3.50573,0.0738 c 4.56142,0.0961 4.66362,0.57605 0.13229,0.6214 -4.38547,0.0439 -4.51247,0.0616 -5.17319,0.72235 l -0.56149,0.56149 3.36343,-0.17047 c 2.43319,-0.12331 3.36344,-0.0874 3.36344,0.12991 0,0.38355 -0.47596,0.47118 -4.48913,0.82648 -3.0507,0.27009 -4.50671,0.68633 -4.50671,1.28837 0,0.11258 0.98227,0.0568 2.18282,-0.12397 2.60979,-0.39295 4.69635,-0.44698 4.69635,-0.12161 0,0.31833 -0.62214,0.45147 -4.54694,0.97312 -3.03885,0.4039 -3.42326,0.51596 -4.06403,1.18477 l -0.70768,0.73867 1.15358,-0.14301 c 0.6345,-0.0786 1.74893,-0.33697 2.47653,-0.57404 0.78409,-0.25547 1.70011,-0.36865 2.24896,-0.27786 1.1893,0.1967 0.91688,0.30852 -3.14754,1.29199 -3.39751,0.8221 -4.30813,1.22642 -4.78996,2.12671 -0.37246,0.69594 -0.25861,0.68068 2.66374,-0.35695 3.32185,-1.17949 3.9515,-1.3238 3.94817,-0.90486 -0.003,0.18468 -0.80515,0.59487 -1.78594,0.91154 -4.21034,1.35942 -5.81226,2.07372 -6.50822,2.90201 -0.38444,0.45757 -0.699,0.90606 -0.699,0.99664 0,0.0906 0.62087,-0.14991 1.37969,-0.53444 2.67841,-1.35726 6.11193,-2.4531 5.35395,-1.70877 -0.13824,0.13575 -1.73963,0.91643 -3.55864,1.73483 -3.11515,1.40156 -4.82682,2.54012 -4.42413,2.94281 0.0979,0.0979 0.34595,0.0386 0.55118,-0.13169 0.31152,-0.25855 5.1108,-2.41153 5.37562,-2.41153 0.0466,0 0.0848,0.11156 0.0848,0.24792 0,0.13636 -1.28662,0.91642 -2.85914,1.73346 -1.57255,0.81705 -3.16045,1.74728 -3.52867,2.06718 -0.79399,0.68978 -1.98258,2.97442 -2.22798,4.28241 -0.17116,0.91236 -0.15801,0.92955 0.71499,0.93525 1.84412,0.012 4.59229,1.73417 5.65128,3.54132 0.89752,1.5316 1.05998,2.92405 0.54706,4.68845 -0.23561,0.81054 -0.3532,1.66969 -0.26128,1.90922 0.0919,0.23954 1.129,1.00175 2.30463,1.6938 3.17698,1.87015 5.20234,3.87689 6.54939,6.48916 0.61753,1.1976 1.16033,2.22203 1.20615,2.27653 0.0458,0.0545 1.45159,-1.16295 3.12391,-2.70542 4.40664,-4.06446 12.84737,-10.25886 21.19112,-15.5515 1.89177,-1.2 4.39208,-2.79339 5.55625,-3.54086 8.85454,-5.68524 33.85595,-19.93058 51.99062,-29.623306 2.40109,-1.283351 6.33016,-3.406558 8.73125,-4.71824 2.40109,-1.311682 5.49672,-2.976523 6.87917,-3.699648 1.38244,-0.723124 3.76369,-2.003107 5.29166,-2.844403 6.52584,-3.59311 20.80543,-11.064493 25.13542,-13.151368 12.74477,-6.142471 19.49825,-9.079928 28.44271,-12.371271 12.01176,-4.420044 23.32836,-7.267638 33.60208,-8.455289 7.52898,-0.870355 16.5449,-0.933114 21.14219,-0.147167 5.93587,1.014789 10.29211,2.587012 13.48925,4.868447 3.40757,2.431587 4.17436,4.792044 3.20403,9.862984 -0.56349,2.944741 -0.52229,3.375398 0.68445,7.15422 1.32879,4.16103 1.28693,4.966075 -0.47675,9.171196 -1.36129,3.245681 -1.32496,2.888916 -1.09453,10.751505 0.0937,3.195828 -0.0172,3.498601 -2.58022,7.047902 -2.21581,3.068468 -2.70126,4.291288 -3.04072,7.659098 -0.37476,3.71837 -1.25884,5.79189 -3.33193,7.81491 -2.57974,2.51743 -3.08776,3.59434 -3.53232,7.48763 -0.14824,1.29832 -0.49577,2.872 -0.77226,3.49706 -0.70197,1.58689 -2.63912,3.56784 -4.72536,4.83216 -4.25931,2.58129 -5.60437,5.02016 -5.60437,10.16188 0,5.09124 -0.82302,6.42459 -5.62131,9.10715 -6.14784,3.43701 -8.49652,6.61085 -9.05934,12.24221 -0.38256,3.8276 -1.67671,5.84159 -4.8773,7.59001 -2.5858,1.4126 -5.87116,3.63721 -7.0217,4.7546 -0.87418,0.84899 -2.58905,3.23082 -4.50889,6.2625 -0.29105,0.45959 -0.64823,1.3128 -0.79375,1.89602 -0.25197,1.00981 -0.3981,1.12984 -3.0629,2.51561 -1.53906,0.80037 -3.47207,1.8991 -4.29559,2.44164 -4.1538,2.73651 -9.85004,4.72203 -16.05714,5.59694 -8.11204,1.14343 -15.39589,0.97537 -27.34699,-0.63099 -5.32204,-0.71534 -5.36265,-0.70945 -3.34047,0.48459 1.62081,0.95705 8.47379,5.39106 9.09833,5.88681 8.35047,6.62833 13.77943,12.9617 17.55077,20.4745 2.03427,4.05247 3.57396,7.80829 4.28847,10.4611 0.50626,1.87951 0.58595,2.70532 0.48519,5.02708 -0.11451,2.63872 -0.18798,2.9321 -1.46401,5.84663 -2.09992,4.79623 -2.22962,5.36337 -2.41412,10.55754 -0.14753,4.15372 -0.22817,4.75273 -0.78348,5.82083 -0.86347,1.66076 -1.7013,2.47303 -3.86122,3.74338 -5.03852,2.96333 -5.78573,3.80984 -6.64917,7.53303 -0.93453,4.02963 -2.94333,6.18609 -5.76252,6.18609 -1.3173,0 -3.71871,1.1575 -4.86489,2.3449 -0.66421,0.68812 -1.30186,1.81678 -1.90897,3.37907 -1.38038,3.55206 -1.97789,4.64338 -3.23262,5.90436 -1.67984,1.6882 -2.95625,2.15985 -6.41869,2.37175 -3.91078,0.23934 -4.73596,0.6577 -8.36112,4.23905 -3.60159,3.55809 -4.92483,4.31467 -7.79558,4.45712 -1.37478,0.0682 -2.81747,-0.0498 -4.10432,-0.33578 -3.84205,-0.85382 -5.6949,-1.0508 -6.78866,-0.72176 -0.55911,0.16819 -1.90952,1.03539 -3.00093,1.92712 -2.37273,1.9386 -2.83199,2.19141 -5.00337,2.75407 -1.14449,0.29655 -2.14331,0.37963 -3.16328,0.26302 -1.52969,-0.17486 -7.37648,-1.47915 -9.03126,-2.01467 -0.55058,-0.17819 -3.50063,-0.3325 -7.27605,-0.38063 -8.59969,-0.10959 -10.15558,-0.24328 -13.37198,-1.149 -3.63469,-1.02349 -5.39803,-1.82938 -8.30385,-3.79497 -6.70814,-4.53763 -13.28068,-13.36736 -17.77081,-23.87386 -3.482,-8.1475 -6.95942,-20.15548 -10.53547,-36.38021 -0.36886,-1.67349 -0.8509,-3.69755 -1.0712,-4.49791 -0.22029,-0.80037 -0.94615,-3.59834 -1.61298,-6.21771 -1.03346,-4.05947 -1.78805,-6.75734 -3.36716,-12.03854 l -0.27689,-0.92604 -0.18806,0.86026 c -0.1034,0.47314 -0.26573,3.86642 -0.36071,7.54062 -0.1565,6.05553 -0.40262,11.23333 -1.22933,25.86266 -0.35608,6.30118 -0.73549,9.47113 -2.62859,21.96041 -0.91109,6.01081 -2.08132,9.55408 -4.25513,12.88402 -0.69464,1.0641 -1.46942,2.49978 -1.72172,3.19045 -1.38724,3.79743 -3.19175,7.89366 -4.37777,9.93754 -2.40901,4.15139 -5.22875,6.35815 -8.0073,6.2666 -1.82528,-0.0601 -2.86668,-0.05 -5.05854,0.0491 -1.62936,0.0737 -2.0388,-0.0116 -3.40477,-0.70998 -3.02053,-1.54416 -5.41835,-5.15744 -8.34067,-12.56877 -1.29762,-3.29091 -2.23258,-5.23806 -3.04498,-6.34164 -1.73969,-2.3632 -3.09084,-6.65995 -4.24556,-13.50105 -1.60628,-9.5165 -1.86949,-11.85645 -2.39583,-21.29896 -0.21899,-3.92906 -0.45273,-7.91765 -0.5194,-8.86354 -0.0667,-0.94588 -0.19301,-3.50573 -0.28078,-5.68854 -0.0878,-2.18281 -0.26977,-5.93328 -0.40447,-8.33437 -0.13467,-2.4011 -0.24786,-5.79438 -0.25148,-7.54063 -0.006,-3.02759 -0.26863,-4.52884 -0.59338,-3.3958 -0.0765,0.26696 -0.50356,1.73554 -0.94896,3.26351 -1.05045,3.60363 -1.60626,5.69355 -3.51829,13.22917 -1.57473,6.2061 -1.84164,7.34571 -3.00572,12.83229 -1.68342,7.93414 -5.18944,20.18604 -7.57714,26.47849 -3.68763,9.71817 -9.05317,18.50996 -14.76568,24.19459 -6.56585,6.53378 -13.61366,8.76935 -27.5005,8.72318 l -4.92739,-0.0164 -4.89479,1.2001 c -4.90625,1.20293 -6.04824,1.33233 -8.13073,0.9213 z"
       id="path3980" />
  </g>
</svg>
