<?xml version="1.0" encoding="UTF-8" standalone="no"?>
<!-- Created with Inkscape (http://www.inkscape.org/) -->

<svg
   width="649.41632mm"
   height="271.9147mm"
   viewBox="0 0 649.41632 271.9147"
   version="1.1"
   id="svg5"
   xmlns="http://www.w3.org/2000/svg"
   xmlns:svg="http://www.w3.org/2000/svg">
  <defs
     id="defs2" />
  <g
     id="layer1"
     transform="translate(193.56651,-12.055943)">
    <path
       style="fill:#000000;stroke-width:0.264583"
       d="m 128.03068,283.70084 c -2.09677,-0.6064 -3.27194,-1.31021 -4.7847,-2.86557 -1.71146,-1.75963 -2.72036,-3.67659 -4.21238,-8.00362 -1.19898,-3.47723 -1.89031,-4.72024 -3.69908,-6.6512 -1.78957,-1.91047 -2.40657,-3.01675 -3.75846,-6.73891 -4.28226,-11.79049 -6.67234,-23.56845 -7.73158,-38.1 -0.59753,-8.19737 -0.78562,-21.68935 -0.43801,-31.41933 0.22939,-6.42093 0.22976,-9.23685 0.003,-11.37709 -0.32227,-3.02154 -0.59315,-3.97972 -0.87236,-3.08574 -0.0869,0.27837 -1.10249,5.26862 -2.25682,11.08946 -2.004158,10.10648 -2.406938,11.84022 -4.302568,18.52083 -3.78246,13.33024 -8.81915,22.42301 -16.65359,30.06495 -5.2899,5.1599 -13.43036,11.28101 -18.05485,13.57608 -2.93069,1.45447 -4.70543,1.72996 -11.16481,1.733 -6.197837,0.003 -10.746077,0.63423 -21.026463,2.91848 -14.72417,3.27163 -23.4025932,3.59458 -34.6604152,1.28987 -6.7874038,-1.38953 -17.0916548,-4.76165 -33.8666658,-11.08302 -10.154471,-3.82654 -13.750288,-5.43192 -16.801042,-7.50096 -6.229004,-4.22453 -8.287826,-11.34311 -5.591194,-19.3321 1.601772,-4.74538 4.270248,-9.1301 8.388091,-13.78297 6.475129,-7.31643 14.297136,-13.78218 25.610063,-21.16956 2.197114,-1.43472 3.965311,-2.63803 3.92933,-2.67401 -0.08105,-0.081 -8.903036,3.08912 -13.550873,4.8695 -3.961659,1.51754 -9.085695,3.75797 -14.948959,6.53628 -17.489788,8.28756 -18.701561,8.80701 -23.26746,9.97395 -4.03592,1.03149 -9.01325,1.27881 -12.71442,0.63176 -5.14271,-0.89905 -8.2867,-2.19787 -21.829584,-9.01805 -14.67242,-7.38901 -17.17179,-8.72731 -22.225,-11.90046 -6.87555,-4.31749 -12.95332,-8.75123 -18.91282,-13.79691 -1.72418,-1.4598 -6.78373,-5.80242 -7.04152,-6.04374 -0.15936,-0.14919 -1.70717,-1.57493 -3.43958,-3.1683 -4.99301,-4.59126 -15.21451,-14.77437 -18.60521,-18.53421 -7.12812,-7.90413 -10.56027,-12.44935 -12.17635,-16.12524 -0.87752,-1.99598 -0.93712,-2.30785 -0.94065,-4.92193 -0.004,-2.71432 0.0247,-2.84866 1.03159,-4.89479 3.06149,-6.22111 14.60674,-13.942017 28.59799,-19.124937 12.1899,-4.51564 23.76982,-7.5714 34.26354,-9.04163 10.16541,-1.42423 15.26929,-1.69792 31.617714,-1.69542 18.34283,0.003 23.58743,0.25824 46.169789,2.24875 14.560106,1.28339 23.133016,2.18098 37.570833,3.93372 3.565261,0.43282 13.99003378,1.62385 23.1661618,2.64673 28.6762692,3.19661 52.6135742,6.53981 65.7338342,9.180727 6.56331,1.32109 11.78052,2.70711 17.71634,4.70659 2.83176,0.95387 5.34162,1.73431 5.57747,1.73431 0.24953,0 1.08284,-1.00796 1.99321,-2.41102 1.899818,-2.92797 4.214078,-5.149797 6.898668,-6.623187 1.81814,-0.99786 2.14821,-1.31012 3.42993,-3.24485 0.77999,-1.1774 1.61615,-2.41329 1.85814,-2.74642 0.34393,-0.47346 0.37769,-0.73338 0.15467,-1.19062 -1.45655,-2.98623 -1.27047,-6.65216 0.48641,-9.58282 1.02632,-1.71198 2.27756,-2.83257 4.09544,-3.66775 l 1.23684,-0.56824 -1.54908,-1.34078 c -2.20303,-1.90684 -6.71574,-5.30209 -9.38187,-7.05874 -5.33579,-3.51563 -14.478838,-7.28016 -32.991978,-13.58402 -4.84563,-1.64998 -10.44156,-3.70775 -12.43541,-4.57285 -8.67093,-3.76213 -20.991169,-9.82269 -26.86058,-13.21321 -3.293825,-1.90273 -10.858844,-7.12996 -15.214825,-10.51309 -4.029926,-3.12988 -11.8840902,-9.57992 -12.1094782,-9.9446 -0.723689,-1.17095 2.050896,0.28468 5.4948742,2.88278 3.657118,2.7589 12.124353,8.79865 15.563778,11.10177 4.067519,2.7237 6.65017,4.11374 17.942291,9.65695 16.75699,8.22587 17.62858,8.57225 36.82646,14.63515 9.0398,2.85486 14.36817,4.89076 19.314578,7.37983 6.354,3.19738 9.51341,5.32216 15.40208,10.35826 1.77628,1.51912 3.30134,2.76204 3.38903,2.76204 0.5194,0 1.26806,-1.68395 1.52918,-3.43958 0.62474,-4.2003 2.1948,-8.46034 3.60183,-9.77285 1.13884,-1.06237 1.33339,-0.52527 1.43599,3.9648 0.0498,2.17578 0.12603,3.95597 0.16955,3.95597 0.0435,0 0.59814,-0.23552 1.23251,-0.52336 1.47431,-0.66899 2.79479,-0.67101 3.7992,-0.006 0.43657,0.28912 0.85328,0.52661 0.92604,0.52776 0.0728,0.001 0.10695,-0.74221 0.076,-1.6519 -0.0607,-1.78271 0.29864,-6.48242 0.51192,-6.69571 0.35682,-0.35681 1.04487,0.3589 1.87711,1.95257 1.07532,2.05915 1.85836,4.47576 2.58292,7.97145 0.47371,2.28543 0.77041,2.90753 1.39208,2.91886 0.12226,0.002 1.31288,-1.04184 2.64583,-2.32015 2.60493,-2.49817 5.24563,-4.69457 8.31858,-6.91896 2.51388,-1.81971 9.64515,-5.86105 12.20322,-6.91566 1.10553,-0.45578 2.96256,-1.24513 4.12673,-1.7541 2.92068,-1.27694 9.72553,-3.71222 14.94896,-5.34986 11.03019,-3.45816 12.43692,-4.02066 22.75416,-9.09842 15.76062,-7.75679 23.56345,-12.18941 32.07478,-18.22104 3.37632,-2.39266 5.08468,-3.72947 9.86168,-7.71681 1.97416,-1.64782 6.35251,-4.67178 6.76421,-4.67178 0.6845,0 0.0373,0.84572 -1.92546,2.51636 -1.19499,1.0171 -3.43826,2.99164 -4.98506,4.38788 -3.24213,2.92659 -8.45132,7.13007 -11.44625,9.23642 -1.13718,0.79977 -2.56593,1.81679 -3.175,2.26003 -3.42,2.48881 -12.42221,7.64429 -22.08268,12.64651 -10.29422,5.33039 -12.36435,6.22912 -22.94559,9.96172 -4.91101,1.73238 -11.20693,4.1266 -13.22917,5.0308 -0.29104,0.13013 -2.07698,0.85072 -3.96875,1.60131 -10.19955,4.04683 -16.16559,7.59862 -23.95201,14.25953 -3.05218,2.611 -3.19836,2.78021 -2.60538,3.01619 3.07279,1.22282 4.90765,2.79986 5.98744,5.14613 0.88755,1.92848 1.08821,4.94495 0.47077,7.07633 -0.25082,0.86588 -0.57361,1.71736 -0.71731,1.89217 -0.18462,0.22459 0.20982,0.9367 1.34432,2.42705 0.88308,1.16006 1.74115,2.40669 1.9068,2.77028 0.17502,0.38415 1.25378,1.24317 2.57527,2.0507 2.84142,1.736347 5.35101,4.270857 7.00445,7.073997 0.70112,1.18864 1.32067,2.16117 1.37673,2.16117 0.0561,0 2.76193,-0.88944 6.01305,-1.97654 8.29329,-2.77309 14.93764,-4.37627 25.73129,-6.208577 12.75625,-2.16549 35.67284,-5.30989 50.27083,-6.8977 9.25171,-1.0063 30.62269,-3.44831 37.04167,-4.23266 17.03332,-2.08134 40.0001,-4.10014 57.81145,-5.08166 6.61258,-0.3644 30.01696,-0.45452 35.96722,-0.1385 14.63681,0.77738 28.66906,3.50665 42.90113,8.34426 8.3072,2.82369 14.2838,5.32444 18.72218,7.83375 0.92348,0.52212 1.72292,0.949297 1.77655,0.949297 0.50681,0 6.25213,3.82261 8.23203,5.47712 5.43647,4.54301 7.49464,7.89425 7.49464,12.20331 0,3.69426 -1.63089,6.86287 -6.89525,13.39655 -6.86504,8.52032 -20.7563,22.52492 -31.87028,32.13036 -3.75642,3.24653 -4.7243,4.06237 -6.34593,5.34902 -11.5983,9.20253 -18.2446,13.2553 -38.36458,23.39391 -13.98929,7.0493 -16.66176,8.16646 -21.56354,9.01402 -4.66519,0.80665 -11.62561,0.0983 -16.66875,-1.69628 -3.14817,-1.12028 -7.80494,-3.22264 -16.80104,-7.58504 -10.25795,-4.97431 -20.42737,-9.19644 -27.78006,-11.53374 -1.45455,-0.46238 -2.82377,-0.90579 -3.04271,-0.98536 -0.21894,-0.0796 1.80914,1.33851 4.50686,3.15127 9.20348,6.18442 16.2152,11.73587 21.06285,16.67628 3.68808,3.75865 4.04137,4.17463 6.69856,7.88664 2.48928,3.4775 4.43698,7.30234 5.46354,10.72923 1.23962,4.13821 0.90421,9.22462 -0.82952,12.57882 -0.81302,1.57289 -2.91413,4.01968 -4.43868,5.16892 -2.12119,1.59901 -8.37988,4.6232 -14.07626,6.80167 -2.47385,0.94607 -6.22432,2.3775 -8.33437,3.18096 -6.07309,2.31251 -21.76926,7.4795 -25.40979,8.36464 -7.16187,1.74128 -9.281,1.99361 -16.79125,1.99956 -8.24878,0.007 -10.10989,-0.22706 -21.21779,-2.663 -10.22,-2.24121 -12.10312,-2.48891 -20.98325,-2.76024 -4.2336,-0.12933 -8.00476,-0.36603 -8.59896,-0.53965 -3.12817,-0.91416 -8.23233,-4.17226 -14.62582,-9.33606 -7.02847,-5.67666 -9.63748,-8.44851 -13.83062,-14.69405 -5.66952,-8.44446 -9.47457,-19.24634 -12.68667,-36.0151 -1.26346,-6.596 -2.87676,-13.99093 -3.16854,-14.52385 -0.11607,-0.21204 -0.34531,0.79961 -0.53956,2.38124 -0.27065,2.20356 -0.27491,4.3269 -0.0214,10.6874 0.61172,15.35257 0.12788,30.93188 -1.31889,42.46562 -0.88204,7.03181 -2.74643,15.79621 -4.64333,21.82813 -0.36611,1.16416 -1.1947,3.84307 -1.84134,5.95312 -1.3756,4.48876 -1.55139,4.84135 -3.61588,7.25173 -2.14492,2.50428 -2.67554,3.40982 -3.88533,6.63059 -1.57189,4.18486 -2.99841,6.73748 -4.72328,8.45193 -2.22351,2.21004 -3.73592,2.8629 -6.88835,2.97341 -1.58245,0.0555 -3.01313,-0.0416 -3.74944,-0.25461 z"
       id="path882" />
  </g>
</svg>
