<?xml version="1.0" encoding="UTF-8" standalone="no"?>
<!-- Created with Inkscape (http://www.inkscape.org/) -->

<svg
   width="501.53925mm"
   height="256.48438mm"
   viewBox="0 0 501.53925 256.48438"
   version="1.1"
   id="svg2249"
   xmlns="http://www.w3.org/2000/svg"
   xmlns:svg="http://www.w3.org/2000/svg">
  <defs
     id="defs2246" />
  <g
     id="layer1"
     transform="translate(-14.056511,-36.024601)">
    <path
       style="fill:#000000;stroke-width:0.264583"
       d="m 263.23263,292.07148 c -1.80078,-0.88744 -3.7881,-4.22116 -5.09829,-8.55236 -0.37856,-1.25153 -0.87193,-2.25608 -1.33593,-2.7201 -2.21374,-2.21385 -2.87253,-4.30342 -3.14653,-9.9799 -0.11592,-2.40109 -0.39473,-5.15152 -0.61963,-6.11206 -0.37812,-1.61502 -0.68405,-3.776 -1.10125,-7.77857 -0.091,-0.87312 -0.27323,-2.59953 -0.40497,-3.83645 -1.01785,-9.55689 -1.23674,-15.76819 -1.25407,-35.58646 -0.0156,-17.97163 -0.0345,-18.2759 -1.53091,-24.86662 -0.73408,-3.23298 -2.22588,-12.93934 -2.22705,-14.49015 0,-0.5457 -0.09,-0.99171 -0.19918,-0.99112 -0.36369,0.002 -4.47283,18.22568 -7.21852,32.01351 -1.48164,7.44023 -4.73723,21.32907 -5.79882,24.73854 -3.27729,10.52568 -5.16432,16.02423 -6.94634,20.24063 -1.95318,4.6214 -4.9439,10.37143 -6.93632,13.33606 -2.34683,3.49197 -6.38725,7.8722 -9.17207,9.94349 -4.4174,3.28554 -10.27967,5.63478 -16.77845,6.72378 -8.9032,1.49185 -11.59732,1.85814 -16.93333,2.30211 -5.13053,0.42688 -15.31654,0.16004 -20.10833,-0.52673 -9.4708,-1.35742 -16.79994,-3.61585 -24.07708,-7.41929 -6.00742,-3.13981 -10.88366,-6.75664 -15.87567,-11.77544 -13.42071,-13.49269 -21.093758,-26.80645 -22.348574,-38.77773 -1.096899,-10.46475 1.222087,-21.5986 6.245374,-29.98514 2.20921,-3.68834 4.10587,-6.03748 8.16627,-10.11447 3.71301,-3.72818 7.04243,-6.40154 12.83239,-10.30376 l 3.04271,-2.05068 -1.47567,0.1789 c -4.94124,0.59903 -6.63592,0.70862 -13.24789,0.85668 -9.707283,0.21739 -15.019714,-0.35692 -20.069152,-2.1696 -2.704631,-0.97092 -8.092059,-3.74141 -10.980208,-5.64658 -4.868471,-3.21148 -14.467506,-11.39313 -19.182294,-16.34983 -7.76591,-8.16439 -9.67475,-10.35255 -14.81714,-16.98534 -7.68599,-9.91362 -12.47712,-17.43439 -16.92493,-26.56756 -7.80301,-16.022783 -12.35397,-31.45465 -13.51567,-45.830323 -0.40294,-4.986252 0.0881,-10.141195 1.27287,-13.361458 1.58589,-4.310681 5.13463,-7.976086 9.72133,-10.040918 3.45112,-1.55362 9.62912,-2.878098 15.77373,-3.381671 3.5999,-0.295024 14.47847,-0.194387 17.56377,0.16248 10.263027,1.187101 20.61377,3.649223 32.411459,7.709686 7.681611,2.643812 17.129145,6.388258 23.812495,9.437872 2.30549,1.051991 6.94786,3.155331 11.1125,5.034791 2.11006,0.952243 5.6224,2.566045 7.80521,3.586223 2.18281,1.02018 6.88578,3.193256 10.45104,4.829058 24.97969,11.461105 58.08554,27.911618 69.32083,34.44596 5.8619,3.40923 12.93646,8.05009 17.5948,11.54207 6.38116,4.78345 7.75454,5.91648 11.91516,9.83007 l 3.44853,3.24374 1.97543,-1.57368 c 2.76778,-2.20487 5.01817,-4.35734 5.01817,-4.79983 0,-0.20603 -0.30586,-1.06621 -0.67972,-1.91152 -1.43504,-3.24491 -1.12413,-5.54507 1.03773,-7.6772 1.00941,-0.99554 1.7513,-1.46275 2.86705,-1.80551 l 1.50529,-0.46243 -1.19512,-2.03095 c -1.76795,-3.00439 -3.7523,-5.48857 -6.505,-8.143592 -3.75599,-3.622704 -6.91604,-5.790271 -17.13857,-11.755845 -1.81901,-1.061522 -4.25979,-2.509001 -5.42395,-3.216624 -1.16417,-0.70762 -2.3548,-1.42993 -2.64584,-1.605132 -0.59288,-0.356907 -2.89044,-1.798222 -4.49791,-2.821662 -0.58209,-0.370599 -1.78901,-1.211403 -2.68206,-1.868456 -0.89305,-0.65705 -1.89187,-1.373232 -2.21961,-1.591513 -2.35085,-1.565738 -7.99931,-6.429415 -13.03483,-11.223805 -0.73023,-0.695256 -2.21539,-1.659324 -3.50274,-2.273766 -3.74156,-1.785765 -6.99067,-5.32648 -7.96576,-8.680653 -0.8078,-2.778781 0.51551,-3.460001 3.64879,-1.878325 2.69798,1.361935 5.71246,4.894673 6.54349,7.668461 0.7984,2.664968 1.12874,3.117424 4.50048,6.164143 4.66847,4.218475 6.08005,5.402421 9.55286,8.012385 1.67349,1.2577 3.48221,2.627003 4.01939,3.042894 0.53716,0.41589 1.04855,0.756165 1.13641,0.756165 0.0879,0 1.01759,0.578144 2.06606,1.284764 1.04843,0.706623 4.22799,2.628726 7.06564,4.271341 9.54746,5.526685 14.93478,8.817496 17.33815,10.590924 2.55955,1.888672 6.75843,5.951556 8.54786,8.270986 0.98899,1.28192 3.61426,5.48452 3.83638,6.14136 0.17939,0.53051 0.96809,-0.48141 1.89151,-2.42684 0.54999,-1.15872 1.07477,-1.93721 1.26548,-1.87735 0.1792,0.0563 0.49615,0.48215 0.70432,0.94646 0.33935,0.75695 0.4944,0.84419 1.50032,0.84419 1.03042,0 1.13601,-0.0644 1.29553,-0.79072 0.0955,-0.43489 0.29107,-0.86327 0.43455,-0.95196 0.32854,-0.20304 1.2859,0.64193 1.2859,1.13494 0,0.37462 1.74266,3.25357 1.96943,3.25357 0.0681,0 0.60973,-0.83184 1.20351,-1.84854 2.86158,-4.89968 7.46599,-9.849127 12.45889,-13.392495 2.76936,-1.96537 10.54145,-6.696843 15.7213,-9.570786 8.31789,-4.615035 14.13584,-8.660614 21.16667,-14.718511 6.26337,-5.396648 6.83455,-6.033418 7.65376,-8.532429 0.83783,-2.55588 1.79218,-4.073477 3.84976,-6.121831 2.40888,-2.398057 5.47196,-3.633542 6.35892,-2.564842 0.46916,0.565298 0.16775,2.392881 -0.7043,4.270565 -0.97512,2.09957 -4.43309,5.540016 -6.44252,6.40982 -0.80036,0.346448 -1.7154,0.749406 -2.03343,0.895458 -0.31803,0.146056 -1.74678,1.384959 -3.175,2.75312 -5.22981,5.009858 -10.48811,9.220781 -17.01657,13.627123 -3.59651,2.427433 -5.37263,3.52071 -9.27732,5.710587 -10.31031,5.782312 -15.84738,9.445889 -20.09108,13.293179 -3.32889,3.017892 -8.23347,10.066232 -7.38045,10.606372 0.20275,0.1284 0.55369,0.23527 0.77986,0.23749 0.61873,0.006 2.68081,1.39164 3.47385,2.3341 0.38481,0.45733 0.84179,1.26213 1.01549,1.78843 0.45546,1.38012 0.20812,4.23662 -0.49802,5.75176 -0.71186,1.52735 -0.61188,1.93268 0.84722,3.43397 1.37438,1.41414 5.13083,4.42288 5.52201,4.42288 0.15735,0 1.3104,-1.00099 2.56236,-2.22441 8.4432,-8.25078 21.19424,-17.14091 37.33358,-26.029287 8.12276,-4.473424 29.61555,-15.130497 47.36042,-23.483379 2.69213,-1.267243 6.56166,-3.10271 8.59895,-4.078814 4.7167,-2.259848 15.95097,-7.439974 31.8823,-14.700937 5.6054,-2.554753 12.90941,-5.694768 15.34583,-6.597219 0.50932,-0.188653 2.93619,-1.141809 5.39305,-2.118124 12.69609,-5.045213 27.5893,-8.931265 39.18924,-10.225545 3.29369,-0.367501 13.73881,-0.468358 17.72708,-0.171173 10.00869,0.7458 17.03224,3.042135 21.22541,6.9396 3.08049,2.863266 4.26381,5.347393 5.23377,10.987204 1.55266,9.027832 -1.52707,25.757362 -7.81746,42.465624 -2.10812,5.59953 -2.45626,6.39657 -5.60115,12.82383 -6.11547,12.49822 -16.3282,26.76872 -28.0212,39.15476 -10.80534,11.44574 -19.4827,18.75974 -27.22041,22.94366 -2.37241,1.2828 -7.44749,3.34046 -9.65729,3.91549 -5.36265,1.39547 -15.56192,1.67404 -25.23659,0.6893 -6.28833,-0.64007 -6.45216,-0.64683 -5.71966,-0.23616 3.70459,2.07692 10.73669,7.41971 14.3886,10.93203 5.91841,5.6922 9.96955,11.59208 12.32082,17.94351 4.19217,11.32404 4.31816,22.96364 0.36571,33.78253 -2.52428,6.9096 -7.9093,15.1773 -15.56472,23.89677 -5.07498,5.78035 -12.56324,11.97031 -18.21051,15.05313 -8.18848,4.47008 -16.02443,7.06228 -25.57907,8.46174 -3.35536,0.49147 -5.15461,0.58277 -11.64166,0.59082 -7.84416,0.01 -9.98011,-0.14267 -18.52084,-1.32136 -12.79842,-1.76628 -18.1801,-3.50089 -23.90714,-7.70575 -7.07718,-5.19615 -13.17207,-14.74549 -18.27508,-28.633 -1.97057,-5.36273 -5.3816,-16.4167 -6.37562,-20.6611 -0.11927,-0.50932 -0.65071,-2.71198 -1.18096,-4.89479 -0.53025,-2.18281 -1.0632,-4.445 -1.18433,-5.02708 -0.12113,-0.58208 -0.59193,-2.84427 -1.04622,-5.02708 -0.45429,-2.18282 -1.11069,-5.27844 -1.4587,-6.87917 -0.34798,-1.60073 -0.76747,-3.62479 -0.93223,-4.49792 -0.16476,-0.87312 -0.59875,-2.95672 -0.96446,-4.63021 -0.62161,-2.84451 -0.81933,-3.71825 -1.81107,-8.00364 -0.46384,-2.00433 -1.77737,-7.53182 -2.43636,-10.25261 l -0.48065,-1.98437 -0.21947,1.85208 c -0.36089,3.04573 -1.49011,9.75493 -2.45978,14.61497 -0.50048,2.50844 -1.00769,5.72313 -1.12712,7.14375 -0.11943,1.42062 -0.22918,9.7267 -0.24387,18.45795 -0.0322,19.13821 -0.37716,27.49357 -1.52164,36.8568 -0.21881,1.79009 -0.46673,3.87368 -0.55092,4.63021 -0.0842,0.75652 -0.32687,2.32799 -0.53925,3.49215 -0.21235,1.16417 -0.48604,3.96214 -0.60817,6.21771 -0.31731,5.86044 -0.9412,8.00492 -2.96875,10.20456 -0.8087,0.87733 -1.27432,1.78432 -1.97377,3.8449 -1.04233,3.07059 -2.2578,5.65152 -3.07033,6.51957 -0.70935,0.75776 -2.56119,1.65774 -3.39503,1.64994 -0.35425,-0.003 -1.03801,-0.20016 -1.5195,-0.43744 z"
       id="path2391" />
  </g>
</svg>
