<?xml version="1.0" encoding="UTF-8" standalone="no"?>
<!-- Created with Inkscape (http://www.inkscape.org/) -->

<svg
   width="632.18774mm"
   height="271.78717mm"
   viewBox="0 0 632.18774 271.78717"
   version="1.1"
   id="svg5"
   xmlns="http://www.w3.org/2000/svg"
   xmlns:svg="http://www.w3.org/2000/svg">
  <defs
     id="defs2" />
  <g
     id="layer1"
     transform="translate(105.32623,-91.718293)">
    <path
       style="fill:#000000;stroke-width:0.264583"
       d="m 207.81758,363.3636 c -5.03623,-0.71022 -8.65891,-3.11777 -11.63709,-7.73377 -2.27419,-3.52486 -8.48973,-16.35255 -9.2471,-19.08426 -2.85361,-10.29259 -4.87776,-28.65284 -5.70259,-51.72604 -0.36494,-10.20901 -0.75819,-19.39002 -1.07657,-25.13542 -0.14113,-2.54661 -0.37539,-7.36865 -0.52059,-10.71562 -0.1452,-3.34698 -0.33848,-7.02628 -0.42953,-8.17623 l -0.16547,-2.0908 -1.28878,3.11136 c -1.75231,4.23037 -3.37958,8.9721 -4.8165,14.03483 -1.20634,4.25031 -1.61851,5.78043 -3.59918,13.36146 -0.58931,2.25557 -1.55446,5.94651 -2.14479,8.20208 -2.37991,9.09336 -4.44077,14.81252 -7.46562,20.71807 -4.13819,8.07916 -9.00488,13.78214 -16.07709,18.83971 -3.07327,2.19781 -8.76072,5.13582 -12.83229,6.62884 -3.64289,1.33586 -9.95151,2.92904 -13.75833,3.47454 -4.0494,0.58028 -18.85941,0.66516 -23.151044,0.13271 -16.460411,-2.04221 -31.79986,-7.05342 -43.988735,-14.37058 -5.200107,-3.12171 -10.342366,-7.10747 -14.567243,-11.29109 -8.030274,-7.95184 -11.544808,-15.05567 -11.555127,-23.356 -0.0058,-4.65729 0.8758,-7.80171 3.518657,-12.55015 3.905927,-7.01783 12.184208,-15.79053 17.230253,-18.25933 1.500685,-0.73421 3.385529,-1.14144 19.464279,-4.20526 3.565261,-0.67936 7.018073,-1.34539 7.672917,-1.48005 0.654844,-0.13467 3.750468,-0.73286 6.879166,-1.32932 37.358137,-7.12196 55.600017,-12.63189 70.246877,-21.21796 7.20748,-4.22507 16.12066,-10.62735 20.75529,-14.90839 0.51729,-0.47784 1.26796,-1.14954 1.66814,-1.49267 0.72004,-0.61737 0.72761,-0.65754 0.72761,-3.85743 v -3.23357 l -4.29948,3.69658 c -13.92026,11.9683 -23.67023,17.75253 -39.35677,23.34866 -7.47755,2.6676 -20.04433,5.93963 -34.792709,9.05903 -2.473854,0.52324 -5.509948,1.17364 -6.746875,1.44534 -1.236927,0.2717 -3.022864,0.63779 -3.968749,0.81355 -0.945886,0.17576 -3.02948,0.60037 -4.630209,0.94357 -1.600729,0.3432 -4.815416,0.97984 -7.14375,1.41474 -2.328333,0.4349 -8.995833,1.75493 -14.816666,2.93339 -26.786823,5.42315 -26.629021,5.39931 -35.851041,5.41532 -6.099736,0.0106 -7.024385,-0.0477 -9.640109,-0.6074 -7.6878501,-1.64508 -15.1210901,-5.16089 -25.41718,-12.02191 -13.60551,-9.06631 -23.27168,-17.20607 -34.52502,-29.07307 -7.99755,-8.43365 -13.77481,-15.5822 -24.02167,-29.7234 -1.71756,-2.37033 -9.40049,-14.03668 -11.84849,-17.99167 -5.45655,-8.81559 -10.32439,-17.44064 -13.73803,-24.34167 -4.878222,-9.86181 -6.486582,-14.5137 -6.486582,-18.76123 0,-9.21606 7.436582,-15.242067 23.018752,-18.652549 6.66716,-1.459246 13.73498,-2.007131 23.01875,-1.784373 15.04522,0.360997 29.1239,2.869633 46.0375,8.203268 6.2375099,1.966974 28.58469,9.692344 31.882288,11.021634 0.436562,0.17598 2.401093,0.89234 4.365625,1.59192 1.964531,0.69958 4.941093,1.7693 6.614583,2.37715 1.673489,0.60786 6.614583,2.32865 10.980208,3.82399 4.365625,1.49533 10.378281,3.55704 13.361458,4.58158 4.493704,1.54331 14.488604,4.83315 28.178124,9.27489 1.309688,0.42495 5.536406,1.75274 9.392708,2.95065 3.856302,1.19791 9.392704,2.95052 12.303124,3.89469 2.91042,0.94417 6.77995,2.18827 8.59896,2.76465 7.65651,2.42612 37.9562,12.51135 40.87812,13.60626 6.11918,2.29299 14.5822,5.75279 17.83596,7.29157 1.80613,0.85417 3.29944,1.52264 3.31849,1.48551 0.0191,-0.0371 0.18367,-0.66284 0.36583,-1.39044 0.74467,-2.97432 3.21538,-7.22798 5.62716,-9.68791 1.96967,-2.00899 4.31041,-3.5297 7.4744,-4.85588 2.38869,-1.0012 2.6746,-1.19161 2.59533,-1.72842 -0.19524,-1.32225 0.55012,-3.98566 1.54712,-5.52821 1.09109,-1.68812 2.18173,-2.63902 3.91893,-3.41679 l 1.12861,-0.50529 -1.50786,-1.37808 c -4.79949,-4.38648 -10.79117,-6.87624 -22.32793,-9.27808 -2.83765,-0.59077 -6.10811,-1.32191 -7.26768,-1.62476 -7.51877,-1.96364 -15.27794,-5.93398 -21.11324,-10.80355 -2.33715,-1.95036 -2.91672,-2.85038 -2.30788,-3.58397 0.58263,-0.70204 1.34545,-0.42511 3.93456,1.42841 6.57725,4.70859 10.5637,6.70841 17.09695,8.57678 2.20475,0.6305 3.63038,0.94865 10.45104,2.3323 6.72775,1.36479 13.79001,3.64819 17.99167,5.81714 2.25404,1.16357 5.31437,3.39171 7.30282,5.31698 l 1.34966,1.3068 1.56269,-1.56268 c 1.76252,-1.76251 3.39362,-2.51487 6.49567,-2.99617 4.14759,-0.64352 8.64018,0.72597 11.08602,3.37938 0.57949,0.62867 1.09368,1.14304 1.14265,1.14304 0.049,0 0.67162,-0.57008 1.38362,-1.26686 5.5467,-5.42798 12.96252,-8.61109 26.2977,-11.28783 9.00316,-1.80718 13.42144,-3.14075 17.96407,-5.42208 3.16693,-1.59044 3.90747,-2.05129 7.70051,-4.7921 3.61096,-2.60924 3.6653,-2.63749 4.41484,-2.29598 0.42011,0.19141 0.61225,0.50337 0.61225,0.99403 0,0.84413 -1.42129,2.263 -4.70789,4.69986 -6.74426,5.00056 -14.17214,8.18108 -23.86711,10.21958 -5.87878,1.23608 -7.14838,1.5124 -8.59896,1.8715 -2.75968,0.68316 -6.54418,1.9859 -8.59896,2.96004 -2.55489,1.21122 -6.72433,3.97761 -8.03095,5.32846 l -1.01949,1.05401 0.75491,0.16991 c 1.11633,0.25125 3.13907,1.82962 4.17658,3.25906 1.03272,1.42281 1.7377,3.62112 1.7377,5.41856 v 1.21815 l 1.38906,0.45515 c 6.69322,2.19314 11.79344,7.35625 14.0979,14.27175 0.38794,1.16417 0.74081,2.15407 0.78415,2.19979 0.0434,0.0457 0.89469,-0.32743 1.89188,-0.82922 2.82776,-1.42296 11.91312,-5.22691 17.09237,-7.15639 7.98322,-2.97408 23.98868,-8.34803 41.07693,-13.79187 3.05594,-0.97353 6.0325,-1.92395 6.61458,-2.11203 6.10476,-1.97251 14.17691,-4.54288 17.06563,-5.43411 3.86768,-1.19326 23.60805,-7.58939 24.47396,-7.92987 0.29104,-0.11444 3.74385,-1.27948 7.67291,-2.58898 6.78395,-2.26099 20.58247,-7.0228 29.50104,-10.18068 2.25558,-0.79865 6.36323,-2.24344 9.12813,-3.21064 2.76489,-0.9672 5.62239,-1.99097 6.35,-2.27506 5.4987,-2.1469 26.60163,-9.210826 32.84003,-10.992781 17.0448,-4.868714 31.18985,-6.800289 46.53497,-6.354575 15.89047,0.461553 28.14476,3.885713 34.77588,9.717276 1.51005,1.32797 2.78519,3.23316 3.65371,5.45904 0.61193,1.56822 0.69098,2.14619 0.69458,5.07698 0.005,3.83643 -0.38304,5.48976 -2.54394,10.84791 -5.50677,13.65451 -22.01511,41.06677 -35.37318,58.7375 -16.60882,21.97104 -32.27631,37.04896 -52.08021,50.12049 -9.30542,6.14201 -15.13795,9.24397 -20.82892,11.07756 -5.44061,1.75293 -6.61906,1.90713 -14.4198,1.88678 -6.78968,-0.0177 -7.19976,-0.0492 -12.96458,-0.99616 -7.26419,-1.19321 -13.91208,-2.4547 -21.03437,-3.99141 -1.01865,-0.21979 -4.11427,-0.82891 -6.87917,-1.3536 -2.7649,-0.52469 -6.69396,-1.29841 -8.73125,-1.71938 -2.03729,-0.42096 -6.68073,-1.36295 -10.31875,-2.09331 -9.286,-1.86424 -16.40692,-3.37538 -20.6375,-4.37952 -0.87312,-0.20724 -3.43297,-0.80838 -5.68854,-1.33587 -22.04159,-5.15465 -35.71073,-10.65336 -48.28646,-19.42425 -5.45571,-3.80506 -14.55938,-11.14096 -16.37903,-13.19849 -0.2772,-0.31346 -0.60462,-0.56992 -0.7276,-0.56992 -0.12295,0 -0.22358,1.42499 -0.22358,3.16665 v 3.16665 l 2.84427,2.53812 c 2.97845,2.65787 9.64393,7.82217 13.03134,10.09646 8.92744,5.99385 18.66734,10.75386 28.12159,13.74337 15.31945,4.84414 21.67503,6.4128 43.18301,10.65824 4.36563,0.86172 11.27125,2.22571 15.34583,3.03107 4.07459,0.80536 10.84763,2.13216 15.0512,2.94845 4.20359,0.81629 8.13265,1.67501 8.73125,1.90829 3.27318,1.27554 7.84111,4.96771 11.7095,9.46457 5.65494,6.57363 8.90641,12.40302 9.8139,17.59479 0.52435,2.99979 0.32308,8.15907 -0.41802,10.71562 -2.19739,7.58021 -7.08398,14.23824 -15.51908,21.14492 -5.5867,4.57438 -8.97599,6.75966 -16.00729,10.32084 -7.30461,3.69959 -14.07713,6.1867 -22.75416,8.35607 -9.85322,2.46346 -17.33685,3.28428 -28.17813,3.0906 -8.14406,-0.14549 -11.41785,-0.53163 -17.2257,-2.03171 -7.48937,-1.93439 -12.58744,-4.13417 -18.2405,-7.87061 -7.81069,-5.16255 -13.55826,-11.84696 -17.80509,-20.70719 -3.16148,-6.59591 -4.94397,-11.82638 -7.75435,-22.75396 -4.23069,-16.45009 -6.76423,-25.11907 -8.94252,-30.59847 -2.04261,-5.1381 -2.04436,-5.14003 -2.22631,-2.46179 -0.0836,1.22997 -0.21632,3.60552 -0.29498,5.27901 -0.0787,1.67349 -0.37489,7.74568 -0.65826,13.49375 -0.28337,5.74808 -0.58666,12.71323 -0.674,15.47813 -0.83886,26.56424 -1.76689,38.52505 -3.9928,51.46146 -1.46037,8.48719 -2.49552,12.10754 -4.56507,15.96583 -1.85976,3.46718 -2.4452,4.6242 -4.39393,8.68373 -3.18725,6.63953 -6.91359,10.22011 -11.91607,11.44997 -1.96575,0.48326 -6.0892,0.67241 -8.19264,0.37579 z"
       id="path912" />
  </g>
</svg>
