<?xml version="1.0" encoding="UTF-8" standalone="no"?>
<!-- Created with Inkscape (http://www.inkscape.org/) -->

<svg
   width="430.89896mm"
   height="274.0466mm"
   viewBox="0 0 430.89896 274.0466"
   version="1.1"
   id="svg1314"
   xmlns="http://www.w3.org/2000/svg"
   xmlns:svg="http://www.w3.org/2000/svg">
  <defs
     id="defs1311" />
  <g
     id="layer1"
     transform="translate(107.54983,-6.6933469)">
    <path
       style="fill:#000000;stroke-width:0.264583"
       d="m 39.485481,280.63686 c -5.22465,-0.48024 -10.96489,-1.85314 -16.62253,-3.97565 -1.96453,-0.737 -4.22672,-1.5802 -5.02708,-1.87373 -0.80037,-0.29356 -4.43178,-1.22822 -8.0698005,-2.07706 -12.01153,-2.80257 -15.60982,-4.30006 -21.7623565,-9.05674 -2.930324,-2.26552 -6.055791,-4.16295 -9.712283,-5.89626 -4.464941,-2.11654 -6.358196,-3.38966 -8.874312,-5.96758 -1.091406,-1.1182 -3.770313,-3.65762 -5.953125,-5.64316 -5.749996,-5.23031 -5.761934,-5.24566 -11.076731,-14.22382 -1.261239,-2.13055 -3.147147,-5.04758 -4.190907,-6.48229 -4.525455,-6.22038 -6.699012,-10.02437 -8.36912,-14.64704 -1.89919,-5.25674 -2.535846,-8.88894 -2.52752,-14.41979 0.01006,-6.67532 1.522098,-12.45434 5.110941,-19.53393 3.423007,-6.75246 6.281454,-10.66976 11.557145,-15.83825 5.322221,-5.21408 10.351174,-8.82204 18.175967,-13.04014 1.28138,-0.69075 2.286138,-1.29955 2.232798,-1.35289 -0.05334,-0.0533 -1.101741,0.0197 -2.329778,0.16242 -15.231581,1.76956 -22.92767,1.70261 -30.809705,-0.268 -7.258759,-1.81479 -12.59741,-5.33307 -16.063962,-10.5865 -2.470357,-3.74373 -8.811654,-17.26319 -11.713779,-24.97342 -0.335169,-0.89046 -0.796412,-2.03533 -1.024982,-2.54416 -0.228571,-0.50882 -1.147041,-2.83013 -2.041044,-5.15846 -0.894001,-2.32833 -2.754344,-6.971781 -4.134096,-10.318761 -7.048931,-17.09918 -7.569641,-18.43847 -9.173101,-23.59389 -4.48092,-14.407 -5.86859,-33.25182 -3.48072,-47.26878 1.33475,-7.835035 3.43397,-12.029808 6.806414,-13.6009086 3.820932,-1.780032 11.464434,-2.256189 19.792806,-1.233003 7.576412,0.930804 14.349439,2.600373 22.489583,5.5437396 9.894601,3.57776 11.577317,4.295214 20.176389,8.602562 9.684628,4.8511 11.859701,6.00101 21.760068,11.504 4.352391,2.41922 15.73805053,9.10911 19.7114605,11.5819 1.52796,0.95091 4.56406,2.83027 6.7468705,4.17636 2.18281,1.34609 6.17141,3.87253 8.86354,5.61431 2.69214,1.74179 6.0243,3.89311 7.40484,4.78072 1.38052,0.8876 3.46411,2.25807 4.63021,3.04549 1.16607,0.78741 3.37032,2.26546 4.89828,3.28456 2.99956,2.00057 8.29953,5.71201 11.90625,8.33764 1.23693,0.90047 3.15595,2.2822 4.26451,3.07052 3.05292,2.171 10.18389,7.69887 12.27195,9.51309 9.26772,8.05235 17.14585,16.777301 20.57755,22.789471 0.61505,1.07756 1.17782,1.96127 1.25058,1.96381 0.0728,0.003 0.41441,-0.73778 0.75925,-1.64515 0.54782,-1.44157 2.11476,-4.4636 3.4027,-6.56249 0.40012,-0.65209 0.37314,-0.75311 -0.67144,-2.51354 -4.05929,-6.841281 -1.2392,-15.338441 5.44542,-16.407351 1.27918,-0.20455 1.7626,-0.65437 1.52106,-1.41534 -0.1679,-0.529 -5.10175,-5.28293 -6.72841,-6.48303 -0.46127,-0.34033 -4.0858,-3.81736 -8.05447,-7.72673 -10.39611,-10.24077 -15.75411,-16.38145 -26.23349,-30.06553 -1.51185,-1.97421 -2.65147,-3.15056 -3.98838,-4.11698 -2.89298,-2.0913 -5.07135,-4.21068 -8.40393,-8.17638 -3.25652,-3.87522 -4.46157,-4.84418 -7.00183,-5.63016 -0.86823,-0.26863 -1.50794,-0.619519 -1.50794,-0.827111 0,-0.72789 2.00004,-1.418987 4.10104,-1.417084 2.77334,0.0024 4.89178,1.077529 7.81368,3.965135 2.34225,2.31475 3.41145,3.79405 5.9296,8.2039 3.4607,6.06045 5.34048,8.75335 11.17407,16.00729 6.52536,8.11419 15.19145,17.37134 23.61962,25.23058 1.73849,1.62115 4.65381,4.34653 6.4785,6.0564 1.82468,1.70987 3.3867,3.10886 3.47113,3.10886 0.0845,0 0.42828,-0.66287 0.76406,-1.47304 0.71297,-1.72015 2.171939,-3.95274 3.159309,-4.83453 l 0.69315,-0.61901 0.21283,1.54506 c 0.41662,3.02439 0.22453,2.80528 2.24462,2.56018 2.00647,-0.24344 3.19408,-0.26111 5.47479,-0.0814 l 1.58221,0.12465 0.22434,-1.19063 c 0.12337,-0.65484 0.3131,-1.60734 0.42158,-2.11667 l 0.19728,-0.92604 0.98803,1.05834 c 0.95284,1.02065 2.80114,4.35155 3.14563,5.66886 l 0.16722,0.6394 0.47593,-0.54462 c 0.26178,-0.29954 2.73815,-2.65882 5.50304,-5.24285 6.43353,-6.01266 13.14442,-12.63189 17.4928,-17.25386 8.80689,-9.36103 17.00501,-19.88663 20.55762,-26.39402 3.41299,-6.25162 6.02155,-9.54053 9.31304,-11.74202 2.27806,-1.523668 4.11104,-2.042532 6.26494,-1.773419 1.50299,0.187785 3.22924,1.031118 3.07258,1.501076 -0.05,0.150109 -0.87686,0.537403 -1.83738,0.860643 -2.59259,0.87249 -3.40502,1.53887 -6.73774,5.52648 -2.92397,3.49855 -5.36311,5.85445 -8.7248,8.42706 -0.8713,0.66678 -2.25462,2.09553 -3.07408,3.175 -3.42146,4.50708 -9.6388,12.40176 -11.02442,13.99869 -6.41983,7.39877 -17.79712,19.01695 -25.56714,26.10846 -4.23876,3.86862 -5.23581,5.00687 -4.91342,5.60929 0.16941,0.31654 0.68501,0.5471 1.46148,0.65352 2.68086,0.36746 5.11813,2.29373 6.41466,5.06981 0.67107,1.43678 0.74145,1.86381 0.74145,4.49791 0,3.78919 -0.18114,4.53335 -1.62531,6.676821 l -1.20592,1.78986 0.7004,1.19063 c 0.93528,1.58989 3.10579,5.99056 3.5242,7.14519 l 0.33504,0.9246 0.95338,-1.71979 c 1.34397,-2.42444 5.03475,-7.29219 8.12466,-10.715641 3.36934,-3.73298 10.0343,-10.13636 13.93209,-13.38525 5.13908,-4.28354 16.46732,-12.60896 26.19375,-19.25047 2.40109,-1.63955 4.66328,-3.20125 5.02708,-3.47046 0.3638,-0.2692 2.68552,-1.77151 5.15937,-3.33846 2.47386,-1.56695 6.04573,-3.87867 7.9375,-5.13715 5.24656,-3.49021 17.73137,-11.24699 23.54792,-14.63025 13.68922,-7.96249 30.89188,-17.13655 39.81979,-21.235657 17.40694,-7.992099 31.52921,-11.6494556 44.71458,-11.5800896 9.22113,0.04851 12.85394,1.450507 15.16772,5.8536046 1.69667,3.228779 2.62464,6.755143 3.47575,13.208312 1.35792,10.29563 0.28983,27.4393 -2.33709,37.5117 -2.2003,8.43665 -3.49014,11.91985 -11.41431,30.82396 -1.12847,2.69214 -2.81263,6.918871 -3.74258,9.392721 -1.70617,4.53878 -2.04309,5.37257 -5.91881,14.64742 -2.56765,6.14457 -6.04319,13.33324 -7.97685,16.499 -5.44216,8.90978 -14.01828,12.92429 -28.52883,13.3544 -4.85703,0.14397 -8.20017,-0.0667 -17.96346,-1.13174 -1.94902,-0.21262 -3.5806,-0.34967 -3.62571,-0.30456 -0.0451,0.0451 1.01375,0.64083 2.35304,1.3238 13.5495,6.90955 23.5549,16.52339 29.66535,28.50439 3.2712,6.414 5.4474,14.51702 5.44504,20.27458 -0.003,8.50104 -3.51086,18.36273 -9.39802,26.42438 -2.31339,3.16788 -5.52638,8.0909 -6.99352,10.71562 -3.41598,6.11119 -4.50096,7.48996 -9.09032,11.55187 -1.9191,1.69852 -4.91802,4.54501 -6.66427,6.32552 l -3.175,3.23731 -4.72075,2.31304 c -4.7553,2.32995 -7.76899,4.12449 -9.96362,5.93305 -2.47439,2.03906 -6.7437,4.65047 -9.12813,5.58339 -3.71202,1.45238 -6.81596,2.36403 -12.96458,3.80781 -3.98415,0.93554 -8.25548,2.11193 -9.65729,2.65977 -8.94488,3.49573 -11.83963,4.3275 -17.45459,5.01531 -5.78551,0.70871 -11.2934,0.4095 -15.05815,-0.81804 -0.67191,-0.21907 -2.65039,-1.09707 -4.39664,-1.95106 -4.93088,-2.41147 -8.39832,-5.69735 -12.72463,-12.05841 -3.26543,-4.80126 -7.37169,-14.1105 -9.46097,-21.4489 -1.75289,-6.15677 -4.26625,-18.05935 -5.43973,-25.76108 -0.29932,-1.96453 -0.90411,-5.89359 -1.34395,-8.73125 -0.43982,-2.83765 -1.10043,-7.1239 -1.46799,-9.525 -1.5522,-10.1398 -2.56278,-16.25089 -2.77373,-16.77284 -0.13555,-0.3354 -0.23193,1.58582 -0.24201,4.8244 -0.0172,5.5268 -0.5814,18.46728 -1.09194,25.04532 -0.15811,2.03729 -0.63257,6.48449 -1.05436,9.88266 -1.60846,12.95879 -2.75236,17.11074 -5.9607,21.63509 -1.04529,1.47402 -1.18499,1.86272 -1.55209,4.31797 -0.22191,1.48397 -0.63006,3.2104 -0.907,3.83651 -1.51347,3.42143 -5.627,5.52281 -9.56857,4.88805 -1.99425,-0.32118 -3.37757,-0.99775 -4.88963,-2.39152 -1.32041,-1.21711 -2.282559,-3.57616 -2.792599,-6.84689 -0.26895,-1.72463 -0.50932,-2.28409 -1.83666,-4.27434 -2.32299,-3.48313 -3.50234,-7.1175 -4.62293,-14.24649 -1.6682,-10.61244 -2.63948,-23.3632 -2.94984,-38.72418 -0.0966,-4.78168 -0.25858,-8.53215 -0.35991,-8.33437 -0.10134,0.19777 -0.32153,1.19303 -0.4893,2.21168 -0.60425,3.6686 -1.84824,11.66937 -2.01578,12.96458 -0.1728,1.33574 -0.5598,3.93667 -2.51957,16.93333 -1.44905,9.60948 -3.7388,21.01173 -5.41208,26.95001 -1.95382,6.93401 -3.51756,11.13562 -6.11039,16.41782 -5.6954,11.6029 -11.69533,17.65292 -20.72471,20.89766 -3.45855,1.24286 -8.3648,1.8342 -12.25285,1.4768 z"
       id="path1699" />
  </g>
</svg>
