<?xml version="1.0" encoding="UTF-8" standalone="no"?>
<!-- Created with Inkscape (http://www.inkscape.org/) -->

<svg
   width="496.40265mm"
   height="256.4115mm"
   viewBox="0 0 496.40265 256.4115"
   version="1.1"
   id="svg3306"
   xmlns="http://www.w3.org/2000/svg"
   xmlns:svg="http://www.w3.org/2000/svg">
  <defs
     id="defs3303" />
  <g
     id="layer1"
     transform="translate(-91.9545,-70.8992)">
    <path
       style="fill:#000000;stroke-width:0.264583"
       d="m 247.0001,327.25115 c -4.00925,-0.48302 -10.6562,-1.77895 -12.7,-2.47605 -0.3638,-0.12409 -1.97114,-0.60711 -3.57187,-1.07339 -3.01697,-0.87881 -3.85053,-1.18427 -8.06979,-2.95717 -8.36046,-3.51298 -16.91485,-9.04631 -24.11611,-15.59928 -5.8194,-5.29553 -13.25529,-14.90733 -16.17378,-20.90663 -1.78224,-3.66363 -3.54128,-9.01078 -4.00876,-12.18591 -1.91743,-13.02319 1.42196,-28.23999 8.2124,-37.42204 2.24784,-3.03953 5.24226,-6.27166 8.00307,-8.63841 2.77613,-2.37987 8.19964,-6.68832 9.36391,-7.4387 0.40018,-0.25793 0.7276,-0.55658 0.7276,-0.66369 0,-0.10711 -1.24944,0.0807 -2.77653,0.41744 -4.75743,1.04893 -9.83714,1.55221 -15.61201,1.54678 -5.55627,-0.005 -6.41359,-0.0686 -10.40282,-0.76907 -14.99717,-2.63335 -31.53829,-13.21423 -46.27938,-29.60359 -3.70221,-4.11618 -5.22809,-5.98671 -7.47926,-9.16864 -0.94588,-1.33697 -1.96213,-2.74773 -2.25833,-3.13503 -1.59502,-2.08556 -7.23114,-10.98988 -8.98677,-14.19792 -4.56553,-8.34247 -10.00917,-20.37398 -12.52235,-27.6768 -4.1072,-11.9348 -6.39425,-24.37058 -6.39482,-34.7718 -2.6e-4,-4.634754 0.28494,-7.245381 1.17471,-10.75296 0.78504,-3.094717 1.49237,-4.669433 2.95127,-6.570305 5.0304,-6.554351 12.73683,-9.934191 26.96233,-11.824978 4.87877,-0.648462 17.822,-0.644197 23.01875,0.0076 10.31661,1.293915 16.09223,2.554298 26.45834,5.773846 9.43234,2.929538 29.54897,11.879024 41.93645,18.656688 2.4011,1.313728 5.67532,3.077194 7.27605,3.918807 1.60072,0.841612 4.2201,2.270532 5.82083,3.175372 1.60073,0.90484 4.3983,2.45555 6.21683,3.44602 1.81854,0.99047 3.78307,2.06517 4.36563,2.38823 0.58256,0.32305 2.1903,1.21148 3.57275,1.97428 1.38244,0.7628 3.76369,2.12764 5.29166,3.03297 7.88768,4.67352 20.26341,11.80062 23.68021,13.6373 1.16417,0.62579 3.54542,1.99189 5.29167,3.03578 1.74625,1.0439 4.60375,2.71157 6.35,3.70593 3.67752,2.0941 6.58974,3.82318 8.46666,5.02693 0.72761,0.46665 2.93026,1.8407 4.8948,3.05346 7.76083,4.79096 15.5344,10.82032 18.73887,14.53433 l 1.56586,1.81481 1.1507,-1.73759 c 1.79565,-2.71149 5.69484,-5.58414 8.55353,-6.30162 0.6342,-0.15918 0.6827,-0.27871 0.6827,-1.68273 0,-1.1242 0.1864,-1.87929 0.72761,-2.9476 0.87555,-1.7283 1.95606,-2.50518 4.10019,-2.94804 0.87141,-0.17999 1.64608,-0.48807 1.72151,-0.68462 0.19484,-0.50776 -0.94374,-2.83802 -2.1536,-4.40762 -3.09174,-4.01102 -5.54842,-5.8671 -14.72348,-11.12391 -11.18621,-6.4091 -14.89631,-9.14217 -18.91932,-13.93709 -1.13512,-1.35292 -2.78773,-2.9986 -3.67245,-3.65707 -1.31754,-0.98062 -1.7849,-1.54937 -2.58307,-3.1436 -1.20623,-2.40929 -1.58483,-4.94258 -0.8958,-5.99418 l 0.44021,-0.671844 1.07265,0.602859 c 2.43311,1.367495 4.25241,4.481225 4.79555,8.207575 0.309,2.1202 0.31792,2.13735 2.26504,4.36452 2.91841,3.33815 8.56864,7.57229 14.4635,10.83857 9.95844,5.51786 11.73896,6.62764 14.73568,9.18459 2.28253,1.94757 3.96274,3.91223 5.39946,6.31358 0.54319,0.90791 1.02772,1.70083 1.07675,1.76203 0.0491,0.0612 0.35658,-0.13322 0.68342,-0.43207 1.31206,-1.19965 4.46889,-2.12881 6.1568,-1.81216 1.93077,0.36222 3.58317,0.99128 4.39235,1.67214 0.60658,0.51042 0.88521,0.6166 0.96781,0.36882 0.33325,-0.99978 2.90987,-4.39372 4.72168,-6.21942 3.51703,-3.54403 5.43639,-4.86327 13.4598,-9.25138 8.85045,-4.84042 14.91673,-9.32056 18.121,-13.38291 1.42041,-1.80081 1.48619,-1.96904 1.6855,-4.31068 0.245,-2.87856 2.52886,-6.47132 4.68013,-7.362411 1.16097,-0.480885 1.44415,-0.07242 1.43487,2.069671 -0.0119,2.75903 -1.7984,6.12396 -3.96066,7.46032 -0.49802,0.30779 -1.39298,1.1779 -1.98879,1.93359 -1.87346,2.37614 -5.31839,5.72893 -8.06482,7.84909 -3.53002,2.72509 -3.91583,2.96034 -16.47031,10.04278 -4.87296,2.74902 -9.32056,6.75828 -11.50525,10.37136 -1.01351,1.67619 -1.26431,2.80547 -0.66656,3.00132 0.1819,0.0596 1.02251,0.24439 1.86801,0.41064 2.77328,0.54531 4.39891,2.64032 4.41002,5.68345 l 0.006,1.58885 1.5685,0.6082 c 3.24544,1.25844 6.05095,3.58536 7.75851,6.43501 l 0.89265,1.48966 0.59878,-0.87385 c 2.33059,-3.40129 13.73934,-12.33337 21.29925,-16.67551 0.88919,-0.51072 2.74778,-1.65395 4.13023,-2.54051 1.38245,-0.88657 6.14494,-3.69794 10.58333,-6.24748 9.01129,-5.17637 16.13278,-9.28129 30.96929,-17.85107 4.53462,-2.61927 18.09785,-10.27795 20.62446,-11.64592 0.80036,-0.43334 1.69333,-0.93485 1.98437,-1.11447 0.29105,-0.17963 1.89839,-1.04465 3.57188,-1.922283 1.67349,-0.877628 4.82864,-2.568419 7.01146,-3.757311 8.13501,-4.430818 21.72681,-10.890618 29.50104,-14.021014 1.52797,-0.615257 3.3139,-1.341837 3.96875,-1.614622 8.28572,-3.451553 19.43743,-6.656644 28.44271,-8.174649 6.8114,-1.148188 10.3088,-1.418846 18.65312,-1.443532 8.05169,-0.02381 9.83843,0.111048 17.4625,1.318106 1.51723,0.240213 5.0138,1.14304 7.27604,1.878703 7.59002,2.468214 13.21226,6.78007 15.45921,11.856096 1.04754,2.366489 2.17657,7.67951 2.36146,11.112499 0.65288,12.122607 -2.58638,29.195817 -8.18521,43.141757 -6.41185,15.97109 -13.7732,29.24048 -23.18324,41.78949 -7.26757,9.69187 -17.55407,19.47704 -27.9918,26.62757 -6.82662,4.67669 -16.43028,8.86686 -23.19883,10.12188 -9.00832,1.67031 -17.16386,1.58865 -26.50005,-0.26536 -1.86823,-0.37099 -3.45165,-0.61967 -3.5187,-0.55262 -0.067,0.067 0.81354,0.77741 1.95689,1.57857 9.85475,6.90541 16.18416,13.74622 19.88542,21.49204 3.47686,7.27631 5.2996,16.38596 4.97073,24.84266 -0.18624,4.78941 -0.66779,7.66958 -1.94332,11.62341 -3.02336,9.3718 -9.16262,18.38124 -18.61568,27.31889 -7.09031,6.70372 -15.93808,12.52429 -24.07708,15.83931 -0.94589,0.38526 -1.95792,0.80184 -2.24896,0.92575 -4.38775,1.86809 -12.25548,4.09358 -18.01736,5.09643 -2.96016,0.51519 -4.36338,0.59507 -10.55764,0.60094 -6.41908,0.006 -7.45239,-0.0551 -10.18646,-0.60309 -8.81383,-1.76662 -18.21934,-5.67676 -23.90336,-9.93738 -6.5142,-4.88288 -10.2004,-9.93632 -13.77074,-18.87828 -1.51731,-3.80013 -3.43609,-10.56465 -4.37433,-15.42135 -0.47299,-2.44829 -1.55361,-10.06943 -1.72572,-12.17083 -0.84878,-10.36221 -2.28211,-20.23394 -4.6292,-31.88229 -1.13355,-5.6257 -3.23279,-14.73017 -3.36574,-14.59724 -0.0475,0.0476 -0.12734,1.26781 -0.17727,2.71165 -0.0565,1.63247 -0.31266,3.43048 -0.67746,4.75477 -0.56801,2.06185 -0.5732,2.19231 -0.16264,4.10104 0.57446,2.67075 0.7848,7.35793 0.4392,9.7864 -0.1561,1.09676 -0.57713,2.86113 -0.93567,3.92082 -0.55742,1.64767 -0.60685,2.04861 -0.34123,2.76838 0.19013,0.51519 0.30983,2.48379 0.30858,5.07501 -0.003,4.6136 -0.30033,6.16524 -1.67754,8.73125 -0.6392,1.19092 -0.6877,1.46812 -0.48617,2.77813 0.60238,3.9157 -0.43135,8.65767 -2.67684,12.27926 -0.48638,0.78446 -0.66985,1.51976 -0.75912,3.04271 -0.25796,4.39994 -1.88685,8.72799 -4.10572,10.90932 -0.94054,0.92461 -1.4078,1.68177 -1.89053,3.06345 -1.21946,3.49033 -3.27051,5.85637 -6.36841,7.3464 -4.96337,2.38728 -11.21373,1.17475 -14.58265,-2.82898 -0.77477,-0.92078 -2.267,-3.79241 -2.75854,-5.30849 -0.17785,-0.54857 -0.88138,-1.57028 -1.5634,-2.27047 -2.35807,-2.42097 -3.93737,-6.38117 -4.18351,-10.49049 -0.12451,-2.07881 -0.24146,-2.5232 -0.92072,-3.49891 -2.28696,-3.28498 -3.46663,-8.99758 -2.6103,-12.64068 0.21971,-0.93472 0.1434,-1.29013 -0.65323,-3.04271 -1.69252,-3.72342 -2.08233,-7.17532 -1.33242,-11.7989 0.36708,-2.26332 0.36021,-2.49169 -0.11573,-3.84583 -0.90249,-2.56771 -1.15541,-4.84869 -0.97779,-8.81838 0.0914,-2.04326 0.3184,-4.48892 0.5044,-5.4348 0.31134,-1.58301 0.29051,-1.88527 -0.2617,-3.80029 -0.41391,-1.43545 -0.60116,-2.78899 -0.60396,-4.36563 -0.007,-3.77103 -0.35333,-3.44353 -1.54136,1.45628 -2.65594,10.95397 -4.8174,23.37154 -5.86544,33.69714 -1.78443,17.5809 -3.30684,25.77727 -6.34071,34.1372 -2.89492,7.97706 -5.31294,12.00007 -10.02414,16.67767 -5.6701,5.62969 -13.21406,9.80847 -22.63688,12.5391 -4.76655,1.38129 -7.99618,1.78787 -14.83847,1.86804 -3.4925,0.0409 -6.76671,0.0241 -7.27604,-0.0372 z"
       id="path3448" />
  </g>
</svg>
