<?xml version="1.0" encoding="UTF-8" standalone="no"?>
<!-- Created with Inkscape (http://www.inkscape.org/) -->

<svg
   width="622.367mm"
   height="284.24518mm"
   viewBox="0 0 622.367 284.24518"
   version="1.1"
   id="svg1834"
   xmlns="http://www.w3.org/2000/svg"
   xmlns:svg="http://www.w3.org/2000/svg">
  <defs
     id="defs1831" />
  <g
     id="layer1"
     transform="translate(145.99722,-94.433748)">
    <path
       style="fill:#000000;stroke-width:0.264583"
       d="m 85.879945,378.08787 c -1.018645,-0.34327 -3.285437,-1.34945 -5.037296,-2.23597 -5.108231,-2.58497 -7.567533,-2.72769 -12.114,-0.70299 -7.513214,3.34584 -9.612444,3.80896 -12.640143,2.7886 -2.951866,-0.99481 -3.741623,-1.73024 -8.816552,-8.21042 -3.007484,-3.84024 -5.046331,-5.33011 -8.538985,-6.23983 -1.976114,-0.51472 -3.499763,-0.49297 -7.332747,0.10473 -5.096454,0.7947 -6.537203,0.48191 -8.967986,-1.94699 -1.054824,-1.054 -1.817676,-2.26283 -3.274475,-5.1888 -2.96944,-5.96408 -4.837292,-7.50922 -11.1537426,-9.22668 -3.856545,-1.04863 -4.413676,-1.29855 -5.966346,-2.67663 -0.908185,-0.80606 -1.59628396,-1.77559 -2.31510396,-3.26202 -0.562557,-1.1633 -1.02282904,-2.27182 -1.02282904,-2.46341 0,-0.19156 -0.115678,-0.55504 -0.257064,-0.80774 -0.582909,-1.04177 -2.025642,-6.88528 -2.889721,-11.70422 -0.797856,-4.4496 -1.141407,-8.65984 -1.042011,-12.76993 0.0757,-3.13033 0.03324,-3.61172 -0.309121,-3.50485 -0.218281,0.0682 -1.706562,0.298 -3.307291,0.51078 -11.8456074,1.57469 -21.0230114,1.05603 -32.4160844,-1.83195 -4.86534,-1.23331 -16.1742,-4.56997 -20.50058,-6.04864 -11.10181,-3.79444 -15.50814,-6.0528 -23.54792,-12.06893 -1.89177,-1.4156 -6.29708,-4.48661 -9.78958,-6.82446 -14.344067,-9.6018 -21.718927,-15.38586 -29.924147,-23.46934 -1.94903,-1.9201 -8.72646,-9.71973 -10.46623,-12.04476 -3.89153,-5.20067 -8.15157,-12.66604 -9.51186,-16.66875 -0.70665,-2.07932 -0.9427,-5.74199 -0.53773,-8.34325 0.56807,-3.64878 3.602,-8.70422 7.63548,-12.72299 3.98116,-3.96664 9.30242,-8.28018 14.49407,-11.74924 0.72761,-0.48618 1.38245,-0.95602 1.45521,-1.04409 0.23889,-0.28913 4.57031,-3.0553 7.67292,-4.90015 3.04413,-1.81007 11.51555,-6.20425 13.75833,-7.13653 0.65484,-0.2722 1.964527,-0.84277 2.910417,-1.26793 5.18025,-2.32841 16.65543,-6.17968 27.25208,-9.14626 9.87634,-2.76493 29.55586,-7.23813 37.967708,-8.63015 0.291041,-0.0482 0.945885,-0.16651 1.455208,-0.263 4.395486,-0.83268 28.2538774,-5.31435 30.42708344,-5.71556 1.527968,-0.28209 5.69515596,-1.11096 9.26041596,-1.84193 3.5652606,-0.73097 8.9826036,-1.80903 12.0385416,-2.39569 7.050457,-1.35349 18.092522,-3.43468 18.785416,-3.54065 0.291041,-0.0445 1.243541,-0.21407 2.116666,-0.37681 0.873125,-0.16274 3.075782,-0.53211 4.894792,-0.82082 1.81901,-0.28871 3.72401,-0.59317 4.233334,-0.67657 8.631528,-1.41343 17.409186,-2.70557 20.637499,-3.03799 2.520103,-0.2595 6.48282,-0.7103 8.034681,-0.91402 2.558653,-0.3359 3.623575,-0.44342 7.840318,-0.79163 12.97326,-1.07131 24.56154,-1.15627 35.08031,-0.2572 l 5.31471,0.45427 2.4905,-2.50272 c 2.90129,-2.9155 6.48978,-5.39656 10.70004,-7.39792 1.59663,-0.75897 2.99045,-1.50843 3.09737,-1.66545 0.10692,-0.15703 0.19622,-0.65382 0.19844,-1.10398 0.006,-1.25441 0.96515,-3.76558 1.90595,-4.99111 1.13014,-1.47213 2.79225,-2.71387 4.50011,-3.36191 0.77177,-0.29284 1.4495,-0.57818 1.50609,-0.63408 0.19545,-0.193 -3.28538,-3.33404 -5.65915,-5.10671 -3.25527,-2.43098 -4.59213,-3.24551 -7.84518,-4.77996 -5.42166,-2.55739 -9.42602,-3.73476 -16.62877,-4.88922 -13.64914,-2.1877 -16.27757,-2.63491 -18.78542,-3.19623 -5.627238,-1.25951 -11.222381,-3.41087 -17.671176,-6.79464 -3.157115,-1.656582 -6.525393,-3.740292 -6.82207,-4.220336 -0.09747,-0.157708 0.07292,-0.536882 0.378645,-0.842606 l 0.555863,-0.55586 1.791335,0.818666 c 10.520442,4.807946 13.227738,5.866946 18.460111,7.220956 3.900302,1.0093 8.113842,1.69725 17.197922,2.80791 8.07854,0.98773 12.48296,1.92321 18.02786,3.82907 5.91751,2.03394 13.10132,6.81608 18.14052,12.07584 l 1.77255,1.85014 1.23348,-1.0193 c 3.2783,-2.70901 7.81024,-3.70708 12.41934,-2.73509 1.91116,0.40304 4.6246,1.58846 5.55969,2.42886 1.48563,1.3352 1.19303,1.44866 4.52532,-1.75483 6.798,-6.53519 13.87155,-10.46954 22.59103,-12.56526 4.65322,-1.11839 4.95744,-1.17181 11.37708,-1.99797 18.77938,-2.41673 21.68612,-3.18586 34.01375,-9.000065 4.06106,-1.915369 4.35803,-1.987859 4.93511,-1.204682 0.57211,0.776449 0.52205,0.823606 -3.23011,3.042327 -3.75769,2.22199 -8.98221,4.73371 -12.86618,6.18548 -2.72455,1.01841 -3.80733,1.37933 -5.78694,1.92898 -1.54123,0.42793 -9.69886,1.98849 -12.17084,2.32828 -12.01504,1.65161 -16.92841,2.69925 -21.91374,4.6725 -4.76274,1.88515 -10.00805,5.02522 -13.28023,7.95012 -0.87556,0.78263 -2.16366,1.89048 -2.86245,2.4619 l -1.27053,1.03894 1.65502,0.59927 c 0.91027,0.3296 2.13508,0.93666 2.72182,1.34904 2.18152,1.53322 3.86157,4.66067 3.86157,7.18834 0,1.2461 0.0236,1.28283 1.12448,1.75051 5.65087,2.40062 9.19223,4.68063 12.79758,8.23939 l 2.589,2.55555 6.3627,-0.5029 c 12.55898,-0.99267 28.18966,-0.59663 42.61061,1.07965 1.74625,0.20299 3.88938,0.44298 4.7625,0.53333 3.7917,0.39235 23.3426,3.33909 31.48542,4.74553 8.19407,1.4153 27.29587,5.07542 37.30625,7.14829 1.74625,0.36161 7.58031,1.49522 12.96458,2.51915 5.38427,1.02393 9.9449,1.91952 10.13471,1.9902 0.18984,0.0707 1.14234,0.25097 2.11667,0.40064 2.54881,0.39154 19.99646,3.76537 28.08655,5.43107 5.65549,1.16442 21.55886,5.1697 26.86624,6.76628 22.44495,6.75195 35.66834,12.94966 50.93229,23.87159 10.87559,7.7819 16.63745,13.97609 19.08289,20.51472 0.77091,2.0613 0.8546,2.56805 0.85799,5.19454 0.004,3.2958 -0.4313,5.05039 -2.33146,9.39271 -2.018,4.61161 -8.69878,14.30348 -13.24004,19.20748 -0.14758,0.15936 -1.33718,1.45503 -2.64353,2.87926 -5.70884,6.22388 -16.32998,15.24333 -24.34773,20.676 -2.03729,1.38043 -4.59713,3.13581 -5.68854,3.90084 -1.0914,0.76504 -3.53218,2.44605 -5.42396,3.73559 -1.89177,1.28953 -5.29751,3.67476 -7.56832,5.30049 -9.7101,6.95172 -14.81741,9.21066 -32.78063,14.49872 -14.50827,4.27095 -17.51804,4.90646 -26.01204,5.49224 -4.82261,0.33258 -11.08892,0.0662 -16.71817,-0.71083 -1.60073,-0.22095 -3.13243,-0.42373 -3.40376,-0.45063 -0.45707,-0.0453 -0.48675,0.14554 -0.40367,2.59688 0.19708,5.8147 -0.17267,9.69563 -1.51249,15.875 -2.12551,9.80292 -3.43655,13.33725 -5.8841,15.8628 -1.24643,1.28614 -2.56569,1.88397 -6.17617,2.79884 -3.24911,0.82328 -5.69166,2.08873 -7.37539,3.82106 -1.70654,1.75583 -2.20893,2.53757 -4.08797,6.3613 -1.59549,3.2467 -3.01265,4.91802 -4.89082,5.76789 -1.48411,0.67154 -4.83833,0.88932 -7.24432,0.47035 -2.89751,-0.50459 -6.18117,-0.40664 -8.12276,0.24228 -3.1744,1.06095 -4.9633,2.61451 -8.79377,7.63683 -2.42436,3.1787 -4.55153,5.19295 -6.37326,6.03493 -1.38586,0.64051 -1.92918,0.74269 -3.86173,0.72626 -1.97188,-0.0167 -2.59122,-0.15161 -5.02708,-1.09445 -1.52797,-0.5914 -3.75642,-1.51202 -4.95213,-2.04579 -4.60123,-2.05406 -6.68253,-1.86878 -13.03954,1.16084 -4.37763,2.08629 -6.18164,2.53695 -9.29984,2.32322 -2.61485,-0.1792 -4.56382,-1.06412 -7.82648,-3.55354 -1.22602,-0.93546 -3.06858,-2.13947 -4.09458,-2.67557 l -1.86542,-0.97475 h -3.60423 c -1.98234,0 -4.82712,0.17264 -6.32175,0.38365 -2.22953,0.31474 -3.05662,0.32546 -4.6061,0.0598 -3.31658,-0.56872 -5.15742,-1.96238 -9.82491,-7.43815 -3.20341,-3.75816 -6.25176,-5.78342 -10.43048,-6.92986 -6.23512,-1.71056 -9.81131,-3.89771 -12.18546,-7.45246 l -0.67064,-1.00415 -1.58869,2.72394 c -2.75262,4.71956 -5.71072,8.25323 -7.52147,8.98488 -1.04024,0.42032 -5.92781,0.28699 -7.07671,-0.19304 -0.51541,-0.21537 -1.38819,-0.84265 -1.93953,-1.39399 -1.8828,-1.8828 -5.05052,-6.38556 -6.50142,-9.24142 l -0.4386,-0.86333 -1.36856,1.65708 c -1.73696,2.10315 -2.62228,2.90579 -4.43513,4.02085 -1.38879,0.85423 -5.70645,2.50235 -7.67291,2.92886 -1.15708,0.25096 -3.3755,1.25584 -4.84495,2.19461 -2.11206,1.34932 -3.4173,2.5721 -6.00585,5.62642 -3.10743,3.66654 -4.15433,4.61902 -6.01163,5.46931 -2.32621,1.065 -4.54096,1.25788 -8.73495,0.76081 -2.0015,-0.23723 -4.44651,-0.43014 -5.43335,-0.42868 -3.02776,0.005 -5.77864,1.19433 -9.509102,4.11321 -1.003803,0.78544 -2.601939,1.81049 -3.55137,2.27788 -1.55694,0.7665 -2.003028,0.85862 -4.54824,0.93938 -2.417339,0.0767 -3.087608,0 -4.674103,-0.53465 z"
       id="path1976" />
  </g>
</svg>
