<?xml version="1.0" encoding="UTF-8" standalone="no"?>
<!-- Created with Inkscape (http://www.inkscape.org/) -->

<svg
   width="409.80469mm"
   height="329.14075mm"
   viewBox="0 0 409.80469 329.14075"
   version="1.1"
   id="svg1314"
   xmlns="http://www.w3.org/2000/svg"
   xmlns:svg="http://www.w3.org/2000/svg">
  <defs
     id="defs1311" />
  <g
     id="layer1"
     transform="translate(82.748814,9.413197)">
    <path
       style="fill:#000000;stroke-width:0.264583"
       d="m -8.8363186,319.43777 c -0.81317,-0.3008 -0.970195,-1.22396 -0.508754,-2.99104 0.451842,-1.73026 1.414579,-3.09342 5.103598,-7.22624 5.447974,-6.10338 8.839263,-10.56783 11.9159282,-15.68659 1.9902884,-3.31134 5.2197604,-9.90621 5.9202874,-12.08977 0.560705,-1.74775 0.580549,-1.99644 0.242618,-3.04271 -1.008743,-3.12327 -7.6374866,-7.67511 -14.9206616,-10.24575 -4.796829,-1.69306 -6.884148,-3.24887 -9.2585434,-6.90094 -2.870009,-4.41436 -5.316418,-6.8717 -10.075468,-10.12039 -4.652806,-3.17619 -6.485689,-5.6534 -8.956167,-12.10461 -1.122071,-2.93007 -1.938237,-4.28252 -4.729591,-7.83714 -2.278628,-2.90171 -2.779482,-3.83643 -5.512101,-10.28682 -3.202556,-7.55969 -3.869502,-11.42784 -3.610152,-20.93816 0.170457,-6.25057 0.514686,-8.20941 2.256604,-12.84125 1.706177,-4.5368 5.707359,-11.67751 10.094026,-18.01432 2.625418,-3.79258 8.216998,-9.57147 12.838631,-13.26871 3.061719,-2.44934 10.5197644,-7.48696 15.8750004,-10.72295 1.74624996,-1.0552 3.224609,-1.96711 3.285244,-2.02647 0.285609,-0.2796 -0.22183204,-0.32037 -1.17600404,-0.0945 -3.14532696,0.74463 -16.85797236,1.83554 -23.09808336,1.83757 -6.514319,0.002 -13.848794,-1.02765 -18.077071,-2.53805 -9.146733,-3.26732 -14.795954,-9.01136 -21.182451,-21.53797 -2.254459,-4.42195 -5.791568,-12.19675 -7.643556,-16.80104 -1.694772,-4.213447 -2.619314,-7.278824 -4.349115,-14.419796 -0.793136,-3.274219 -2.163511,-8.929687 -3.04528,-12.567708 -4.037464,-16.657846 -5.317802,-26.498579 -5.301276,-40.745832 0.01106,-9.534631 0.612691,-14.879931 2.574954,-22.877758 1.227976,-5.0050094 2.732194,-9.2726644 4.480433,-12.71156243 3.85948,-7.59184027 8.285239,-10.04813927 18.108938,-10.05045927 8.920905,-0.0021 19.144747,2.472272 31.548503,7.6353824 6.339131,2.63868687 18.4387564,8.7518026 24.2716394,12.2628073 9.715526,5.848091 25.4486826,16.775948 41.6718736,28.944215 0.436562,0.327445 3.770312,2.826308 7.408333,5.553027 11.945223,8.953015 21.975947,17.127354 28.585874,23.29549 3.615081,3.373459 10.622412,10.735895 14.319038,15.04469 5.227531,6.093208 11.09377,15.055339 15.12194,23.102494 l 2.29344,4.58166 0.60118,-0.7452 c 0.33068,-0.40987 0.91446,-1.19311 1.29731,-1.74054 0.6409,-0.91643 0.66275,-1.03216 0.27559,-1.45996 -1.60988,-1.77891 -2.02425,-5.6715 -0.85032,-7.988134 0.36169,-0.713743 1.04717,-1.594842 1.52329,-1.957996 1.13913,-0.868863 3.61709,-2.012524 4.36755,-2.015781 0.32742,-0.0013 0.59532,-0.07715 0.59532,-0.168294 0,-0.09114 -0.37008,-0.89481 -0.82238,-1.785937 -3.73886,-7.36613 -10.73314,-17.227502 -20.1027,-28.343145 -0.735992,-0.873125 -2.975055,-3.611563 -4.975728,-6.085417 -3.279087,-4.054599 -4.817242,-6.070586 -9.58895,-12.567708 -0.801555,-1.091406 -3.027891,-4.33575 -4.947364,-7.209652 -2.275205,-3.406465 -4.325964,-6.123299 -5.891662,-7.805208 -2.877158,-3.090701 -4.886034,-6.060286 -6.040966,-8.929931 -1.904604,-4.73239 -1.089475,-7.133476 1.59758,-4.705884 2.057585,1.858909 4.810469,6.701631 6.585611,11.585051 1.211236,3.332033 1.494446,3.840371 5.376307,9.649891 5.446818,8.151558 11.356208,15.963751 17.517718,23.158441 9.906614,11.567734 16.096324,20.157088 20.760134,28.808439 0.75451,1.399577 1.40764,2.544686 1.45143,2.544686 0.0438,0 0.34364,-1.16086 0.66635,-2.579688 1.23631,-5.435632 1.79638,-7.243998 2.34936,-7.585765 0.13126,-0.08111 0.35962,4.7e-5 0.50753,0.180345 0.33716,0.411035 1.20621,3.389106 1.77609,6.086425 0.23874,1.129942 0.5238,1.99898 0.63347,1.931193 0.10969,-0.06779 0.41097,-1.11135 0.6695,-2.319025 0.71059,-3.319251 1.45796,-5.767652 1.76059,-5.767652 0.66561,0 2.08645,3.934288 2.89044,8.003646 0.16531,0.836745 0.38619,1.521354 0.4908,1.521354 0.10464,0 1.00634,-1.458516 2.0038,-3.241146 2.47994,-4.432064 5.61591,-9.145423 9.02189,-13.559895 1.57189,-2.037292 3.62678,-4.7092 4.56645,-5.937573 0.93964,-1.228376 3.45522,-4.324001 5.59014,-6.879167 5.97614,-7.152454 8.1375,-9.856157 11.43397,-14.303051 7.67847,-10.358149 10.32269,-14.520402 12.27031,-19.314583 2.87923,-7.087428 5.57221,-11.391479 7.8875,-12.606139 2.25758,-1.184375 1.9745,3.01334 -0.50991,7.561688 -1.20819,2.211893 -2.52449,3.962247 -5.25769,6.991435 -1.20026,1.330253 -3.07547,3.787859 -4.16711,5.461349 -2.73537,4.193344 -4.95057,7.330503 -9.99522,14.155208 -2.92153,3.952428 -5.31929,6.95924 -10.44397,13.096875 -9.90145,11.858585 -17.2846,22.169638 -20.62742,28.807586 l -0.94356,1.873647 0.72832,0.182253 c 2.53852,0.635251 5.07886,2.587577 5.96871,4.587126 0.32763,0.736253 0.52443,1.741073 0.51816,2.645833 -0.0106,1.52378 -0.86506,4.20037 -1.56414,4.89943 -0.35375,0.35375 -0.27138,0.57095 0.74668,1.96922 0.62936,0.86439 1.2346,1.57835 1.34496,1.58659 0.11035,0.008 0.95083,-1.50307 1.86769,-3.35846 7.0748,-14.316855 16.52823,-26.566378 30.81515,-39.929508 6.99108,-6.539031 19.97313,-16.996113 31.08388,-25.038176 2.17075,-1.571215 6.28737,-4.61218 9.14805,-6.757702 2.86067,-2.145522 6.39186,-4.741238 7.84706,-5.768255 1.45521,-1.02702 5.51233,-3.899345 9.01581,-6.382946 6.94738,-4.924943 15.45522,-10.584473 20.27129,-13.484735 3.99796,-2.4075998 17.34439,-9.03087193 23.2327,-11.5294248 8.52498,-3.6173519 15.64351,-5.8078819 23.54791,-7.2461909 3.67236,-0.668237 13.50338,-0.672013 15.74271,-0.0061 3.76248,1.118938 6.30838,2.755556 8.20867,5.276887 2.42787,3.22137827 5.88595,11.7622049 7.2753,17.9688107 0.94242,4.209957 1.82417,10.012608 2.1377,14.067597 0.33928,4.387937 0.17531,16.758136 -0.27948,21.08438 -0.14531,1.382448 -0.3335,3.168386 -0.41822,3.96875 -0.57912,5.471721 -2.32106,14.821966 -4.06657,21.828125 -0.58007,2.328333 -1.36517,5.602552 -1.74469,7.276041 -1.94868,8.593061 -3.89684,15.768449 -5.27188,19.417247 -2.09404,5.55675 -8.22303,18.60625 -11.14226,23.72347 -3.8394,6.73027 -8.39131,11.53108 -13.61628,14.36077 -2.67719,1.4499 -8.4341,3.31721 -11.50937,3.73317 -0.58209,0.0787 -1.89177,0.25692 -2.91042,0.39596 -3.92628,0.53594 -8.55242,0.58497 -15.74271,0.16683 -7.90977,-0.45997 -11.95218,-0.80872 -14.41979,-1.24401 -0.87312,-0.15403 -1.94469,-0.34059 -2.38125,-0.41458 -0.51617,-0.0875 0.45535,0.62509 2.77813,2.03766 8.35686,5.08214 18.65262,12.44155 19.65817,14.05166 0.17208,0.27554 0.44585,0.50099 0.60838,0.50099 0.40489,0 4.30183,4.07925 6.86311,7.18418 3.85336,4.67129 10.36282,15.92927 12.23806,21.16547 1.53808,4.29477 1.94545,7.2728 1.93789,14.16601 -0.005,4.88236 -0.11597,6.8007 -0.54161,9.39271 -0.65291,3.97617 -0.69836,4.13271 -2.25173,7.75517 -4.07316,9.49849 -3.62799,8.67682 -7.37039,13.60352 -2.11736,2.78742 -3.01363,4.46167 -4.82764,9.01835 -1.88548,4.73618 -3.2113,6.28047 -8.87066,10.3323 -4.01902,2.87745 -5.73516,4.61629 -8.35343,8.46407 -3.27443,4.81203 -4.07135,5.40261 -11.05273,8.19084 -4.32318,1.72659 -7.36216,3.40058 -10.41095,5.73474 -2.10791,1.61382 -2.79805,2.43636 -3.34505,3.98674 -0.32663,0.92578 -0.30478,1.20261 0.2259,2.86176 1.58821,4.96541 6.79056,14.20445 11.84685,21.03922 0.79923,1.08037 2.99008,3.63116 4.86854,5.66846 4.16759,4.51993 4.93787,5.49365 5.78414,7.31157 1.06048,2.27804 0.77057,4.46238 -0.59222,4.46238 -2.47472,0 -9.66874,-7.48297 -15.64354,-16.27187 -0.98925,-1.45521 -2.99461,-4.72943 -4.45635,-7.27604 -4.9594,-8.64029 -5.7155,-9.92079 -6.36744,-10.78407 -1.3594,-1.80007 -6.70737,-3.56968 -10.77126,-3.56418 -2.20337,0.003 -2.73701,0.12221 -7.14375,1.59631 -5.79959,1.94003 -7.22302,2.24838 -10.45104,2.26396 -7.40249,0.0358 -11.13176,-2.85186 -17.72097,-13.7214 -2.32617,-3.83722 -5.57229,-8.60824 -6.8407,-10.05416 -0.51062,-0.58209 -2.8429,-3.02419 -5.18284,-5.4269 -7.36312,-7.56057 -12.03987,-14.16214 -16.03719,-22.63754 -5.03957,-10.6853 -10.46486,-24.60478 -14.91999,-38.27983 -1.41039,-4.32925 -2.62594,-7.87136 -2.70118,-7.87136 -0.0752,0 -0.058,2.88727 0.0383,6.41615 0.30639,11.22354 -0.42494,21.46765 -2.14376,30.02886 -1.2755,6.35309 -2.41876,9.50462 -4.67952,12.89978 -2.00779,3.01522 -4.00032,4.6395 -5.67092,4.62286 -1.04423,-0.0103 -2.59247,-1.27757 -4.24514,-3.47443 -2.5537,-3.39461 -4.30558,-7.67144 -5.47983,-13.37776 -1.55776,-7.57007 -2.02978,-13.37106 -2.14807,-26.39983 -0.0489,-5.38427 -0.0982,-9.96818 -0.10965,-10.18646 -0.0164,-0.31636 -3.96446,11.18055 -4.36104,12.7 -1.31377,5.03348 -9.304077,24.65448 -13.629988,33.46979 -4.684157,9.54529 -7.490963,13.48319 -15.912333,22.32448 -5.730795,6.01655 -6.974284,7.58095 -10.158729,12.78049 -4.94874,8.08019 -7.243075,11.20497 -9.584584,13.05372 -2.904993,2.29365 -5.384324,3.08155 -9.614694,3.05549 -3.172751,-0.0196 -4.60928,-0.29036 -8.439705,-1.59089 -7.499297,-2.54622 -9.804083,-2.7591 -14.52409,-1.34167 -1.511908,0.45402 -3.195743,1.05346 -3.741896,1.33209 -1.268942,0.64736 -2.726531,2.35141 -3.60889,4.21913 -0.924931,1.95778 -5.563058,9.89772 -8.2624851,14.14436 -2.7870045,4.38444 -7.0227745,9.75497 -10.4366505,13.23268 -3.198768,3.25856 -5.03931,4.35076 -6.451444,3.82837 z"
       id="path1486" />
  </g>
</svg>
