<?xml version="1.0" encoding="UTF-8" standalone="no"?>
<!-- Created with Inkscape (http://www.inkscape.org/) -->

<svg
   width="527.01282mm"
   height="252.05162mm"
   viewBox="0 0 527.01282 252.05162"
   version="1.1"
   id="svg1006"
   xmlns="http://www.w3.org/2000/svg"
   xmlns:svg="http://www.w3.org/2000/svg">
  <defs
     id="defs1003" />
  <g
     id="layer1"
     transform="translate(149.01003,-107.6647)">
    <path
       style="fill:#000000;stroke-width:0.264583"
       d="m 112.50488,359.38856 c -0.58116,-0.19748 -1.37951,-0.74176 -1.77411,-1.20943 -1.47029,-1.74263 -2.10794,-3.56212 -4.03606,-11.51692 -0.0757,-0.31247 -0.5279,-0.79835 -1.00481,-1.07974 -1.98281,-1.16988 -4.18478,-7.37751 -5.46902,-15.41777 -2.21485,-13.86657 -2.696339,-34.11665 -1.199591,-50.45285 0.387482,-4.22926 0.383381,-4.44951 -0.109643,-5.87628 -0.650875,-1.88359 -2.216256,-8.3721 -2.832021,-11.73863 -0.2599,-1.42086 -0.550227,-2.49242 -0.645213,-2.38125 -0.09499,0.11117 -0.741309,1.74995 -1.436317,3.64172 -4.506092,12.26536 -9.682533,21.11661 -15.791656,27.00226 -7.206456,6.94283 -16.083147,11.01331 -27.072219,12.4142 -10.83257,1.38091 -52.2469731,-1.12318 -70.257853,-4.24812 -16.165938,-2.80482 -30.913175,-7.10441 -42.333333,-12.34238 -6.914303,-3.17131 -13.865645,-7.7072 -17.737687,-11.5742 -3.691869,-3.68706 -4.873861,-5.80354 -4.880023,-8.73822 -0.0048,-2.27102 0.509331,-3.57835 2.28332,-5.80639 1.406131,-1.76602 5.050832,-4.47973 8.163557,-6.07827 9.995247,-5.13307 28.083586,-7.86742 61.383332,-9.27912 3.7107809,-0.15731 9.2471869,-0.40058 12.30312479,-0.5406 10.21767921,-0.46817 11.50638521,-0.40345 18.44077021,0.926 17.47012,3.34936 26.240633,4.39453 36.989437,4.40797 5.71963,0.007 10.293112,-0.38638 14.344385,-1.2343 5.46317,-1.14342 12.770829,-4.33966 18.528797,-8.10416 l 3.372141,-2.20467 v -1.53697 c 0,-1.15727 -0.08041,-1.48887 -0.329433,-1.34227 -0.181901,0.10708 -1.164166,0.74952 -2.182812,1.42764 -7.682045,5.11399 -14.050222,7.73484 -22.621875,9.31011 -4.715563,0.86661 -15.008304,0.85915 -22.357291,-0.0162 -12.843827,-1.52986 -30.782233,-4.77466 -46.2050331,-8.35783 -0.965269,-0.22426 -5.228481,-1.11988 -9.4738079,-1.99026 -4.245327,-0.87039 -7.804293,-1.63537 -7.908811,-1.69997 -0.104521,-0.0646 -4.651933,-1.01971 -10.105358,-2.12247 -5.452131,-1.10277 -11.342775,-2.29823 -13.089025,-2.6566 -1.74625,-0.35836 -6.687343,-1.25096 -10.980208,-1.98355 -4.292864,-0.73258 -10.841302,-1.86145 -14.552083,-2.50859 -3.710781,-0.64714 -8.532812,-1.42495 -10.715625,-1.72847 -16.956914,-2.35786 -22.422236,-3.59513 -28.569286,-6.46766 -12.25044,-5.72466 -27.1453,-18.81277 -35.36087,-31.07157 -3.97756,-5.93508 -6.5963,-13.07093 -6.26441,-17.07002 0.24088,-2.90255 2.33205,-5.87059 5.61651,-7.97163 6.70981,-4.29221 18.661,-7.50125 32.10657,-8.621 4.76507,-0.39684 17.732902,-0.1667 22.165228,0.39335 11.838164,1.49583 28.277184,5.19406 41.262508,9.28266 15.550856,4.89641 20.649588,6.55645 34.792707,11.32777 38.267057,12.90978 50.749014,17.45396 70.114582,25.52589 14.474084,6.03308 25.952291,12.02162 35.27245,18.40279 0.991473,0.67882 1.854676,1.23422 1.918229,1.23422 0.06355,0 0.116073,-0.20836 0.116681,-0.46303 0.0029,-1.2209 2.49055,-4.98346 5.365195,-8.11492 l 1.68092,-1.83107 -0.85262,-1.26697 c -2.065942,-3.06997 -2.474273,-6.70535 -1.074548,-9.56631 0.815868,-1.66757 1.696138,-2.55722 3.513828,-3.55122 l 1.35387,-0.74037 -1.44066,-1.90952 C 99.040392,185.11822 89.207867,177.25804 80.095114,172.01929 75.074831,169.13322 67.84869,165.16845 64.61699,163.52691 58.079347,160.20611 52.933652,157.20396 47.683657,153.6475 38.75643,147.60001 35.7419,145.03552 24.532616,133.95268 c -7.47141,-7.38712 -9.975215,-9.78347 -12.303125,-11.77515 -7.6842382,-6.57433 -14.9709451,-10.46787 -23.415625,-12.51178 -2.480569,-0.60038 -4.11109,-0.87131 -10.318749,-1.71458 -3.239085,-0.44001 3.976415,-0.34696 7.802655,0.10062 8.0439549,0.94095 13.45913909,3.05832 21.7008198,8.48514 3.6550602,2.40672 8.4389642,6.60283 17.3336472,15.20388 11.137265,10.76962 13.730923,12.94756 21.976794,18.45438 5.846816,3.90465 9.475549,5.9452 21.012123,11.81572 12.979294,6.60468 15.568824,8.05726 22.092708,12.39289 6.120051,4.06725 11.364066,8.62313 16.354976,14.20882 l 0.82744,0.92604 0.009,-1.85209 c 0.0249,-4.96434 2.00704,-12.99528 3.15285,-12.77465 0.74123,0.14273 1.124,2.04391 1.27974,6.35619 l 0.15038,4.16486 1.35483,-0.15923 c 0.74515,-0.0876 1.78752,-0.0398 2.31637,0.10626 1.17303,0.32389 1.15695,0.37488 1.23643,-3.91586 0.031,-1.67089 0.12517,-3.57376 0.20939,-4.22861 0.15425,-1.19925 0.7122,-2.38125 1.12408,-2.38125 0.33586,0 1.5081,2.81866 1.98065,4.7625 0.47109,1.93777 0.86603,4.70026 1.10797,7.74955 l 0.16353,2.06102 1.07479,-1.26727 c 3.28782,-3.8766 9.14475,-9.04875 14.46075,-12.77006 6.16175,-4.31334 10.84252,-6.98535 22.38505,-12.77845 20.56072,-10.31927 29.33877,-16.30843 41.8017,-28.52078 12.00105,-11.75974 15.42863,-14.79972 20.48865,-18.17176 4.58462,-3.05523 10.69933,-5.8073 15.47011,-6.96267 3.09808,-0.75029 8.28844,-1.31106 11.79938,-1.27481 3.36421,0.0347 3.29293,0.058 -2.77651,0.90716 -10.76645,1.50627 -19.03828,5.16449 -27.96662,12.36825 -1.6443,1.32668 -3.24223,2.65561 -3.55094,2.95317 -0.30872,0.29757 -4.59497,4.53228 -9.525,9.41047 -4.93004,4.87819 -10.34513,10.03652 -12.03357,11.46294 -4.11287,3.47464 -10.83024,8.38474 -14.97793,10.9482 -3.72327,2.30115 -12.61634,7.27267 -16.3486,9.13944 -15.02892,7.51697 -27.05357,15.78466 -34.14504,23.47685 -1.72093,1.86671 -3.16336,3.68355 -2.99908,3.77752 0.0567,0.0324 0.55978,0.29159 1.11805,0.57593 0.55828,0.28433 1.46868,0.97063 2.02314,1.52511 2.96058,2.96057 3.17714,7.71682 0.52925,11.62411 -0.42881,0.63275 -0.78182,1.24093 -0.78447,1.35151 -0.003,0.11058 0.83,1.1014 1.85031,2.20181 2.17051,2.34091 3.74574,4.58428 4.69096,6.68072 0.3719,0.82486 0.70128,1.53259 0.73197,1.57273 0.0307,0.0401 1.17385,-0.68945 2.5404,-1.62131 12.15996,-8.29183 30.4143,-16.93518 55.40134,-26.23228 10.45948,-3.89174 11.10059,-4.12299 19.05,-6.8715 4.07458,-1.40879 8.53943,-2.96174 9.92187,-3.45101 4.08266,-1.44491 31.22179,-10.5538 40.08438,-13.4538 25.87709,-8.46743 40.51006,-12.11491 55.95937,-13.94869 5.95035,-0.70629 17.23581,-0.97147 22.537,-0.52957 13.90729,1.1593 27.01401,4.84759 32.76854,9.22122 2.20675,1.67719 3.34502,2.98196 4.16615,4.77555 0.59939,1.30925 0.64381,1.66069 0.51988,4.11311 -0.34099,6.74923 -5.24317,15.64482 -13.985,25.37752 -2.65679,2.95792 -9.07502,9.0098 -12.1399,11.44695 -6.02896,4.79411 -14.0044,9.52423 -19.31459,11.45516 -4.71955,1.71616 -11.27847,3.06919 -21.43125,4.42102 -5.17577,0.68914 -9.16368,1.33635 -23.41562,3.8002 -12.42851,2.14861 -14.50856,2.54007 -26.72292,5.02916 -14.75422,3.00668 -23.33791,4.80131 -29.36875,6.14024 -19.26796,4.27775 -36.38383,7.38939 -47.17592,8.57653 -5.29307,0.58225 -13.86086,0.78274 -17.64699,0.41297 -10.03033,-0.97963 -18.12518,-3.98528 -27.33974,-10.15139 -1.06685,-0.7139 -1.99943,-1.23834 -2.07235,-1.16541 -0.0729,0.0729 -0.048,0.80934 0.0553,1.63647 l 0.18791,1.50387 3.14015,2.07479 c 7.62151,5.03576 15.69823,7.92539 25.16105,9.00196 3.64342,0.4145 16.3307,0.17736 21.63747,-0.40444 5.75932,-0.63141 15.14247,-2.12683 22.73223,-3.6229 l 6.76881,-1.33425 7.27604,0.15271 c 4.00183,0.084 9.71683,0.27262 12.7,0.41918 2.98318,0.14656 8.1624,0.39203 11.50938,0.54549 24.5301,1.12475 43.8989,4.13707 52.67695,8.19254 5.08823,2.35077 10.03014,6.434 11.39486,9.41492 1.64016,3.58255 0.48906,7.1244 -3.72112,11.44983 -8.22664,8.45182 -24.04642,15.986 -44.21111,21.0556 -15.13525,3.80515 -28.64408,5.68341 -51.46146,7.15513 -17.16513,1.10714 -29.34602,1.24669 -35.6308,0.40817 -9.78008,-1.3049 -18.49548,-5.07954 -25.32134,-10.96671 -6.46607,-5.57688 -12.43092,-15.41085 -17.38019,-28.65401 -0.55665,-1.4895 -1.13442,-2.91825 -1.28394,-3.175 -0.23625,-0.40578 -0.27286,-0.37643 -0.27985,0.22439 -0.0196,1.68803 -2.06589,10.43353 -3.22784,13.79549 -0.30151,0.8724 -0.46243,1.83238 -0.37697,2.24896 0.082,0.39975 0.35613,2.98902 0.60915,5.75391 0.58155,6.35436 0.66968,29.01521 0.13623,35.03041 -1.05693,11.91855 -2.83541,21.27687 -4.88249,25.69147 -0.79846,1.72193 -2.15945,3.43958 -2.72534,3.43958 -0.16568,0 -0.56277,1.17136 -0.88241,2.60302 -1.45643,6.52301 -2.92677,9.52818 -5.20036,10.62882 -1.02187,0.49469 -1.3508,0.5503 -1.75646,0.29694 -0.32592,-0.20352 -0.65834,-0.22654 -0.95777,-0.0662 -0.30075,0.16094 -0.82238,0.12181 -1.51527,-0.11367 z"
       id="path1148" />
  </g>
</svg>
