<?xml version="1.0" encoding="UTF-8" standalone="no"?>
<!-- Created with Inkscape (http://www.inkscape.org/) -->

<svg
   width="501.71555mm"
   height="256.02682mm"
   viewBox="0 0 501.71555 256.02682"
   version="1.1"
   id="svg2774"
   xmlns="http://www.w3.org/2000/svg"
   xmlns:svg="http://www.w3.org/2000/svg">
  <defs
     id="defs2771" />
  <g
     id="layer1"
     transform="translate(-33.169144,-45.090703)">
    <path
       style="fill:#000000;stroke-width:0.264583"
       d="m 281.16674,300.81129 c -3.15294,-0.67861 -5.15882,-2.08085 -6.0592,-4.23572 -0.39341,-0.94157 -1.06074,-5.00181 -1.34824,-8.20303 -0.0915,-1.01865 -0.45609,-3.03686 -0.81023,-4.48493 -0.52205,-2.1346 -0.83246,-2.86059 -1.64042,-3.83646 -2.41525,-2.91719 -2.72539,-4.05902 -2.68552,-9.88763 0.0303,-4.43458 0.0278,-4.45445 -0.68913,-5.48902 -1.36499,-1.96967 -1.77208,-4.08083 -1.80769,-9.37488 -0.0262,-3.89273 -0.1121,-4.90844 -0.4704,-5.56159 -0.24112,-0.4395 -0.56854,-1.50315 -0.7276,-2.36369 -0.36449,-1.97159 -0.37288,-8.73257 -0.0138,-10.94657 0.24111,-1.4858 0.21367,-1.76827 -0.24406,-2.51354 -0.28366,-0.46178 -0.77726,-1.61351 -1.09696,-2.5594 -0.52258,-1.54617 -0.56306,-2.03777 -0.40105,-4.86947 0.0991,-1.73232 0.4563,-5.05744 0.79377,-7.38915 0.60616,-4.1879 0.60757,-4.25356 0.11713,-5.39771 -0.95252,-2.22216 -1.28788,-3.93485 -1.55117,-7.92174 -0.33949,-5.1408 -0.56692,-7.04881 -0.80838,-6.78199 -0.1061,0.11725 -0.38243,1.16569 -0.61407,2.32985 -0.42677,2.14488 -1.30337,5.97909 -3.44792,15.08125 -3.4122,14.48243 -8.72699,31.43393 -13.27269,42.33333 -4.20947,10.0932 -7.59484,16.12482 -11.97277,21.33172 -4.3185,5.13622 -8.56223,8.07439 -14.6087,10.11438 -5.63761,1.90207 -7.5144,2.15641 -18.82995,2.55183 -4.17181,0.14579 -8.75572,0.38867 -10.18645,0.53972 -8.35472,0.88207 -10.27158,1.03886 -12.75924,1.04357 -4.05314,0.008 -7.0479,-1.05439 -10.34728,-3.66971 -5.25877,-4.16852 -8.29742,-5.52805 -15.71027,-7.02898 -4.07222,-0.82452 -5.48862,-1.28577 -7.11668,-2.31746 -1.78322,-1.13003 -2.84173,-2.4752 -4.60016,-5.84597 -2.26441,-4.34064 -3.73608,-5.79942 -7.8927,-7.82349 -4.95006,-2.41043 -5.93844,-3.4943 -7.0086,-7.68572 -1.24221,-4.86526 -2.95943,-7.68421 -7.19407,-11.80962 -4.71475,-4.59314 -5.08857,-5.90471 -4.89705,-17.18152 0.14148,-8.33041 0.30659,-9.62315 1.78146,-13.9482 1.42832,-4.18857 4.676,-9.95164 7.86991,-13.96534 1.52993,-1.92262 6.89024,-7.32023 9.18171,-9.2456 2.17054,-1.82377 7.63586,-5.81458 10.13037,-7.39727 0.76952,-0.48824 1.36483,-0.92 1.32292,-0.95947 -0.0419,-0.0395 -0.73105,0.0318 -1.53142,0.15844 -9.15092,1.44762 -15.68024,1.91972 -24.20937,1.75046 -7.52307,-0.1493 -10.33339,-0.44769 -15.34959,-1.62974 -3.626371,-0.85454 -5.408769,-1.46805 -8.582406,-2.95409 -5.295905,-2.47977 -8.13694,-5.48896 -10.43704,-11.05478 -1.527614,-3.69655 -2.344496,-5.02652 -4.240574,-6.90413 -1.20466,-1.19291 -2.31972,-1.94586 -4.45318,-3.00703 -3.49903,-1.74038 -4.90927,-2.7948 -5.94637,-4.44603 -0.90846,-1.4464 -0.95551,-1.6116 -1.49856,-5.26164 -0.77716,-5.22355 -1.92932,-6.92338 -7.03438,-10.37808 -4.31784,-2.92198 -4.65854,-3.54296 -5.0387,-9.18354 -0.45581,-6.76296 -1.3209,-8.14874 -8.58276,-13.74864 -3.85087,-2.96955 -4.68621,-5.21054 -3.73046,-10.00782 0.20897,-1.04889 0.63859,-3.21676 0.95471,-4.81749 1.49171,-7.553542 0.30658,-12.079859 -6.05736,-23.134677 -2.2039,-3.828405 -2.42349,-4.444175 -2.60918,-7.316518 -0.16072,-2.48621 0.15982,-3.430643 2.21204,-6.517629 1.81102,-2.72416 2.80906,-5.817825 2.84027,-8.80409 0.0137,-1.309687 -0.065,-3.016051 -0.17483,-3.791918 -0.36975,-2.611662 0.84503,-4.784762 3.47485,-6.216086 3.5667,-1.941243 10.92876,-3.081917 19.91953,-3.086322 6.39079,-0.0031 10.74202,0.419044 18.74753,1.818973 3.753953,0.656458 8.885472,1.884762 18.123958,4.338233 1.324617,0.351779 9.377402,3.137699 14.287502,4.942863 7.22141,2.654909 21.89266,8.978011 30.69166,13.227685 15.63477,7.551153 22.35046,10.856523 41.08085,20.219416 11.82592,5.911508 21.55341,10.7482 21.61664,10.7482 0.14812,0 5.9394,2.6656 10.19522,4.69264 1.81901,0.86638 4.01958,1.90796 4.89014,2.3146 6.90075,3.22338 18.45394,9.36327 23.16617,12.31157 6.4367,4.02726 12.19682,8.46767 16.31958,12.58061 l 2.96862,2.96153 1.47821,-1.96397 c 1.24483,-1.65393 3.4899,-3.66151 5.10606,-4.56597 0.32329,-0.18093 0.26683,-0.37815 -0.33378,-1.16559 -0.77083,-1.01059 -1.47208,-2.98312 -1.47208,-4.1407 0,-1.43949 0.78015,-3.34374 1.78189,-4.34938 1.28304,-1.28803 2.64085,-1.97319 4.5912,-2.31674 l 1.56361,-0.27542 -0.99179,-1.88913 c -1.39351,-2.65428 -3.75936,-5.77873 -6.16394,-8.14039 -3.81315,-3.74507 -9.3132,-7.331653 -24.06431,-15.692309 -10.81288,-6.128541 -16.49597,-10.267802 -22.23158,-16.192243 -2.70127,-2.790179 -5.05839,-5.46867 -5.24333,-5.958181 -0.0498,-0.131813 -0.52927,-0.463468 -1.06545,-0.73701 -1.44979,-0.739627 -4.34023,-3.762468 -5.26127,-5.50228 -1.44891,-2.736898 -1.99152,-5.683152 -1.42171,-7.719515 0.49461,-1.767554 2.20123,-1.170194 4.46384,1.56246 2.4547,2.964632 4.30117,7.411537 4.30117,10.358641 0,1.134128 0.14722,1.433189 1.56813,3.185556 2.24941,2.774141 7.12812,7.498641 10.2049,9.882357 5.05836,3.918921 8.77078,6.19914 19.5801,12.026355 7.18812,3.875058 13.14939,7.537547 16.79405,10.317939 3.69271,2.81705 7.43344,7.09015 9.83306,11.23243 0.63478,1.09577 1.2293,1.99377 1.32117,1.99556 0.0919,0.002 0.30202,-0.53289 0.46701,-1.18817 0.79478,-3.15638 2.36969,-5.95234 3.3528,-5.95234 0.51689,0 0.90795,0.86704 0.90795,2.0131 v 0.98956 l 0.66362,-0.62344 0.66363,-0.62344 0.79158,0.58524 0.79158,0.58524 v -0.6299 c 0,-0.9745 0.541,-2.29636 0.9398,-2.29636 0.19738,0 0.77417,0.54391 1.28178,1.20868 0.87992,1.15241 1.36527,2.31556 2.00736,4.81059 0.15915,0.61847 0.37407,1.1242 0.4776,1.12385 0.10353,-2.6e-4 0.51626,-0.62542 0.91713,-1.38906 1.06471,-2.02814 3.86474,-5.70906 6.21517,-8.17039 4.06095,-4.25262 11.41933,-9.164624 22.16012,-14.792772 13.93206,-7.300365 22.63312,-13.746495 28.48999,-21.106664 1.41748,-1.781334 1.54022,-2.041821 1.54022,-3.269101 0,-2.817898 1.42869,-6.451238 3.80391,-9.673744 1.28281,-1.740447 3.09264,-3.245551 3.90261,-3.245551 0.97366,0 1.37482,1.152459 1.22369,3.515297 -0.26207,4.097708 -2.85202,8.242387 -6.71922,10.752838 -0.60299,0.391425 -1.84923,1.657236 -2.76945,2.812918 -5.98098,7.511288 -15.16078,14.420246 -29.33345,22.077147 -15.5784,8.416352 -22.62495,14.156822 -26.73797,21.782112 -1.05603,1.95781 -1.05791,1.96656 -0.45953,2.12689 0.33049,0.0885 0.89852,0.16523 1.26233,0.17041 0.94715,0.0135 2.65236,0.84573 3.8032,1.85618 2.54002,2.23017 2.92192,5.97363 0.8949,8.77185 l -0.8077,1.115 0.62778,0.41124 c 1.63774,1.07283 3.83651,3.13091 4.91926,4.6045 0.65773,0.89516 1.23926,1.67229 1.29231,1.72694 0.053,0.0547 0.42463,-0.30253 0.82576,-0.79375 3.00636,-3.68133 13.14731,-11.52365 20.72365,-16.02626 7.80344,-4.63757 22.90212,-12.2948 32.53481,-16.4999 1.81409,-0.79193 13.54174,-6.546613 26.06146,-12.788189 31.41016,-15.659216 36.28302,-18.031131 48.03081,-23.379511 8.21709,-3.740968 16.8769,-7.37258 22.225,-9.320363 1.52797,-0.556488 3.6711,-1.367298 4.7625,-1.801797 5.07323,-2.019707 14.26837,-4.697042 23.28392,-6.779543 3.19664,-0.738394 10.6934,-1.976062 14.47392,-2.38955 4.32229,-0.472747 12.05161,-0.535217 16.48174,-0.133212 9.73627,0.883502 14.51356,2.67072 15.73345,5.885979 0.49094,1.293992 0.51271,1.751682 0.26064,5.477774 -0.16232,2.399853 -0.1108,3.059099 0.37844,4.841658 0.60092,2.189583 1.62277,4.407262 2.90856,6.312474 1.30641,1.935702 1.75615,3.338327 1.7258,5.382326 -0.0362,2.437672 -0.50173,3.669027 -3.32264,8.788244 -3.08546,5.599287 -4.2699,8.159538 -5.09995,11.023848 -1.2751,4.400156 -1.17729,7.044062 0.53814,14.543152 0.85984,3.7589 0.86902,5.30737 0.042,7.10123 -0.80658,1.74958 -2.0466,3.02985 -5.3889,5.56381 -4.93141,3.73873 -6.01988,5.45026 -6.45792,10.15478 -0.72737,7.81156 -1.12964,8.61298 -5.83804,11.631 -4.50646,2.88857 -5.62861,4.63916 -6.44154,10.04911 -0.47493,3.16066 -0.79785,4.19006 -1.69849,5.41461 -1.14197,1.55261 -2.45925,2.60702 -4.5375,3.63195 -5.17663,2.55297 -7.06877,4.30579 -8.93194,8.2743 -2.9669,6.31945 -3.24223,6.80627 -4.82825,8.53715 -3.08231,3.36379 -7.76554,5.848 -14.07527,7.46622 -5.43473,1.3938 -8.32697,1.74233 -15.82079,1.90644 -7.4712,0.16363 -12.32757,-0.10377 -20.3408,-1.12 -2.81987,-0.35762 -5.31484,-0.65023 -5.54423,-0.65023 -0.2294,0 0.76819,0.78863 2.21686,1.75252 6.01064,3.99924 10.40596,7.66515 14.64194,12.21211 5.67769,6.09452 9.30388,11.94988 11.38356,18.38147 1.26587,3.91485 1.46749,5.89668 1.47365,14.48515 0.006,7.54322 -0.0159,7.87064 -0.63278,9.75419 -0.77941,2.37955 -2.01438,4.06876 -4.69537,6.42233 -3.62567,3.18294 -5.01978,5.46534 -6.41861,10.50856 -1.43367,5.1688 -1.98731,5.81356 -7.2454,8.4378 -4.44161,2.21676 -5.79181,3.54418 -8.10051,7.9638 -1.84301,3.5282 -3.28237,5.22253 -5.31318,6.25446 -1.53752,0.78129 -4.37277,1.59896 -6.87916,1.98393 -5.39631,0.8288 -8.84675,2.33013 -13.75834,5.98635 -3.72353,2.77183 -5.39027,3.64234 -8.00997,4.18344 -3.01498,0.62277 -5.15879,0.55676 -15.40565,-0.4744 -4.44831,-0.44762 -7.12388,-0.61796 -13.09688,-0.83373 -9.67732,-0.34959 -11.45812,-0.56465 -15.7427,-1.90122 -3.08449,-0.96218 -4.43693,-1.56532 -7.54063,-3.36293 -3.81275,-2.20826 -8.52376,-6.85742 -11.41621,-11.26633 -6.28325,-9.57739 -9.93783,-18.16764 -16.4904,-38.76146 -2.71007,-8.51735 -5.68984,-20.05153 -8.48212,-32.83292 -1.1549,-5.28642 -1.32003,-5.88747 -1.54987,-5.6419 -0.0568,0.0606 -0.24011,2.61055 -0.40746,5.66649 -0.27334,4.9912 -0.3878,5.82178 -1.12541,8.16725 l -0.8211,2.611 0.4985,3.87129 c 0.29853,2.31825 0.4995,5.51651 0.50099,7.97234 l 0.003,4.10104 -0.88117,1.68825 -0.88119,1.68825 0.28588,2.12413 c 0.15722,1.16827 0.28586,3.87221 0.28586,6.00877 0,3.99791 -0.28411,5.66507 -1.20497,7.07043 -0.38759,0.59156 -0.46281,1.48455 -0.50586,6.00647 -0.0545,5.72624 -0.25349,6.78672 -1.68042,8.95659 -0.62775,0.95462 -0.65455,1.16105 -0.6011,4.63021 0.0902,5.85722 -0.39754,7.85051 -2.5621,10.46993 -0.85653,1.03654 -1.17186,1.75681 -1.73405,3.9609 -0.3779,1.48169 -0.81523,3.88461 -0.97181,5.33982 -0.77785,7.22852 -1.17322,8.44129 -3.24014,9.93857 -2.47254,1.79109 -6.35339,2.46234 -9.86563,1.70643 z"
       id="path2916" />
  </g>
</svg>
