<?xml version="1.0" encoding="UTF-8" standalone="no"?>
<!-- Created with Inkscape (http://www.inkscape.org/) -->

<svg
   width="570.60754mm"
   height="251.60464mm"
   viewBox="0 0 570.60754 251.60464"
   version="1.1"
   id="svg3406"
   xmlns="http://www.w3.org/2000/svg"
   xmlns:svg="http://www.w3.org/2000/svg">
  <defs
     id="defs3403" />
  <g
     id="layer1"
     transform="translate(161.94408,-98.102922)">
    <path
       style="fill:#000000;stroke-width:0.264583"
       d="m 221.00557,349.57372 c -9.09171,-0.71138 -17.0494,-2.49928 -26.87272,-6.03755 -10.39984,-3.74595 -16.31852,-7.0711 -21.77026,-12.23058 -4.69693,-4.44518 -7.1139,-7.72602 -10.08316,-13.68711 -2.86089,-5.74352 -4.68199,-11.60311 -6.34881,-20.42813 -0.20614,-1.09141 -0.44326,-2.34156 -0.52692,-2.77813 -0.21767,-1.1358 -0.93633,-6.50615 -1.2038,-8.99583 -0.12507,-1.16417 -0.34587,-2.89057 -0.49062,-3.83646 -0.14478,-0.94588 -0.39867,-3.32713 -0.5642,-5.29166 -0.16555,-1.96453 -0.45138,-5.29828 -0.63515,-7.40834 l -0.3342,-3.83645 -0.17682,3.70416 c -0.0972,2.03729 -0.24329,6.32354 -0.32454,9.525 -0.40576,15.98554 -1.22542,24.60554 -3.35867,35.32188 -0.15933,0.80036 -0.31734,1.6338 -0.35118,1.85208 -0.12835,0.82825 -1.2472,4.74109 -2.14157,7.48945 -1.51127,4.6441 -9.05994,18.85911 -11.39081,21.45014 -2.07039,2.30151 -4.2662,3.60829 -7.41738,4.41421 -2.4269,0.62068 -4.19389,0.64635 -6.89274,0.10009 -5.13138,-1.03862 -7.64519,-3.07946 -10.89824,-8.84764 -0.77965,-1.38245 -1.73495,-3.04932 -2.12291,-3.70417 -1.76551,-2.98003 -5.76355,-11.40333 -6.84424,-14.41979 -0.379865,-1.06029 -1.712545,-6.59151 -2.26309,-9.39271 -0.243099,-1.23692 -0.553746,-2.78474 -0.690377,-3.43958 -0.357294,-1.71273 -1.243754,-8.85603 -1.559613,-12.56771 -0.46273,-5.43758 -0.800523,-12.34562 -1.072595,-21.93511 -0.144092,-5.07931 -0.322976,-9.29611 -0.397536,-9.37066 -0.07456,-0.0745 -0.136181,0.44984 -0.136948,1.16532 -0.0026,1.33836 -0.945886,12.74415 -1.192213,14.39774 -0.07588,0.50933 -0.437965,3.41809 -0.804677,6.46391 -0.366686,3.04583 -0.783802,6.06033 -0.926888,6.69888 -0.143113,0.63854 -0.381106,2.0303 -0.528876,3.09282 -0.354542,2.54907 -2.293752,10.29946 -3.380317,13.51002 -0.803248,2.37344 -2.794899,6.93613 -4.056432,9.29288 -3.151638,5.88788 -9.21131,12.31434 -15.796974,16.75326 -1.803877,1.21584 -7.349596,4.02701 -9.957012,5.04727 -0.873125,0.34165 -1.825625,0.76276 -2.116666,0.93578 -0.291042,0.17303 -1.184011,0.52649 -1.984375,0.78549 -0.800365,0.25897 -1.838881,0.63542 -2.307829,0.83653 -0.468947,0.20114 -1.778634,0.61082 -2.910416,0.91043 -3.449717,0.91327 -3.590025,0.9525 -5.365089,1.50054 -0.945885,0.29204 -2.374635,0.67648 -3.174999,0.85434 -0.800365,0.17785 -1.812396,0.43373 -2.248959,0.56861 -2.093886,0.64693 -8.305985,1.32445 -13.411623,1.46272 -10.048906,0.27213 -16.7099638,-0.81658 -24.6971628,-4.03661 -1.60556,-0.64728 -3.022687,-1.17687 -3.149168,-1.17687 -0.441323,0 -9.8241412,-4.58144 -12.0045822,-5.8616 -1.208876,-0.70975 -3.411533,-2.14292 -4.894792,-3.18482 -1.483262,-1.04193 -3.05444,-2.14138 -3.49151,-2.44324 -2.634184,-1.81938 -8.031261,-6.49891 -11.667638,-10.11637 -4.140407,-4.11888 -6.957161,-7.5369 -9.013669,-10.93772 -2.368897,-3.91742 -3.848468,-7.94678 -4.614807,-12.56771 -0.502145,-3.02783 -0.565626,-5.07391 -0.243411,-7.8455 1.166307,-10.03222 6.823863,-21.31802 15.486282,-30.89233 0.785127,-0.86777 0.921731,-1.13158 0.529166,-1.02194 -0.291041,0.0813 -2.672291,0.76726 -5.291666,1.52438 -15.032805,4.34514 -21.298929,4.47171 -30.294791,0.61189 -5.202717,-2.23231 -12.167598,-6.43213 -19.638953,-11.84227 -1.41532,-1.02487 -4.02631,-2.87542 -5.80218,-4.11235 -5.419824,-3.77499 -13.635864,-10.49532 -17.783734,-14.54625 -4.6224,-4.51437 -8.86051,-9.16828 -14.3415,-15.74854 -12.99659,-15.60322 -22.31407,-28.47306 -28.15821,-38.89375 -6.68309,-11.91661 -7.86761,-15.6534 -6.12248,-19.31458 1.29712,-2.72128 3.9049,-4.86643 10.62996,-8.74412 6.82395,-3.93472 13.38599,-6.5656 22.08272,-8.85347 16.1235,-4.24167 32.274394,-5.52605 51.593752,-4.10295 13.105712,0.96539 37.32201,4.1939 63.444023,8.45834 10.2620312,1.67529 30.597702,4.55988 47.680974,6.76349 16.150087,2.08324 32.786002,4.95248 41.479416,7.15406 4.39084,1.11198 9.917324,2.99925 12.491694,4.26585 1.453065,0.71493 2.67581,1.19822 2.717244,1.07398 0.04141,-0.12424 0.763905,-1.29071 1.605545,-2.59215 2.320607,-3.58844 6.052952,-6.76516 10.762352,-9.16022 1.16416,-0.59206 2.19265,-1.19576 2.28552,-1.34154 0.0928,-0.14579 0.24826,-0.86376 0.34531,-1.59548 0.41923,-3.16029 2.44152,-5.34546 6.0901,-6.58063 0.72572,-0.24568 1.3557,-0.55527 1.39994,-0.68798 0.21029,-0.63086 -4.16515,-5.4785 -7.21046,-7.98863 -6.638577,-5.47192 -14.412352,-9.03597 -26.855203,-12.31234 -19.079025,-5.02377 -24.391567,-6.85266 -33.602083,-11.56783 -4.692623,-2.40231 -8.242432,-4.51979 -13.096875,-7.81237 -4.167584,-2.826699 -4.526544,-3.115126 -4.159302,-3.34208 0.141393,-0.08739 1.313682,0.51354 2.605061,1.335402 9.955767,6.336008 19.305084,10.894008 28.541741,13.914718 3.964596,1.29656 6.283854,1.92929 16.22634,4.42679 11.578298,2.90841 18.81624,5.48929 24.715521,8.81298 5.2079,2.93414 10.23707,7.17746 13.57868,11.4569 0.95269,1.22003 1.89177,2.21824 2.08688,2.21824 0.1951,0 0.63513,-0.31439 0.97782,-0.69865 1.65414,-1.85474 2.07038,-2.18816 3.12702,-2.50474 1.06437,-0.31888 1.16727,-0.30357 1.60669,0.23911 0.381,0.47052 0.63632,0.54697 1.35445,0.40556 0.4867,-0.0958 1.0405,-0.39276 1.23066,-0.65985 0.19015,-0.26708 0.52231,-0.4856 0.73813,-0.4856 0.84257,0 2.41422,1.07195 3.64599,2.48675 0.70966,0.8151 1.3852,1.482 1.50122,1.482 0.11599,0 1.15847,-1.22746 2.31661,-2.72768 5.0964,-6.60181 11.42434,-11.02203 21.48252,-15.00607 4.49191,-1.77924 6.97029,-2.58308 11.33327,-3.67585 10.46359,-2.62076 19.5022,-5.10955 23.25561,-6.40344 7.65656,-2.63943 17.27025,-7.31014 24.41321,-11.86094 4.22621,-2.692527 4.70868,-2.960479 4.86759,-2.703344 0.0809,0.130821 -0.0585,0.419394 -0.30978,0.641276 -0.9186,0.811303 -9.27253,6.234828 -12.23073,7.940428 -5.3563,3.08826 -13.85496,6.96295 -18.40002,8.38889 -5.57787,1.74996 -11.0853,3.34655 -15.09335,4.37552 -5.49896,1.41175 -12.77239,3.68389 -16.90303,5.28034 -9.18115,3.54844 -16.38702,8.68812 -21.37601,15.24668 -0.91308,1.20033 -0.9121,1.56186 0.004,1.56511 1.05531,0.004 3.27273,1.11164 4.57702,2.28681 1.21346,1.09335 2.36829,3.32452 2.36829,4.57568 0,1.26341 0.25947,1.5914 1.92362,2.43146 5.12173,2.58544 10.20144,7.05187 12.19153,10.71965 l 1.01827,1.8767 2.42131,-1.26329 c 7.72083,-4.02827 23.82753,-7.47595 53.75047,-11.5054 2.7649,-0.37233 8.06318,-1.09175 11.77396,-1.59873 8.04873,-1.09964 9.47963,-1.29193 13.62604,-1.83119 4.03011,-0.52413 13.08204,-1.89226 24.72487,-3.73699 5.01295,-0.79426 10.72795,-1.67674 12.7,-1.96106 3.3206,-0.47874 9.46073,-1.39095 17.87305,-2.6553 12.75519,-1.91708 29.21624,-3.58833 39.48864,-4.00919 14.77854,-0.60548 27.8262,0.73425 41.87073,4.29926 12.36745,3.1393 25.31073,9.19129 30.96964,14.48069 1.77353,1.65772 2.17778,2.2088 2.9093,3.96601 0.81558,1.95908 0.8376,2.10583 0.55013,3.66592 -0.59627,3.23604 -2.79218,7.95413 -7.43527,15.97513 -3.22972,5.57941 -4.71628,7.95926 -6.52344,10.44355 -0.63814,0.87725 -2.78831,3.85718 -4.77813,6.62208 -1.98983,2.76489 -4.5189,6.1777 -5.62015,7.58402 -1.10127,1.40631 -2.89525,3.71044 -3.98666,5.12027 -6.9233,8.94325 -16.14331,19.46163 -21.27001,24.26528 -5.1039,4.78228 -9.98485,8.72233 -17.31833,13.97981 -12.5399,8.99004 -23.03148,15.61293 -26.3665,16.64405 -0.43675,0.13504 -1.50849,0.49513 -2.38162,0.8002 -2.28475,0.79831 -7.21669,1.58866 -9.91351,1.58866 -4.04358,0 -9.13427,-1.08658 -21.12719,-4.50945 l -1.67196,-0.47719 0.61362,0.75048 c 3.81164,4.66176 4.92895,6.0544 5.30908,6.61741 0.24561,0.3638 0.82674,1.19724 1.29135,1.85208 1.8397,2.59287 4.5742,7.51508 5.80599,10.45104 1.19822,2.85585 1.37062,3.35903 2.08508,6.08542 0.94393,3.60201 1.19845,5.59467 1.19978,9.39271 0.003,3.718 -0.13888,4.7309 -1.22669,8.86354 -0.49699,1.88812 -2.10632,5.51082 -3.58484,8.06979 -3.17431,5.49391 -10.12754,13.02858 -16.48383,17.86226 -0.94589,0.71929 -2.67637,2.08446 -3.84554,3.03371 -1.9645,1.59499 -3.89662,2.95778 -6.20863,4.37915 -0.50932,0.3131 -1.28323,0.79375 -1.71979,1.06807 -2.72262,1.71076 -9.31233,5.03049 -12.5794,6.33719 -1.37602,0.55036 -2.68044,1.08627 -2.89872,1.19094 -1.07453,0.5152 -3.5101,1.27114 -8.59896,2.66885 -4.82912,1.32639 -12.65952,1.99364 -18.25625,1.5557 z"
       id="path3548" />
  </g>
</svg>
