<?xml version="1.0" encoding="UTF-8" standalone="no"?>
<!-- Created with Inkscape (http://www.inkscape.org/) -->

<svg
   width="570.60754mm"
   height="251.60464mm"
   viewBox="0 0 570.60754 251.60464"
   version="1.1"
   id="svg3140"
   xmlns="http://www.w3.org/2000/svg"
   xmlns:svg="http://www.w3.org/2000/svg">
  <defs
     id="defs3137" />
  <g
     id="layer1"
     transform="translate(147.31337,-134.81809)">
    <path
       style="fill:#000000;stroke-width:0.264583"
       d="m 235.63628,386.28889 c -9.09171,-0.71138 -17.0494,-2.49928 -26.87272,-6.03755 -10.39984,-3.74595 -16.31852,-7.0711 -21.77026,-12.23058 -4.69693,-4.44518 -7.1139,-7.72602 -10.08316,-13.68711 -2.86089,-5.74352 -4.68199,-11.60311 -6.34881,-20.42813 -0.20614,-1.09141 -0.44326,-2.34156 -0.52692,-2.77813 -0.21767,-1.1358 -0.93633,-6.50615 -1.2038,-8.99583 -0.12507,-1.16417 -0.34587,-2.89057 -0.49062,-3.83646 -0.14478,-0.94588 -0.39867,-3.32713 -0.5642,-5.29166 -0.16555,-1.96453 -0.45138,-5.29828 -0.63515,-7.40834 l -0.3342,-3.83645 -0.17682,3.70416 c -0.0972,2.03729 -0.24329,6.32354 -0.32454,9.525 -0.40576,15.98554 -1.22542,24.60554 -3.35867,35.32188 -0.15933,0.80036 -0.31734,1.6338 -0.35118,1.85208 -0.12835,0.82825 -1.2472,4.74109 -2.14157,7.48945 -1.51127,4.6441 -9.05994,18.85911 -11.39081,21.45014 -2.07039,2.30151 -4.2662,3.60829 -7.41738,4.41421 -2.4269,0.62068 -4.19389,0.64635 -6.89274,0.10009 -5.13139,-1.03862 -7.64519,-3.07946 -10.89825,-8.84764 -0.77964,-1.38245 -1.73495,-3.04932 -2.12291,-3.70417 -1.76551,-2.98003 -5.76355,-11.40333 -6.84424,-14.41979 -0.37986,-1.06029 -1.71254,-6.59151 -2.26308,-9.39271 -0.2431,-1.23692 -0.55375,-2.78474 -0.69038,-3.43958 -0.3573,-1.71273 -1.24376,-8.85603 -1.55961,-12.56771 -0.46273,-5.43758 -0.80053,-12.34562 -1.0726,-21.93511 -0.14409,-5.07931 -0.32298,-9.29611 -0.39754,-9.37066 -0.0746,-0.0745 -0.13618,0.44984 -0.13694,1.16532 -0.003,1.33836 -0.94589,12.74415 -1.19222,14.39774 -0.0759,0.50933 -0.43796,3.41809 -0.80467,6.46391 -0.36669,3.04583 -0.78381,6.06033 -0.92689,6.69888 -0.14311,0.63854 -0.38111,2.0303 -0.52888,3.09282 -0.35454,2.54907 -2.29375,10.29946 -3.38031,13.51002 -0.80325,2.37344 -2.794903,6.93613 -4.056436,9.29288 -3.151638,5.88788 -9.21131,12.31434 -15.796974,16.75326 -1.803877,1.21584 -7.349596,4.02701 -9.957012,5.04727 -0.873125,0.34165 -1.825625,0.76276 -2.116666,0.93578 -0.291042,0.17303 -1.184011,0.52649 -1.984375,0.78549 -0.800365,0.25897 -1.838881,0.63542 -2.307829,0.83653 -0.468947,0.20114 -1.778634,0.61082 -2.910416,0.91043 -3.449717,0.91327 -3.590025,0.9525 -5.365089,1.50054 -0.945885,0.29204 -2.374635,0.67648 -3.174999,0.85434 -0.800365,0.17785 -1.812396,0.43373 -2.248959,0.56861 -2.093886,0.64693 -8.305985,1.32445 -13.411623,1.46272 -10.048906,0.27213 -16.709964,-0.81658 -24.697163,-4.03661 -1.60556,-0.64728 -3.022687,-1.17687 -3.149168,-1.17687 -0.441323,0 -9.82414109,-4.58144 -12.0045821,-5.8616 -1.208876,-0.70975 -3.411533,-2.14292 -4.894792,-3.18482 -1.483262,-1.04193 -3.05444,-2.14138 -3.49151,-2.44324 -2.6341839,-1.81938 -8.0312609,-6.49891 -11.6676379,-10.11637 -4.140407,-4.11888 -6.957161,-7.5369 -9.013669,-10.93772 -2.368897,-3.91742 -3.848468,-7.94678 -4.614807,-12.56771 -0.502145,-3.02783 -0.565626,-5.07391 -0.243411,-7.8455 1.166307,-10.03222 6.823863,-21.31802 15.486282,-30.89233 0.785127,-0.86777 0.921731,-1.13158 0.529166,-1.02194 -0.291041,0.0813 -2.672291,0.76726 -5.291666,1.52438 -15.032805,4.34514 -21.298929,4.47171 -30.294791,0.61189 -5.202717,-2.23231 -12.167598,-6.43213 -19.638953,-11.84227 -1.41532,-1.02487 -4.02631,-2.87542 -5.80218,-4.11235 -5.41982,-3.77499 -13.63586,-10.49532 -17.78373,-14.54625 -4.6224,-4.51437 -8.86051,-9.16828 -14.3415,-15.74854 -12.99659,-15.60322 -22.31407,-28.47306 -28.15821,-38.89375 -6.68309,-11.91662 -7.86761,-15.65341 -6.12248,-19.31459 1.29712,-2.72127 3.9049,-4.86642 10.62996,-8.74412 6.82395,-3.93471 13.38599,-6.56559 22.08272,-8.85347 16.1235,-4.24167 32.27439,-5.52605 51.593748,-4.10295 13.105712,0.9654 37.32201,4.19391 63.4440229,8.45835 10.2620311,1.67528 30.5977021,4.55987 47.6809741,6.76349 16.150087,2.08323 32.786002,4.95247 41.479416,7.15406 4.39084,1.11197 9.917319,2.99924 12.491689,4.26585 1.45307,0.71492 2.67581,1.19821 2.71725,1.07397 0.0414,-0.12423 0.7639,-1.2907 1.60554,-2.59215 2.32061,-3.58843 6.05296,-6.76515 10.76235,-9.16022 1.16417,-0.59206 2.19266,-1.19575 2.28553,-1.34154 0.0928,-0.14578 0.24826,-0.86375 0.3453,-1.59548 0.41924,-3.16029 2.44153,-5.34545 6.0901,-6.58062 0.72573,-0.24568 1.3557,-0.55528 1.39994,-0.68799 0.21029,-0.63085 -4.16515,-5.47849 -7.21045,-7.98862 -6.63858,-5.47192 -14.41236,-9.03598 -26.855207,-12.31235 -19.079025,-5.02377 -24.391567,-6.85266 -33.602083,-11.56783 -4.692623,-2.4023 -8.242432,-4.51978 -13.096875,-7.81236 -4.167584,-2.8267 -4.526544,-3.11513 -4.159302,-3.34208 0.141393,-0.0874 1.313682,0.51354 2.605061,1.3354 9.955767,6.33601 19.305084,10.894 28.541741,13.91471 3.964596,1.29657 6.283854,1.9293 16.22634,4.4268 11.578295,2.90841 18.816235,5.48929 24.715525,8.81297 5.2079,2.93415 10.23707,7.17746 13.57868,11.45691 0.95268,1.22003 1.89177,2.21823 2.08687,2.21823 0.19511,0 0.63513,-0.31439 0.97782,-0.69864 1.65415,-1.85474 2.07039,-2.18816 3.12703,-2.50474 1.06437,-0.31889 1.16727,-0.30358 1.60669,0.23911 0.381,0.47051 0.63632,0.54696 1.35445,0.40556 0.4867,-0.0958 1.0405,-0.39277 1.23066,-0.65985 0.19015,-0.26708 0.52231,-0.4856 0.73813,-0.4856 0.84257,0 2.41422,1.07194 3.64599,2.48674 0.70966,0.81511 1.3852,1.48201 1.50122,1.48201 0.11599,0 1.15847,-1.22746 2.31661,-2.72769 5.0964,-6.60181 11.42434,-11.02203 21.48252,-15.00606 4.49191,-1.77924 6.97029,-2.58309 11.33327,-3.67585 10.46359,-2.62076 19.5022,-5.10955 23.25561,-6.40344 7.65656,-2.63943 17.27025,-7.31015 24.41321,-11.86094 4.22621,-2.69253 4.70868,-2.96048 4.86759,-2.70335 0.0809,0.13082 -0.0585,0.4194 -0.30978,0.64128 -0.9186,0.8113 -9.27253,6.23482 -12.23073,7.94043 -5.3563,3.08826 -13.85496,6.96294 -18.40002,8.38888 -5.57787,1.74996 -11.0853,3.34655 -15.09335,4.37553 -5.49896,1.41174 -12.77239,3.68388 -16.90303,5.28034 -9.18115,3.54843 -16.38702,8.68811 -21.37601,15.24667 -0.91308,1.20033 -0.9121,1.56186 0.004,1.56511 1.05531,0.004 3.27273,1.11165 4.57702,2.28681 1.21346,1.09336 2.36829,3.32453 2.36829,4.57568 0,1.26342 0.25947,1.59141 1.92362,2.43147 5.12173,2.58543 10.20144,7.05186 12.19153,10.71965 l 1.01827,1.8767 2.42131,-1.26329 c 7.72083,-4.02828 23.82753,-7.47595 53.75047,-11.50541 2.7649,-0.37232 8.06318,-1.09175 11.77396,-1.59873 8.04873,-1.09963 9.47963,-1.29193 13.62604,-1.83118 4.03011,-0.52413 13.08204,-1.89227 24.72487,-3.73699 5.01295,-0.79427 10.72795,-1.67675 12.7,-1.96107 3.3206,-0.47874 9.46073,-1.39094 17.87305,-2.6553 12.75519,-1.91707 29.21624,-3.58832 39.48864,-4.00918 14.77854,-0.60549 27.8262,0.73424 41.87073,4.29925 12.36745,3.13931 25.31073,9.1913 30.96964,14.4807 1.77353,1.65772 2.17778,2.20879 2.9093,3.966 0.81558,1.95908 0.8376,2.10584 0.55013,3.66593 -0.59627,3.23603 -2.79218,7.95412 -7.43527,15.97513 -3.22972,5.57941 -4.71628,7.95926 -6.52344,10.44355 -0.63814,0.87725 -2.78831,3.85718 -4.77813,6.62208 -1.98983,2.76489 -4.5189,6.1777 -5.62015,7.58402 -1.10127,1.40631 -2.89525,3.71044 -3.98666,5.12027 -6.9233,8.94325 -16.14331,19.46163 -21.27001,24.26528 -5.1039,4.78228 -9.98485,8.72233 -17.31833,13.97981 -12.5399,8.99004 -23.03148,15.61293 -26.3665,16.64405 -0.43675,0.13504 -1.50849,0.49513 -2.38162,0.8002 -2.28475,0.79831 -7.21669,1.58866 -9.91351,1.58866 -4.04358,0 -9.13427,-1.08658 -21.12719,-4.50945 l -1.67196,-0.47719 0.61362,0.75048 c 3.81164,4.66176 4.92895,6.0544 5.30908,6.61741 0.24561,0.3638 0.82674,1.19724 1.29135,1.85208 1.8397,2.59287 4.5742,7.51508 5.80599,10.45104 1.19822,2.85585 1.37062,3.35903 2.08508,6.08542 0.94393,3.60201 1.19845,5.59467 1.19978,9.39271 0.003,3.718 -0.13888,4.7309 -1.22669,8.86354 -0.49699,1.88812 -2.10632,5.51082 -3.58484,8.06979 -3.17431,5.49391 -10.12754,13.02858 -16.48383,17.86226 -0.94589,0.71929 -2.67637,2.08446 -3.84554,3.03371 -1.9645,1.59499 -3.89662,2.95778 -6.20863,4.37915 -0.50932,0.3131 -1.28323,0.79375 -1.71979,1.06807 -2.72262,1.71076 -9.31233,5.03049 -12.5794,6.33719 -1.37602,0.55036 -2.68044,1.08627 -2.89872,1.19094 -1.07453,0.5152 -3.5101,1.27114 -8.59896,2.66885 -4.82912,1.32639 -12.65952,1.99364 -18.25625,1.5557 z"
       id="path3282" />
  </g>
</svg>
