<?xml version="1.0" encoding="UTF-8" standalone="no"?>
<!-- Created with Inkscape (http://www.inkscape.org/) -->

<svg
   width="481.13654mm"
   height="322.88876mm"
   viewBox="0 0 481.13654 322.88876"
   version="1.1"
   id="svg1020"
   xmlns="http://www.w3.org/2000/svg"
   xmlns:svg="http://www.w3.org/2000/svg">
  <defs
     id="defs1017" />
  <g
     id="layer1"
     transform="translate(125.13145,12.037213)">
    <path
       style="fill:#000000;stroke-width:0.264583"
       d="m 14.445669,310.0343 c -1.140328,-0.6001 -2.644828,-1.90625 -5.4239584,-4.70887 -4.2162861,-4.25194 -5.3138042,-4.99608 -8.65483284,-5.86804 -1.73521716,-0.45288 -2.53091416,-0.51324 -4.91695616,-0.37303 -4.428685,0.26024 -5.103449,-0.0154 -8.8075466,-3.59651 -3.343815,-3.23289 -4.645525,-3.99402 -7.686188,-4.49429 -2.349482,-0.38653 -4.669332,0.0353 -9.838042,1.78882 -5.204587,1.76572 -6.867691,1.45661 -7.740705,-1.43865 -0.460875,-1.52847 -0.609261,-7.23423 -0.285377,-10.9734 0.338386,-3.90663 0.09412,-6.37993 -0.93454,-9.46269 -1.203135,-3.60564 -2.779858,-5.64791 -7.785013,-10.08362 -1.130241,-1.00166 -2.273652,-2.30291 -2.680647,-3.05067 -0.786844,-1.44571 -1.259337,-3.83236 -1.276411,-6.44742 -0.0155,-2.37427 -0.601019,-5.40851 -1.378521,-7.14375 -0.919372,-2.05187 -2.388023,-3.79357 -5.117338,-6.0687 -3.769246,-3.14203 -4.893741,-4.29519 -5.563439,-5.70526 -0.889447,-1.87277 -0.820502,-3.5819 0.321554,-7.97121 0.878374,-3.37587 0.943776,-3.88281 0.814869,-6.31629 -0.139025,-2.6244 -0.760309,-5.42726 -2.16998,-9.78958 -1.631056,-5.04742 -1.03109,-8.0398 2.915451,-14.54108 2.37199,-3.90747 2.98028,-5.43688 4.119065,-10.35648 1.696577,-7.3293 2.638507,-9.2436 6.613454,-13.44062 4.792916,-5.06068 11.923434,-10.40452 21.867301,-16.38806 3.1813,-1.91429 3.807045,-2.45053 2.554896,-2.18944 -1.383472,0.28848 -5.988489,0.9696 -10.417998,1.54092 -6.041942,0.77929 -18.315672,0.8476 -22.489582,0.12516 -10.506652,-1.81853 -16.462341,-5.76684 -19.475455,-12.91121 -1.327552,-3.14775 -2.708545,-5.102 -6.989763,-9.89127 -2.066702,-2.31196 -4.038018,-5.28153 -4.598978,-6.92784 -0.80121,-2.35144 -0.80737,-4.38112 -0.0255,-8.418 1.149188,-5.93366 0.80482,-8.04877 -2.37009,-14.55722 -0.92421,-1.894603 -1.80324,-4.109332 -1.9534,-4.921619 -0.29087,-1.573458 -0.0512,-5.28615 0.50958,-7.893804 0.38177,-1.775245 0.16701,-5.535043 -0.40567,-7.102051 -0.82613,-2.26055 -2.24582,-4.727273 -3.98994,-6.932589 -2.736308,-3.459871 -3.134418,-4.497945 -3.208438,-8.36609 -0.0461,-2.410703 -0.19324,-3.581905 -0.5926,-4.718164 -1.12365,-3.196976 -3.20337,-5.785926 -6.20941,-7.729818 -3.29588,-2.131324 -4.00621,-2.850607 -5.31212,-5.379087 -1.43293,-2.77441 -2.67798,-3.955344 -5.85021,-5.548955 -3.79552,-1.906728 -5.14464,-3.460652 -5.14464,-5.925646 0,-1.417986 0.90788,-3.245593 3.05362,-6.147061 2.54075,-3.435596 2.63492,-3.756184 2.63492,-8.969552 0,-4.285589 0.2329,-5.981766 0.94586,-6.888612 0.1185,-0.150718 0.59269,-1.034376 1.05377,-1.963687 0.77321,-1.558404 0.84848,-1.9481751 0.96898,-5.017638 0.11638,-2.9645768 0.22639,-3.573555 1.00755,-5.5769376 0.4823,-1.23692713 1.01784,-2.7847395 1.19009,-3.4395833 0.44617,-1.6962146 0.8614,-2.400464 2.1565,-3.6574858 2.18809,-2.123768 6.68193,-3.918511 12.653288,-5.0534443 4.37769,-0.832035 7.57697,-1.114443 12.771102,-1.127342 12.734186,-0.03162 22.789665,2.0905683 40.013275,8.4447276 3.891838,1.43578 7.563329,2.94310587 10.981674,4.50850777 0.945081,0.43279223 3.087544,1.41173203 4.761034,2.17542533 5.316561,2.4261973 14.759485,7.2564783 22.7541656,11.6393013 7.91803996,4.340806 23.0379054,13.936445 33.0421984,20.969839 12.849225,9.033486 27.47211,20.48202 38.824508,30.396463 5.128736,4.479083 13.063563,12.854431 18.420952,19.443615 4.557263,5.605099 10.919328,14.608237 16.338338,23.120807 1.398376,2.1967 1.435524,2.23051 1.597925,1.4552 0.26276,-1.25416 1.2301,-3.25804 2.10772,-4.36612 l 0.80529,-1.01675 -0.65585,-0.96644 c -3.674242,-5.414308 -1.09974,-12.418173 4.78811,-13.025852 0.78695,-0.08122 1.39563,-0.219879 1.3526,-0.308126 C 102.91559,79.162025 97.657655,70.997391 82.40694,50.068681 76.828994,42.413994 72.067817,35.430357 68.365502,29.472813 66.918576,27.14448 64.678931,23.542848 63.388531,21.469189 62.098132,19.395528 60.236868,16.746784 59.252353,15.583091 55.264924,10.869941 52.53998,5.9403149 51.845502,2.1835835 51.54348,0.54970997 51.689186,-0.18256143 52.350776,-0.35557243 c 0.682652,-0.1785197 1.252538,0.094427 2.342383,1.1219153 2.31558,2.18306383 4.602983,6.59171793 7.89297,15.21272113 2.144369,5.619046 12.457033,21.489902 25.074509,38.58883 7.060671,9.568476 13.400352,18.941319 16.402182,24.24971 0.28803,0.509323 0.96882,1.699948 1.51289,2.645833 0.54409,0.945885 1.5689,2.874277 2.2774,4.285316 0.7085,1.411036 1.31035,2.54213 1.33744,2.513542 0.0271,-0.02859 0.122,-0.740344 0.2109,-1.581677 0.4346,-4.112919 2.24568,-9.185931 3.27941,-9.185931 0.46947,0 0.46725,-0.0075 2.4815,8.294936 0.13594,0.560393 0.31231,0.953773 0.3919,0.874176 0.0796,-0.07959 0.3143,-0.895287 0.52157,-1.812645 1.31633,-5.826291 1.77073,-7.224175 2.34823,-7.224175 0.38185,0 0.70001,0.510254 1.33641,2.143212 0.79066,2.028878 1.7086,5.537838 1.82724,6.984913 0.0298,0.363802 0.0729,0.871569 0.0956,1.128368 0.0228,0.256802 0.65018,-0.693359 1.39425,-2.111465 0.74408,-1.418106 1.83044,-3.414154 2.41413,-4.43566 0.58373,-1.021506 1.29675,-2.274004 1.58451,-2.783326 3.20916,-5.679792 8.94287,-14.139572 17.06341,-25.176213 9.27518,-12.605874 15.45735,-21.740185 20.20035,-29.846393 2.35376,-4.02277 3.48718,-6.324269 5.18321,-10.524754 2.3684,-5.8657068 3.45327,-8.0019976 5.43754,-10.7075235 1.99691,-2.72275823 3.87508,-3.5715918 4.2854,-1.93676053 0.33509,1.33511133 -1.18237,5.93001613 -2.96011,8.96328413 -1.0215,1.7429159 -3.84344,5.5435899 -5.3337,7.1835689 -0.52893,0.582084 -2.24965,3.141927 -3.82379,5.688542 -1.57414,2.546614 -3.52735,5.701771 -4.34044,7.011458 -1.90907,3.07504 -8.04941,12.338965 -10.02768,15.128724 -1.96974,2.777715 -9.27457,12.886189 -11.05529,15.298359 -2.87944,3.900503 -3.57365,4.882448 -6.26621,8.863541 -4.93604,7.298235 -7.42596,11.428246 -11.09713,18.406708 l -1.86949,3.553708 0.7507,-0.0013 c 2.54492,-0.0044 5.67179,2.388471 6.67012,5.104464 0.31099,0.846015 0.56287,2.159523 0.56287,2.935141 0,1.670805 -0.7957,4.135125 -1.73119,5.361625 l -0.67318,0.88258 1.06762,1.57212 c 0.58719,0.86468 1.27079,2.23194 1.51911,3.03837 l 0.45151,1.46625 1.59099,-2.44056 c 6.41281,-9.837096 10.86834,-16.154457 14.94515,-21.19025 1.39779,-1.726602 2.83911,-3.519091 3.20291,-3.98331 8.69789,-11.098641 24.3269,-24.817178 48.55104,-42.616153 16.15943,-11.873328 31.37046,-21.428625 49.08021,-30.8312708 6.55637,-3.4809826 20.8453,-10.15262063 25.92916,-12.106579 19.12298,-7.3498229 33.85844,-10.3361282 47.22813,-9.5712912 7.654,0.437861 15.34713,2.2021693 19.17951,4.3985313 2.46251,1.411279 3.58765,2.9132156 4.51879,6.032108 0.26181,0.87687937 0.76751,2.30870387 1.12377,3.1818288 0.52372,1.2834779 0.67821,2.2369013 0.80666,4.9784634 l 0.15891,3.3909635 1.39253,2.694453 1.39253,2.694453 0.072,4.867185 c 0.0837,5.661615 0.12639,5.807596 2.71434,9.283715 2.39707,3.219736 3.0386,4.565576 3.02852,6.353408 -0.0145,2.605043 -1.00883,3.642749 -5.94481,6.205164 -2.81954,1.463702 -3.90417,2.586109 -5.30225,5.486858 -1.10519,2.293054 -1.11464,2.303317 -4.05432,4.401018 -6.11344,4.362426 -7.87953,7.408767 -7.8196,13.488114 0.0327,3.323699 -0.35047,4.254339 -3.36513,8.171913 -2.39038,3.106322 -3.04573,4.335666 -3.95031,7.41023 -0.75335,2.56046 -0.74819,4.105087 0.0272,8.15739 0.50281,2.628027 0.49255,5.496679 -0.0259,7.242587 -0.22733,0.765464 -1.09546,2.721841 -1.92921,4.347501 -2.14596,4.18428 -2.68534,5.99101 -2.6811,8.98057 0.003,1.39167 0.22807,3.52285 0.5257,4.95538 0.66542,3.20287 0.68394,6.32781 0.0489,8.2527 -0.67868,2.05717 -1.53754,3.41002 -4.06087,6.39642 -5.09064,6.02488 -5.52511,6.63273 -7.26446,10.16328 -0.95199,1.93239 -2.13592,4.04403 -2.63093,4.69253 -3.39574,4.44866 -9.34924,7.54284 -16.80888,8.73599 -5.2801,0.84454 -15.89203,0.78996 -23.12651,-0.11894 -2.91536,-0.36627 -9.72577,-1.34429 -10.40707,-1.49453 -1.06323,-0.23446 -0.42788,0.26924 2.52386,2.00098 13.29148,7.79782 23.46024,16.33929 26.29249,22.08493 0.97465,1.97723 1.36965,3.32927 2.90108,9.93039 0.7044,3.03626 1.29032,4.40497 3.28806,7.68088 3.32605,5.45404 4.10054,7.51204 4.10572,10.90974 0.003,1.69754 -0.18306,2.61625 -1.06936,5.29167 -1.34075,4.04723 -2.197,8.75245 -1.97372,10.84578 0.0893,0.83759 0.51843,2.79064 0.95351,4.34014 1.08225,3.85424 1.16716,4.7184 0.65863,6.70335 -0.55126,2.15175 -1.22381,3.01596 -4.21299,5.41364 -6.05568,4.85736 -7.56489,7.38839 -8.11665,13.61215 -0.67887,7.65731 -0.81645,7.93623 -6.09894,12.36385 -3.78973,3.17643 -5.84266,6.89756 -6.61855,11.99676 -0.22545,1.48172 -0.22439,3.21657 0.004,6.91685 0.22182,3.5901 0.22727,5.57916 0.0198,7.28265 -0.35385,2.9074 -0.43752,3.19583 -1.23613,4.26181 -0.96084,1.28251 -2.34765,1.1948 -7.20043,-0.45543 -4.78454,-1.62703 -6.94034,-1.9911 -9.44171,-1.59446 -2.99873,0.47548 -4.37488,1.27466 -7.50326,4.35742 -1.53914,1.5167 -3.24096,2.94254 -3.78185,3.16855 -0.72792,0.30414 -1.93233,0.41089 -4.63529,0.41089 -2.88044,0 -4.06987,0.11576 -5.63089,0.54806 -3.24958,0.8999 -4.52104,1.78904 -8.85822,6.19467 -3.53192,3.58764 -4.14348,4.09654 -5.55625,4.62354 -2.43015,0.90651 -4.51845,0.68625 -8.20208,-0.86514 -5.55239,-2.33836 -7.60603,-2.4965 -12.12086,-0.9334 -1.99488,0.6907 -2.5935,0.78825 -4.10321,0.66866 -0.97218,-0.077 -2.42244,-0.33282 -3.22281,-0.56846 -1.2601,-0.371 -1.81769,-0.38655 -4.15883,-0.11589 -5.23618,0.60534 -7.85198,-0.11337 -10.67035,-2.93171 -2.5214,-2.5214 -4.35943,-6.29044 -6.84636,-14.0389 -5.40279,-16.83353 -6.29486,-18.5548 -13.52687,-26.10056 -5.79025,-6.04142 -7.88356,-9.70841 -12.32202,-21.58532 -4.13713,-11.07061 -8.13506,-25.13195 -10.93446,-38.45797 -1.10659,-5.2685 -1.37195,-6.45006 -1.44838,-6.45006 -0.0372,0 -0.0114,4.2034 0.0575,9.34088 0.23003,17.15124 -1.00261,24.98447 -5.39125,34.26076 -2.23907,4.73268 -4.7013,7.94306 -6.89399,8.98866 -0.80144,0.38219 -0.90596,0.36724 -2.02803,-0.29035 -2.76111,-1.61811 -6.23985,-7.04734 -8.25092,-12.87703 -3.1309,-9.07585 -4.02355,-16.68376 -3.72526,-31.75 0.0821,-4.14735 0.0943,-7.42157 0.027,-7.27604 -0.0673,0.14552 -0.48096,2.05052 -0.91932,4.23333 -2.325025,11.57729 -6.065731,25.40066 -9.629959,35.58646 -0.789279,2.25557 -1.564058,4.39869 -1.721724,4.7625 -0.157665,0.3638 -0.876723,2.16169 -1.597898,3.99536 -3.318589,8.43788 -5.292381,11.64103 -10.745655,17.43853 -6.612863,7.0303 -7.936679,9.48177 -12.35747,22.88381 -3.133037,9.49809 -4.562342,12.93498 -6.447128,15.50255 -2.019247,2.75077 -4.634918,4.49289 -7.330281,4.88217 -0.694558,0.1003 -2.599558,0.0341 -4.233333,-0.14708 -2.682981,-0.29758 -3.137006,-0.28329 -4.690322,0.14766 -2.997941,0.83172 -4.375706,0.8006 -7.312316,-0.16512 -1.965589,-0.64643 -3.09925,-0.86204 -4.593934,-0.87374 -2.343097,-0.0182 -3.633867,0.30798 -7.540625,1.90611 -2.439987,0.99814 -3.252549,1.20563 -5.027083,1.28373 -1.953472,0.086 -2.238322,0.0291 -3.694721,-0.73728 z"
       id="path1190" />
  </g>
</svg>
