<?xml version="1.0" encoding="UTF-8" standalone="no"?>
<!-- Created with Inkscape (http://www.inkscape.org/) -->

<svg
   width="474.52777mm"
   height="364.56573mm"
   viewBox="0 0 474.52777 364.56573"
   version="1.1"
   id="svg5"
   xmlns="http://www.w3.org/2000/svg"
   xmlns:svg="http://www.w3.org/2000/svg">
  <defs
     id="defs2" />
  <g
     id="layer1"
     transform="translate(136.49882,34.27022)">
    <path
       style="fill:#000000;stroke-width:0.264583"
       d="m -55.553118,330.04418 c -3.222016,-0.97732 -5.274029,-4.52427 -5.274029,-9.11622 0,-6.41162 1.724364,-9.80387 13.053486,-25.6794 8.698384,-12.18906 14.857402,-24.10547 17.281086,-33.43526 1.271294,-4.89373 1.50976,-9.61147 0.657749,-13.01255 -1.329121,-5.30564 -3.368024,-7.86511 -8.108643,-10.17897 -3.051924,-1.48961 -3.933542,-2.22655 -4.877699,-4.07726 -0.866418,-1.69831 -0.900703,-3.49821 -0.146691,-7.70096 0.378566,-2.11005 0.755854,-5.26521 0.83842,-7.01146 0.143446,-3.0339 0.118687,-3.24556 -0.557117,-4.7625 -1.26427,-2.83784 -4.127225,-4.90958 -8.948149,-6.47522 -2.797318,-0.90846 -4.024005,-2.4414 -4.319151,-5.39745 -0.178612,-1.78894 0.159888,-3.55888 1.514568,-7.9193 0.724249,-2.33121 0.803434,-2.89993 0.702254,-5.04379 -0.14678,-3.11013 -0.737438,-4.29039 -3.805414,-7.60404 -2.890584,-3.12206 -3.393811,-4.16893 -3.219029,-6.69663 0.161366,-2.3337 1.23694,-4.74726 3.782832,-8.48857 6.188916,-9.09492 6.271524,-9.26253 7.237161,-14.68437 0.893583,-5.0173 2.224387,-7.43256 6.306181,-11.44503 5.670018,-5.57372 16.043591,-12.70581 26.455811,-18.18901 1.487723,-0.78346 2.668628,-1.46079 2.624233,-1.50518 -0.04439,-0.0444 -1.559279,0.21292 -3.366407,0.57181 -11.802359,2.34393 -26.230382,3.7101 -32.681043,3.09453 -9.949985,-0.9495 -16.173418,-4.61034 -22.680803,-13.34163 -1.275395,-1.71126 -3.442827,-4.42261 -4.816517,-6.02521 -3.920704,-4.57405 -5.163619,-6.7656 -6.747703,-11.89778 -1.036714,-3.3588 -2.026862,-5.31066 -4.613735,-9.095001 -2.249366,-3.2906 -2.970417,-4.97283 -4.238633,-9.888891 -1.089168,-4.221996 -1.485559,-5.154094 -3.541647,-8.328027 -2.251233,-3.47517 -2.803072,-4.854133 -3.681933,-9.200584 -0.91322,-4.516392 -1.3115,-5.467336 -3.85947,-9.214829 -2.73092,-4.016586 -3.19691,-4.876998 -4.40255,-8.129095 -1.24302,-3.352905 -2.357,-5.306023 -5.11597,-8.96975 -2.02958,-2.695141 -2.99801,-4.245486 -6.12286,-9.80195 -0.98205,-1.74625 -2.47768,-4.246562 -3.32361,-5.55625 -2.12666,-3.292522 -6.58474,-11.5294459 -8.04605,-14.8661779 -2.96303,-6.7657399 -4.90319,-14.0969781 -4.90463,-18.5329741 -0.002,-5.628915 1.67896,-8.351552 6.62886,-10.737818 7.51037,-3.620631 16.71257,-5.661807 26.70948,-5.924534 11.829018,-0.310876 21.191403,1.254809 35.057291,5.862682 7.674584,2.550396 10.811687,3.75965 17.727083,6.833238 14.262059,6.33885 27.398583,14.0317902 46.8312494,27.4250641 C 3.1495246,10.511704 17.362703,21.343509 24.774635,27.48002 c 0.87884,0.727604 2.477187,2.037291 3.551925,2.910416 4.607163,3.742965 16.902006,14.388624 22.897332,19.826023 4.241959,3.847203 16.481905,15.965788 20.996805,20.788658 6.25208,6.678546 10.39381,11.507862 13.11518,15.292482 0.86252,1.19953 1.65188,2.08894 1.75414,1.97648 0.29437,-0.32379 2.277639,-5.12125 2.600239,-6.28989 0.46615,-1.68866 0.35441,-2.37223 -0.6259,-3.828935 -1.197239,-1.779127 -1.532039,-3.10048 -1.418559,-5.599014 0.08,-1.761437 0.20198,-2.194486 0.89707,-3.184528 0.997769,-1.421088 2.595299,-2.329855 4.428229,-2.519032 1.30915,-0.135114 1.44002,-0.215111 1.98773,-1.21503 0.49718,-0.907693 0.5324,-1.134179 0.23162,-1.490051 -0.19511,-0.230815 -0.62357,-1.19357 -0.95221,-2.139455 -0.88175,-2.538032 -3.72692,-8.257521 -5.46209,-10.980208 C 86.998887,48.23923 84.129357,44.336375 79.924887,38.989394 71.151537,27.831992 67.264207,22.370961 64.386967,17.16127 57.360373,4.4385581 57.185748,4.0973091 56.263649,1.2862701 c -1.183561,-3.6081389 -1.115695,-5.9576869 0.198728,-6.8783469 0.898446,-0.629295 1.517227,-0.474543 2.583233,0.646063 1.573054,1.653632 2.095421,3.44615 2.391992,8.2084409 0.140759,2.260092 0.37428,4.622329 0.518954,5.249412 1.132682,4.9093819 9.531821,17.9584489 18.510171,28.7577639 2.75042,3.308262 6.79815,8.726468 8.795829,11.773958 2.08037,3.173603 5.6642,10.212919 6.39845,12.567708 0.75729,2.428676 0.8474,2.524776 1.93971,2.06838 1.5108,-0.631248 4.384814,-0.67713 6.101984,-0.09741 0.82018,0.276889 1.50595,0.482475 1.52397,0.456858 0.018,-0.02561 0.29956,-0.880012 0.62566,-1.898658 1.0355,-3.234351 4.36362,-9.661231 7.15735,-13.821459 1.46809,-2.186165 5.06553,-6.995364 7.99431,-10.687108 8.84396,-11.147896 13.06729,-17.21421 16.56093,-23.787862 1.79128,-3.370506 2.34704,-5.1829099 2.55265,-8.3244029 0.40079,-6.123771 0.78938,-8.0674209 1.95646,-9.7859079 1.92241,-2.830677 4.34705,-1.943243 4.30501,1.575668 -0.0292,2.4461359 -1.70961,6.9097179 -4.13676,10.9883649 -0.47631,0.800364 -2.02063,3.5983339 -3.43186,6.2177089 -1.41126,2.619375 -3.46491,6.131718 -4.56369,7.805208 -2.2787,3.470555 -8.72395,12.093458 -13.84353,18.520833 -6.17734,7.755344 -11.0168,15.695728 -12.71276,20.858561 -0.31858,0.969822 -0.74207,2.085721 -0.94112,2.479776 -0.31416,0.62203 -0.30297,0.839986 0.085,1.653645 0.38417,0.805635 0.57499,0.937184 1.3594,0.937184 4.24625,0 6.9256,3.905776 5.77101,8.412601 -0.39327,1.535036 -1.4129,3.515932 -1.99495,3.87565 -0.52216,0.32272 0.0678,2.9806 1.36882,6.16644 0.72797,1.78263 1.39697,3.23737 1.48669,3.23276 0.0898,-0.005 0.67149,-0.76279 1.29278,-1.68484 3.04964,-4.52587 12.62182,-15.152489 22.4001,-24.867595 12.70392,-12.62185 27.20203,-25.346112 46.32026,-40.653024 14.2593,-11.4166169 35.6679,-26.0114178 49.47708,-33.729805 6.65994,-3.722442 10.29108,-5.565645 16.72178,-8.48813 13.71877,-6.234596 28.33909,-10.893845 39.36989,-12.546515 7.14592,-1.070623 17.27935,-1.001336 24.47396,0.167341 7.59322,1.233428 16.30016,4.289354 19.8697,6.973795 1.43555,1.079569 1.88219,1.608331 2.51354,2.975536 0.74346,1.609955 0.76769,1.792671 0.76436,5.763704 -0.003,3.590076 -0.0944,4.463664 -0.73329,7.011458 -2.06225,8.2234322 -5.87709,16.5188711 -12.53853,27.265254 -0.72615,1.171408 -2.36678,3.969377 -3.64588,6.217708 -1.2791,2.248329 -3.72493,6.052402 -5.4352,8.453496 -3.6377,5.107038 -3.3704,4.631743 -4.86712,8.654301 -1.38334,3.717837 -1.52368,3.980016 -4.46878,8.348575 -2.62922,3.899961 -3.1636,5.179033 -3.89358,9.319633 -0.71181,4.03729 -1.45672,5.983557 -3.29335,8.604612 -2.11053,3.011964 -2.87134,4.771059 -4.1147,9.513855 -1.30434,4.975391 -1.81623,6.127151 -4.35491,9.798781 -2.39736,3.467291 -3.39949,5.397831 -3.9829,7.672741 -1.21206,4.7263 -3.27216,8.37501 -7.3946,13.09687 -1.27048,1.45521 -2.85912,3.41974 -3.53026,4.36563 -6.33841,8.93283 -12.14686,12.87714 -21.08721,14.31959 -2.63194,0.42465 -11.08353,0.41948 -15.21354,-0.009 -8.14734,-0.84586 -18.13642,-2.29567 -23.01875,-3.34092 -0.3638,-0.0779 1.18401,0.85549 3.43958,2.07417 5.59986,3.02558 6.97418,3.86127 13.49375,8.20527 5.23198,3.48606 8.77274,6.29354 11.90625,9.44047 4.166,4.18386 5.41107,6.6176 6.5894,12.88049 0.66929,3.55722 1.47865,5.26864 4.66651,9.86758 4.73122,6.82544 5.94762,9.3601 5.93619,12.36941 -0.008,2.09895 -0.62886,3.31475 -3.01768,5.90897 -1.29453,1.40584 -2.36212,2.88693 -2.97551,4.12806 -0.87304,1.76646 -0.95525,2.1267 -0.94072,4.12247 0.0169,2.34154 0.10914,2.81786 1.36334,7.04968 0.88593,2.98919 1.04974,5.4011 0.49305,7.25918 -0.43333,1.44627 -1.90767,2.90917 -3.51562,3.48833 -5.99078,2.1578 -7.57444,3.22208 -9.05521,6.08551 -1.05201,2.0343 -1.10791,5.08399 -0.20857,11.37708 0.76674,5.36506 0.75383,6.80501 -0.0776,8.66484 -0.75554,1.69013 -1.75596,2.51846 -4.81388,3.98582 -4.41883,2.12037 -6.59836,4.73813 -7.97938,9.58363 -0.77539,2.72063 -0.83481,7.61198 -0.13333,10.97092 2.30905,11.05596 7.81434,21.76171 20.54482,39.95208 6.59294,9.42057 8.11686,11.89575 9.271,15.05813 0.91268,2.50081 1.34488,6.31266 1.00092,8.82777 -0.38965,2.84927 -2.10746,5.56773 -4.25352,6.73129 -0.61053,0.33102 -1.46225,0.46503 -2.97238,0.46765 -1.856,0.003 -2.29587,-0.0941 -3.57188,-0.79005 -2.07431,-1.13143 -4.93075,-4.0903 -6.64104,-6.87916 -2.48944,-4.05932 -3.63736,-6.85419 -6.84633,-16.66875 -3.12447,-9.55612 -3.8412,-11.65905 -4.95959,-14.55209 -4.31877,-11.17155 -9.49431,-17.96227 -15.22502,-19.97646 -1.71072,-0.60127 -4.86823,-0.71252 -6.30677,-0.2222 -1.42272,0.48493 -3.04348,1.71106 -4.26781,3.22871 -1.74543,2.16353 -2.712,2.81475 -4.17788,2.81475 -1.56871,0 -2.6326,-0.69461 -5.08357,-3.31907 -2.10989,-2.25928 -3.03731,-2.89319 -4.81584,-3.29176 -2.76251,-0.6191 -5.59607,0.5442 -10.64535,4.37033 -3.99857,3.02993 -5.52386,3.6811 -8.1293,3.47057 -2.39357,-0.19341 -4.37697,-1.16851 -6.24525,-3.0703 -2.61093,-2.6578 -3.46292,-4.79669 -4.6083,-11.56891 -1.11985,-6.62133 -1.79451,-7.67408 -6.50454,-10.14987 -7.97878,-4.19396 -10.65035,-9.74783 -15.89966,-33.05346 -0.86963,-3.86091 -1.76413,-7.91279 -1.98779,-9.0042 -5.34723,-26.09378 -10.9947,-45.17506 -18.95073,-64.02916 -2.1849,-5.17777 -5.8748,-12.776 -6.42691,-13.23419 -0.3256,-0.27022 -0.45307,-0.17518 -0.76438,0.56986 -0.84021,2.01093 -1.02108,4.24427 -0.91845,11.34141 0.30165,20.8614 -0.33369,31.40015 -2.54415,42.20104 -1.3113,6.40729 -2.74146,10.6161 -4.83293,14.22292 -2.25354,3.88631 -4.63638,4.38921 -6.881554,1.45237 -3.3995,-4.44676 -5.84491,-12.50054 -7.16968,-23.61279 -1.01269,-8.49462 -1.17231,-12.14865 -1.21949,-27.91354 -0.042,-14.0304 -0.0903,-15.61423 -0.51652,-16.93333 -0.2586,-0.80037 -0.526699,-1.5485 -0.595729,-1.66252 -0.36367,-0.60057 -3.09195,4.4454 -6.04769,11.18531 -7.38955,16.85021 -13.68073,37.00656 -18.25117,58.47512 -5.725504,26.89421 -7.680325,34.32122 -10.689616,40.61354 -2.35466,4.92358 -4.351206,7.00963 -8.988637,9.39173 -4.82219,2.47698 -5.406707,3.55851 -6.870753,12.71307 -0.882226,5.51648 -3.251358,9.24653 -7.068872,11.12943 -2.079043,1.02548 -4.031139,1.23463 -6.048613,0.64815 -1.769507,-0.51443 -2.881101,-1.17112 -5.08045,-3.00143 -4.16396,-3.4653 -6.67258,-4.68058 -9.6187954,-4.65976 -2.39305,0.0169 -3.590554,0.7044 -6.614582,3.7973 -2.07735,2.12466 -2.71687399,2.62144 -3.68519599,2.8626 -1.72164421,0.42879 -2.66546621,-0.0843 -5.44292921,-2.95902 -2.720975,-2.81619 -3.769871,-3.33144 -6.7819724,-3.33144 -4.658397,0 -9.269134,3.29343 -13.367305,9.54818 -2.90945,4.4405 -5.19796,9.85784 -8.708301,20.61432 -3.96167,12.13943 -4.858388,14.58659 -6.738184,18.38854 -2.728179,5.51786 -5.364699,8.56221 -8.854237,10.22385 -1.631862,0.77708 -3.635496,0.97247 -5.177012,0.5049 z"
       id="path898" />
  </g>
</svg>
