<?xml version="1.0" encoding="UTF-8" standalone="no"?>
<!-- Created with Inkscape (http://www.inkscape.org/) -->

<svg
   width="701.90387mm"
   height="358.27316mm"
   viewBox="0 0 701.90387 358.27316"
   version="1.1"
   id="svg2088"
   xmlns="http://www.w3.org/2000/svg"
   xmlns:svg="http://www.w3.org/2000/svg">
  <defs
     id="defs2085" />
  <g
     id="layer1"
     transform="translate(206.52605,-73.897021)">
    <path
       style="fill:#000000;stroke-width:0.264583"
       d="m 140.45851,431.94827 c -3.2149,-0.87204 -6.65962,-5.76709 -8.34946,-11.86489 -0.57554,-2.07682 -1.03079,-3.12235 -1.84483,-4.23685 -2.97701,-4.07588 -4.16205,-8.08525 -5.81885,-19.68704 -0.665,-4.65667 -1.26735,-8.94292 -1.33858,-9.525 -0.0712,-0.58208 -0.17907,-1.35599 -0.23968,-1.71979 -0.0606,-0.3638 -0.18209,-1.4949 -0.26999,-2.51354 -0.0879,-1.01865 -0.2092,-2.03068 -0.26961,-2.24896 -0.41859,-1.5127 -1.73714,-20.54839 -2.10761,-30.42708 -0.22823,-6.08627 -0.23257,-35.13815 -0.006,-40.74584 0.20412,-5.05457 0.0315,-6.9433 -1.84976,-20.24062 -0.49413,-3.4925 -0.97925,-7.12391 -1.07807,-8.06979 -0.32258,-3.0874 -0.44926,-2.99626 -1.88791,1.35801 -2.38982,7.23323 -7.44857,21.39932 -9.34132,26.15865 -3.69549,9.29233 -9.360379,20.55728 -13.305316,26.45834 -3.555974,5.31921 -5.683753,7.57525 -10.503456,11.13655 -7.105067,5.24994 -16.932248,10.72226 -22.664525,12.62086 -5.89788,1.95344 -6.486234,2.04105 -13.583391,2.02271 -5.871765,-0.0151 -7.361184,-0.12052 -15.814124,-1.11858 -12.014877,-1.41864 -16.182919,-1.65034 -28.9004581,-1.60644 -25.4321459,0.0878 -34.4074399,-2.07661 -53.8427069,-12.98422 -4.438348,-2.49092 -11.004797,-5.74346 -17.596287,-8.71593 -9.45876,-4.2655 -13.41835,-6.75028 -16.40906,-10.29724 -3.36408,-3.98978 -4.74718,-7.43463 -4.75297,-11.83806 -0.004,-3.01411 0.48184,-4.91886 2.02173,-7.92694 4.2015,-8.2074 11.32824,-14.00331 27.47617,-22.34533 6.118284,-3.1607 18.268061,-8.70185 20.073827,-9.15507 1.052724,-0.26422 0.833331,-0.62341 -0.296223,-0.48498 -7.52444,0.92216 -17.44273,2.55309 -27.979684,4.60089 -13.23522,2.5722 -18.40041,3.4441 -25.0922,4.23567 -11.823466,1.39858 -20.906776,0.10042 -31.041056,-4.43633 -3.10527,-1.39011 -8.84559,-4.58312 -13.18757,-7.33547 -1.45521,-0.92245 -3.47927,-2.16099 -4.49792,-2.75232 -1.01864,-0.59133 -2.68552,-1.60736 -3.70416,-2.25785 -1.01865,-0.65048 -2.80459,-1.74528 -3.96875,-2.43288 -7.03868,-4.1573 -13.30811,-9.17021 -21.3053,-17.03529 -2.78177,-2.73581 -7.62694,-8.46306 -11.07977,-13.09688 -1.19276,-1.60073 -2.49032,-3.32502 -2.88346,-3.83177 -3.23625,-4.17143 -9.13634,-14.19269 -12.07534,-20.50989 -3.16053,-6.79335 -6.35089,-16.41221 -7.32767,-22.09271 -0.45668,-2.65589 -0.4579,-8.47465 -0.002,-10.31875 1.255,-5.07821 4.98183,-9.25278 11.18919,-12.53348 17.77525,-9.39453 50.57287,-12.78454 84.59861,-8.74422 5.11146,0.60694 7.87805,1.01466 15.242146,2.24623 4.03247,0.67439 6.09785,1.09829 17.19792,3.52972 7.08543,1.55204 17.407929,4.14336 28.442702,7.14013 4.68652,1.27275 17.931643,4.71558 22.621875,5.88016 2.037292,0.50585 5.013854,1.27492 6.614583,1.70905 2.655877,0.72028 9.855539,2.48455 21.6958329,5.31654 2.473854,0.59171 9.4985411,2.3063 15.6104161,3.8102 11.987617,2.9497 18.138545,4.43493 23.547916,5.68598 3.538458,0.81835 4.999223,1.18755 8.202084,2.07303 1.018645,0.28162 3.757083,1.00638 6.085416,1.61057 17.535763,4.55045 27.827049,7.8286 40.481249,12.89471 3.132561,1.25412 11.02916,5.2632 14.68437,7.45522 1.23693,0.74178 2.33199,1.34878 2.43348,1.34888 0.10147,1.1e-4 0.4857,-0.59946 0.85381,-1.33237 1.63322,-3.25167 3.88533,-5.78798 6.90568,-7.77715 1.23336,-0.81227 2.24245,-1.6353 2.24245,-1.82896 0,-0.19366 0.72043,-1.79317 1.60094,-3.55446 l 1.60094,-3.20236 -0.54115,-1.06073 c -0.29763,-0.58341 -0.68257,-1.88545 -0.85542,-2.89343 -0.77613,-4.52597 1.18596,-8.43617 5.33844,-10.63892 0.3638,-0.19298 1.43537,-0.41864 2.38125,-0.50146 1.54011,-0.13486 1.72881,-0.21416 1.80607,-0.75906 0.0943,-0.66558 -1.92664,-5.15442 -4.01449,-8.91653 -2.35416,-4.24168 -7.02747,-10.37806 -11.34949,-14.90247 -2.60376,-2.7257 -9.93799,-9.82589 -11.70995,-11.33626 -8.025424,-6.84069 -18.085146,-14.4364 -23.944794,-18.07976 -1.236927,-0.76908 -3.499114,-2.19953 -5.027083,-3.17876 -1.527969,-0.97923 -6.588125,-3.83202 -11.244792,-6.33953 C 46.758098,109.17471 43.144313,106.73738 30.654233,95.628258 24.359201,90.029233 9.4273749,74.795038 9.8349859,74.387426 c 0.08739,-0.08739 1.5630161,1.195264 3.2791721,2.850341 7.554553,7.28568 9.659083,9.28725 12.645284,12.026637 13.730234,12.595416 20.004696,17.065046 35.384845,25.206486 7.586054,4.01565 9.047004,4.79059 13.300101,7.05484 5.147151,2.74021 17.316238,10.55823 23.678594,15.2123 9.298018,6.80148 21.093398,17.52849 27.490688,25.00063 3.02455,3.53275 6.93872,9.25217 9.55098,13.956 0.94588,1.70323 1.79435,3.09967 1.88544,3.1032 0.0911,0.004 0.59685,-0.81411 1.12385,-1.817 1.13255,-2.15524 2.28336,-3.46824 3.0398,-3.46824 0.41577,0 0.61558,0.26176 0.84214,1.10318 0.16338,0.60674 0.24403,1.38065 0.17921,1.71979 -0.1161,0.6072 -0.0831,0.6166 2.16053,0.61579 l 2.27841,-7.9e-4 0.003,-1.31657 c 0.003,-0.98474 0.14243,-1.45718 0.5597,-1.87445 l 0.55788,-0.55788 0.92755,0.8144 c 0.51014,0.44792 1.36609,1.64898 1.90211,2.66902 0.53602,1.02004 1.12067,1.85462 1.29919,1.85462 0.17854,0 1.13186,-1.4842 2.11849,-3.29823 5.59541,-10.28776 13.23184,-19.03676 26.1462,-29.95548 9.09693,-7.69119 13.89428,-11.19607 24.61117,-17.9806 6.23933,-3.9499 6.53524,-4.11612 19.26651,-10.82173 6.2639,-3.29922 16.95072,-9.36748 19.37425,-11.00122 5.30227,-3.57434 12.10119,-9.078337 18.23984,-14.765887 4.65053,-4.308808 13.05573,-12.356729 14.48602,-13.870291 0.66738,-0.706233 1.68762,-1.658733 2.26719,-2.116666 l 1.05375,-0.832605 -0.56237,0.79375 c -0.3093,0.436563 -2.3313,2.688614 -4.49334,5.004557 -2.16204,2.315943 -4.52628,4.854694 -5.25388,5.641668 -2.23438,2.416699 -13.08648,12.419978 -17.4625,16.096624 -5.02253,4.21984 -12.82121,9.45235 -19.18229,12.87036 -4.82502,2.59263 -15.6259,8.56535 -18.40516,10.17779 -17.81821,10.33751 -38.50121,27.27387 -48.40692,39.63817 -5.0351,6.28483 -10.26996,15.36177 -10.29976,17.85919 l -0.0143,1.19044 1.79263,0.1774 c 2.96421,0.29336 5.3191,2.10883 6.76304,5.21384 0.59899,1.28803 0.69297,1.84432 0.69842,4.13413 0.006,2.34427 -0.077,2.82382 -0.72512,4.20751 l -0.73141,1.56168 1.29373,2.53936 c 0.71155,1.39665 1.43193,2.97082 1.60081,3.49815 0.24868,0.77638 0.72671,1.23804 2.51256,2.42651 2.61739,1.74183 4.59256,3.88616 6.29971,6.83921 0.68648,1.18747 1.2841,2.26696 1.32807,2.39887 0.0821,0.24637 1.16322,-0.32755 4.17068,-2.21406 3.37587,-2.11762 11.49789,-6.12633 14.94896,-7.37824 0.7276,-0.26394 2.15635,-0.79365 3.175,-1.17712 5.37393,-2.02302 13.6267,-4.88379 16.40417,-5.68639 0.87312,-0.25231 3.61156,-1.05699 6.08541,-1.78819 2.47386,-0.73119 6.22433,-1.77364 8.33438,-2.31656 2.11005,-0.54291 5.50333,-1.44124 7.54062,-1.99627 3.30422,-0.9002 8.88315,-2.27466 22.48958,-5.54067 2.32834,-0.55888 7.92428,-1.91747 12.43542,-3.01908 13.31725,-3.25205 23.07569,-5.62285 26.32604,-6.39589 6.94426,-1.65156 37.215,-9.37149 40.89588,-10.42966 1.46497,-0.42115 4.382,-1.19468 6.48229,-1.71895 2.10029,-0.52427 4.89027,-1.24345 6.19996,-1.59818 9.83712,-2.66436 28.45839,-6.75934 35.45416,-7.79669 19.63359,-2.91133 33.05424,-3.81578 47.81661,-3.22249 10.7831,0.43337 19.97186,1.39826 25.86276,2.7158 1.24081,0.27752 3.14902,0.69064 4.24042,0.91805 7.14764,1.4893 16.55768,5.1168 21.43125,8.26159 2.83334,1.82827 5.96731,4.96842 7.08131,7.09522 2.14111,4.08783 2.33865,10.34288 0.56309,17.83211 -2.129,8.98006 -7.59958,21.95883 -12.54625,29.76562 -5.27069,8.31811 -8.34338,12.62146 -12.94091,18.12396 -6.00411,7.18597 -13.54772,14.61315 -18.77062,18.48092 -2.32098,1.7188 -8.93802,6.17566 -11.67694,7.86493 -19.62025,12.10114 -24.53346,14.68355 -31.34926,16.47733 -6.01697,1.58355 -7.30049,1.74388 -14.02292,1.75167 -9.13077,0.0106 -13.84056,-0.63767 -34.52812,-4.75236 -7.78841,-1.54909 -16.42078,-3.0339 -23.01875,-3.95932 -4.43235,-0.62168 -5.15937,-0.6786 -5.15937,-0.40394 0,0.14274 0.12014,0.25952 0.26701,0.25952 0.14685,0 1.54583,0.55281 3.10886,1.22846 1.563,0.67565 3.7348,1.61497 4.82621,2.08737 3.96568,1.7165 12.46825,5.84948 15.47812,7.52367 14.11944,7.85374 20.60581,13.35026 24.20784,20.51363 1.80359,3.58683 2.20001,5.31253 2.06187,8.97572 -0.0951,2.52077 -0.22934,3.23136 -0.9603,5.08204 -1.55157,3.92835 -4.75237,7.77917 -8.64066,10.3954 -2.73661,1.84134 -4.75168,2.89192 -10.18646,5.31085 -7.56835,3.36856 -14.50554,6.79053 -19.80496,9.76939 -13.56897,7.62725 -21.75523,10.444 -34.6992,11.9394 -1.38245,0.15971 -9.83589,0.40153 -18.78542,0.53737 -8.94953,0.13587 -16.68859,0.30695 -17.19791,0.38021 -0.50933,0.0733 -4.65471,0.55062 -9.212,1.06082 -4.55726,0.51017 -9.14117,1.05037 -10.18646,1.20041 -2.94291,0.42241 -10.85961,0.33904 -13.72484,-0.14457 -7.00717,-1.18266 -15.16594,-4.66277 -23.96336,-10.22156 -9.49807,-6.00152 -13.41991,-9.90214 -18.85519,-18.75319 -3.4399,-5.60166 -9.08642,-17.61783 -12.55739,-26.72292 -1.40575,-3.68761 -3.23085,-8.84294 -6.88461,-19.44687 -1.75422,-5.09106 -2.49979,-6.95369 -2.59469,-6.4823 -0.1664,0.82648 -1.54364,11.05552 -2.45804,18.25625 -0.80383,6.33025 -0.7865,5.55385 -0.68505,30.69167 0.0432,10.69578 0.0124,20.69703 -0.068,22.225 -0.0806,1.52797 -0.26665,5.21891 -0.41352,8.20208 -0.14684,2.98318 -0.32102,5.90021 -0.38701,6.48229 -0.066,0.58209 -0.18341,1.95131 -0.2609,3.04271 -0.66977,9.43351 -1.63674,18.45707 -2.79278,26.06146 -0.15487,1.01865 -0.51793,3.63802 -0.8068,5.82083 -0.56615,4.27779 -1.31183,8.06752 -1.98787,10.10291 -0.56126,1.68986 -2.20776,4.74747 -3.49416,6.48882 -0.78809,1.0668 -1.2373,2.12008 -1.86862,4.38161 -1.00325,3.59381 -2.45422,6.5609 -4.18137,8.5503 -2.49746,2.87676 -4.52787,3.78531 -6.90314,3.08904 -0.71324,-0.20908 -1.52641,-0.29814 -1.80705,-0.19789 -1.01296,0.36182 -2.38054,0.44464 -3.2862,0.199 z"
       id="path2230" />
  </g>
</svg>
