<?xml version="1.0" encoding="UTF-8" standalone="no"?>
<!-- Created with Inkscape (http://www.inkscape.org/) -->

<svg
   width="479.52493mm"
   height="314.78384mm"
   viewBox="0 0 479.52493 314.78384"
   version="1.1"
   id="svg5"
   xmlns="http://www.w3.org/2000/svg"
   xmlns:svg="http://www.w3.org/2000/svg">
  <defs
     id="defs2" />
  <g
     id="layer1"
     transform="translate(121.67286,338.26645)">
    <path
       style="fill:#000000;stroke-width:0.264583"
       d="m 13.435162,-23.642572 c -13.67932045,-1.52136 -26.71068,-5.98165 -40.97377,-14.02424 -12.00181,-6.76749 -23.86513,-16.53654 -31.09766,-25.60788 -9.43871,-11.83844 -15.99413,-26.48474 -18.82918,-42.068748 -0.58236,-3.20117 -0.79844,-11.18703 -0.39774,-14.6993 0.64465,-5.65053 2.32588,-11.21101 5.15533,-17.0507 6.577,-13.57422 18.69992,-25.48908 39.59835,-38.91875 1.77106,-1.13811 3.07298,-2.11834 2.89316,-2.17828 -0.17982,-0.0599 -1.17719,0.023 -2.21637,0.18437 -7.2545,1.12633 -20.67982,1.5682 -26.09879,0.85899 -11.75449,-1.53837 -18.19072,-4.2962 -24.41441,-10.4612 -5.49067,-5.4389 -10.09747,-12.66286 -14.9455,-23.43617 -2.778662,-6.17477 -6.209702,-18.17462 -8.397212,-29.36875 -0.96946,-4.96106 -3.70018,-14.64257 -8.99253,-31.88229 -3.72723,-12.14134 -5.44689,-20.97647 -6.24245,-32.07182 -0.65105,-9.07997 0.85233,-17.6634 4.03272,-23.02455 1.45277,-2.44893 4.7771,-5.60423 7.23334,-6.86556 6.01628,-3.08948 14.625402,-4.29691 28.178132,-3.95196 3.71078,0.0944 7.61794,0.28698 8.68257,0.42785 1.06463,0.14087 2.49338,0.32818 3.175,0.41626 14.32923,1.85154 30.93091,7.27793 50.31951,16.44732 4.18101,1.97731 17.5089996,8.94672 20.63749955,10.79166 2.22270005,1.31077 8.11052005,4.67226 10.18646045,5.81567 5.65422,3.1143 18.08786,10.78924 25.92916,16.00534 13.37106,8.89453 25.06054,18.27933 34.88076,28.00373 13.31883,13.18884 23.33715,26.0556 30.575698,39.26908 0.61783,1.12778 1.16972,2.05052 1.22645,2.05052 0.0567,0 0.87238,-1.51013 1.81258,-3.35586 l 1.70947,-3.35585 -0.91249,-1.06606 c -0.50189,-0.58633 -1.23558,-1.72533 -1.63044,-2.53112 -0.61902,-1.26322 -0.71798,-1.79315 -0.71829,-3.84632 0,-2.65466 0.43995,-3.84297 2.00339,-5.40645 0.86892,-0.86889 3.0861,-2.09044 4.80537,-2.64747 0.89006,-0.28837 0.9757,-0.39415 0.8328,-1.02855 -0.796,-3.53328 -2.82141,-8.66022 -5.6806,-14.37923 -2.16911,-4.33874 -3.10222,-5.98663 -6.416098,-11.33101 -6.94338,-11.19771 -20.81225,-30.40755 -28.6531,-39.6875 -2.14693,-2.54096 -2.92801,-3.29505 -5.44534,-5.25709 -2.2172,-1.72814 -5.96677,-5.69035 -7.36152,-7.779 -1.31342,-1.9669 -1.97313,-4.05849 -1.5943,-5.05487 0.31593,-0.83099 1.35225,-1.29464 2.346,-1.04961 1.8905,0.46616 6.41811,6.26095 9.55771,12.2327 0.75707,1.44006 1.9989,3.37509 2.75955,4.30006 4.70571,5.72219 14.39179,18.50714 19.61557,25.89114 2.82736,3.99659 10.418438,15.47064 12.107378,18.30053 4.02704,6.74744 7.48157,13.89836 9.05365,18.74114 0.80767,2.48806 1.19351,3.14358 1.19351,2.02772 0,-1.20751 1.0999,-5.19565 1.60337,-5.81369 l 0.47218,-0.57966 0.25937,0.67705 c 0.14266,0.37237 0.395,1.62253 0.56076,2.77812 0.53649,3.74016 0.3402,3.424 2.12582,3.424 1.79737,0 1.65142,0.22468 2.12156,-3.26608 0.16354,-1.21426 0.41844,-2.52394 0.56645,-2.91041 l 0.2691,-0.70268 0.47218,0.57966 c 0.4636,0.56909 1.60337,4.57015 1.60337,5.62848 0,1.1583 0.43419,0.40793 1.26987,-2.19463 1.68937,-5.26119 5.79133,-13.60072 9.97781,-20.28538 7.87122,-12.56817 16.29989,-24.35502 28.92168,-40.44471 1.63949,-2.08996 3.39008,-4.61245 3.8902,-5.60553 3.64934,-7.24667 8.32466,-12.95184 10.61381,-12.95184 0.98211,0 1.68288,0.89286 1.68288,2.14412 0,2.61943 -3.52374,7.27152 -9.00088,11.88305 -3.03821,2.55805 -5.18843,4.82873 -7.7233,8.15603 -0.62436,0.81953 -2.38701,3.09896 -3.91705,5.0654 -11.06836,14.22559 -22.50958,31.18603 -27.41816,40.64469 -3.34796,6.45136 -6.14767,13.28364 -6.8358,16.68163 -0.15875,0.78392 -0.10811,0.85401 0.83865,1.16083 4.6908,1.52022 6.81392,3.98751 6.82106,7.92675 0.005,2.40766 -0.59777,4.19848 -2.06237,6.13353 l -1.04045,1.37468 1.70545,3.39448 1.70548,3.39448 2.81334,-4.70119 c 5.35522,-8.94878 8.82198,-13.87524 15.05731,-21.39723 13.77278,-16.61483 28.82074,-29.93645 49.0556,-43.42778 7.03413,-4.68992 7.04138,-4.69445 17.43966,-10.90335 14.17273,-8.46264 20.33318,-11.88774 33.20521,-18.46151 21.30801,-10.88204 38.40739,-16.75985 56.36001,-19.37338 10.53761,-1.53407 26.29273,-1.28973 33.50696,0.51964 8.18801,2.05359 12.91521,6.13939 15.53094,13.42367 2.1549,6.00093 2.85427,11.86486 2.29968,19.28115 -0.83934,11.22394 -2.89626,20.88782 -7.82077,36.74385 -1.22028,3.92906 -2.58104,8.45344 -3.02389,10.05416 -0.44289,1.60073 -1.28093,4.5773 -1.86233,6.61459 -1.73164,6.06788 -2.30423,8.31228 -2.90253,11.37708 -3.76219,19.27258 -9.30899,33.59766 -17.45853,45.08827 -2.24081,3.15948 -6.72378,7.91821 -9.26277,9.83254 -3.66586,2.76396 -9.43959,5.19508 -14.96364,6.30066 -8.22037,1.64523 -19.74988,1.62146 -32.08073,-0.0661 -1.34607,-0.18422 -2.44531,-0.26781 -2.44277,-0.18576 0.003,0.0821 0.80621,0.62061 1.78594,1.1968 5.14334,3.02486 14.95555,10.01227 20.30214,14.45742 3.77992,3.14263 10.41487,9.71937 12.85425,12.74148 7.03908,8.72061 11.13234,17.54327 12.85732,27.71286 0.55973,3.29973 0.62675,11.15121 0.12877,15.08125 -1.65888,13.091388 -7.78999,28.431828 -16.02054,40.084368 -3.38371,4.79052 -9.80353,11.66257 -15.24376,16.31759 -6.65215,5.69201 -15.50958,11.5447 -23.94479,15.8219 -4.23079,2.1453 -4.58338,2.3022 -11.1125,4.94483 -16.4147,6.64374 -31.2534,8.11363 -45.02732,4.46029 -6.71383,-1.78073 -14.37804,-5.55755 -20.06018,-9.88534 -6.87363,-5.23531 -12.36414,-10.76433 -17.55841,-17.6816 -6.09071,-8.11109 -13.61387,-22.33525 -20.12717,-38.05475 -0.60296,-1.45521 -1.32702,-3.18162 -1.60901,-3.83646 -4.1637,-9.668768 -11.29229,-30.025928 -13.7809,-39.354218 -0.78576,-2.9454 -1.50249,-5.35642 -1.59269,-5.35781 -0.17616,-0.003 -0.24918,0.4693 -0.85894,5.5537 -0.6508,5.42666 -0.76319,9.55432 -0.45027,16.53645 0.42648,9.51625 0.45244,20.140988 0.0565,23.151048 -1.44706,11.00134 -5.08797,19.58189 -8.3075,19.57818 -3.1447,-0.004 -6.0937,-5.49978 -7.86103,-14.6509 -1.23116,-6.37487 -1.44574,-11.562898 -0.95885,-23.183528 0.29217,-6.97416 0.3299,-10.82341 0.14649,-14.94896 -0.22452,-5.05025 -0.86079,-11.67366 -1.14911,-11.96198 -0.12964,-0.12965 -0.64709,1.59382 -1.48632,4.95052 -2.0497,8.19827 -10.263238,31.66589 -14.809098,42.312318 -0.84376,1.9761 -2.33931,5.49789 -3.32348,7.82622 -2.18274,5.1639 -7.68059,16.2297 -10.08407,20.29672 -2.47782,4.19282 -6.66474,10.42588 -9.19551,13.68935 -2.66512,3.43673 -9.22618,10.01977 -13.03422,13.07788 -9.49497,7.62513 -19.50604,12.1466 -29.98248,13.54151 -2.53968,0.33814 -10.58936,0.45812 -12.9704,0.19333 z"
       id="path896" />
  </g>
</svg>
