<?xml version="1.0" encoding="UTF-8" standalone="no"?>
<!-- Created with Inkscape (http://www.inkscape.org/) -->

<svg
   width="707.51721mm"
   height="376.2562mm"
   viewBox="0 0 707.51721 376.2562"
   version="1.1"
   id="svg1006"
   xmlns="http://www.w3.org/2000/svg"
   xmlns:svg="http://www.w3.org/2000/svg">
  <defs
     id="defs1003" />
  <g
     id="layer1"
     transform="translate(203.34069,-67.857366)">
    <path
       style="fill:#000000;stroke-width:0.264583"
       d="m 85.650814,444.04861 c -0.904822,-0.32441 0.10533,-2.16586 3.526287,-6.42827 1.344771,-1.67558 3.058345,-4.10845 3.80791,-5.40636 1.58361,-2.74209 3.34211,-5.28791 6.936528,-10.04229 2.069301,-2.73703 2.825251,-3.99597 3.812991,-6.35 0.6776,-1.61485 2.42273,-5.37689 3.8781,-8.36006 4.2463,-8.70395 5.12535,-10.62837 5.55959,-12.17084 0.88561,-3.14586 3.70511,-16.57646 4.94347,-23.54791 0.45236,-2.54662 1.29932,-7.0726 1.88211,-10.05774 l 1.05963,-5.42753 -0.45212,-10.44747 c -0.34443,-7.95933 -0.44989,-15.86653 -0.44283,-33.20164 0.01,-23.24355 0.21553,-29.96102 1.27,-41.40729 0.2078,-2.25557 0.38246,-4.57729 0.38812,-5.15937 l 0.0103,-1.05833 -1.05664,1.5875 -1.05664,1.5875 v 4.80061 c 0,4.53686 -0.31398,9.31241 -0.72626,11.07439 -0.30676,1.31093 -0.53075,-1.93623 -0.57494,-8.33438 l -0.0393,-5.68854 -0.67998,0.7736 c -0.67815,0.77156 -0.67974,0.78483 -0.59986,5.02708 0.0441,2.33942 0.0445,5.44411 0,6.89932 -0.0764,2.55079 -0.0902,2.60471 -0.3855,1.50085 -0.39372,-1.47181 -0.70019,-1.1538 -0.69972,0.72606 0,2.18385 -0.58152,7.1658 -0.83724,7.1658 -0.46152,0 -0.25059,-17.00206 0.22071,-17.79323 0.065,-0.10914 0.0122,-0.19844 -0.11726,-0.19844 -0.12951,0 -0.39479,0.29766 -0.58949,0.66146 -0.19471,0.3638 -0.44564,0.66146 -0.55766,0.66146 -0.35052,0 -0.48861,1.97816 -0.77402,11.08869 -0.15229,4.86185 -0.38092,9.02556 -0.508,9.25267 -0.48768,0.87144 -0.67386,-1.84021 -0.67386,-9.81481 0,-6.86876 -0.0559,-8.07062 -0.36137,-7.76512 -0.40288,0.40297 -0.55219,1.668 -1.87563,15.89169 -0.39455,4.24047 -0.85887,7.27604 -1.11289,7.27604 -0.4885,0 0.13134,-14.57578 0.80713,-18.98035 0.11692,-0.76207 0.16013,-1.43805 0.096,-1.50218 -0.0641,-0.0641 -0.44389,0.26171 -0.84388,0.72411 -0.78415,0.90648 -0.90271,1.52839 -1.74898,9.17509 -0.21743,1.96453 -0.52041,4.70297 -0.67328,6.08542 -0.40675,3.67786 -1.26995,8.54388 -1.56864,8.84257 -0.33626,0.33629 -0.33449,-0.97242 0.006,-4.72752 0.14602,-1.60844 0.50498,-5.7224 0.79767,-9.14214 0.29268,-3.41974 0.59219,-6.4856 0.66558,-6.81302 0.0899,-0.4013 0.0106,-0.59531 -0.24368,-0.59531 -0.25569,0 -0.43492,0.44716 -0.55676,1.38906 -0.56679,4.38242 -2.59231,18.41671 -2.94984,20.43907 -0.63667,3.60104 -0.98396,3.48139 -0.76803,-0.26459 0.24923,-4.32337 1.55897,-15.68036 2.15881,-18.71927 0.16555,-0.83874 -0.13237,-0.92372 -0.92752,-0.26458 -0.4599,0.38123 -0.74562,1.46785 -1.61745,6.15156 -1.826633,9.81293 -3.299119,16.74275 -3.705148,17.43723 -0.290645,0.49715 -0.322369,0.33052 -0.27223,-1.42994 0.06239,-2.19077 1.008962,-8.2325 2.667658,-17.027 0.28417,-1.50673 0.51668,-2.85037 0.51668,-2.98587 0,-0.18692 -0.740064,0.0559 -1.237216,0.4059 -0.153406,0.108 -3.241411,16.47692 -3.92348,20.7976 -0.103373,0.65484 -0.355177,1.78593 -0.559567,2.51354 -0.355918,1.26713 -0.366819,1.17229 -0.25871,-2.24896 0.114591,-3.62537 0.983615,-10.25274 2.121773,-16.18099 0.344884,-1.79624 0.599228,-3.29617 0.565282,-3.33318 -0.100541,-0.10954 -1.839886,0.80227 -2.18813,1.14707 -0.176345,0.17463 -0.629523,2.02718 -1.007004,4.11678 -1.056614,5.84876 -3.528669,17.56449 -3.882284,18.39905 l -0.316072,0.74606 -0.104219,-0.7833 c -0.118057,-0.88753 0.254238,-3.52717 1.95535,-13.86406 0.655214,-3.98146 1.1548,-7.27342 1.110192,-7.31546 -0.04461,-0.042 -0.528029,0.10304 -1.074262,0.32239 -1.122521,0.45079 -1.266137,0.81337 -2.335953,5.89772 -0.987266,4.69212 -3.967215,16.5216 -4.228967,16.78782 -0.154173,0.15678 -0.247148,-0.0227 -0.247148,-0.47706 0,-1.08901 1.424834,-9.0968 2.725658,-15.31857 0.631323,-3.01956 1.124294,-5.4901 1.095508,-5.4901 -0.02881,0 -0.467598,0.17349 -0.975096,0.38554 -0.794729,0.33205 -0.947367,0.54311 -1.100296,1.52135 -0.67183,4.29724 -3.678925,17.45475 -4.492466,19.65665 l -0.391028,1.05833 -0.01852,-1.37604 c -0.01032,-0.75682 0.09036,-1.94745 0.223573,-2.64583 0.133218,-0.69839 0.443468,-2.51995 0.689451,-4.04792 0.24601,-1.52797 0.918422,-5.02288 1.494288,-7.76646 0.575865,-2.74359 0.977635,-5.05771 0.892863,-5.14249 -0.08477,-0.0848 -0.475298,-0.0412 -0.867781,0.0968 -0.66593,0.23419 -0.763217,0.48078 -1.454732,3.68728 -1.13919,5.28236 -1.428988,6.65275 -2.041578,9.65402 -1.38049,6.76355 -2.39432,10.2122 -2.39432,8.14461 0,-2.00521 1.651741,-12.08291 2.820061,-17.20602 0.389864,-1.70956 0.629735,-3.18742 0.533003,-3.28413 -0.09671,-0.0967 -0.451432,-0.0503 -0.788299,0.10323 -0.514138,0.23425 -0.708739,0.71911 -1.211951,3.01954 -0.885057,4.04595 -2.645383,11.37283 -2.915099,12.13318 -0.129038,0.36381 -0.442701,1.47936 -0.697019,2.47901 -0.358245,1.40808 -0.518477,1.71735 -0.711305,1.37277 -0.367268,-0.65624 1.441106,-10.76253 3.129491,-17.48958 0.17399,-0.69324 0.147426,-0.71767 -0.583618,-0.53698 -0.421243,0.10412 -0.850318,0.27128 -0.953532,0.37146 -0.103213,0.10018 -0.604705,2.38371 -1.114451,5.07451 -0.942922,4.97748 -2.113783,9.86201 -3.107134,12.96215 -0.574993,1.79451 -1.01473,2.56148 -1.01473,1.76985 0,-0.6758 0.747024,-5.18866 1.319239,-7.96967 0.945277,-4.59412 2.145903,-11.32532 2.039117,-11.43211 -0.05866,-0.0587 -0.566817,0.0448 -1.129295,0.22983 -0.986366,0.32454 -1.044495,0.41154 -1.63904,2.45314 -2.710577,9.3078 -5.735003,17.74192 -6.05753,16.89248 -0.160099,-0.42164 0.902811,-4.6205 3.069669,-12.12621 1.007666,-3.49043 1.793373,-6.38497 1.746039,-6.43231 -0.04733,-0.0473 -0.664184,0.0798 -1.37078,0.28253 -1.433248,0.41121 -1.252934,0.0575 -2.930895,5.74913 -1.162447,3.94297 -3.317214,10.40786 -3.879797,11.64045 -0.787056,1.72442 -0.863759,0.66225 -0.180076,-2.49336 0.541285,-2.49838 3.180345,-12.08892 3.709591,-13.48092 0.27551,-0.72462 0.274373,-0.72552 -0.715434,-0.56822 -0.545253,0.0867 -1.121224,0.30233 -1.279974,0.47928 -0.158724,0.17695 -0.549117,1.33376 -0.867543,2.57069 -0.707284,2.74748 -2.73505,9.47136 -3.670458,12.17083 -0.656114,1.89349 -1.095719,2.76572 -1.293971,2.56749 -0.163857,-0.16385 0.907414,-5.36023 1.765379,-8.56315 0.461486,-1.72285 1.167606,-4.35285 1.569164,-5.84444 0.636879,-2.36578 0.675481,-2.70961 0.302392,-2.69338 -1.057301,0.046 -1.44182,0.44187 -1.797949,1.85115 -1.152737,4.56152 -4.834599,15.61373 -5.410439,16.24098 -0.136842,0.14907 -0.229473,-0.0124 -0.227594,-0.39688 0.004,-0.84965 1.349217,-6.62245 2.247159,-9.64406 1.295162,-4.35827 1.995117,-7.08755 1.853962,-7.22873 -0.07681,-0.0768 -0.576686,-0.0296 -1.110826,0.10497 -0.960729,0.24196 -0.980467,0.27457 -1.830864,3.02272 -1.847215,5.96957 -4.889209,13.49375 -5.455471,13.49375 -0.132371,0 -0.179414,-0.20836 -0.10451,-0.46302 0.0749,-0.25466 0.319934,-1.1774 0.544512,-2.05052 0.224605,-0.87313 1.285002,-4.23664 2.356459,-7.47448 1.872747,-5.65932 1.925505,-5.88698 1.364059,-5.88698 -0.515964,0 -0.761206,0.501 -2.104522,4.29948 -2.049357,5.79489 -3.203734,8.7233 -4.192799,10.63625 -1.43338,2.77225 -1.152419,0.86955 0.688975,-4.66604 2.839561,-8.53626 3.141398,-9.51763 2.977647,-9.68137 -0.243893,-0.24388 -1.522386,0.29008 -1.758897,0.7346 -0.116125,0.21828 -0.947631,2.65906 -1.84777,5.42395 -1.547363,4.75285 -4.22275,10.82138 -4.53898,10.29571 -0.186082,-0.30935 1.460632,-5.91555 3.333353,-11.34832 0.801502,-2.32519 1.423061,-4.26183 1.381257,-4.30364 -0.0418,-0.0418 -0.531733,0.0186 -1.088707,0.13437 -0.755783,0.15704 -1.061324,0.37622 -1.20449,0.86406 -1.710319,5.82823 -2.593472,8.3588 -4.337211,12.42762 -0.916228,2.13794 -1.566669,3.15952 -1.83856,2.88761 -0.06797,-0.068 0.454628,-1.96588 1.161341,-4.21758 2.308113,-7.35404 3.447568,-11.05225 3.447568,-11.18947 0,-0.0741 -0.31832,-0.0497 -0.707364,0.0544 -0.589359,0.15762 -0.781817,0.45166 -1.1539,1.76305 -1.433055,5.05067 -6.605403,16.13771 -6.605403,14.15881 0,-0.13604 0.133602,-0.58253 0.296892,-0.99218 0.16329,-0.40966 0.925872,-2.5903 1.694624,-4.84587 0.768755,-2.25558 1.823638,-5.2619 2.34419,-6.68073 0.993235,-2.70719 0.962613,-2.87091 -0.437406,-2.33862 -0.500647,0.19035 -0.813152,0.76099 -1.485183,2.71198 -1.742308,5.05815 -4.680915,11.60279 -5.802079,12.92195 -0.889323,1.04637 -0.731573,0.16113 0.623321,-3.49782 3.092629,-8.35181 4.087624,-11.14339 4.002232,-11.22878 -0.05085,-0.0508 -0.462713,0.0366 -0.915262,0.19438 -0.638286,0.22251 -0.924997,0.56396 -1.278459,1.52255 -1.359376,3.68663 -2.690449,6.86843 -4.058887,9.70238 -1.629162,3.37389 -2.236417,4.34512 -2.531962,4.04958 -0.210442,-0.21042 0.449503,-2.17276 2.919084,-8.67979 2.133177,-5.62065 2.112756,-5.55625 1.761786,-5.55625 -1.10173,0 -1.518118,0.61203 -2.664042,3.91578 -1.281157,3.69363 -3.857609,9.33339 -4.738195,10.37172 -0.779724,0.9194 -0.719841,0.48247 0.366747,-2.67608 1.554797,-4.51954 3.5526,-10.39736 3.5526,-10.45226 0,-0.0282 -0.408747,0.0742 -0.908328,0.22748 -0.778698,0.23899 -0.971243,0.47145 -1.349168,1.62888 -0.702334,2.15096 -2.242939,5.97492 -3.102245,7.7001 -1.225992,2.46137 -2.875791,5.15938 -3.154908,5.15938 -0.334687,0 -0.236056,-0.30139 2.164649,-6.61458 2.417993,-6.35866 2.501247,-6.61459 2.151721,-6.61459 -0.909939,0 -1.546658,0.55683 -1.861904,1.62829 -1.095119,3.72212 -5.163405,12.20609 -6.143638,12.8119 -0.656519,0.40574 -0.01799,-1.49111 3.524882,-10.47144 1.253043,-3.17615 1.249114,-3.01909 0.06311,-2.52354 -0.557855,0.23309 -1.029483,0.44975 -1.048059,0.48148 -0.01857,0.0317 -0.787345,1.90316 -1.708373,4.15873 -1.905018,4.66534 -3.396652,7.76682 -4.199255,8.73125 -0.41783,0.50207 -0.552585,0.55774 -0.559265,0.23106 -0.01318,-0.64431 2.173271,-6.89171 3.406846,-9.73447 0.594738,-1.37058 1.037405,-2.5359 0.983705,-2.5896 -0.0537,-0.0537 -0.383839,0.0328 -0.733639,0.19215 -0.408885,0.1863 -0.757531,0.68587 -0.976323,1.39897 -0.445791,1.45293 -4.886428,10.44283 -5.579579,11.29564 -0.514902,0.63349 -0.537879,0.63788 -0.543512,0.10353 -0.0067,-0.63648 1.481024,-4.6995 3.274817,-8.94355 0.671097,-1.58778 1.17702,-2.93004 1.124273,-2.98278 -0.346507,-0.34651 -1.017175,0.5279 -2.122649,2.76749 -2.301201,4.66201 -5.7689355,10.37823 -6.2959275,10.37823 -0.498533,0 -0.08869,-1.01439 2.570051,-6.36101 1.5343805,-3.08557 2.7390545,-5.66085 2.6770545,-5.72285 -0.062,-0.062 -0.425363,-0.0343 -0.807468,0.0616 -0.533263,0.13384 -0.9837425,0.70567 -1.9381375,2.46028 -1.596086,2.93431 -3.561601,6.05118 -5.234773,8.30125 -1.267016,1.70386 -1.719792,2.10436 -1.719792,1.52119 0,-0.34096 2.797585,-5.92955 4.53117,-9.05163 0.726387,-1.3082 1.283951,-2.41469 1.239036,-2.45888 -0.04492,-0.0442 -0.399564,-0.0193 -0.788107,0.0554 -0.589637,0.11329 -0.977659,0.6517 -2.34678,3.25639 -1.804477,3.43288 -5.47155399,9.02692 -6.036521,9.20853 -0.581557,0.18693 -0.189257,-0.74245 2.63358,-6.23917 1.440839,-2.80567 2.619706,-5.15715 2.619706,-5.22552 0,-0.26744 -1.511126,-0.10594 -1.93099,0.20638 -0.244547,0.1819 -1.05459999,1.40229 -1.80012199,2.71197 -2.15941801,3.79355 -6.04018901,9.12813 -6.64046501,9.12813 -0.320868,0 1.395394,-3.30859 3.953232,-7.62101 1.23461,-2.0815 2.18582401,-3.84347 2.11380701,-3.91549 -0.275551,-0.27553 -1.55650701,0.24787 -1.92428301,0.78629 -0.211796,0.31007 -1.443305,2.1711 -2.736689,4.13563 -2.357964,3.58153 -5.5528045,7.36806 -5.5748575,6.6073 -0.0064,-0.22227 0.178636,-0.6759 0.41129,-1.00806 0.232653,-0.33216 1.5194085,-2.4125 2.8594575,-4.62293 1.340045,-2.21046 2.651667,-4.34644 2.914713,-4.74663 l 0.478266,-0.7276 h -1.23336 c -1.101577,0 -1.28152,0.0866 -1.684076,0.81047 -0.247893,0.44577 -1.775759,2.67819 -3.3952545,4.96094 -3.002063,4.23156 -4.331501,5.77935 -4.331501,5.04296 0,-0.53033 4.167102,-7.7112 5.8009145,-9.99633 l 0.641543,-0.89728 -1.249923,0.14089 c -0.6874585,0.0775 -1.2806785,0.1846 -1.3182645,0.23804 -0.03759,0.0534 -1.119505,1.70453 -2.404261,3.66906 -3.669353,5.61083 -4.909593,7.10954 -4.909593,5.9328 0,-0.46484 2.233393,-4.58591 4.229434,-7.8042 l 1.300821,-2.09735 h -0.979943 c -0.916117,0 -1.046831,0.10771 -2.00701,1.65365 -1.607661,2.58844 -5.673632,8.06217 -6.114303,8.23129 -0.882679,0.33869 -0.304866,-0.88358 2.93243,-6.20318 1.224338,-2.01187 2.226071,-3.72282 2.226071,-3.80215 0,-0.0793 -0.397671,-0.14419 -0.883711,-0.14419 -0.8422,0 -0.996923,0.17089 -3.293697,3.63802 -2.54916,3.84812 -4.801121,6.52248 -5.008867,5.94839 -0.116493,-0.32192 2.382751,-4.84704 4.472779,-8.09837 1.053925,-1.63954 1.079161,-2.01933 0.133818,-2.01385 -0.418028,0.003 -0.837954,0.42222 -1.505738,1.50521 -2.229392,3.61562 -5.583973,7.75185 -6.286921,7.75185 -0.484338,0 0.815152,-2.40771 3.409688,-6.31746 1.383332,-2.08457 1.939417,-3.13486 1.730251,-3.26792 -0.609587,-0.38783 -1.415457,-0.20082 -1.68543,0.39111 -0.386273,0.8469 -3.996777,5.6393 -5.431825,7.20989 -0.664802,0.72761 -1.290727,1.2427 -1.390941,1.14467 -0.284977,-0.27877 1.812499,-4.07427 3.703074,-6.70092 0.942668,-1.30969 1.715029,-2.46827 1.716358,-2.57463 0.0026,-0.20471 -1.293085,-0.60071 -1.418932,-0.43371 -0.04058,0.0539 -1.099473,1.46714 -2.353095,3.14063 -5.595345,7.46935 -6.847308,7.13986 -1.631768,-0.42944 1.215581,-1.76419 2.135508,-3.28223 2.044288,-3.37345 -0.49176,-0.49176 -1.225717,0.10619 -3.311589,2.69791 -2.665944,3.31245 -5.269828,5.88852 -5.439031,5.38091 -0.164264,-0.49281 1.582282,-3.22492 3.962712,-6.19887 2.060749,-2.57457 2.066189,-2.58551 1.429948,-2.8754 -0.779304,-0.35507 -1.473483,0.0972 -2.798405,1.82305 -1.219531,1.58859 -5.561044,6.15029 -5.853433,6.15029 -0.824687,0 0.873715,-2.71301 3.961051,-6.32735 1.170236,-1.37001 2.066219,-2.5904 1.991069,-2.71199 -0.379082,-0.61337 -1.359099,0.10204 -4.954532,3.61679 -3.457323,3.37973 -4.678336,4.32956 -4.67488,3.63662 0.003,-0.60828 4.81953,-6.37373 6.437071,-7.70532 0.613736,-0.50523 0.552403,-0.7422 -0.243827,-0.94204 -0.600834,-0.1508 -1.02131,0.15209 -3.424576,2.46685 -3.231795,3.11277 -5.494083,4.95255 -5.62116,4.57131 -0.181488,-0.54446 0.738278,-1.82279 3.488071,-4.84786 1.541658,-1.69599 2.803014,-3.15835 2.803014,-3.24967 0,-0.0913 -0.26789,-0.26663 -0.595312,-0.38954 -0.520134,-0.19527 -0.996262,0.1655 -3.770313,2.8568 -3.410164,3.30845 -4.773064,4.40932 -5.001384,4.03991 -0.223419,-0.3615 1.878158,-3.19642 4.141489,-5.58665 1.127786,-1.19102 2.05052,-2.27609 2.05052,-2.41126 0,-0.78979 -1.275151,0.0951 -3.790378,2.63028 -6.312071,6.36217 -7.214361,5.38076 -1.099077,-1.19547 2.004701,-2.1558 2.507941,-2.8414 2.219614,-3.02393 -0.205079,-0.12982 -0.447292,-0.23786 -0.538255,-0.24009 -0.09096,-0.002 -1.743321,1.54859 -3.671909,3.44626 -3.527844,3.4713 -5.026244,4.62164 -5.026244,3.85874 0,-0.54892 2.01814,-3.12084 4.588256,-5.84728 2.101873,-2.22972 2.207633,-2.39632 1.732401,-2.72919 -0.460576,-0.3226 -0.785664,-0.0968 -3.611837,2.50909 -3.08837,2.84761 -5.15257,4.57916 -5.45887,4.57916 -1.01079,0 1.95402,-3.83633 4.8052,-6.21771 2.060883,-1.7213 2.338359,-2.14462 1.647961,-2.5141 -0.45701,-0.24459 -0.948451,0.099 -3.801231,2.65757 -4.28657,3.8445 -5.71524,4.81528 -5.72688,3.89143 -0.002,-0.1819 1.68028,-1.98088 3.73905,-3.99772 2.82717,-2.76961 3.65374,-3.72458 3.3776,-3.90228 -0.58849,-0.37871 -0.84192,-0.21951 -3.41289,2.14398 -3.05969,2.81277 -5.82751,5.02841 -6.28159,5.02841 -0.66241,0 0.21026,-1.09209 3.82753,-4.78996 3.32386,-3.39793 3.52094,-3.65596 3.0037,-3.93278 -0.49484,-0.26483 -0.82677,-0.0354 -3.129,2.16278 -2.74569,2.62158 -5.972,5.075 -6.45988,4.91237 -0.4127,-0.13757 2.48504,-3.43993 5.19373,-5.91895 1.24442,-1.13891 2.26258,-2.16227 2.26258,-2.27414 0,-0.11187 -0.29906,-0.27846 -0.66458,-0.3702 -0.53874,-0.13522 -0.9451,0.0768 -2.14587,1.11944 -4.49205,3.90057 -8.30205,6.58587 -8.30205,5.85132 0,-0.35859 4.23552,-4.62271 6.68073,-6.72585 0.69123,-0.59452 1.25677,-1.18866 1.25677,-1.32031 0,-0.13165 -0.36341,-0.37654 -0.80759,-0.5442 -0.77081,-0.29095 -0.88828,-0.23575 -2.57968,1.21234 -2.34644,2.00889 -6.26199,4.97574 -7.22204,5.4722 -0.65327,0.33782 -0.76777,0.341 -0.76777,0.0213 0,-0.43486 5.0366,-5.3172 6.76753,-6.56026 0.64348,-0.46212 1.16997,-0.94164 1.16997,-1.06561 0,-0.12397 -0.29326,-0.35902 -0.65168,-0.52233 -0.58862,-0.2682 -0.82546,-0.15724 -2.4474,1.14661 -4.30445,3.46028 -7.83626,5.91084 -7.96448,5.52618 -0.18161,-0.54483 1.1159,-1.92445 4.39974,-4.67815 1.84609,-1.54806 3.32676,-2.88822 3.29038,-2.97812 -0.0364,-0.0899 -0.36479,-0.26301 -0.72981,-0.38468 -0.5553,-0.1851 -0.87005,-0.0484 -1.92742,0.83684 -1.82316,1.52643 -7.9691,5.3375 -8.60755,5.3375 -0.50191,0 -0.48761,-0.0568 0.19322,-0.76744 0.40439,-0.42209 2.38559,-1.99967 4.40267,-3.50573 2.01709,-1.50606 3.67303,-2.8046 3.67988,-2.88565 0.007,-0.0811 -0.31497,-0.26346 -0.71515,-0.40536 -0.66134,-0.2345 -1.0068,-0.06 -3.79312,1.9162 -4.76867,3.38216 -7.12095,4.64229 -7.12095,3.81472 0,-0.25103 5.78856,-4.94078 7.33892,-5.94581 1.0294,-0.66732 1.07219,-0.88964 0.21272,-1.10535 -0.51062,-0.12816 -1.32667,0.26516 -3.7961,1.82961 -4.73902,3.00231 -7.53027,4.27049 -6.80056,3.0898 0.28626,-0.46317 6.15994,-4.74616 7.16835,-5.22703 0.49707,-0.23704 0.90376,-0.50406 0.90376,-0.5934 0,-0.0893 -0.41004,-0.3107 -0.91119,-0.49191 -0.8671,-0.31355 -1.00469,-0.27292 -2.84427,0.83994 -4.16557,2.51999 -7.89031,4.02574 -7.56823,3.05951 0.0982,-0.2947 3.04327,-2.24047 7.11244,-4.69913 l 0.59812,-0.3614 -0.64083,-0.49261 c -0.35246,-0.27094 -0.78333,-0.49526 -0.9575,-0.4985 -0.17416,-0.003 -1.42431,0.58011 -2.77812,1.29631 -4.37638,2.31525 -7.55233,3.34475 -6.07638,1.9697 0.70947,-0.66098 5.77664,-3.67571 6.59148,-3.92163 0.32742,-0.0988 0.59531,-0.27251 0.59531,-0.38599 0,-0.11348 -0.26789,-0.32792 -0.59531,-0.47655 -0.48452,-0.21994 -0.94002,-0.0964 -2.4474,0.66354 -1.01864,0.51357 -2.98317,1.31728 -4.36562,1.78602 -4.3765,1.48392 -3.69193,0.51657 1.45521,-2.05631 1.74625,-0.87289 3.23275,-1.64119 3.30333,-1.70733 0.0706,-0.0661 -0.15114,-0.33106 -0.49272,-0.58872 -0.60642,-0.45742 -0.68747,-0.44099 -3.43563,0.69645 -3.11684,1.29002 -5.857178,2.03081 -6.209428,1.67856 -0.29559,-0.29559 2.528308,-1.87189 5.319338,-2.96923 1.19711,-0.47067 2.17656,-0.98264 2.17656,-1.13771 0,-0.15507 -0.24525,-0.43512 -0.54501,-0.62232 -0.47635,-0.29748 -0.93467,-0.17318 -3.63802,0.98668 -3.243608,1.39166 -5.248708,1.9726 -5.485568,1.58935 -0.18418,-0.29802 1.21666,-1.15797 4.707668,-2.88995 1.56435,-0.77612 2.84427,-1.45549 2.84427,-1.5097 0,-0.0542 -0.18563,-0.38189 -0.41251,-0.72815 l -0.41251,-0.62957 -3.22551,1.54587 c -3.395318,1.62726 -5.112938,2.21948 -5.345548,1.84311 -0.0769,-0.12443 0.36866,-0.57127 0.99011,-0.99299 1.43175,-0.97159 5.310378,-3.14048 6.017438,-3.36488 0.61746,-0.19598 0.68269,-0.62721 0.19564,-1.2933 -0.31621,-0.43244 -0.59964,-0.33891 -3.927588,1.29615 -2.1056,1.0345 -3.83588,1.72508 -4.18999,1.67228 l -0.6032,-0.0899 0.68074,-0.67794 c 0.62176,-0.61919 5.931668,-3.70431 6.721948,-3.90553 0.39364,-0.10023 0.46007,-1.10508 0.073,-1.10508 -0.14461,0 -1.42624,0.52284 -2.848078,1.16187 -6.81038,3.06083 -7.74485,2.20266 -1.1876,-1.09064 3.224848,-1.61965 4.085708,-2.2244 3.706368,-2.60374 -0.0706,-0.0706 -1.406988,0.47157 -2.969658,1.20491 -2.80123,1.31459 -5.05015,2.06417 -5.33584,1.77848 -0.263,-0.263 2.22177,-1.87668 5.1758,-3.36129 2.657728,-1.33571 2.896838,-1.51762 2.911848,-2.21521 0.0124,-0.57747 -0.0631,-0.69478 -0.31439,-0.48842 -0.51705,0.42457 -7.201198,3.23279 -7.694728,3.23279 -1.77758,0 1.69177,-2.35843 6.26568,-4.25934 1.356268,-0.56367 2.148688,-1.05305 2.284258,-1.41072 0.11417,-0.3012 0.18222,-0.57697 0.15121,-0.61281 -0.031,-0.0358 -1.752158,0.47017 -3.824778,1.12448 -3.79987,1.19958 -5.053,1.42475 -5.053,0.90797 0,-0.36696 3.66648,-2.03937 6.97678,-3.18236 1.767968,-0.61045 2.740718,-1.09649 3.012398,-1.50516 0.22069,-0.33196 0.34513,-0.65969 0.27654,-0.72829 -0.0686,-0.0686 -0.82875,0.1175 -1.68923,0.41355 -1.26887,0.43655 -6.212978,1.57977 -6.832108,1.57977 -0.0863,0 -0.15688,-0.11298 -0.15688,-0.25107 0,-0.43533 3.1818,-1.7851 6.614588,-2.80603 2.91009,-0.86548 4.45479,-1.57214 4.13518,-1.89175 -0.0558,-0.0558 -1.77685,0.32054 -3.82462,0.83623 -3.689638,0.92916 -5.602228,1.1655 -5.602228,0.69227 0,-0.37851 3.7031,-1.69747 7.833228,-2.79004 3.67747,-0.97282 4.58562,-1.30271 4.31932,-1.56901 -0.0744,-0.0744 -2.13222,0.27633 -4.57295,0.77936 -4.701648,0.96902 -5.462928,1.06226 -5.462928,0.66905 0,-0.50647 4.919848,-1.95491 10.741848,-3.16248 2.18374,-0.45294 3.73236,-0.99272 3.50216,-1.22068 -0.12218,-0.121 -5.3438,0.75286 -8.53147,1.42778 -3.12439,0.66152 -3.29633,0.67135 -2.78404,0.15906 0.61449,-0.6145 4.42239,-1.60984 9.53256,-2.49172 2.56072,-0.44192 4.94197,-0.9179 5.29167,-1.05775 0.61727,-0.24685 0.6122,-0.25475 -0.17405,-0.27103 -0.44543,-0.009 -2.52177,0.22135 -4.6141,0.51239 -4.13017,0.57451 -6.08542,0.6666 -6.08542,0.28663 0,-0.42599 6.84968,-1.83538 10.98021,-2.2593 2.97161,-0.30497 5.43873,-0.74758 5.59731,-1.00418 0.0976,-0.15785 -0.23497,-0.19511 -0.86747,-0.0972 -0.56412,0.0873 -2.51395,0.28015 -4.33296,0.42848 -1.81901,0.14834 -4.03527,0.34281 -4.92502,0.43216 -1.07566,0.10801 -1.67932,0.0628 -1.80155,-0.13499 -0.10111,-0.16359 -0.13038,-0.29744 -0.065,-0.29744 0.0653,0 1.23746,-0.23018 2.60473,-0.5115 1.36727,-0.28133 5.10108,-0.81466 8.29735,-1.18519 3.19628,-0.37053 6.34719,-0.84295 7.00204,-1.04984 1.43791,-0.45428 0.87234,-0.50331 -2.11667,-0.1835 -4.27713,0.45762 -7.67292,0.60217 -7.67292,0.32661 0,-0.5099 3.34773,-1.07672 16.53646,-2.79984 1.74625,-0.22815 4.90141,-0.8335 7.01146,-1.34521 12.034617,-2.91853 14.67922,-3.49312 20.902083,-4.54135 4.931756,-0.83074 5.280154,-0.94168 3.571874,-1.13735 -3.229009,-0.36986 -27.073477,-0.2876 -33.337497,0.115 -11.98171,0.7701 -12.99006,0.89167 -15.47813,1.86622 -3.39194,1.32858 -8.50554,3.19008 -9.32656,3.39514 -1.71149,0.42746 -0.48103,-0.46542 3.04271,-2.20794 4.76182,-2.35475 3.45568,-2.2575 -1.82756,0.13607 -4.08017,1.84852 -7.61684,3.30184 -8.03506,3.30184 -0.14173,0 -0.25769,-0.11323 -0.25769,-0.25163 0,-0.24614 1.14991,-0.9206 5.42396,-3.18129 2.21403,-1.17109 3.05679,-1.76989 2.11666,-1.50394 -0.29104,0.0823 -1.30473,0.32561 -2.25265,0.54061 -0.94792,0.21501 -3.22006,1.04364 -5.0492,1.84141 -3.796918,1.65599 -7.715118,3.08401 -8.461938,3.08401 -1.54975,0 0.57739,-1.19016 6.8341,-3.82378 1.637108,-0.6891 2.976568,-1.31696 2.976568,-1.39524 0,-0.40095 -2.547998,0.34693 -7.672918,2.25214 -5.56035,2.06708 -7.9375,2.73746 -7.9375,2.23844 0,-0.34473 1.89939,-1.3239 6.28762,-3.24139 3.43263,-1.49993 4.53547,-2.11558 3.7897,-2.11558 -0.14996,0 -1.97269,0.63994 -4.05051,1.4221 -5.02059,1.88992 -9.28642,3.34039 -9.82405,3.34039 -0.62423,0 -0.53795,-0.45442 0.15922,-0.83856 0.32742,-0.1804 2.55283,-1.11606 4.94536,-2.07924 2.39253,-0.96317 4.39677,-1.8914 4.45388,-2.06272 0.0571,-0.17133 -0.0549,-0.2621 -0.24901,-0.20173 -0.19406,0.0604 -2.3769,0.76687 -4.85075,1.56998 -5.78296,1.87738 -8.12103,2.55394 -8.82592,2.55394 -1.65876,0 0.32549,-1.04771 5.51863,-2.9139 4.62256,-1.66115 4.70922,-1.69743 4.73157,-1.98089 0.0571,-0.72473 -1.42659,-0.57978 -4.40884,0.43072 -3.57707,1.21205 -8.79381,2.61199 -9.73332,2.61199 -0.96041,0 -0.77598,-0.33707 0.48359,-0.88381 0.90401,-0.3924 8.39067,-3.13793 9.98533,-3.66185 0.24546,-0.0806 0.0206,-0.2549 -0.58926,-0.45673 -0.90766,-0.30035 -1.28668,-0.23197 -4.7625,0.85926 -2.077,0.65208 -4.44953,1.37479 -5.27229,1.60603 -1.70131,0.47815 -3.78541,0.56725 -3.52805,0.15082 0.3852,-0.62327 5.16661,-2.59563 8.72814,-3.60042 l 1.5875,-0.44787 -1.0123,-0.45135 c -0.99287,-0.44268 -1.05638,-0.4366 -3.3073,0.31652 -4.25165,1.42253 -8.77727,2.39118 -8.77727,1.87866 0,-0.36206 3.69924,-2.03918 6.40899,-2.90565 1.26937,-0.40589 2.31117,-0.82502 2.3151,-0.93138 0.004,-0.10637 -0.29511,-0.26926 -0.66455,-0.36199 -0.44591,-0.11191 -1.42445,0.11552 -2.91104,0.67659 -4.67121,1.76303 -8.05892,2.66087 -8.05892,2.13585 0,-0.4281 1.40085,-1.1939 4.96094,-2.712 1.78263,-0.76016 3.24114,-1.46675 3.24114,-1.57022 0,-0.51424 -1.11837,-0.43638 -2.30693,0.16059 -1.75607,0.88203 -6.70517,2.52603 -7.60435,2.52603 -1.61965,0 -0.33665,-0.87044 4.81806,-3.26878 1.20054,-0.55858 2.18281,-1.10929 2.18281,-1.2238 0,-0.11451 -0.26789,-0.28011 -0.59531,-0.368 -0.39648,-0.10643 -1.61162,0.27725 -3.63803,1.14871 -3.14451,1.35229 -6.24657,2.24119 -6.48349,1.85785 -0.19047,-0.3082 2.30791,-1.82124 5.28007,-3.19765 1.38484,-0.64132 2.51978,-1.25533 2.52211,-1.36447 0.009,-0.43651 -1.08739,-0.13412 -4.51113,1.24384 -4.0037,1.61139 -5.80339,2.11889 -5.80339,1.63652 0,-0.41588 1.97348,-1.57424 4.99623,-2.93259 1.38623,-0.62293 2.57152,-1.28591 2.63398,-1.47328 0.14345,-0.43036 7.9e-4,-0.38443 -4.45521,1.43447 -1.96453,0.80191 -4.10765,1.54013 -4.7625,1.64049 -1.17993,0.18084 -1.18636,0.17767 -0.71631,-0.35299 0.26087,-0.29452 2.07657,-1.28616 4.0349,-2.20366 1.95832,-0.91749 3.56058,-1.75297 3.56058,-1.85661 0,-0.51703 -0.87599,-0.37336 -2.53287,0.4154 -2.73855,1.3037 -6.64153,2.60446 -7.18394,2.39422 -0.43905,-0.17018 -0.43517,-0.2076 0.0595,-0.57415 0.29104,-0.21566 1.98717,-1.12989 3.76917,-2.03163 1.782,-0.90173 3.24052,-1.72654 3.24115,-1.83291 0.003,-0.48988 -1.31546,-0.45129 -2.52251,0.0738 -4.34919,1.8921 -8.46089,2.96715 -7.90437,2.06669 0.16292,-0.26362 5.71419,-3.00129 7.10155,-3.50222 0.47491,-0.17147 0.47982,-0.21431 0.0714,-0.62278 -0.40847,-0.40846 -0.50435,-0.40731 -1.39376,0.0168 -2.55285,1.21737 -5.94933,2.38514 -7.25738,2.49521 -0.97357,0.0819 -1.36764,0.0345 -1.19063,-0.14317 0.33748,-0.33882 4.33252,-2.4066 6.15156,-3.18396 0.76399,-0.32648 1.38906,-0.72239 1.38906,-0.87978 0,-0.48106 -1.5639,-0.0911 -4.29802,1.07183 -2.70316,1.14971 -4.70986,1.66531 -5.23005,1.34381 -0.19853,-0.1227 0.0188,-0.39276 0.61024,-0.75829 1.28658,-0.79515 5.64468,-2.94398 5.97077,-2.94398 0.58826,0 0.5591,-0.54357 -0.0439,-0.81832 -0.53438,-0.24347 -1.12245,-0.11371 -3.57569,0.78901 -2.69967,0.9934 -5.86876,1.66868 -5.86876,1.25054 0,-0.35923 2.41825,-1.68899 4.61834,-2.53956 2.12164,-0.82024 2.68267,-1.3438 1.65381,-1.54337 -0.23697,-0.046 -1.47726,0.3302 -2.7562,0.83593 -2.57943,1.01999 -5.26535,1.68773 -5.5681,1.38427 -0.37286,-0.37373 1.19042,-1.38835 3.9021,-2.5326 2.3553,-0.99387 2.65816,-1.19117 2.26722,-1.47703 -0.37286,-0.27264 -0.71207,-0.21357 -1.95346,0.34016 -2.48463,1.1083 -4.30276,1.66514 -5.43683,1.66514 -0.93549,0 -1.02377,-0.0487 -0.68618,-0.37872 0.4049,-0.3958 4.07022,-2.29454 5.37712,-2.78549 0.62914,-0.23635 0.70157,-0.35016 0.43062,-0.67663 -0.45507,-0.54834 -0.68873,-0.50957 -3.05862,0.50753 -1.15342,0.495 -2.78246,1.0499 -3.6201,1.23309 -2.77744,0.60742 -2.29077,-0.26238 1.09424,-1.95566 1.25446,-0.62751 2.57849,-1.22434 2.94229,-1.32629 l 0.66146,-0.18537 -0.64453,-0.36073 c -0.56323,-0.31523 -0.79684,-0.29447 -1.85208,0.16459 -1.68253,0.73196 -5.26995,1.79493 -6.05769,1.79493 -0.63651,0 -0.64189,-0.0154 -0.18254,-0.523 0.48926,-0.54062 5.1159,-2.91658 5.67939,-2.91658 0.17497,0 0.27591,-0.20836 0.22432,-0.46302 -0.12263,-0.60531 -0.62748,-0.53783 -3.46835,0.46358 -1.28299,0.45226 -2.94987,0.89485 -3.70416,0.98354 -1.30345,0.15325 -1.35177,0.13737 -0.97457,-0.32036 0.39361,-0.47765 3.70422,-2.18737 5.33899,-2.75726 0.77964,-0.27178 0.81549,-0.33206 0.42803,-0.71952 -0.38747,-0.38746 -0.59686,-0.36598 -2.49964,0.25645 -3.1649,1.03529 -5.64863,1.3521 -5.64863,0.72053 0,-0.24803 2.98578,-1.60166 4.96094,-2.24908 0.76398,-0.25042 1.38906,-0.56853 1.38906,-0.70693 0,-0.52466 -0.81923,-0.52808 -2.206,-0.009 -3.26528,1.2217 -5.99608,1.61993 -5.99608,0.87441 0,-0.31242 1.94237,-1.20305 4.44367,-2.03753 1.54044,-0.51392 2.11143,-0.81547 1.91537,-1.01154 -0.19607,-0.19606 -1.13786,0.0133 -3.1592,0.70248 -2.903,0.98971 -4.35036,1.21024 -4.65954,0.70997 -0.16934,-0.274 4.10972,-2.43996 5.49459,-2.78122 0.82073,-0.20225 0.92987,-0.51161 0.30403,-0.86185 -0.29387,-0.16446 -1.05075,0.0341 -2.47185,0.64852 -2.06268,0.89178 -4.10789,1.41703 -4.72137,1.21253 -0.50606,-0.16868 0.59116,-0.92592 3.3352,-2.30175 1.33623,-0.66997 2.42951,-1.34714 2.42951,-1.50481 0,-0.3793 -0.78911,-0.17985 -3.04271,0.76908 -2.07491,0.87368 -4.22714,1.29613 -4.48421,0.88019 -0.20841,-0.33722 1.41645,-1.37047 4.02348,-2.55853 1.76702,-0.80526 1.96701,-0.96555 1.62786,-1.3047 -0.33915,-0.33916 -0.56462,-0.31794 -1.83523,0.17271 -2.92432,1.12926 -5.5496,1.62148 -5.5496,1.04053 0,-0.43167 1.45848,-1.30544 3.60589,-2.16028 1.14546,-0.45598 2.12938,-0.87201 2.1865,-0.9245 0.26126,-0.24013 -0.62843,-0.90873 -1.00614,-0.75611 -1.10815,0.44777 -4.51138,1.37966 -5.51386,1.50984 -0.85439,0.11094 -1.12448,0.0575 -1.12448,-0.22236 0,-0.39217 2.86701,-1.93218 4.63021,-2.48711 1.32207,-0.4161 1.65512,-0.70426 1.26494,-1.09443 -0.21841,-0.21841 -0.73558,-0.14376 -1.97114,0.28452 -1.90667,0.6609 -6.24416,1.08404 -5.93182,0.57867 0.29787,-0.48196 1.68629,-1.12599 4.12448,-1.91316 1.54566,-0.49901 2.27806,-0.86933 2.34201,-1.18419 0.10285,-0.50636 -0.061,-0.49346 -3.40034,0.26763 -2.02515,0.46155 -4.49792,0.53379 -4.49792,0.1314 0,-0.36793 2.32827,-1.37226 4.56406,-1.96875 1.65626,-0.44188 2.08267,-0.71501 1.5875,-1.01683 -0.10914,-0.0665 -1.21047,0.1022 -2.44739,0.37496 -2.48381,0.54771 -5.55625,0.67437 -5.55625,0.22905 0,-0.40907 1.96119,-1.20328 4.23333,-1.71433 2.74035,-0.61637 2.65677,-0.58025 2.46993,-1.06716 -0.12437,-0.32409 -0.37648,-0.39727 -0.98773,-0.28673 -3.16219,0.57185 -4.1876,0.69896 -5.64939,0.70032 -2.94774,0.003 -1.8318,-0.82781 2.58552,-1.92428 1.3023,-0.32325 2.32814,-0.70679 2.27964,-0.85231 -0.10631,-0.31904 -0.56504,-0.30714 -4.08206,0.10597 -2.63253,0.30922 -3.75966,0.23814 -3.75966,-0.23709 0,-0.32654 2.55159,-1.23539 4.6709,-1.66371 0.99627,-0.20135 1.75186,-0.4752 1.6791,-0.60855 -0.0728,-0.13335 -1.84741,-0.24246 -3.94366,-0.24246 -2.83518,0 -3.84071,-0.0857 -3.92591,-0.33449 -0.15093,-0.44076 1.23237,-1.00171 3.37355,-1.36804 2.68979,-0.46019 2.90852,-0.53147 2.90852,-0.94786 0,-0.32985 -0.58002,-0.38103 -3.69061,-0.32569 -4.2105,0.0749 -5.19582,-0.23929 -3.01388,-0.96108 0.70429,-0.23299 1.87584,-0.49192 2.60345,-0.57541 2.44336,-0.28036 2.56043,-0.32939 2.23565,-0.93626 -0.27045,-0.50532 -0.44423,-0.52893 -2.63376,-0.35764 -5.52269,0.43203 -6.54937,-0.79717 -1.31563,-1.57513 2.5376,-0.3772 2.80147,-0.4771 2.50921,-0.94998 -0.12426,-0.20107 -1.26515,-0.27232 -3.53222,-0.22059 -3.13673,0.0716 -4.01013,-0.0482 -4.01013,-0.54969 0,-0.29733 1.67786,-0.75796 4.0413,-1.10948 1.12427,-0.16721 2.04412,-0.40861 2.04412,-0.53645 0,-0.30219 -0.1931,-0.31797 -3.175,-0.25944 -1.38245,0.0271 -2.86297,-0.0515 -3.29005,-0.17468 -1.89452,-0.54656 -0.58284,-1.22493 3.07356,-1.58957 1.06495,-0.10621 1.93628,-0.31216 1.93628,-0.45768 0,-0.15296 -1.28366,-0.32346 -3.04271,-0.40414 -2.95413,-0.13549 -3.70416,-0.29584 -3.70416,-0.7919 0,-0.32439 1.61176,-0.72887 3.77031,-0.94619 0.98226,-0.0989 1.78594,-0.25862 1.78594,-0.35494 0,-0.58498 -0.83337,-0.81112 -3.02948,-0.82206 -1.33069,-0.007 -2.74712,-0.16265 -3.18823,-0.35119 l -0.79375,-0.33926 0.60161,-0.32294 c 0.33088,-0.17762 1.61339,-0.45832 2.85001,-0.62378 3.11511,-0.4168 2.74662,-0.83368 -0.88102,-0.99673 -1.79242,-0.0806 -3.06889,-0.25823 -3.26428,-0.45435 -0.25148,-0.25242 -0.23978,-0.351 0.0541,-0.45596 0.92601,-0.3307 2.85136,-0.66481 3.86509,-0.67072 0.94458,-0.006 1.67919,-0.36013 1.36503,-0.65896 -0.051,-0.0485 -1.2369,-0.15697 -2.63543,-0.24112 -1.39853,-0.0841 -2.73798,-0.22791 -2.97656,-0.31946 -1.1817,-0.45346 0.17975,-1.08183 2.87265,-1.32585 1.59601,-0.14463 1.98262,-0.26126 1.86677,-0.56317 -0.0804,-0.20943 -0.14612,-0.43056 -0.14612,-0.49142 0,-0.0609 -0.70851,-0.11066 -1.57447,-0.11066 -1.80759,0 -4.24636,-0.4626 -4.24636,-0.80547 0,-0.29111 1.51472,-0.69082 3.5199,-0.92885 1.34361,-0.15949 1.52549,-0.24913 1.45521,-0.71723 -0.0717,-0.47732 -0.31644,-0.54617 -2.27145,-0.63892 -1.20512,-0.0572 -2.51481,-0.22701 -2.91041,-0.37742 -0.69066,-0.2626 -0.69823,-0.2855 -0.19013,-0.57534 0.29105,-0.16602 1.47224,-0.36601 2.62489,-0.44442 1.33313,-0.0907 2.13542,-0.2629 2.20486,-0.47328 0.0814,-0.24668 -0.45123,-0.33165 -2.09572,-0.33434 -2.5112,-0.004 -3.39548,-0.17601 -3.39548,-0.66003 0,-0.40234 0.61307,-0.57004 2.91041,-0.79612 2.32962,-0.22927 2.52185,-0.30099 2.11635,-0.78959 -0.191,-0.23014 -0.7203,-0.37549 -1.28657,-0.3533 -1.73964,0.0682 -3.07234,-0.0472 -3.4734,-0.3008 -0.7509,-0.47474 0.16786,-0.86616 2.42716,-1.03405 1.70723,-0.12686 2.20084,-0.25256 2.20084,-0.56042 0,-0.29958 -0.45405,-0.43652 -1.85209,-0.55859 -1.93526,-0.16898 -2.77812,-0.40472 -2.77812,-0.77702 0,-0.42397 0.61975,-0.59518 2.72828,-0.75367 2.5986,-0.19534 3.02676,-0.70487 0.79252,-0.94315 -0.84503,-0.0901 -1.89361,-0.25519 -2.33018,-0.36682 -0.7523,-0.19237 -0.76555,-0.21839 -0.25367,-0.49828 0.29705,-0.16241 1.33564,-0.35494 2.30798,-0.42782 1.94375,-0.14571 2.31132,-0.28083 2.31132,-0.84964 0,-0.27158 -0.32347,-0.3823 -1.12448,-0.38487 -1.33082,-0.004 -2.3151,-0.23555 -2.3151,-0.54398 0,-0.32436 1.80898,-0.77215 3.12624,-0.77385 1.16638,-0.002 2.16542,-0.36322 2.16542,-0.78401 0,-0.12912 -0.41672,-0.37229 -0.92604,-0.54038 -0.50932,-0.16809 -0.92604,-0.40197 -0.92604,-0.51973 0,-0.11776 0.80367,-0.36434 1.78594,-0.54797 0.98226,-0.18362 2.58876,-0.7229 3.57,-1.19839 3.45936,-1.67634 7.79975,-2.8071 15.14927,-3.94669 9.26706,-1.43691 19.15081,-1.64788 31.35312,-0.66923 6.55609,0.52581 9.45904,0.78271 13.36146,1.18244 14.52274,1.48759 21.0004,2.38679 31.75,4.40743 6.453718,1.21312 21.000798,4.69874 28.574998,6.84683 1.45521,0.41271 4.25318,1.19052 6.21771,1.72848 3.99213,1.09318 6.03942,1.67846 12.567705,3.59287 2.473854,0.72545 5.569479,1.62004 6.879166,1.98798 1.309688,0.36793 2.619375,0.76774 2.910417,0.88845 0.291041,0.12072 3.505729,1.06189 7.14375,2.09149 3.63802,1.0296 7.805208,2.22167 9.260416,2.64905 7.368773,2.16411 11.306863,3.27731 16.007291,4.52485 2.8376555,0.75315 7.4215625,2.00542 10.18645751,2.78283 6.24139899,1.75491 11.77288249,3.2642 15.74270849,4.29548 9.708714,2.52212 13.684832,3.58132 14.155208,3.77082 0.291042,0.11725 3.029479,0.89305 6.085417,1.72401 11.338295,3.08304 21.844873,6.30706 30.427083,9.33674 11.922574,4.2089 19.598427,7.22702 29.236457,11.4957 5.199906,2.30304 16.651866,8.19738 22.325436,11.49094 1.58319,0.91907 2.91068,1.67103 2.94997,1.67103 0.0393,0 0.69067,0.41672 1.44751,0.92605 0.75684,0.50932 1.46875,0.92603 1.582,0.92603 0.11324,0 0.36263,-0.37842 0.55422,-0.84093 0.82812,-1.9993 2.38218,-3.88706 4.08548,-4.96279 0.93655,-0.59149 1.7966,-1.07544 1.91125,-1.07544 0.11461,0 0.62357,-0.85894 1.13096,-1.90875 0.54954,-1.13697 1.45746,-2.4419 2.24546,-3.22735 l 1.32292,-1.3186 -1.3797,-1.42863 c -1.81512,-1.87952 -2.50928,-3.68612 -2.49483,-6.49307 0.0167,-3.23514 1.16509,-5.82523 3.41947,-7.71191 0.88821,-0.74332 3.56876,-1.72419 4.71197,-1.72419 0.79901,0 0.79542,-0.10299 -0.0602,-1.7219 -1.17242,-2.21826 -4.51818,-6.34057 -7.50408,-9.24563 -7.29935,-7.10174 -10.97328,-9.50937 -27.34887,-17.92251 -5.694836,-2.92578 -12.300529,-6.43866 -14.679345,-7.8064 C 72.055623,130.7979 58.558195,118.12647 45.43428,99.617155 41.623182,94.242172 40.248526,92.392959 37.863254,89.432473 31.796917,81.903222 26.026855,77.144482 18.160562,73.18308 16.004806,72.097459 10.338159,70.265999 7.1174575,69.61395 c -1.973927,-0.399632 -2.362997,-0.560894 -2.362997,-0.979418 0,-1.226506 6.5614525,-0.137362 12.3250485,2.045851 8.381302,3.174783 16.231793,9.042601 22.432801,16.767302 1.401619,1.746025 3.262775,4.145418 4.1359,5.331984 0.873125,1.186569 3.135312,4.266673 5.027083,6.84468 3.041015,4.144141 5.232374,6.903141 10.072106,12.681241 3.228631,3.85459 11.267149,11.4591 16.650811,15.75182 2.485337,1.98171 9.818131,6.92083 12.479707,8.40592 0.848757,0.47359 2.495709,1.40934 3.659876,2.07945 1.164166,0.67011 6.879166,3.62453 12.699997,6.56537 13.10217,6.61956 15.74985,8.11451 20.14773,11.37589 0.60375,0.44773 1.43399,1.05218 1.84497,1.34322 3.82407,2.70811 12.35932,11.09805 14.6695,14.41979 l 0.64405,0.92605 0.1692,-3.3073 c 0.19008,-3.71512 0.80037,-6.37906 2.08357,-9.09498 0.79354,-1.67951 1.82187,-2.66128 2.29349,-2.18966 0.0981,0.0981 0.0381,1.23229 -0.1334,2.52037 -0.31756,2.38506 -0.43564,9.02886 -0.1605,9.02886 0.0832,0 0.68329,-0.31175 1.33345,-0.69277 2.17757,-1.27614 5.68375,-1.10329 7.31424,0.36056 0.25557,0.22944 0.55322,0.32859 0.66146,0.22034 0.31631,-0.31631 0.19228,-6.70918 -0.17423,-8.98034 -0.80954,-5.01653 2.00975,-2.12407 3.57963,3.67252 0.55634,2.05425 0.72038,3.27391 0.73779,5.48566 0.0122,1.56426 0.0893,2.84418 0.17106,2.84427 0.0818,1e-4 0.43169,-0.38678 0.77761,-0.85972 1.98649,-2.71606 7.64934,-8.60747 11.30633,-11.76265 1.96138,-1.69226 4.76673,-3.85195 5.53998,-4.26496 0.31607,-0.16882 0.7376,-0.46986 0.9367,-0.66897 1.32345,-1.32344 8.78134,-5.42586 19.25841,-10.59361 16.84057,-8.3065 25.56436,-13.90694 34.66042,-22.25103 7.05199,-6.46901 13.61845,-13.73566 18.58584,-20.56772 1.05566,-1.45191 3.13841,-4.324215 4.62833,-6.382895 10.32499,-14.266439 17.74486,-20.723615 28.6313,-24.916478 3.99265,-1.537753 11.49266,-3.31662 11.95253,-2.834917 0.10282,0.107709 0.22667,0.43396 0.27519,0.725002 0.066,0.395955 -0.0782,0.550036 -0.57319,0.61207 -1.206,0.151153 -6.64932,1.666805 -9.30093,2.589772 -5.51801,1.920692 -11.91215,5.98504 -16.72436,10.63063 -1.87352,1.808657 -5.17475,5.424503 -6.69827,7.336657 -2.98582,3.747437 -4.23503,5.442103 -6.43692,8.732234 -6.68046,9.982095 -15.79803,20.312645 -25.09607,28.434815 -9.52497,8.32042 -15.93035,12.2781 -38.66637,23.89078 -8.16149,4.16858 -11.79499,6.35015 -15.88026,9.53458 -0.22117,0.1724 -0.87601,0.66198 -1.45521,1.08794 -4.51959,3.32394 -14.15288,14.64187 -13.18027,15.4852 0.12152,0.10537 0.92795,0.3542 1.79205,0.55295 1.9816,0.4558 3.73933,1.64539 4.84735,3.28061 1.29733,1.91456 1.72911,3.72593 1.6048,6.73208 -0.0911,2.20412 -0.20931,2.73379 -0.88574,3.97039 -0.42931,0.78483 -1.22637,1.78522 -1.77123,2.22308 l -0.99065,0.79612 1.32051,1.29987 c 0.72631,0.71493 1.8011,2.17548 2.38847,3.24567 0.92369,1.683 1.25386,2.0417 2.44478,2.65587 1.92095,0.99066 2.91867,2.02586 4.05011,4.20232 0.53673,1.03246 1.00488,1.91367 1.04034,1.95825 0.0355,0.0446 1.89333,-1.014 4.12858,-2.35239 12.23447,-7.32561 28.52195,-14.92546 45.86825,-21.40243 4.87868,-1.82165 18.81214,-6.50518 23.68021,-7.95974 0.94588,-0.28263 2.3151,-0.70134 3.0427,-0.93047 0.72761,-0.22912 1.91823,-0.58043 2.64584,-0.78067 0.7276,-0.20025 3.22791,-0.91217 5.55625,-1.58204 3.86249,-1.11125 6.31153,-1.78296 19.31458,-5.29756 2.32833,-0.62932 7.92427,-2.12123 12.43542,-3.31536 4.51114,-1.19412 9.92849,-2.63851 12.03854,-3.20976 2.11005,-0.57124 4.66989,-1.26333 5.68854,-1.53796 4.79324,-1.29229 13.0842,-3.67889 17.4625,-5.02668 1.39203,-0.42852 6.4538,-1.89466 9.12812,-2.64396 1.03003,-0.2886 1.31403,-0.3721 8.99584,-2.64473 2.98317,-0.88257 5.84067,-1.71444 6.35,-1.8486 0.50932,-0.13416 2.11666,-0.59142 3.57187,-1.01613 1.45521,-0.4247 3.41974,-0.97988 4.36563,-1.23373 0.94588,-0.25385 2.01744,-0.55708 2.38125,-0.67386 0.3638,-0.11677 2.03067,-0.5774 3.70416,-1.02363 1.67349,-0.44623 4.79447,-1.29022 6.93553,-1.87553 2.14103,-0.58531 7.02259,-1.83806 10.84791,-2.78388 3.8253,-0.94582 7.37182,-1.83345 7.88115,-1.97252 1.37895,-0.3765 8.46682,-1.76331 11.64166,-2.27779 1.52797,-0.24761 3.31391,-0.54671 3.96875,-0.66466 5.39589,-0.97192 17.36445,-2.4024 30.82396,-3.68406 16.59864,-1.58059 27.04782,-1.54611 38.17834,0.12599 4.31522,0.64825 6.57784,1.19813 12.48937,3.03525 0.3638,0.11306 1.41986,0.58846 2.3468,1.05644 0.92691,0.46799 2.41519,0.96794 3.30729,1.11101 2.08529,0.33443 2.37688,0.64179 0.96859,1.021 -1.05283,0.2835 -1.09265,0.32841 -0.68787,0.77569 0.29589,0.32697 0.99703,0.5275 2.2523,0.64416 1.94251,0.18054 2.6608,0.36753 2.6608,0.69269 0,0.22114 -1.56241,0.52797 -2.71198,0.53256 -0.79954,0.003 -0.84671,0.0797 -0.47625,0.77193 0.19704,0.36816 0.63588,0.4821 2.03068,0.52726 3.34751,0.10837 3.61323,1.0734 0.29766,1.08093 -1.60819,0.004 -1.78594,0.0567 -1.78594,0.53321 0,0.46765 0.17687,0.52934 1.52135,0.53065 1.64174,0.002 3.50573,0.4144 3.50573,0.7764 0,0.36733 -0.81597,0.57952 -2.83022,0.73597 -2.55823,0.19871 -2.77667,0.74204 -0.37912,0.94305 1.72633,0.14472 3.20934,0.60536 3.20934,0.99685 0,0.36703 -0.84246,0.515 -2.93206,0.515 -1.91862,0 -2.09502,0.0445 -2.09502,0.52917 0,0.44368 0.18164,0.53171 1.12448,0.54494 1.38917,0.0195 3.5814,0.36859 3.82135,0.60853 0.46135,0.46135 -0.66241,0.83536 -2.88435,0.95997 -1.59616,0.0895 -2.45349,0.24778 -2.52559,0.46624 -0.0804,0.24354 0.3804,0.33073 1.74776,0.33073 1.90429,0 3.21427,0.31594 3.21427,0.77522 0,0.32862 -1.21219,0.53824 -3.57188,0.61766 -1.66915,0.0562 -1.86007,0.11839 -1.93299,0.62995 -0.0733,0.51384 0.0771,0.5845 1.5875,0.74582 1.90026,0.20296 3.3882,0.61037 3.3882,0.92773 0,0.39715 -0.90786,0.5949 -3.37344,0.73479 -2.1617,0.12264 -2.44739,0.19642 -2.44739,0.63197 0,0.35788 0.19359,0.49311 0.70593,0.49311 1.0355,0 3.89067,0.5277 4.33245,0.80073 0.81187,0.50178 -0.2716,0.86082 -3.08224,1.0214 -1.91524,0.10942 -2.87541,0.26993 -2.9492,0.49298 -0.078,0.23587 0.28069,0.33073 1.25071,0.33073 1.43348,0 3.67686,0.45027 4.0849,0.81989 0.46572,0.42185 -1.31463,0.82886 -3.55743,0.81327 -2.09349,-0.0146 -3.24136,0.23214 -2.85901,0.61448 0.0879,0.0879 1.15599,0.26381 2.37361,0.39099 2.3768,0.24825 3.13986,0.45137 3.13986,0.83581 0,0.48169 -1.40422,0.75889 -3.84437,0.75889 -2.15387,0 -2.5223,0.0659 -2.7504,0.49215 -0.24209,0.45234 -0.10956,0.50645 1.63852,0.66891 2.06822,0.19222 3.89792,0.65312 3.89792,0.98187 0,0.47622 -0.82976,0.64221 -3.83646,0.76749 -3.67406,0.15308 -4.11435,0.56291 -0.92395,0.86002 2.5455,0.23705 4.22854,0.83563 3.73642,1.32886 -0.21103,0.21153 -1.44897,0.35164 -3.55256,0.40209 -4.69054,0.11248 -5.19645,0.4019 -1.51046,0.86408 2.68595,0.33679 4.21783,0.90237 3.73687,1.37966 -0.22447,0.22276 -1.39694,0.32466 -3.73533,0.32466 -2.20718,0 -3.51586,0.10684 -3.7138,0.30319 -0.23024,0.22838 -0.022,0.34734 0.84421,0.48213 3.56772,0.55525 4.46801,0.75194 4.90254,1.07109 0.90974,0.66819 -0.73578,0.99819 -4.07379,0.81697 -2.75611,-0.14962 -2.98643,-0.12458 -3.24173,0.35242 -0.24974,0.46666 -0.16015,0.52904 0.98256,0.68416 2.18014,0.29594 4.92038,1.04014 5.02494,1.36468 0.15483,0.48056 -2.04708,0.70588 -4.87191,0.49852 -1.77561,-0.13034 -2.61323,-0.0931 -2.87969,0.12806 -0.56211,0.46651 -0.20569,0.78059 0.89077,0.78498 1.31035,0.005 4.26799,0.71858 5.01859,1.2104 1.18647,0.77739 0.39709,0.96815 -3.58897,0.8673 -2.9087,-0.0736 -3.87043,-0.0168 -3.95597,0.2335 -0.0729,0.21317 0.15343,0.33125 0.63662,0.3322 1.33635,0.003 5.90901,1.43689 5.90901,1.85342 0,0.4638 -1.98688,0.5159 -4.64153,0.12172 -2.71433,-0.40304 -3.56055,-0.38687 -3.56055,0.068 0,0.11503 0.95361,0.42349 2.11913,0.68545 2.24586,0.50479 4.76004,1.44087 4.76004,1.77226 0,0.55123 -2.70129,0.43715 -6.4189,-0.27107 -0.83825,-0.15969 -1.64192,-0.21752 -1.78594,-0.12852 -0.4936,0.30507 -0.2613,0.61783 0.59807,0.80518 1.29526,0.28236 4.52061,1.32941 5.17654,1.68045 0.31798,0.17018 0.57814,0.42429 0.57814,0.56469 0,0.43927 -3.20759,0.27546 -5.53606,-0.28272 -1.50008,-0.3596 -2.31608,-0.44694 -2.49589,-0.26714 -0.35452,0.35454 -0.40402,0.33101 2.46337,1.17118 1.37565,0.40309 2.85176,0.98251 3.28023,1.2876 0.76184,0.54247 0.76639,0.55939 0.20622,0.76661 -0.61416,0.22719 -4.08753,-0.30451 -6.16506,-0.94374 -1.10474,-0.33991 -1.25267,-0.33614 -1.39531,0.0355 -0.19986,0.52086 -0.36348,0.41963 1.96959,1.21853 2.83411,0.97046 3.8313,1.41519 4.21804,1.8812 0.2808,0.33834 0.26609,0.43719 -0.0851,0.57197 -0.60659,0.23277 -3.60964,-0.3361 -5.6129,-1.06325 -1.59629,-0.57941 -1.72501,-0.59009 -1.95406,-0.16211 -0.21137,0.39499 0.12706,0.61476 2.45433,1.59375 2.67811,1.12658 3.62556,1.70034 3.62556,2.19559 0,0.38697 -1.91923,0.0196 -4.7054,-0.90064 -1.35104,-0.44624 -2.63097,-0.74438 -2.84427,-0.66253 -0.47234,0.18125 -0.51837,0.95768 -0.0571,0.96299 0.58796,0.007 5.75469,2.60299 5.75469,2.89168 0,0.69105 -4.53657,-0.2291 -6.69764,-1.35848 -0.32263,-0.1686 -0.60449,-0.14745 -0.85989,0.0645 -0.46893,0.38916 -0.49242,0.77972 -0.0469,0.77972 0.36004,0 4.87828,2.25114 5.42163,2.70124 1.34794,1.11662 -1.57226,0.7972 -4.65064,-0.50869 -3.08245,-1.30763 -3.24279,-0.76467 -0.23302,0.78901 2.9886,1.54272 3.55812,1.95553 3.19665,2.31701 -0.32454,0.32453 -3.29089,-0.53486 -5.22682,-1.51427 -1.17568,-0.59478 -1.32885,-0.61597 -1.70847,-0.23635 -0.528,0.52802 -0.27847,0.76226 1.4124,1.32589 1.75485,0.58495 4.15716,1.80823 4.19952,2.13842 0.0755,0.58845 -1.75136,0.37053 -4.32948,-0.51647 -2.82861,-0.97319 -3.44192,-1.09977 -3.44192,-0.71041 0,0.12602 0.74415,0.49264 1.65365,0.8147 3.16034,1.11911 3.77328,1.37008 4.29818,1.75997 0.45448,0.33756 0.47287,0.42872 0.13229,0.65545 -0.53739,0.35778 -1.87007,0.13136 -4.73249,-0.80404 -2.18874,-0.71525 -3.20371,-0.80758 -3.20371,-0.29145 0,0.10476 0.98227,0.52728 2.18281,0.93893 2.61033,0.89503 4.16719,1.64012 4.16719,1.99435 0,0.60452 -3.09187,0.10021 -6.69015,-1.09121 -0.86553,-0.2866 -1.06045,-0.27279 -1.43489,0.10163 -0.40132,0.40133 -0.37623,0.45484 0.34015,0.72551 2.77514,1.04854 5.65817,2.56039 5.66494,2.97067 0.01,0.58525 -3.51155,-0.21166 -6.42972,-1.45517 -1.17117,-0.49906 -1.30794,-0.50843 -1.69992,-0.11645 -0.39198,0.39199 -0.33208,0.4671 0.74446,0.93361 3.7343,1.61819 5.58922,2.7239 5.2084,3.10471 -0.25984,0.25983 -3.63183,-0.57928 -6.0171,-1.49734 -1.73484,-0.66771 -2.02716,-0.71415 -2.3655,-0.37582 -0.46863,0.46865 -0.56399,0.39502 1.69912,1.31216 2.0482,0.83005 4.36563,2.18562 4.36563,2.55366 0,0.61925 -2.81792,-0.0473 -5.92376,-1.40113 -1.51299,-0.65953 -1.9314,-0.74503 -2.46232,-0.50313 -0.83174,0.37897 -0.64127,0.63522 0.90295,1.21473 1.95342,0.73307 4.16679,1.89236 4.58853,2.40331 0.35743,0.433 0.28446,0.45035 -1.17641,0.27962 -0.85662,-0.10011 -2.65153,-0.63249 -3.98868,-1.18306 -1.33715,-0.55057 -2.57106,-0.95442 -2.74201,-0.89744 -0.39793,0.13265 -0.40767,0.85326 -0.0116,0.85326 0.1646,0 1.40362,0.48433 2.75336,1.07628 2.35344,1.03214 3.58048,1.90381 3.20646,2.27783 -0.27154,0.27153 -2.69655,-0.35491 -5.39723,-1.39423 -1.34499,-0.51761 -2.64481,-0.90244 -2.88849,-0.85518 -0.51845,0.10055 -0.81444,0.74739 -0.34197,0.74739 0.69297,0 5.44883,2.23075 6.07277,2.84845 l 0.66146,0.65485 -1.32292,-0.16202 c -0.7276,-0.0891 -2.77918,-0.667 -4.55906,-1.28419 -2.89317,-1.00324 -3.27869,-1.07962 -3.63765,-0.72066 -0.35894,0.35896 -0.0183,0.59683 3.21543,2.24452 1.98929,1.01365 3.56671,1.96207 3.50536,2.10759 -0.26263,0.62278 -3.6957,-0.32968 -7.28941,-2.02235 -1.4238,-0.67061 -2.49412,-0.7851 -2.47234,-0.26445 0.004,0.0936 1.81962,1.06142 4.03489,2.15077 3.36325,1.65386 3.90118,1.99571 3.26046,2.07193 -1.08587,0.12918 -2.75696,-0.33186 -6.13801,-1.69344 -2.71883,-1.09488 -3.98201,-1.28679 -3.74261,-0.56859 0.0495,0.14857 1.46002,0.87804 3.13444,1.62105 3.57819,1.58778 4.68032,2.24852 4.22253,2.53145 -0.49268,0.30449 -2.82085,-0.33398 -6.19011,-1.69756 -2.01663,-0.81616 -3.26104,-1.18308 -3.62291,-1.06822 -0.30313,0.0962 -0.51485,0.26991 -0.47046,0.38598 0.0444,0.11608 1.67937,1.02871 3.63331,2.02807 3.57699,1.82949 4.38217,2.47848 3.07491,2.47848 -0.67738,0 -5.94989,-1.96818 -7.85016,-2.9304 -0.811,-0.41065 -1.03185,-0.43119 -1.43854,-0.13381 -0.45262,0.33097 -0.4431,0.36293 0.16433,0.55168 1.35134,0.41993 7.0113,3.2323 7.35788,3.65606 0.88387,1.08063 -2.15614,0.28416 -6.92346,-1.81393 -1.67068,-0.73528 -2.77058,-1.0847 -2.92578,-0.9295 -0.15521,0.1552 0.33779,0.51324 1.31143,0.9524 4.98075,2.24664 6.65184,3.20223 6.26914,3.58494 -0.32215,0.32214 -3.79579,-0.75213 -7.0205,-2.1712 -2.44909,-1.07775 -2.97511,-1.20257 -3.24274,-0.76953 -0.0888,0.14371 0.35063,0.462 0.97658,0.70732 1.32688,0.52003 5.99175,2.90123 6.48409,3.30985 0.66164,0.54912 0.0514,0.6955 -1.44441,0.34645 -1.36192,-0.31781 -4.72247,-1.63328 -6.78654,-2.65655 -0.42254,-0.20947 -0.96533,-0.38086 -1.20621,-0.38086 -0.52472,0 -1.62957,0.77288 -1.12265,0.78533 0.63767,0.0157 7.9919,3.70388 7.9919,4.00801 0,0.72881 -5.58234,-0.80564 -8.6799,-2.38589 -1.26164,-0.64364 -1.72717,-0.68969 -2.1251,-0.21019 -0.22564,0.27186 0.25921,0.56168 2.28269,1.36448 4.96488,1.96978 6.82754,3.05284 5.25036,3.05284 -0.95027,0 -4.03788,-0.87418 -7.03884,-1.99288 -1.71614,-0.63974 -2.73733,-0.88312 -3.24115,-0.77246 -0.40457,0.0888 -0.73472,0.24139 -0.73366,0.33897 0,0.0976 1.04283,0.51302 2.31511,0.9232 1.27224,0.41019 3.32523,1.24291 4.56215,1.85051 2.09344,1.02831 2.18991,1.11052 1.39504,1.18875 -0.85719,0.0844 -5.46205,-1.04402 -8.38178,-2.05389 -1.82139,-0.62998 -2.77474,-0.6806 -3.45467,-0.18341 -0.4404,0.32202 -0.28281,0.42386 1.60306,1.036 2.93669,0.95322 7.29218,2.76816 7.75594,3.2319 0.21421,0.2142 0.31478,0.46414 0.22352,0.55541 -0.29181,0.29181 -4.17539,-0.64257 -8.40152,-2.02137 -3.80244,-1.24057 -4.17338,-1.31448 -5.09456,-1.01512 -0.54641,0.17758 -0.93948,0.37688 -0.87346,0.44289 0.0996,0.0997 5.19673,1.91313 7.55552,2.68816 1.24489,0.40903 3.70416,1.57487 3.70416,1.75599 0,0.24938 -2.47068,-0.0953 -4.23333,-0.59065 -0.80036,-0.2249 -3.3283,-0.98995 -5.61763,-1.7001 -3.30015,-1.02371 -4.30044,-1.23871 -4.82865,-1.03788 -0.36642,0.13932 -0.66622,0.30084 -0.66622,0.35894 0,0.0581 1.22039,0.55446 2.71198,1.10303 5.82866,2.14362 8.10215,3.07511 8.40959,3.44559 0.26586,0.32031 0.21014,0.38592 -0.32766,0.38592 -0.84044,0 -5.22618,-1.24767 -9.72457,-2.76648 -3.58899,-1.21177 -5.36967,-1.57735 -3.96737,-0.81452 0.3706,0.2016 2.19768,0.97451 4.06019,1.71757 1.86253,0.74305 4.00007,1.67239 4.75014,2.06519 1.2877,0.67435 1.32265,0.71917 0.62682,0.80385 -0.87429,0.10639 -2.76193,-0.49226 -8.70399,-2.7604 -2.42764,-0.92663 -4.68982,-1.68057 -5.02709,-1.67541 l -0.61325,0.009 0.66146,0.3711 c 0.3638,0.2041 2.51362,1.16424 4.7774,2.13364 4.15126,1.77767 5.56265,2.57049 5.20776,2.92536 -0.20261,0.20262 -2.90237,-0.6662 -10.3365,-3.32644 -2.4488,-0.87628 -4.77052,-1.58385 -5.15937,-1.57238 -0.62561,0.0185 -0.56791,0.087 0.50135,0.59532 0.66458,0.31594 1.73615,0.79091 2.38125,1.05549 5.01092,2.05512 7.12603,3.12992 7.12603,3.62114 0,0.4863 -3.01551,-0.53564 -9.92188,-3.36245 -1.74625,-0.71475 -3.82984,-1.45844 -4.63021,-1.65264 -0.80036,-0.1942 -1.6338,-0.41319 -1.85208,-0.48664 -1.13027,-0.38033 0.49567,0.65485 3.35224,2.13426 3.70716,1.91994 4.52443,2.44072 4.26001,2.71456 -0.21707,0.22481 -4.36396,-1.37587 -8.93517,-3.44895 -3.25495,-1.47614 -4.16258,-1.78407 -4.35255,-1.47669 -0.0659,0.10656 1.36107,0.8848 3.17095,1.72943 3.32415,1.5513 4.80362,2.55692 3.16598,2.15197 -0.43656,-0.10795 -3.29406,-1.12431 -6.35,-2.25858 l -5.55625,-2.0623 -4.7625,-0.44281 c -8.00153,-0.74397 -13.5227,-0.93958 -25.79688,-0.91397 -11.83436,0.0247 -17.41053,0.21983 -16.13958,0.56483 0.3638,0.0988 2.14974,0.42542 3.96875,0.72593 4.71932,0.77967 8.69074,1.6359 16.53646,3.56525 7.35176,1.80788 9.98315,2.33542 13.75833,2.75829 6.19051,0.69342 14.33407,2.05245 14.56815,2.43119 0.21285,0.34439 -1.80907,0.29326 -6.60086,-0.16693 -2.31195,-0.22204 -4.25873,-0.34851 -4.3262,-0.28106 -0.21412,0.21414 1.82997,0.6543 4.4287,0.95363 9.16364,1.0555 13.86946,1.83922 14.39119,2.39676 0.33327,0.35613 -1.80967,0.25399 -8.30005,-0.39563 -2.10691,-0.21088 -3.87253,-0.34164 -3.92359,-0.29058 -0.16796,0.16794 3.88067,0.89344 8.94495,1.60289 3.61048,0.50579 7.60773,1.39163 7.81849,1.73267 0.24125,0.39036 -2.16916,0.28334 -6.40066,-0.28418 -2.16226,-0.29 -4.16949,-0.5245 -4.46053,-0.52112 -1.43402,0.0167 0.70074,0.5695 5.05774,1.30979 4.44529,0.75529 9.72439,2.16504 10.04401,2.68218 0.24201,0.39158 -0.75306,0.26626 -5.5001,-0.6927 -2.51601,-0.50827 -4.85704,-0.92498 -5.20227,-0.92604 -1.10424,-0.003 -0.16198,0.70233 1.18406,0.88682 2.10932,0.28912 9.17665,2.01051 10.62228,2.58727 1.37719,0.54946 1.81703,1.03044 0.92605,1.01267 -0.62069,-0.0124 -3.88896,-0.63846 -6.79961,-1.30258 -2.90941,-0.66384 -3.38148,-0.68568 -2.57252,-0.11906 0.33076,0.23166 1.99435,0.77173 3.69689,1.20016 3.59982,0.90585 5.25497,1.41386 6.99815,2.14791 2.90402,1.22286 0.34012,1.34736 -3.9026,0.1895 -1.60073,-0.43685 -3.26761,-0.86018 -3.70417,-0.94074 l -0.79375,-0.14646 0.62876,0.55194 c 0.34583,0.30357 0.94115,0.62042 1.32291,0.70413 1.41857,0.311 5.77419,1.78879 7.33896,2.48999 3.68406,1.65088 1.69924,1.74142 -3.73438,0.17034 -1.74625,-0.50491 -3.21691,-0.87724 -3.26813,-0.8274 -0.0512,0.0498 0.0912,0.35378 0.31649,0.67543 0.26996,0.38543 1.56459,1.00882 3.7973,1.8285 3.88073,1.42469 5.74019,2.26746 6.18472,2.80309 0.57073,0.68768 -1.45532,0.43117 -4.4613,-0.56483 -1.55853,-0.5164 -3.10137,-1.0722 -3.42858,-1.23512 -0.32721,-0.16293 -0.66934,-0.22181 -0.76028,-0.13085 -0.45429,0.45428 0.43548,1.10732 3.47493,2.55037 3.93282,1.8672 6.22525,3.41592 5.58591,3.77371 -0.44624,0.24973 -3.45228,-0.8884 -6.80241,-2.57549 l -1.82927,-0.92121 0.019,0.73093 c 0.0172,0.6609 0.28974,0.86363 2.84427,2.11583 3.40034,1.66679 5.58675,3.00287 5.59633,3.4198 0.0116,0.51037 -2.48578,-0.28773 -5.52616,-1.76595 -2.08918,-1.01576 -2.8075,-1.25818 -2.96638,-1.00112 -0.11531,0.18656 -0.12531,0.41657 -0.0222,0.51113 0.10309,0.0946 1.8891,1.03554 3.96894,2.09105 3.66125,1.85808 5.0083,2.90082 3.7474,2.90082 -0.70363,0 -3.47546,-1.09201 -6.11188,-2.40789 -1.88134,-0.93901 -2.03186,-0.974 -2.1555,-0.50115 -0.16082,0.61491 -0.15473,0.61976 2.98743,2.38292 3.41315,1.91523 4.83418,2.94153 4.51491,3.26081 -0.34319,0.34318 -2.09664,-0.32167 -5.55152,-2.10499 -1.51603,-0.78253 -2.77246,-1.39316 -2.79207,-1.35697 -0.0196,0.0362 -0.2286,0.37511 -0.46445,0.75313 l -0.42878,0.68733 1.36877,0.56815 c 1.56636,0.65015 5.62425,2.99303 6.22572,3.5945 1.24193,1.24195 -1.57945,0.4723 -5.59617,-1.52658 -2.82996,-1.40829 -2.85938,-1.4162 -3.24115,-0.87115 -0.21188,0.30252 -0.38526,0.64004 -0.38526,0.75004 0,0.11 1.28278,0.83108 2.85065,1.6024 3.42059,1.6828 4.82227,2.52532 4.82227,2.89856 0,0.51596 -1.80668,-0.003 -5.20824,-1.49684 -3.23567,-1.42073 -4.11372,-1.58674 -4.40317,-0.83249 -0.0923,0.24062 0.88704,0.82906 3.0844,1.85324 3.40038,1.58488 4.66363,2.37146 4.33552,2.69957 -0.38865,0.38867 -5.25224,-1.1828 -7.9583,-2.5714 -0.94088,-0.4828 -1.07164,-0.49152 -1.65364,-0.11017 -0.34759,0.22775 -0.63199,0.51278 -0.63199,0.63341 0,0.12062 0.86321,0.612 1.91823,1.09195 2.89282,1.316 5.49011,2.88588 5.49011,3.31841 0,0.21186 -0.05,0.38521 -0.11121,0.38521 -0.4668,0 -5.17893,-1.84738 -6.83347,-2.67905 -1.76459,-0.88698 -2.12363,-0.98434 -2.57969,-0.69953 -0.68323,0.42668 -0.66921,0.65284 0.0547,0.88261 0.55015,0.1746 3.89818,2.07745 6.09621,3.46475 1.00893,0.63679 1.28802,1.14788 0.62682,1.14788 -0.70291,0 -3.92617,-1.34366 -6.38863,-2.6632 -2.43702,-1.30589 -2.4988,-1.32308 -3.28879,-0.91455 -0.44284,0.22899 -0.7982,0.50258 -0.78973,0.60798 0.008,0.10541 1.64415,1.16247 3.63487,2.34903 3.49285,2.08192 4.34673,2.7661 3.9488,3.16404 -0.32853,0.32853 -3.82672,-1.22029 -6.72335,-2.97676 -2.65634,-1.61076 -2.84911,-1.6842 -3.69131,-1.40626 -0.83897,0.27689 -1.22669,0.78139 -0.60052,0.78139 0.32504,0 5.59271,3.5832 7.33028,4.98622 3.2454,2.62054 -2.08995,0.40495 -7.17902,-2.98121 -1.90426,-1.26704 -2.42533,-1.49951 -3.02369,-1.34894 l -0.72292,0.18193 0.68427,0.57318 c 0.37637,0.31526 2.3409,1.88145 4.36562,3.48043 2.84475,2.24655 3.55479,2.92604 3.12433,2.98995 -0.66013,0.098 -3.75023,-1.69661 -7.53774,-4.37769 -2.48946,-1.76221 -2.75764,-1.89008 -3.26196,-1.55523 -0.30224,0.20068 -0.54952,0.41823 -0.54952,0.48346 0,0.0652 1.30969,1.10893 2.91042,2.31934 3.93557,2.9759 5.82253,4.59661 5.48336,4.70966 -0.60622,0.20207 -5.80076,-2.85117 -8.96255,-5.26801 -1.07958,-0.82521 -1.5054,-1.00563 -2.05052,-0.86882 -0.37841,0.095 -0.688,0.25352 -0.688,0.35233 0,0.0988 1.22039,1.21262 2.71198,2.47513 4.35255,3.6841 5.39253,4.74108 5.11175,5.19539 -0.24154,0.39083 -2.43478,-1.0896 -7.91639,-5.34361 -1.78932,-1.38859 -2.03393,-1.50388 -2.53153,-1.19313 -0.30295,0.1892 -0.55081,0.41571 -0.55081,0.50338 0,0.0877 0.8632,0.83835 1.91823,1.66821 2.06775,1.62645 6.01927,5.41161 6.01927,5.76587 0,0.11921 -0.13549,0.21674 -0.3011,0.21674 -0.52596,0 -4.5091,-2.81743 -6.90586,-4.88477 -2.3499,-2.02694 -2.74246,-2.21067 -3.66667,-1.71604 -0.46972,0.25138 -0.13468,0.65175 3.45696,4.13129 2.18739,2.11911 3.97709,4.02888 3.97709,4.24392 0,0.32256 -0.13306,0.30569 -0.76039,-0.0964 -2.21837,-1.42189 -3.23501,-2.17999 -5.39311,-4.02165 -3.65926,-3.12272 -3.56645,-3.06469 -4.33943,-2.71249 -0.66042,0.30092 -0.62021,0.35281 3.19225,4.11913 3.61675,3.57299 4.27369,4.3766 3.57778,4.3766 -0.50837,0 -3.49674,-2.28752 -6.19395,-4.74129 -1.45235,-1.32135 -2.8443,-2.40246 -3.09314,-2.40246 -0.826,0 -0.85603,0.59684 -0.063,1.25266 2.82964,2.34019 7.01463,7.01069 6.62821,7.39712 -0.19166,0.19166 -3.79386,-2.68767 -6.62339,-5.29425 -2.00533,-1.84731 -2.30529,-2.03637 -2.80583,-1.76849 -0.52464,0.28077 -0.3306,0.52087 3.03567,3.75635 3.82159,3.67312 4.45884,4.44816 3.6535,4.44342 -0.64884,-0.004 -3.14775,-1.92215 -6.2166,-4.7723 -2.3505,-2.18298 -2.6158,-2.35726 -3.11562,-2.04669 -0.51888,0.3224 -0.41564,0.46589 2.05245,2.85302 2.3073,2.23163 4.10583,4.2461 4.66534,5.22552 0.12227,0.214 0.0145,0.33073 -0.30549,0.33073 -0.50524,0 -7.11988,-5.62228 -7.86323,-6.68353 -0.33017,-0.4714 -0.50067,-0.52934 -0.87071,-0.29593 -0.25308,0.15964 -0.46014,0.4229 -0.46014,0.58502 0,0.16213 0.80147,1.16118 1.78104,2.22013 2.26063,2.4438 4.70125,5.52153 4.70125,5.92847 0,0.82896 -1.47508,-0.29957 -4.80002,-3.67235 -3.35026,-3.39846 -3.67035,-3.6547 -4.20693,-3.36753 -0.56882,0.30442 -0.55374,0.33879 0.73401,1.67378 2.12569,2.20362 4.76369,5.3556 5.21867,6.23539 1.04106,2.01321 -1.28344,0.26601 -5.67698,-4.26706 -1.88005,-1.93975 -2.60773,-2.53227 -2.88721,-2.35095 -0.29231,0.18962 0.16872,0.85687 2.11666,3.06356 2.4306,2.75347 3.94555,4.75166 3.94555,5.20415 0,0.73094 -1.21229,-0.18457 -4.56306,-3.44594 -3.30972,-3.22143 -3.84418,-3.64346 -4.36663,-3.44811 -0.32742,0.12243 -0.59531,0.2858 -0.59531,0.36305 0,0.0773 1.37266,1.7027 3.05038,3.61211 3.26557,3.71658 3.71642,4.34126 3.31303,4.59055 -0.30614,0.18923 -3.05244,-2.10584 -6.07721,-5.07864 -1.22502,-1.204 -2.33418,-2.18909 -2.46478,-2.18909 -0.1306,0 -0.47231,0.12568 -0.75933,0.2793 -0.48056,0.25719 -0.35086,0.46136 1.63894,2.57968 2.2085,2.35117 4.73855,5.50762 4.73855,5.91172 0,0.73506 -1.21472,-0.20799 -4.74715,-3.68549 -3.36484,-3.31249 -4.05728,-3.87919 -4.52747,-3.70526 l -0.55504,0.20533 0.61534,0.75582 c 2.97614,3.6555 3.83288,4.76384 4.75154,6.14689 0.58143,0.87535 1.01815,1.79385 0.97052,2.04116 -0.1052,0.54633 -2.66896,-2.01433 -5.70732,-5.7005 -1.98647,-2.40997 -2.25047,-2.60586 -3.0819,-2.2868 -0.63545,0.24384 -0.52112,0.56011 0.73967,2.04616 1.7779,2.09558 5.01867,7.15547 4.65963,7.27514 -0.1715,0.0572 -0.8496,-0.41577 -1.50688,-1.05095 -1.32043,-1.27606 -5.78064,-6.62234 -5.95088,-7.13308 -0.0713,-0.21394 -0.35721,-0.26049 -0.84619,-0.13777 -0.70577,0.17714 -0.71993,0.21119 -0.31993,0.7694 3.01945,4.2136 5.5894,8.5376 5.21269,8.77043 -0.32092,0.19834 -3.41262,-3.37518 -5.64441,-6.52399 -1.4718,-2.07658 -1.70167,-2.29033 -2.3073,-2.14558 -0.36994,0.0884 -0.70765,0.18894 -0.75046,0.22341 -0.0428,0.0345 0.97218,1.65484 2.25557,3.6008 3.16434,4.79806 4.07458,6.88536 2.28378,5.23692 -0.76902,-0.70789 -5.00857,-6.26724 -5.79626,-7.60068 -0.30353,-0.51382 -0.71009,-0.84339 -1.0374,-0.84093 -1.30564,0.01 -1.20962,0.37521 0.94038,3.57844 2.26166,3.36957 3.81341,6.16259 3.56298,6.41302 -0.41732,0.41733 -4.11061,-4.09824 -6.07216,-7.42407 -1.12641,-1.90985 -1.70598,-2.31791 -2.73251,-1.924 -0.36375,0.13959 -0.34853,0.23561 0.11854,0.74853 0.29466,0.32361 1.24658,1.77903 2.11534,3.23424 3.32804,5.57456 3.83604,6.76032 2.54712,5.94532 -0.5034,-0.31832 -4.1148,-5.29876 -5.7979,-7.99584 -0.85557,-1.37051 -1.03906,-1.521 -1.85514,-1.521 -0.49811,0 -0.90565,0.038 -0.90565,0.0846 0,0.0465 0.78471,1.38597 1.74379,2.97657 0.95907,1.59057 2.21674,3.82704 2.79482,4.96988 2.18451,4.3186 0.0912,2.25888 -3.92678,-3.86385 -2.55561,-3.89429 -2.56323,-3.9026 -3.56754,-3.9026 h -1.00647 l 0.90294,1.4115 c 1.47976,2.31328 3.8835,6.5533 4.40544,7.77094 0.49631,1.15785 0.39863,1.39722 -0.32874,0.80558 -0.46813,-0.38076 -3.80018,-4.99539 -5.61531,-7.77674 -1.05642,-1.61875 -1.36921,-1.91524 -2.18119,-2.06756 -0.52137,-0.0978 -0.9983,-0.12747 -1.05987,-0.0659 -0.0615,0.0616 0.98179,1.88494 2.31852,4.05196 2.50833,4.06627 3.75573,6.45715 3.49932,6.707 -0.29006,0.28266 -4.3615,-5.12789 -6.7651,-8.99022 l -1.1357,-1.82494 -1.24756,-0.0109 -1.24759,-0.0109 2.15548,3.50573 c 5.2257,8.49927 5.73513,10.17606 1.42679,4.69636 -1.09799,-1.39653 -5.29169,-7.62103 -5.48944,-8.14771 -0.0526,-0.14005 -0.50189,-0.34232 -0.99849,-0.44953 l -0.90289,-0.19495 0.69953,1.1937 c 0.38476,0.65651 1.77332,3.11938 3.08571,5.47301 3.36542,6.03557 3.17434,6.74677 -0.44326,1.64984 -1.47772,-2.08198 -4.90683,-7.59151 -5.17173,-8.30932 -0.11009,-0.29837 -2.31759,-0.57489 -2.31759,-0.2903 0,0.13903 0.79348,1.73183 1.76331,3.53954 2.50212,4.66381 3.86422,7.57081 3.73253,7.96589 -0.21404,0.64214 -3.15999,-3.72309 -6.45109,-9.55908 -1.23741,-2.19427 -1.70813,-2.80249 -2.2859,-2.95368 -0.40018,-0.10472 -0.7276,-0.1225 -0.7276,-0.0395 0,0.083 0.69725,1.41213 1.54945,2.95367 3.40847,6.16556 5.16271,10.03599 4.02053,8.87058 -0.88649,-0.90453 -3.52465,-4.83002 -5.61851,-8.3602 -1.82501,-3.07689 -2.62768,-4.198 -3.09155,-4.31805 -0.34459,-0.0892 -0.67405,-0.11461 -0.73215,-0.0565 -0.0581,0.0581 1.08341,2.49929 2.53672,5.42489 2.67814,5.39128 3.1972,6.66607 2.71431,6.66607 -0.56553,0 -6.6855,-10.39868 -7.34746,-12.48438 -0.0838,-0.26411 -0.38102,-0.4802 -0.66042,-0.4802 -0.4812,0 -0.47223,0.0802 0.1702,1.52135 1.64341,3.68644 3.51896,8.48699 3.69552,9.45886 l 0.1923,1.05833 -0.57997,-0.51618 c -0.64894,-0.57753 -3.76592,-6.74745 -5.15268,-10.19945 -0.68958,-1.71656 -1.03505,-2.26897 -1.45926,-2.3335 -0.6587,-0.10021 -0.69897,0.23082 -0.15581,1.28117 1.11146,2.14932 4.09795,10.1739 4.09795,11.01104 0,0.35015 -0.0707,0.36616 -0.40225,0.091 -0.49686,-0.41236 -3.76182,-7.04337 -4.88312,-9.91743 -1.3874,-3.55614 -1.39206,-3.56364 -2.37268,-3.83477 -0.50112,-0.13856 -0.9388,-0.2243 -0.97258,-0.19052 -0.0338,0.0338 1.04015,2.80246 2.38651,6.15264 2.61123,6.49748 2.87922,7.26535 2.5359,7.26535 -0.7512,0 -4.26326,-6.71994 -5.9767,-11.43578 -0.90371,-2.48729 -1.12522,-2.87034 -1.79779,-3.10885 -0.4219,-0.14962 -0.79772,-0.27203 -0.83513,-0.27203 -0.17568,0 0.406,1.64761 2.56334,7.26059 1.28312,3.33848 2.26573,6.13645 2.18355,6.21771 -0.51853,0.51276 -4.1307,-6.38104 -5.81456,-11.09705 -1.11292,-3.11692 -1.24987,-3.32778 -2.33455,-3.59407 -0.68377,-0.16786 -0.7487,-0.13237 -0.57312,0.31332 0.1089,0.27644 0.82989,2.34809 1.60216,4.60366 0.77229,2.25558 1.64047,4.69636 1.92929,5.42396 0.66955,1.68675 1.01647,3.27597 0.63534,2.91042 -1.05219,-1.00915 -4.29707,-8.06406 -5.61385,-12.20545 -0.54382,-1.71042 -0.68246,-1.91206 -1.48399,-2.15805 -0.48625,-0.14924 -0.88474,-0.19319 -0.88554,-0.0977 0,0.0955 0.35124,1.06664 0.78224,2.15804 1.79772,4.55216 4.24567,11.38452 4.23746,11.82709 -0.0291,1.57467 -3.56843,-5.3749 -5.71727,-11.22605 -1.14901,-3.12871 -1.36676,-3.52868 -2.05245,-3.77031 -0.42191,-0.14867 -0.84963,-0.27031 -0.95054,-0.27031 -0.20384,0 0.86352,3.15131 2.93385,8.66198 0.7524,2.00263 1.58801,4.22873 1.8569,4.94692 0.52303,1.39684 0.48242,1.74318 -0.14348,1.22372 -1.04492,-0.8672 -5.51937,-11.13922 -6.38702,-14.66265 -0.12972,-0.52682 -0.46357,-0.87198 -1.10101,-1.13832 -0.50315,-0.21024 -1.00933,-0.34625 -1.12479,-0.30226 -0.11549,0.044 0.34978,1.6278 1.03391,3.51957 0.68413,1.89177 1.85335,5.16599 2.59826,7.27604 0.74493,2.11005 1.4351,4.04617 1.53374,4.30247 0.13147,0.34174 0.0752,0.42611 -0.21074,0.31636 -0.79796,-0.3062 -5.23508,-10.14651 -6.41525,-14.22731 -0.31586,-1.09214 -0.61087,-1.60111 -1.0165,-1.75376 -0.31433,-0.11829 -0.60592,-0.12631 -0.64797,-0.0178 -0.0729,0.18814 1.61301,5.88608 3.54193,11.97048 0.49509,1.56165 0.90016,3.0457 0.90016,3.29785 0,2.35082 -4.91127,-9.71687 -6.22874,-15.30489 -0.12792,-0.54261 -0.39944,-0.76045 -1.2016,-0.96406 -0.7547,-0.19157 -1.03587,-0.18082 -1.03466,0.0395 0,0.16643 0.66403,2.26713 1.47355,4.66822 1.3885,4.11843 3.28729,10.42519 3.28729,10.91869 0,0.60174 -0.59389,-0.30654 -1.73318,-2.65075 -0.68951,-1.41867 -2.10093,-5.07022 -3.13653,-8.11455 -1.74305,-5.12406 -1.93794,-5.55351 -2.62417,-5.78225 -0.40769,-0.1359 -0.80335,-0.18502 -0.87923,-0.10915 -0.0759,0.0759 0.92813,3.33516 2.23112,7.24285 2.52336,7.56756 2.87885,8.81391 2.51397,8.81391 -0.53848,0 -2.808,-5.32834 -5.12054,-12.02188 -1.39739,-4.04468 -2.06605,-5.29753 -2.56243,-4.80115 -0.0873,0.0873 0.6917,2.74739 1.73122,5.91123 1.91071,5.81543 3.22977,10.19901 3.22977,10.73352 0,1.8143 -4.6408,-9.51011 -6.23644,-15.21811 -0.3673,-1.31391 -0.63334,-1.80754 -1.03183,-1.91461 -0.84047,-0.22583 -1.72757,-0.17616 -1.72757,0.0967 0,0.13653 1.01203,3.78572 2.24896,8.10932 2.10397,7.35426 2.59374,9.61386 2.00499,9.25 -0.13417,-0.0829 -0.50721,-0.95316 -0.82897,-1.93386 -0.32176,-0.98068 -0.67633,-1.90212 -0.78798,-2.04764 -0.51893,-0.67631 -4.2245,-12.49486 -4.2245,-13.47352 0,-0.42469 -0.97295,-0.94616 -1.76532,-0.94616 -0.28014,0 -0.35203,0.14506 -0.22945,0.46302 0.40629,1.05381 2.65068,9.43116 3.34931,12.50156 0.75866,3.3342 0.94488,4.81687 0.5466,4.3524 -0.59584,-0.6949 -3.91671,-11.01941 -5.14448,-15.99406 -0.33099,-1.34121 -0.43868,-1.48157 -1.37438,-1.79168 -0.5584,-0.18505 -1.07159,-0.28012 -1.14046,-0.21126 -0.11961,0.11962 1.10422,4.71187 2.48672,9.33111 0.62182,2.07762 1.68396,7.06704 1.68396,7.91037 0,1.12109 -0.64672,-0.38584 -2.19771,-5.12078 -2.08732,-6.3724 -2.98005,-9.29179 -3.39232,-11.09355 -0.31025,-1.35582 -0.33002,-1.37648 -1.60965,-1.68347 -0.71255,-0.17093 -1.36467,-0.24168 -1.44912,-0.15721 -0.1559,0.15589 0.35523,2.13342 1.94566,7.52765 0.95489,3.23869 2.30754,8.56151 2.59147,10.19766 0.65786,3.79124 -2.56585,-4.7358 -5.28633,-13.9828 -1.39329,-4.73587 -1.25828,-4.46403 -2.34455,-4.72093 -0.54245,-0.12829 -1.02433,-0.19012 -1.07087,-0.13741 -0.0927,0.10495 0.87886,5.69922 1.71672,9.88542 0.77295,3.86192 1.59451,9.19353 1.44039,9.34765 -0.27017,0.27014 -0.46921,-0.26085 -1.48841,-3.97041 -0.95875,-3.48952 -3.14278,-13.74813 -3.14278,-14.76194 0,-0.65549 -0.57737,-1.28172 -1.35403,-1.46863 l -0.69257,-0.16666 0.64045,2.86416 c 1.39774,6.25073 2.72907,13.67479 2.72907,15.21847 0,1.23596 -0.52197,-0.0397 -1.53837,-3.75967 -1.31249,-4.80366 -3.22413,-13.01815 -3.22413,-13.85437 0,-0.7426 -0.38306,-1.1094 -1.43404,-1.37318 -0.6826,-0.17132 -0.7475,-0.13632 -0.57388,0.30946 1.27563,3.27534 4.20782,21.15295 3.38611,20.64511 -0.32007,-0.19783 -0.93152,-2.61038 -2.02036,-7.97166 -1.61417,-7.948 -2.83721,-13.48893 -3.0181,-13.67346 -0.2962,-0.30213 -1.6314,-0.5542 -1.6314,-0.30799 0,0.12712 0.35587,1.80943 0.79084,3.73848 0.95645,4.24184 1.69082,8.25107 2.38514,13.0211 0.59603,4.09482 0.61188,4.31628 0.29475,4.12028 -0.3923,-0.24245 -1.80099,-5.76277 -3.21199,-12.58695 -0.73716,-3.56526 -1.47196,-7.1143 -1.63288,-7.88676 -0.24963,-1.1982 -0.41306,-1.45507 -1.11286,-1.74901 -0.45117,-0.1895 -0.89654,-0.30266 -0.98975,-0.25147 -0.0932,0.0512 -0.0132,0.77872 0.17798,1.61673 1.55139,6.80318 2.06383,9.22598 2.7627,13.06189 0.81039,4.448 1.02103,6.9128 0.55031,6.44019 -0.24276,-0.24376 -2.85221,-10.806 -4.93652,-19.98158 -0.42497,-1.87082 -0.52364,-2.04261 -1.49352,-2.60081 -0.57115,-0.32872 -1.10283,-0.53331 -1.1815,-0.45465 -0.0787,0.0787 0.11878,1.54668 0.43876,3.26227 1.03831,5.56667 2.34006,13.99524 2.53154,16.39111 0.43685,5.46585 -0.96576,0.0108 -3.70994,-14.42863 -1.16808,-6.14623 -1.4233,-6.87671 -2.41244,-6.90461 -0.16407,-0.005 -0.44654,-0.18701 -0.6277,-0.40529 -0.46455,-0.55974 -0.86,-0.49326 -0.66781,0.11226 0.4069,1.28206 1.86095,10.18881 2.40051,14.70441 0.43302,3.62392 0.49935,7.77919 0.10867,6.80636 -0.13295,-0.33108 -0.42667,-1.75124 -0.6527,-3.15592 -0.22604,-1.40468 -1.05082,-5.95583 -1.83285,-10.11367 -0.782,-4.15783 -1.50103,-8.05272 -1.59785,-8.65532 -0.15494,-0.96463 -1.26193,-2.51622 -1.56294,-2.19066 -0.11314,0.12236 2.10002,13.3142 2.33749,13.93305 0.22812,0.59443 0.99242,7.51129 0.84616,7.65755 -0.24686,0.24686 -0.64857,-0.8549 -1.31982,-3.61994 -0.84183,-3.46755 -2.35426,-10.98215 -3.08864,-15.34583 -0.7066,-4.19867 -0.64868,-4.02855 -1.61465,-4.74272 l -0.81825,-0.60497 0.15965,0.75562 c 0.27535,1.30307 1.48056,10.37971 1.88704,14.21148 0.44574,4.20195 0.51323,8.48025 0.12324,7.8129 -0.19222,-0.32897 -2.3237,-14.13616 -3.57852,-23.18083 -0.13541,-0.97621 -0.51369,-1.63847 -0.77427,-1.35558 -0.0469,0.051 0.0693,1.58092 0.25818,3.39993 0.49868,4.8014 1.13617,12.14224 1.33262,15.34584 0.12338,2.01185 0.0903,2.70177 -0.1198,2.50129 -0.1596,-0.15226 -0.40793,-0.92617 -0.55187,-1.71979 -0.40457,-2.23069 -1.53379,-11.22882 -2.0855,-16.61808 l -0.49715,-4.85637 -0.9757,-0.96446 c -0.91946,-0.90885 -0.96803,-0.92632 -0.84222,-0.30301 0.7889,3.90856 1.62433,20.66422 0.99533,19.96281 -0.22712,-0.25325 -0.70024,-3.39818 -0.95334,-6.33677 -0.87678,-10.17951 -1.56533,-15.91319 -1.96112,-16.33061 -0.40011,-0.42196 -0.43201,0.18378 -0.43201,8.20209 0,5.84857 -0.0949,8.81802 -0.29253,9.15183 -0.24921,0.42101 -0.31726,0.30355 -0.45982,-0.79375 -0.092,-0.70834 -0.29493,-5.21695 -0.45093,-10.01914 l -0.2836,-8.73125 -0.79235,-1.19063 -0.79237,-1.19062 0.17737,2.83006 c 0.25125,4.00882 0.28723,14.94602 0.05,15.18349 -0.39942,0.39974 -0.50488,-0.18705 -0.81167,-4.51591 -0.17206,-2.42777 -0.40211,-4.32471 -0.51125,-4.21543 -0.10914,0.10928 -0.19844,0.58854 -0.19844,1.06502 0,0.47648 -0.11906,0.93992 -0.26458,1.02985 -0.17373,0.10738 -0.26784,-2.22652 -0.27411,-6.7974 -0.009,-6.78678 -0.0241,-6.9788 -0.59531,-7.67512 l -0.58579,-0.71418 -0.0257,6.55434 c -0.014,3.60488 -0.1208,6.90283 -0.23706,7.32876 l -0.21138,0.77444 -0.21592,-0.92605 c -0.34174,-1.46553 -0.78748,-8.81828 -0.7479,-12.33684 0.0382,-3.39785 -0.0156,-3.60898 -1.40452,-5.51435 l -0.77747,-1.06651 0.15605,1.4552 c 0.4378,4.08282 1.23166,16.02812 1.47703,22.225 0.51965,13.12454 0.1115,54.27369 -0.64338,64.86568 -0.17685,2.48131 0.17645,4.7108 3.01185,19.00724 0.70713,3.56526 1.54485,7.79198 1.86167,9.39271 2.68758,13.57984 2.65226,13.46382 6.44112,21.16666 1.64631,3.34698 3.92255,8.18375 5.0583,10.74836 1.58626,3.58185 2.49116,5.23808 3.90306,7.14375 3.7929,5.11939 6.76835,9.4253 7.88842,11.41571 0.63624,1.13067 2.21736,3.39286 3.51356,5.02708 3.21333,4.05133 3.89292,5.07214 3.89292,5.84769 0,1.59192 -0.80415,1.11741 -5.52411,-3.25956 -2.30444,-2.13696 -3.60341,-3.62955 -5.53815,-6.36365 -3.51038,-4.9607 -5.22684,-7.26681 -6.85612,-9.2115 -1.94844,-2.32561 -3.4454,-4.58626 -4.20661,-6.35262 -0.35589,-0.82584 -0.75856,-1.73963 -0.89479,-2.03067 -0.13627,-0.29105 -0.73793,-1.66026 -1.33705,-3.04271 -0.59912,-1.38245 -1.99189,-4.23995 -3.09502,-6.35 -4.72239,-9.03293 -4.98361,-9.75543 -7.07921,-19.57917 -0.89065,-4.17512 -2.50238,-11.43002 -4.11462,-18.52083 -0.41357,-1.81901 -1.18838,-5.33136 -1.72175,-7.80521 -0.53337,-2.47385 -1.05217,-4.65095 -1.15287,-4.83801 -0.10819,-0.20093 -0.5684,0.66511 -1.12485,2.11667 -0.51797,1.35122 -1.48278,3.84659 -2.144,5.54529 -1.672,4.29538 -3.03416,6.52095 -3.60063,5.88285 -0.25559,-0.28792 1.57475,-7.02365 3.55224,-13.07242 2.15498,-6.59162 2.23105,-7.04136 2.23719,-13.22917 0.003,-2.98318 0.12734,-7.97031 0.27643,-11.0825 0.14907,-3.11221 0.22762,-5.70198 0.17452,-5.75508 -0.0531,-0.0531 -1.12823,1.15382 -2.38924,2.682 -1.261,1.52818 -2.47933,2.7785 -2.70737,2.7785 -0.57537,0 -0.40974,-0.43363 2.0148,-5.27498 2.67578,-5.34302 3.12079,-6.85411 3.43178,-11.65302 0.50646,-7.81577 0.28265,-23.65395 -0.54973,-38.89909 -0.4223,-7.73449 -0.51329,-7.88369 -1.53302,-2.51354 -0.46974,2.47386 -0.96171,4.97417 -1.09323,5.55625 -0.13153,0.58209 -0.5478,2.9038 -0.92506,5.15938 -0.37725,2.25557 -0.98484,5.64885 -1.35017,7.54062 -0.74679,3.867 -1.76213,11.63518 -2.24788,17.19792 -0.19748,2.26167 -0.35078,9.88629 -0.3937,19.57916 -0.0386,8.73125 -0.1997,17.66094 -0.35795,19.84375 -0.15822,2.18282 -0.46734,6.76672 -0.68689,10.18646 -0.21955,3.41974 -0.51051,7.05115 -0.64659,8.06979 -0.13604,1.01865 -0.44069,3.87615 -0.67698,6.35 -0.28811,3.01654 -0.73227,5.71786 -1.34859,8.20209 -2.70383,10.89847 -4.83478,18.66259 -5.43176,19.79062 -0.63675,1.20314 -1.59377,2.2566 -2.32529,2.5596 -0.6195,0.2566 -0.90575,0.23614 -1.58078,-0.11292 -1.15094,-0.59518 -3.57555,-0.62913 -4.20566,-0.0589 -0.2695,0.24392 -0.64799,0.44347 -0.84105,0.44347 -0.58352,0 -2.09992,-1.30029 -2.7885,-2.39109 -0.63376,-1.00396 -2.20988,-6.21871 -3.95545,-13.08703 -0.4808,-1.89177 -1.25597,-4.86834 -1.72264,-6.61459 -0.46668,-1.74625 -0.95105,-4.30609 -1.07641,-5.68854 -0.12536,-1.38245 -0.40492,-4.41854 -0.62127,-6.74687 -0.53901,-5.80102 -1.41168,-16.15877 -1.7395,-20.64637 -0.14917,-2.04218 -0.27122,-9.79355 -0.27122,-17.22527 0,-18.26068 -0.45707,-26.01493 -2.22057,-37.67343 -1.16028,-7.67051 -4.82852,-25.70417 -4.89622,-24.07056 -0.0151,0.36381 -0.14163,1.91162 -0.28123,3.43959 -0.13959,1.52797 -0.45209,7.06437 -0.69445,12.30312 -0.4958,10.71794 -0.40333,30.1986 0.15692,33.05702 0.42268,2.15656 1.52842,4.89267 3.77026,9.32934 1.04415,2.06645 1.81071,3.84495 1.70342,3.95224 -0.25585,0.25585 -2.09548,-1.56798 -3.75584,-3.72359 -0.72761,-0.94464 -1.41719,-1.72188 -1.53239,-1.7272 -0.1152,-0.005 -0.13525,0.85352 -0.0445,1.90855 0.0907,1.05502 0.2562,6.38307 0.36772,11.8401 l 0.20275,9.92187 1.10209,3.43959 c 3.13047,9.76987 4.90689,15.98774 4.64304,16.25158 -0.32419,0.32419 -1.10744,-0.55105 -2.01128,-2.24745 -0.9407,-1.76559 -3.37801,-7.68191 -4.40674,-10.69684 l -0.49652,-1.45521 -0.3261,1.5875 c -0.28088,1.36729 -3.51824,15.95461 -4.66814,21.03438 -0.21413,0.94588 -0.79754,3.62479 -1.29646,5.95312 -1.74279,8.13282 -2.02026,9.28156 -2.97194,12.30312 -0.68111,2.16258 -1.98974,5.07085 -4.52405,10.05417 -1.96117,3.8563 -4.06908,8.28659 -4.68427,9.84507 -1.44147,3.65175 -2.0235,4.61843 -4.77292,7.92707 -1.24912,1.50321 -3.44895,4.39994 -4.888547,6.43724 -4.504716,6.375 -4.800176,6.73269 -8.276404,10.01926 -3.453871,3.26549 -4.283922,3.8925 -4.873122,3.68126 z"
       id="path1148" />
  </g>
</svg>
