<?xml version="1.0" encoding="UTF-8" standalone="no"?>
<!-- Created with Inkscape (http://www.inkscape.org/) -->

<svg
   version="1.1"
   id="svg2496"
   width="2306.4622"
   height="1000.1938"
   viewBox="0 0 2306.4622 1000.1938"
   xmlns="http://www.w3.org/2000/svg"
   xmlns:svg="http://www.w3.org/2000/svg">
  <defs
     id="defs2500" />
  <g
     id="g2502"
     transform="translate(-446.16428,-537.12835)">
    <path
       style="fill:#000000"
       d="m 1568.1592,1536.0858 c -6.3777,-2.5298 -12.6223,-11.5877 -19.5665,-28.3816 -3.8038,-9.1991 -9.6444,-27.2171 -10.8591,-33.5 -0.3722,-1.925 -6.7182,-15.875 -14.1022,-31 -10.7559,-22.0319 -14.2494,-30.2838 -17.5694,-41.5 -2.2792,-7.7 -5.6552,-17.375 -7.5022,-21.5 -4.5761,-10.2198 -13.9998,-50.1375 -17.8239,-75.5 -5.2981,-35.1376 -8.1787,-77.7249 -6.6362,-98.1081 1.6406,-21.6776 1.3009,-22.8418 -2.8863,-9.8919 -2.7865,8.6181 -10.3537,26.4348 -13.8035,32.5 -6.3817,11.2197 -18.8127,25.171 -30.2507,33.9503 -10.6243,8.1548 -15.5081,11.1353 -42,25.6323 -31.6769,17.3342 -38.347,20.6076 -52.9529,25.9865 -25.9485,9.556 -45.4741,10.0942 -73.3321,2.0213 -20.006,-5.7976 -39.0971,-5.6864 -75.662,0.4406 -38.8564,6.511 -71.1895,8.0668 -101.553,4.8867 -26.1453,-2.7384 -76.7942,-20.4489 -108.74036,-38.0236 -25.00931,-13.7584 -44.66604,-29.8716 -50.1737,-41.1289 -4.46338,-9.1228 -5.07356,-22.8022 -1.68521,-37.7799 4.30834,-19.0445 16.12513,-38.754 35.96355,-59.9845 l 10.23186,-10.9499 -12.70607,4.5074 c -29.46732,10.4534 -71.76097,21.021 -93.58641,23.3837 -13.53118,1.4649 -35.84207,0.6015 -48.0948,-1.8612 -29.7531,-5.98 -75.17516,-24.5698 -143.70889,-58.8156 -34.12457,-17.0517 -42.67952,-21.9147 -57.93615,-32.9334 -40.33915,-29.1339 -69.92794,-54.841 -123.62623,-107.40801 -30.51246,-29.86965 -41.4441,-44.72611 -41.4325,-56.30816 0.006,-6.23022 1.91003,-9.60109 11.32785,-20.0572 9.37537,-10.40899 24.10925,-20.66617 55.81701,-38.85771 16.49159,-9.46163 74.23905,-32.6128 104.86603,-42.04117 40.07124,-12.33573 70.28138,-19.09255 114.48399,-25.60554 21.08788,-3.10717 68.36576,-7.37743 95,-8.58064 6.6,-0.29815 15.15,-0.75201 19,-1.00858 9.88382,-0.65865 114.13648,-0.60352 131,0.0693 22.71263,0.90614 174.12013,3.4659 205.00583,3.4659 81.9901,0 172.5823,5.68251 224.1102,14.05761 19.7152,3.2044 50.8336,9.68272 62.3004,12.96987 9.0026,2.58071 10.7179,2.8168 11.5761,1.59324 11.9354,-17.01692 17.9006,-22.21567 34.0713,-29.69321 10.0374,-4.64146 11.4362,-5.58841 11.4362,-7.74189 0,-4.85699 2.4542,-10.47447 6.5818,-15.06539 l 4.2042,-4.6761 -2.842,-3.18075 c -5.5316,-6.19101 -7.5103,-19.62597 -4.4221,-30.02529 2.056,-6.92312 9.666,-15.17649 17.6912,-19.18672 3.3585,-1.67825 6.747,-3.05137 7.53,-3.05137 2.33,0 1.0926,-1.6538 -5.2431,-7.00781 -12.9323,-10.92843 -40.5666,-28.41326 -56.2366,-35.58215 -12.8802,-5.89263 -46.035,-18.04558 -80.5818,-29.53748 -39.4524,-13.12372 -75.8791,-26.71071 -107.5432,-40.11304 -13.0011,-5.50293 -26.6399,-11.2664 -30.3084,-12.80772 -18.7513,-7.87825 -46.9787,-15.90742 -64.8474,-18.44555 -13.6117,-1.93345 -17.9826,-3.1645 -17.9826,-5.06475 0,-5.34177 33.552,-1.74196 62,6.65201 13.981,4.12529 23.7413,7.89749 62.8767,24.30078 15.4196,6.46302 59.0277,21.93038 93.1233,33.02991 12.925,4.20763 31.825,10.37372 42,13.70243 53.3424,17.45076 76.2685,28.9217 106.5641,53.31851 l 10.9359,8.80657 0.265,-3.87585 c 1.556,-22.7531 9.5085,-92.55288 12.3433,-108.33659 2.9717,-16.54669 5.5642,-20.45772 10.3729,-15.64895 2.4503,2.45027 5.5072,11.035 5.5341,15.54118 0.01,1.41268 0.4011,3.17722 0.8725,3.92122 0.5548,0.87549 1.1042,-0.95396 1.5574,-5.18563 0.7395,-6.90515 3.8772,-14.32828 6.8048,-16.09862 4.6922,-2.83739 7.5596,4.45376 10.6724,27.13764 4.8406,35.27328 6.0273,45.04007 8.0552,66.29389 1.1808,12.375 2.4563,25.56799 2.8346,29.31776 l 0.6878,6.81776 10,-8.67451 c 27.7833,-24.10061 56.2715,-37.40286 130.5,-60.93547 56.6368,-17.95554 89.9428,-30.03606 142,-51.5053 14.8548,-6.12637 36.0543,-13.16769 48.3636,-16.0638 19.5803,-4.60679 43.2154,-6.37357 45.6716,-3.41406 2.1892,2.63787 -0.188,3.57302 -14.19,5.582 -27.4558,3.93931 -45.4641,9.41826 -80.8368,24.59427 -35.4687,15.21719 -57.4693,23.6893 -97.776,37.65203 -19.6528,6.80798 -37.5324,12.94051 -39.7324,13.62785 -3.5334,1.10393 -34.5999,12.42777 -54,19.68322 -20.9836,7.84763 -47.0162,23.06699 -68.8924,40.27635 -7.2708,5.71975 -8.5473,7.11187 -7,7.6342 15.265,5.15301 23.2942,13.14881 26.3845,26.27475 2.1769,9.24661 -0.577,21.86885 -6.0402,27.68413 -1.9419,2.06708 -1.9368,2.08886 1.1753,5.01246 3.7462,3.51921 7.837,11.77617 7.8954,15.93636 0.04,2.8299 0.7107,3.32436 11.8331,8.72064 13.042,6.32759 21.5997,13.24973 29.8539,24.14816 2.5539,3.37216 4.7059,6.23552 4.7821,6.36302 0.076,0.12749 6.6343,-1.53301 14.5734,-3.69002 20.9025,-5.67902 50.5314,-11.16059 78.4349,-14.511 37.9492,-4.55662 35.5243,-4.29171 50.5,-5.51666 47.3664,-3.87437 100.6985,-5.65748 211,-7.05459 46.475,-0.58867 100.25,-1.48888 119.5,-2.00048 19.25,-0.5116 60.425,-0.93445 91.5,-0.93968 106.4683,-0.0179 176.8904,6.08553 242,20.97398 21.7237,4.96751 28.9242,6.90306 52.5,14.11237 31.9144,9.7592 83.3454,30.6394 107,43.44037 31.1988,16.88359 53.5782,33.73171 63,47.42895 2.542,3.69554 2.9948,5.2898 2.9659,10.44314 -0.044,7.85733 -3.5775,14.60713 -15.3194,29.26368 -23.7304,29.62082 -102.3582,100.73563 -145.4137,131.51923 -22.383,16.0034 -48.8301,30.43 -97.174,53.0074 -79.42,37.0906 -101.8276,44.2154 -139.0588,44.2154 -18.6319,0 -28.797,-1.3242 -50.5,-6.5788 -14.6903,-3.5566 -50.2171,-13.6467 -57,-16.1888 -3.575,-1.3398 -8.8862,-3.1433 -11.8028,-4.0079 l -5.3028,-1.572 11.5602,12.1321 c 17.402,18.263 27.786,34.6351 34.1171,53.7915 2.5028,7.5729 2.8157,9.9773 2.8687,22.0436 0.059,13.4733 0.042,13.5786 -3.3417,20.2533 -4.0607,8.0105 -16.5274,20.5574 -28.3582,28.5408 -21.0142,14.1803 -66.3361,35.2701 -92.496,43.0416 -24.9617,7.4156 -37.9143,9.2229 -66.2018,9.2373 -27.9293,0.014 -46.0726,-1.8197 -91.462,-9.2449 -19.8235,-3.2429 -35.9903,-2.3885 -57.0807,3.0166 -21.6709,5.5539 -31.175,6.652 -44.5,5.1417 -13.3561,-1.5138 -15.9184,-2.1873 -30.5,-8.0165 -13.6904,-5.473 -24.8127,-10.8239 -42,-20.2061 -6.6,-3.6028 -18.525,-10.0288 -26.5,-14.2801 -21.9574,-11.7048 -36.2656,-23.1887 -47.1725,-37.8611 -9.5501,-12.8471 -14.6571,-23.1169 -22.9579,-46.1662 l -2.881,-8 0.6082,19.5 c 1.2875,41.2775 -3.8632,92.9331 -13.112,131.5 -1.8466,7.7 -4.5685,19.175 -6.0487,25.5 -1.4802,6.325 -4.1595,14.65 -5.954,18.5 -1.7945,3.85 -5.136,13.3 -7.4256,21 -3.3583,11.2941 -6.6543,19.0253 -17.0529,40 -7.0895,14.3 -13.3623,28.1141 -13.9394,30.6981 -1.8383,8.2302 -8.6755,27.9503 -13.4531,38.8019 -10.3823,23.5821 -21.5908,28.9304 -41.1565,19.6387 l -7.5664,-3.5932 -3.6941,2.2974 c -8.5651,5.3266 -20.279,7.2816 -27.1941,4.5387 z"
       id="path2736" />
  </g>
</svg>
