<?xml version="1.0" encoding="UTF-8" standalone="no"?>
<!-- Created with Inkscape (http://www.inkscape.org/) -->

<svg
   width="534.8504mm"
   height="257.06366mm"
   viewBox="0 0 534.8504 257.06366"
   version="1.1"
   id="svg3040"
   xmlns="http://www.w3.org/2000/svg"
   xmlns:svg="http://www.w3.org/2000/svg">
  <defs
     id="defs3037" />
  <g
     id="layer1"
     transform="translate(-0.93394423,-37.098099)">
    <path
       style="fill:#000000;stroke-width:0.264583"
       d="m 182.22795,294.02437 c -8.7231,-0.70104 -17.81681,-3.56119 -28.83959,-9.07064 -10.14865,-5.07253 -20.56153,-12.67502 -27.00989,-19.72003 -6.01746,-6.57423 -9.49666,-11.7775 -14.33894,-21.44445 -4.70819,-9.39924 -5.95474,-13.75307 -5.96023,-20.81731 -0.004,-5.44101 0.51878,-7.88367 2.60597,-12.17083 2.54611,-5.22979 6.17148,-10.25905 11.23232,-15.5819 1.66973,-1.75618 7.196,-6.7559 11.25039,-10.17843 l 1.05372,-0.8895 -0.79375,0.18384 c -12.18153,2.82146 -23.7423,3.48513 -31.882293,1.83028 -6.645426,-1.35101 -13.441518,-4.87788 -20.91967,-10.85639 -2.35413,-1.88204 -8.686257,-8.41357 -11.249482,-11.60373 -6.46554,-8.04696 -9.86353,-13.18498 -15.36372,-23.23116 -1.98705,-3.62937 -8.96317,-14.03075 -11.74696,-17.51468 -2.59409,-3.24652 -8.65496,-9.32366 -12.28982,-12.32282 -8.39324,-6.92532 -11.04312,-9.43299 -15.03085,-14.224218 -2.83218,-3.40283 -3.8843297,-4.870693 -6.0467797,-8.435909 -3.58288,-5.907053 -4.95534,-9.349351 -5.69172,-14.275487 -0.52241,-3.494768 -0.31396,-5.866397 0.79621,-9.058675 1.85065,-5.321543 7.34316,-10.474904 17.2417497,-16.177135 9.40783,-5.419513 22.53752,-9.712557 33.61791,-10.992122 5.79004,-0.668634 17.674237,-0.412245 24.289844,0.524031 8.597101,1.216705 17.826781,3.382589 25.303701,5.937898 18.13788,6.198788 58.02654,27.153142 89.16459,46.840025 9.80522,6.199309 25.07215,15.349662 32.94062,19.743212 1.89177,1.05632 4.86137,2.78019 6.5991,3.83082 1.73776,1.05063 4.53573,2.60118 6.21771,3.44566 3.76166,1.88862 7.27901,3.91204 9.5055,5.46821 0.92665,0.64767 1.70776,1.14199 1.73578,1.0985 0.028,-0.0435 0.4433,-0.70444 0.92286,-1.46879 1.12535,-1.79365 3.09909,-3.55743 4.9984,-4.46672 0.82834,-0.39656 1.53739,-0.74086 1.57568,-0.7651 0.0383,-0.0242 -0.12309,-0.50534 -0.35865,-1.06909 -0.60055,-1.43729 -0.39153,-3.49632 0.49015,-4.82863 0.82475,-1.24629 3.0073,-2.4297 4.48103,-2.4297 0.87027,0 1.0064,-0.0813 1.0064,-0.60133 0,-1.82916 -4.76406,-7.50738 -8.63502,-10.291994 -1.14435,-0.823177 -4.81904,-3.073538 -8.16602,-5.000802 -3.34698,-1.927265 -7.15698,-4.163872 -8.46667,-4.97024 -4.97356,-3.06219 -9.5568,-7.008768 -12.0586,-10.38352 -0.73493,-0.991381 -1.73715,-2.050264 -2.2271,-2.35308 -2.06372,-1.275448 -3.99973,-4.493368 -4.27231,-7.101115 -0.31829,-3.045216 0.86921,-3.535016 3.15304,-1.300519 1.87876,1.838168 3.02297,4.19028 3.36556,6.918332 0.28823,2.29543 0.48431,2.640775 3.10959,5.476373 2.8884,3.119829 8.231,6.829009 16.73503,11.618552 8.63023,4.86062 11.00725,6.513957 14.32078,9.960813 1.64957,1.71591 3.73875,4.6107 4.06151,5.62762 0.12904,0.40658 0.34066,0.35756 1.92768,-0.44656 1.72477,-0.8739 1.86566,-0.90011 4.33277,-0.80568 2.29163,0.0877 2.68129,0.17918 3.84529,0.90277 l 1.29524,0.80518 1.01783,-1.78509 c 1.28677,-2.25681 4.60558,-5.84987 7.395,-8.006094 2.34749,-1.814603 4.25349,-2.987088 11.28098,-6.939542 8.58253,-4.827048 12.97411,-8.045 16.63259,-12.187645 1.74955,-1.981083 1.75704,-1.996313 2.05015,-4.178046 0.47683,-3.549237 2.37654,-6.942822 4.43272,-7.918555 1.24097,-0.588873 1.6964,-0.343885 1.90135,1.022749 0.20547,1.370216 0,2.428325 -0.85029,4.353002 -0.82479,1.869641 -1.73593,3.045031 -3.01826,3.893637 -0.56865,0.376322 -1.71683,1.529453 -2.55151,2.562513 -4.1511,5.13773 -7.70893,7.874426 -17.93529,13.795915 -3.20146,1.853776 -6.59474,3.820821 -7.54062,4.371207 -3.79608,2.208848 -8.19558,6.255619 -10.35151,9.521569 -1.69145,2.56233 -1.67476,3.23004 0.087,3.48015 1.78279,0.25311 3.31925,1.20759 4.10663,2.55112 0.59642,1.01776 0.65468,1.34951 0.53464,3.04555 -0.0741,1.04687 -0.21384,2.09273 -0.31052,2.32414 -0.13427,0.32133 0.22077,0.61599 1.5026,1.24702 1.99422,0.98175 3.92306,2.80351 5.0129,4.73458 l 0.78994,1.39969 1.49699,-1.16496 c 0.82333,-0.64073 4.71167,-2.91684 8.64073,-5.05803 3.92907,-2.14119 7.44141,-4.09831 7.80521,-4.34916 0.3638,-0.25085 2.50693,-1.50312 4.7625,-2.78282 9.46319,-5.36897 37.15044,-21.970845 38.36458,-23.004239 0.72647,-0.61831 21.07102,-12.788407 26.25122,-15.70346 20.89798,-11.75989 43.96108,-23.137737 56.28918,-27.769459 6.30801,-2.369947 15.66336,-4.894392 22.30014,-6.017466 6.75465,-1.143019 10.60373,-1.496327 17.95219,-1.647836 9.37008,-0.193193 14.3842,0.320659 22.7281,2.329207 14.85308,3.575436 31.65388,12.686908 37.30316,20.230372 2.56246,3.421652 3.87188,7.63149 3.61656,11.627476 -0.28784,4.505055 -1.38417,8.268589 -3.68567,12.652584 -5.07992,9.676373 -10.19252,15.67765 -21.22676,24.916371 -6.53518,5.47177 -11.2133,10.05973 -14.5702,14.28938 -3.08806,3.89091 -10.11799,14.6001 -12.72114,19.37901 -7.15852,13.14171 -17.77119,26.54397 -26.58057,33.56739 -2.45243,1.95524 -7.76817,5.35066 -10.81871,6.91042 -5.90452,3.01904 -14.06501,4.46846 -22.48104,3.99295 -4.01153,-0.22665 -13.31507,-1.52466 -16.54386,-2.30816 -1.16353,-0.28234 -2.15337,-0.47549 -2.19964,-0.42921 -0.0463,0.0463 0.47543,0.54288 1.15935,1.10358 7.10615,5.82571 11.40306,10.00439 15.35583,14.9333 3.47583,4.33416 4.48464,5.84391 6.28145,9.40056 2.11741,4.19128 2.82514,6.96398 3.0063,11.7781 0.28305,7.52155 -0.99838,12.32493 -5.91971,22.18976 -4.83716,9.69608 -8.23222,14.75343 -14.43939,21.50915 -4.25974,4.63613 -9.75231,9.21797 -15.81304,13.19101 -6.50647,4.26524 -9.64546,5.97731 -16.82647,9.17752 -7.47916,3.33306 -12.89973,5.01028 -19.47513,6.02597 -4.23169,0.65365 -15.39634,0.66632 -21.37756,0.0243 -2.4011,-0.25776 -4.54422,-0.51819 -4.7625,-0.57878 -0.21828,-0.0606 -0.90538,-0.18174 -1.52689,-0.26929 -1.83128,-0.25794 -6.14696,-1.79105 -8.07167,-2.8674 -7.02146,-3.92662 -10.89916,-8.94238 -14.86902,-19.23288 -1.53157,-3.97004 -3.36172,-11.61859 -3.97989,-16.63271 -0.0788,-0.63939 -0.1877,-1.2347 -0.24194,-1.32292 -0.0542,-0.0882 -0.17229,-0.87479 -0.26233,-1.74791 -0.09,-0.87313 -0.21855,-1.94469 -0.28557,-2.38125 -0.067,-0.43657 -0.18706,-1.50813 -0.26675,-2.38125 -0.0797,-0.87313 -0.25686,-2.59953 -0.39367,-3.83646 -0.27946,-2.52653 -0.3877,-3.77246 -0.80447,-9.26042 -0.80081,-10.54449 -2.48393,-23.14384 -4.22934,-31.6595 -1.739,-8.48441 -5.43502,-19.50918 -7.25945,-21.65404 -0.44336,-0.52121 -0.4476,-0.52131 -0.28173,-0.007 0.0926,0.28735 0.35452,2.01375 0.58198,3.83646 0.53403,4.27875 0.50866,10.3027 -0.0525,12.46824 -0.38431,1.48311 -0.38225,1.93575 0.0249,5.49147 0.70408,6.14776 0.34234,10.63726 -1.10242,13.68186 -0.39838,0.83953 -0.41066,1.14862 -0.10906,2.74695 0.73417,3.89089 -0.0613,10.69317 -1.55337,13.28379 -0.44764,0.77721 -0.47836,1.09567 -0.25135,2.60525 0.56412,3.75155 -0.3311,8.86211 -2.06113,11.76631 -0.90903,1.52601 -0.94213,1.66822 -0.77743,3.33978 0.34375,3.4885 -1.0618,7.65103 -3.47588,10.2939 -1.1584,1.26821 -1.55062,1.91871 -1.83459,3.04271 -0.0367,0.14552 -0.12679,0.50271 -0.20008,0.79375 -0.98981,3.93076 -2.80885,6.42155 -5.66653,7.7592 -1.3744,0.64333 -1.78694,0.70482 -4.6822,0.69771 -2.85319,-0.007 -3.32571,-0.0775 -4.66196,-0.69623 -2.97498,-1.37739 -4.4776,-3.4232 -5.79366,-7.8881 -0.46437,-1.57541 -0.84611,-2.26684 -1.86997,-3.38712 -2.40546,-2.63197 -3.74356,-6.54047 -3.64268,-10.64016 0.0461,-1.87463 -0.0209,-2.19472 -0.64807,-3.09989 -1.62541,-2.34545 -2.43589,-6.25438 -2.2288,-10.74936 0.14275,-3.09787 0.12597,-3.23093 -0.58703,-4.65812 -1.53844,-3.0794 -2.0529,-8.42016 -1.20115,-12.46929 0.38539,-1.83201 0.37978,-1.94265 -0.1432,-2.82904 -1.40469,-2.38078 -1.82948,-7.11235 -1.19081,-13.26393 0.38518,-3.70999 0.39915,-4.51537 0.0964,-5.55625 -0.44013,-1.51324 -0.45463,-9.64931 -0.022,-12.32983 0.16442,-1.01865 0.36635,-2.50693 0.44869,-3.30729 0.1407,-1.36728 0.12414,-1.42324 -0.27417,-0.92605 -1.44631,1.80539 -4.43973,10.22161 -6.30507,17.72709 -1.47471,5.93369 -3.53309,18.42178 -3.99037,24.20937 -0.30207,3.8232 -0.42021,5.18062 -0.67929,7.80521 -0.14367,1.45521 -0.43198,4.43177 -0.64074,6.61458 -0.20875,2.18282 -0.49813,4.98078 -0.64309,6.21771 -0.14494,1.23693 -0.38833,3.43958 -0.54087,4.89479 -0.63264,6.03597 -1.11871,9.61451 -1.44933,10.67062 -0.0761,0.24302 -0.19545,0.8586 -0.26527,1.36792 -0.30509,2.22592 -1.66555,7.27703 -3.06422,11.37709 -0.93665,2.74561 -3.4847,7.90683 -5.00465,10.13724 -1.86854,2.74193 -4.97546,6.00499 -6.98248,7.33341 -3.88012,2.56817 -8.71877,4.35184 -13.53916,4.99094 -5.91685,0.78443 -16.78318,1.20708 -21.43125,0.83354 z"
       id="path3182" />
  </g>
</svg>
