<?xml version="1.0" encoding="UTF-8" standalone="no"?>
<!-- Created with Inkscape (http://www.inkscape.org/) -->

<svg
   width="630.68097mm"
   height="286.54996mm"
   viewBox="0 0 630.68097 286.54996"
   version="1.1"
   id="svg1568"
   xmlns="http://www.w3.org/2000/svg"
   xmlns:svg="http://www.w3.org/2000/svg">
  <defs
     id="defs1565" />
  <g
     id="layer1"
     transform="translate(135.18604,-112.65412)">
    <path
       style="fill:#000000;stroke-width:0.264583"
       d="m 177.07347,399.17886 c -0.82413,-0.15972 -2.90307,-1.78734 -4.08295,-3.19661 -0.82219,-0.98198 -3.98685,-6.75085 -3.98685,-7.26758 0,-0.0525 -0.78605,-1.45002 -1.7468,-3.10552 -4.66085,-8.03127 -5.43608,-10.08665 -6.32445,-16.76828 -1.09101,-8.2055 -1.24819,-10.24046 -1.25693,-16.27188 -0.009,-6.33105 0.27051,-9.59778 1.3706,-16.00729 0.27474,-1.60073 0.58049,-3.50573 0.67948,-4.23333 0.099,-0.72761 0.63513,-3.64464 1.19147,-6.48229 2.05824,-10.49827 2.26877,-11.9126 2.65845,-17.85938 0.52316,-7.98405 0.0658,-15.12318 -1.33056,-20.76979 -0.72978,-2.95098 -2.51032,-8.61783 -3.49155,-11.1125 -0.6871,-1.74681 -1.25246,-3.04814 -3.43191,-7.89949 -1.4977,-3.33386 -2.83969,-7.85214 -3.26943,-11.00762 -0.12001,-0.88141 -0.2495,-1.18548 -0.39431,-0.92604 -0.11858,0.21245 -1.46807,3.72003 -2.99886,7.79461 -3.34426,8.90156 -4.43908,11.69949 -6.21192,15.875 -1.75257,4.12778 -5.39231,11.50065 -6.4018,12.96791 -0.43532,0.63269 -0.79148,1.23148 -0.79148,1.33063 0,0.284 -3.36595,5.10087 -4.89177,7.00042 -1.79621,2.23616 -5.81174,6.2484 -8.18335,8.17668 -9.71169,7.89625 -23.79226,13.16215 -33.83164,12.65248 -2.470547,-0.12541 -3.675803,-0.35721 -7.200529,-1.38483 -6.880093,-2.0058 -8.554349,-2.31748 -12.435416,-2.31497 -1.891771,0 -5.16599,0.22082 -7.276042,0.48797 -5.14404,0.65127 -15.088309,0.66048 -19.976042,0.0185 -12.805198,-1.68195 -22.557001,-5.47507 -37.0066656,-14.39438 -1.765501,-1.08979 -4.102968,-2.51922 -5.194374,-3.17651 -3.619117,-2.17961 -9.013397,-5.8256 -9.525,-6.43795 -0.07276,-0.0871 -0.727604,-0.603 -1.455208,-1.14646 -3.2228244,-2.4072 -6.8526354,-6.53339 -8.3977274,-9.54612 -2.033717,-3.9655 -2.11532,-10.05013 -0.200742,-14.96785 2.522281,-6.47863 6.883355,-11.06732 15.5282924,-16.33873 6.924791,-4.22253 25.0936116,-11.66416 38.8351856,-15.90622 2.906067,-0.89711 5.346849,-1.69969 5.423959,-1.78351 0.141464,-0.15378 -4.819624,0.0767 -7.268136,0.33769 -6.669582,0.71085 -19.631869,2.89851 -24.8708326,4.19747 -4.770133,1.18271 -10.25429699,2.40746 -20.9020834,4.66794 -6.48893,1.37757 -11.22345,1.95127 -16.007294,1.93966 -4.87066,-0.0118 -7.18238,-0.34094 -11.1125,-1.58208 -5.4136,-1.70963 -9.08391,-3.91541 -16.55609,-9.94988 -5.68813,-4.59369 -7.99609,-6.27806 -14.85925,-10.84439 -5.49734,-3.6576 -5.71464,-3.81144 -11.53392,-8.16627 -6.56939,-4.91617 -15.07829,-13.72823 -21.486925,-22.25251 -0.82386,-1.09583 -6.36394,-7.72696 -9.13457,-10.93352 -13.00761,-15.05421 -19.11138,-25.63106 -21.76828,-37.72098 -2.1724,-9.88521 -1.28718,-16.18771 2.76461,-19.68341 2.31635,-1.99843 9.57312,-5.0862 15.05152,-6.40445 9.44926,-2.27375 16.365085,-3.08658 26.326035,-3.09415 6.71783,-0.005 9.66485,0.20358 16.53646,1.17101 10.65443,1.5 26.45322,5.59607 39.6875,10.28956 7.48982,2.65624 8.71111,3.1273 31.8822874,12.29725 3.783542,1.49733 8.843698,3.49973 11.244792,4.44977 5.5751986,2.20594 29.3581756,12.37428 40.3489566,17.25106 7.92276,3.51546 19.551838,8.32961 20.121028,8.32961 0.06348,0 1.693929,0.66056 3.623236,1.46791 4.301755,1.80014 4.533265,1.8948 4.698444,1.92117 0.07276,0.0116 0.833544,0.33125 1.690635,0.71029 0.857091,0.37904 3.119279,1.28273 5.027083,2.00821 1.907804,0.72547 3.825928,1.48027 4.26249,1.67734 0.436563,0.19707 1.091406,0.44408 1.455208,0.54892 0.363802,0.10483 2.566459,0.94343 4.894792,1.86354 2.328333,0.9201 7.745673,2.99909 12.038543,4.61997 9.01411,3.40351 17.99891,7.16535 23.68021,9.91466 3.4249,1.65739 5.93957,3.0037 15.08125,8.07424 0.87312,0.48429 1.92405,1.15913 2.33539,1.49964 0.41135,0.34051 0.83672,0.61911 0.94525,0.61911 0.10856,0 0.65151,-0.92274 1.20658,-2.05052 0.87937,-1.78676 1.52821,-2.56511 5.04402,-6.05091 3.29745,-3.26932 4.18163,-4.30891 4.83814,-5.68854 0.93457,-1.96396 2.0786,-5.0094 2.02565,-5.39232 -0.0201,-0.14552 -0.38158,-0.97896 -0.80327,-1.85208 -0.67916,-1.40629 -0.76716,-1.87442 -0.77089,-4.10105 -0.004,-2.17018 0.0905,-2.71232 0.68887,-3.96875 1.32561,-2.78326 4.24003,-5.02708 6.52952,-5.02708 0.55583,0 1.22481,-0.1566 1.48656,-0.348 0.4504,-0.32934 0.42987,-0.43934 -0.38251,-2.05052 -0.47215,-0.93639 -1.33964,-2.4169 -1.92773,-3.29002 -1.52974,-2.27109 -6.24133,-6.87529 -9.16027,-8.95148 -2.93404,-2.08692 -10.30269,-5.79749 -14.43656,-7.26973 -3.50764,-1.24919 -9.68574,-3.23291 -10.05549,-3.22868 -0.40331,0.005 -7.91073,-2.49493 -11.45935,-3.8153 -11.54959,-4.29739 -23.584001,-10.88324 -34.57683,-18.92225 -3.581108,-2.61886 -6.774338,-4.69908 -8.226212,-5.35899 -1.094608,-0.49751 -1.735508,-0.58668 -4.076912,-0.56723 -3.349625,0.0278 -6.117913,0.76663 -10.252604,2.7362 -1.491589,0.71053 -2.711979,1.19906 -2.711979,1.08563 0,-0.39568 2.192633,-2.43898 3.757779,-3.50185 2.03577,-1.38246 3.700693,-2.13469 6.961471,-3.14522 5.906955,-1.83062 9.332489,-1.1952 13.622416,2.52685 6.797701,5.89789 10.011462,8.40323 14.684371,11.44754 4.54012,2.95778 7.22456,4.52381 10.95082,6.38841 7.53745,3.7717 12.77532,5.79871 22.54943,8.72643 7.67281,2.29831 9.10841,2.78826 13.14616,4.48664 4.1982,1.76586 7.15648,3.34308 10.90047,5.81164 3.95774,2.60948 9.19765,7.77434 11.51376,11.34882 0.87072,1.34378 1.65537,2.44511 1.74369,2.4474 0.0883,0.002 0.55451,-1.01477 1.03595,-2.2601 0.53472,-1.38311 1.26227,-2.6959 1.86952,-3.37344 0.91774,-1.02396 1.02775,-1.07642 1.43161,-0.6827 0.37764,0.36816 0.39851,0.63715 0.15272,1.96682 -0.42238,2.28483 -0.40603,2.37723 0.33448,1.89202 0.34057,-0.22315 1.13943,-0.5458 1.7752,-0.717 0.96956,-0.26108 1.403,-0.23647 2.68806,0.15261 0.84264,0.25514 1.53209,0.5641 1.53209,0.68658 0,0.12248 0.13428,0.22269 0.2984,0.22269 0.19648,0 0.2445,-0.33885 0.14055,-0.99219 -0.0868,-0.5457 -0.22675,-1.42814 -0.31099,-1.96097 -0.27263,-1.72457 0.85159,-1.68121 2.09671,0.0809 0.42321,0.59891 1.07882,1.92701 1.45693,2.95132 0.37809,1.02432 0.80574,1.89656 0.95033,1.93831 0.14457,0.0418 0.78756,-0.76634 1.42886,-1.79578 1.20478,-1.93395 4.94046,-6.53895 5.80075,-7.15062 0.26842,-0.19083 1.22269,-0.99325 2.12061,-1.78314 5.71307,-5.02571 15.12535,-9.58962 26.23452,-12.72081 8.9118,-2.51184 14.2381,-4.51797 22.15875,-8.34595 9.5092,-4.59573 18.30655,-10.36519 25.20167,-16.52772 5.12971,-4.5847 7.24924,-5.67952 10.9802,-5.67172 4.51226,0.009 10.77175,2.54429 14.41861,5.83901 2.05732,1.85866 1.79324,2.01238 -1.12401,0.65431 -1.49119,-0.6942 -3.42564,-1.46936 -4.29876,-1.72259 -0.87313,-0.25323 -1.94469,-0.57494 -2.38125,-0.71491 -0.43656,-0.13996 -1.70061,-0.32528 -2.80898,-0.41181 -1.61589,-0.12616 -2.37609,-0.0473 -3.83646,0.39779 -2.07692,0.63307 -3.29432,1.40955 -13.77005,8.78291 -6.88224,4.84406 -16.7795,10.26325 -25.22514,13.81185 -5.95384,2.50163 -7.58203,3.08803 -15.21354,5.47924 -12.52625,3.92489 -14.32192,4.58336 -19.29672,7.07597 -8.54684,4.28237 -14.9923,10.33776 -17.89679,16.8137 -0.42989,0.95847 -0.0257,1.4318 1.26439,1.4803 1.77327,0.0667 3.56801,0.8938 4.98597,2.29784 1.8574,1.8392 2.58069,3.49338 2.88843,6.60576 0.10089,1.02023 -0.40161,2.9443 -1.18883,4.55224 l -0.79949,1.63299 1.04138,2.77239 c 0.57274,1.52482 1.25068,3.11169 1.50656,3.52638 0.25588,0.4147 2.21414,2.4804 4.35168,4.59045 3.4526,3.40815 4.00058,4.07277 4.90847,5.95313 0.56208,1.16417 0.9956,2.20596 0.96335,2.3151 -0.1043,0.35312 0.22032,0.214 1.40912,-0.60391 1.12429,-0.77355 5.62308,-3.43098 5.80832,-3.43098 0.0498,0 1.14175,-0.60843 2.42652,-1.35207 2.92367,-1.69221 11.30432,-5.91815 14.6391,-7.38176 1.38245,-0.60674 2.98979,-1.31945 3.57188,-1.5838 2.6394,-1.19866 7.72683,-3.20499 19.18229,-7.56492 2.40109,-0.91385 6.09203,-2.33672 8.20208,-3.16192 2.11005,-0.8252 5.20568,-2.01536 6.87917,-2.64482 1.67349,-0.62944 5.00724,-1.94218 7.40833,-2.91718 2.40109,-0.975 6.38969,-2.57738 8.86354,-3.56084 2.47386,-0.98346 5.74807,-2.28915 7.27604,-2.90153 2.97273,-1.1914 10.58024,-4.44696 13.62604,-5.83112 1.01865,-0.46293 4.59052,-2.00886 7.9375,-3.43541 3.34698,-1.42655 8.88339,-3.80694 12.30313,-5.28976 5.86967,-2.54512 13.19842,-5.67773 17.33021,-7.40764 1.01864,-0.42649 5.30489,-2.14503 9.525,-3.81899 4.2201,-1.67395 8.86354,-3.5309 10.31875,-4.12654 1.4552,-0.59564 3.06255,-1.23603 3.57187,-1.42309 1.77305,-0.65122 16.55286,-6.29204 18.91771,-7.22009 6.59593,-2.58847 25.37547,-8.28108 30.46555,-9.23496 0.31218,-0.0585 2.13828,-0.46295 4.058,-0.89878 3.49871,-0.79429 9.05965,-1.77605 13.76291,-2.42979 3.83632,-0.53323 21.55322,-0.45006 26.08032,0.12243 10.11692,1.27938 19.6615,3.97859 25.31107,7.15798 1.80541,1.01601 4.01418,3.1528 4.9334,4.77258 0.87148,1.53572 1.35493,4.32563 1.34974,7.78942 -0.01,6.69766 -1.98149,14.38093 -5.67084,22.10039 -2.78114,5.81917 -9.47468,15.41719 -16.42287,23.54916 -4.18082,4.8931 -5.88484,6.94873 -9.46417,11.417 -5.79501,7.23424 -8.63518,10.46774 -13.13638,14.95559 -3.22072,3.21116 -6.16074,5.73985 -9.67298,8.31966 -1.16417,0.85509 -2.76733,2.03358 -3.56256,2.61883 -0.79526,0.58526 -3.05745,2.15136 -5.02709,3.48021 -7.04061,4.75006 -8.62983,5.84345 -10.19161,7.01194 -1.90805,1.42752 -6.45166,5.01708 -9.00166,7.11152 -6.30214,5.17625 -12.7332,8.36042 -18.78375,9.30027 -2.73814,0.42532 -10.40609,0.43677 -13.62604,0.0204 -4.36597,-0.56465 -15.66177,-2.88003 -26.59062,-5.45047 -5.18361,-1.21917 -13.84102,-2.93357 -18.12396,-3.58901 -8.99742,-1.37693 -10.65647,-1.58314 -13.75833,-1.71015 l -3.3073,-0.13542 1.7198,0.57371 c 25.5402,8.51998 37.86298,13.73721 46.30208,19.6034 11.60161,8.06451 15.83907,19.49925 10.93623,29.51135 -1.11561,2.27819 -1.58244,2.8903 -4.20298,5.51083 -4.21127,4.21126 -9.01526,7.66984 -18.78259,13.52233 -13.83361,8.28895 -22.58769,12.17131 -31.4384,13.94259 -9.42335,1.8859 -14.85786,2.11058 -24.90705,1.02971 -2.18282,-0.23477 -5.93328,-0.43215 -8.33438,-0.4386 -4.33043,-0.0116 -4.39867,-0.003 -8.46666,1.11075 -9.05288,2.47779 -10.03755,2.68544 -12.6945,2.67681 -4.16235,-0.0135 -7.5692,-0.60198 -13.23467,-2.28613 -8.66106,-2.57463 -17.03345,-7.42918 -23.37337,-13.5525 -6.90867,-6.67264 -12.9807,-16.87155 -18.72761,-31.45596 -1.188,-3.01489 -2.26282,-5.71973 -2.38847,-6.01077 -0.22175,-0.51368 -1.25791,-3.3121 -3.41397,-9.22044 -0.57613,-1.57874 -1.14186,-3.03907 -1.25719,-3.24517 -0.13155,-0.23508 -0.33264,0.39099 -0.53949,1.67981 -0.4523,2.8181 -1.62261,6.3476 -3.66403,11.05038 -4.59544,10.58651 -5.82263,14.45447 -7.38717,23.28333 -0.50657,2.85873 -0.68122,12.53369 -0.31046,17.19792 0.2739,3.44543 1.33292,10.43993 2.17959,14.39532 0.52951,2.47375 2.12669,11.55155 2.79744,15.89947 0.28061,1.81901 0.64682,5.50995 0.81383,8.20208 0.25736,4.14883 0.23701,5.69865 -0.13351,10.16934 -0.57751,6.9677 -1.64603,15.30075 -2.17355,16.95045 -0.45469,1.42203 -3.09118,6.98143 -3.82701,8.0698 -0.84545,1.25047 -3.12775,5.32336 -3.30761,5.90253 -0.29922,0.96364 -2.2474,4.74231 -3.02715,5.87142 -1.49567,2.16578 -3.66361,3.90086 -5.15454,4.12533 -0.29017,0.0437 -0.94432,0.003 -1.45365,-0.0939 -0.50932,-0.0953 -1.64041,-0.0859 -2.51354,0.0209 -0.87312,0.10689 -1.82562,0.1482 -2.11666,0.0918 z M 61.306223,309.96178 c 2.774987,-0.77624 4.356537,-1.48758 6.522569,-2.93366 2.434992,-1.62566 3.488947,-2.85274 7.130508,-8.30183 9.153498,-13.69697 15.857007,-22.43886 28.3409,-36.95868 1.21189,-1.40957 2.20347,-2.62622 2.20347,-2.70368 0,-0.15112 -0.59973,0.01 -1.45521,0.39067 -0.29104,0.12955 -1.54119,0.59728 -2.77812,1.03939 -1.23693,0.44212 -2.487085,0.9129 -2.778127,1.04617 -0.609123,0.27894 -4.635764,1.84272 -7.540624,2.92847 -4.839838,1.809 -6.867789,2.87212 -8.995833,4.71591 -2.471473,2.14136 -8.200866,7.89276 -11.262082,11.30532 -1.445699,1.61164 -5.250841,5.83836 -8.455872,9.39271 -5.061291,5.61293 -10.518727,11.85501 -12.89677,14.751 -0.821063,0.99989 -0.987018,2.72584 -0.349599,3.63588 0.481385,0.68727 2.892155,1.90538 4.402526,2.2245 1.725557,0.36457 5.650097,0.10062 7.912264,-0.53217 z m 246.534907,0.24768 c 0.76256,-0.15114 1.95318,-0.65357 2.64583,-1.11649 1.15893,-0.77453 1.26566,-0.93718 1.3376,-2.0385 0.0764,-1.16878 0.008,-1.28387 -2.91041,-4.91165 -3.86728,-4.807 -7.87784,-9.44752 -11.87069,-13.73528 -0.81307,-0.87313 -2.06425,-2.23493 -2.7804,-3.02623 -0.71615,-0.7913 -1.48069,-1.62994 -1.69897,-1.86364 -0.21828,-0.2337 -1.99766,-2.14611 -3.9542,-4.24981 -5.69127,-6.11937 -10.62844,-10.92753 -12.01531,-11.7013 -1.86439,-1.0402 -11.29091,-4.9559 -11.93067,-4.9559 -0.0979,0 -1.98649,-0.7051 -4.19677,-1.56689 -4.44735,-1.73403 -5.59591,-2.0885 -5.44224,-1.67957 0.0554,0.14729 1.12768,1.38448 2.38294,2.74932 2.46862,2.6841 2.77622,3.05547 10.38315,12.53568 5.79644,7.22388 9.5394,12.17517 13.10085,17.33021 1.35723,1.96453 2.76259,3.98859 3.12298,4.49792 0.36039,0.50932 1.42269,2.08091 2.36064,3.49243 4.37954,6.59068 8.43891,9.24781 16.2428,10.63198 0.85815,0.15219 3.46294,-0.0435 5.22287,-0.39228 z M 42.350616,306.82025 c 1.856383,-0.89866 3.182149,-2.21561 6.917856,-6.87187 4.596427,-5.72907 11.885102,-14.12161 18.388643,-21.17359 1.958401,-2.12355 4.210896,-4.57538 5.005548,-5.4485 0.79465,-0.87313 2.035281,-2.21258 2.756985,-2.97657 l 1.312175,-1.38906 -1.026054,0.003 c -3.615307,0.0111 -10.742685,3.7746 -20.47293,10.81051 -3.387806,2.44971 -10.965955,8.17669 -12.98858,9.81577 -7.767929,6.2949 -11.617592,9.70385 -12.414504,10.99328 -1.036926,1.67778 -0.481341,2.92507 2.013926,4.52127 3.718917,2.37896 7.770159,3.04047 10.506935,1.71562 z m 280.887514,0.4894 c 2.93161,-0.47565 7.02337,-2.87165 7.70202,-4.51003 0.40265,-0.97206 -0.005,-2.05177 -1.32693,-3.51548 -1.00457,-1.11221 -9.99721,-8.66223 -13.89809,-11.66851 -11.03492,-8.50426 -18.19333,-13.46415 -22.88646,-15.85741 -4.75313,-2.42387 -10.65437,-3.96526 -8.55541,-2.23464 1.67408,1.38031 19.75959,21.54255 24.12313,26.89315 7.38639,9.05727 8.03042,9.7229 10.22916,10.57223 1.65933,0.64096 2.34489,0.68862 4.61258,0.32069 z M 25.451441,299.65996 c 0.976635,-0.47278 2.967376,-2.09338 5.836607,-4.75141 3.265437,-3.02506 7.390196,-6.42829 15.908509,-13.12568 4.190339,-3.29458 10.960375,-8.2318 15.366709,-11.20657 4.231966,-2.85704 4.891181,-3.54602 6.48234,-6.77501 0.904023,-1.83457 1.899578,-4.61648 1.717312,-4.79874 -0.157575,-0.15758 -2.339475,0.98667 -7.063412,3.70426 -1.527969,0.87901 -3.671094,2.09128 -4.7625,2.69392 -1.091406,0.60264 -4.365625,2.43977 -7.276041,4.0825 -2.910417,1.64274 -6.184636,3.48252 -7.276042,4.0884 -3.557101,1.9747 -8.729347,5.05969 -19.261246,11.48839 -7.532978,4.59815 -10.969344,7.235 -11.336829,8.69918 -0.256363,1.02143 0.357828,2.59505 1.354373,3.47002 1.109827,0.97444 3.025301,2.11689 4.331642,2.58353 1.529471,0.54634 4.701847,0.46527 5.978578,-0.15279 z M 341.99363,299.4409 c 1.77617,-0.85816 3.63177,-2.39439 4.2754,-3.53956 1.28423,-2.28501 0.29154,-3.55249 -6.07994,-7.76288 -3.71372,-2.45409 -20.9097,-12.87256 -23.8125,-14.4272 -0.65485,-0.35071 -2.79797,-1.54379 -4.7625,-2.65128 -1.96453,-1.10749 -5.83406,-3.26758 -8.59896,-4.80021 -2.7649,-1.53262 -6.77082,-3.75456 -8.90204,-4.93764 -2.13124,-1.18308 -3.95639,-2.15105 -4.05593,-2.15105 -0.6006,0 2.10757,6.62849 3.27515,8.01617 0.37785,0.44909 1.87761,1.5891 3.33282,2.53338 9.13262,5.92608 24.20641,17.65226 33.86667,26.34548 2.86483,2.57805 4.16814,3.56542 5.11225,3.87299 1.26032,0.41059 5.09064,0.11005 6.34958,-0.4982 z M 10.419655,291.07799 c 0.74613,-0.34741 3.663161,-2.176 6.482291,-4.06354 4.721757,-3.16143 12.474281,-7.92408 17.957977,-11.03222 1.236927,-0.70108 3.022865,-1.71767 3.96875,-2.25907 0.945886,-0.5414 2.731823,-1.5544 3.96875,-2.2511 1.236927,-0.6967 3.618177,-2.06428 5.291667,-3.03908 4.105862,-2.39163 14.89525,-8.50185 16.536458,-9.36489 0.727604,-0.38262 1.680104,-0.9059 2.116667,-1.16286 2.786869,-1.6403 3.307291,-1.98087 3.307291,-2.16431 0,-0.11269 -0.486378,-0.81575 -1.080841,-1.56236 -0.75152,-0.94387 -1.270839,-1.35748 -1.704422,-1.35748 -0.846542,0 -6.094548,1.61795 -8.856404,2.73042 -1.236927,0.49822 -6.17802,2.59877 -10.980208,4.66786 -8.589753,3.70103 -9.39619,4.05496 -12.832291,5.63189 -2.812616,1.29079 -4.222565,1.93459 -7.011458,3.20149 -1.455209,0.66105 -3.241146,1.4734 -3.96875,1.80522 -2.969379,1.35418 -14.4876226,7.16199 -17.2699776,8.70799 -4.67037,2.59507 -5.89023599,3.86579 -5.87168599,6.11647 0.014,1.69874 0.81969699,2.87669 3.16562299,4.62819 1.647301,1.2299 1.942279,1.3318 3.96875,1.37094 1.02454,0.0198 1.856695,-0.15883 2.8118136,-0.60356 z m 260.555495,-3.52452 c -12.7562,-19.0623 -22.17545,-29.7241 -33.84127,-38.30556 -4.92413,-3.62221 -13.34603,-8.93469 -21.24085,-13.39858 -1.89371,-1.07073 -1.75461,-0.68505 1.17454,3.25688 7.1134,9.57295 18.4137,21.38174 26.68452,27.88531 0.72962,0.5737 5.22801,4.25779 9.99643,8.18685 4.76843,3.92906 9.69844,7.97719 10.95561,8.99583 1.25714,1.01865 3.72393,3.11434 5.48169,4.6571 1.75778,1.54276 3.24297,2.76577 3.30038,2.71781 0.0574,-0.048 -1.07254,-1.846 -2.51105,-3.99564 z m 85.26634,3.15107 c 2.76902,-1.794 3.79135,-3.2566 3.79135,-5.42417 0,-1.90645 -0.93118,-2.8815 -4.9022,-5.13326 -5.71873,-3.24279 -26.98036,-13.61053 -30.81655,-15.02698 -0.50932,-0.18806 -1.87854,-0.78225 -3.04271,-1.32043 -1.16417,-0.53817 -4.27575,-1.90882 -6.91465,-3.04588 -2.63887,-1.13707 -5.43684,-2.36441 -6.21771,-2.72745 -4.13117,-1.92065 -11.99544,-4.68151 -14.44828,-5.07228 -1.03743,-0.16527 -1.17748,-0.11409 -1.85209,0.67689 -0.74086,0.86868 -1.36482,1.83244 -1.38186,2.13444 -0.0177,0.3134 2.77228,2.02132 7.53126,4.61041 2.61937,1.42505 6.54843,3.59959 8.73125,4.83231 2.18281,1.23273 4.62359,2.59594 5.42396,3.02936 2.56248,1.38768 5.63581,3.13806 7.54062,4.2947 1.01865,0.61854 4.76911,2.82356 8.33438,4.90004 6.95901,4.05308 8.33855,4.91065 16.31719,10.14337 2.85248,1.87077 5.55702,3.57016 6.01009,3.77641 0.54795,0.24945 1.45897,0.34244 2.72095,0.27771 1.58086,-0.0811 2.11021,-0.23534 3.175,-0.92519 z M 95.896175,284.27852 c 0.318452,-0.21771 1.270952,-1.00982 2.116666,-1.76024 2.414089,-2.14203 5.831789,-5.01364 7.872039,-6.61419 1.02725,-0.80588 1.98681,-1.60044 2.13233,-1.76569 0.14552,-0.16526 2.05052,-1.7188 4.23334,-3.45231 7.56814,-6.01036 13.54695,-11.3029 17.19791,-15.22386 5.81462,-6.24464 5.84304,-6.27652 9.78101,-10.97553 2.56392,-3.05938 6.75545,-8.71631 6.75545,-9.11723 0,-0.12936 -0.84992,0.23199 -1.88873,0.803 -1.0388,0.57101 -1.92815,1.03819 -1.97635,1.03819 -0.0482,0 -1.87394,1.07133 -4.05715,2.38074 -4.92086,2.9513 -13.32558,8.55497 -16.72172,11.14883 -8.78885,6.71264 -19.15269,18.09293 -27.188293,29.85485 -3.643763,5.33346 -6.905255,10.32027 -6.905255,10.5581 0,0.16159 1.815703,-1.23003 4.034896,-3.09251 2.219192,-1.86248 4.295431,-3.56445 4.613857,-3.78215 z M 0.06721641,279.61106 c 2.70822199,-1.36379 5.63537899,-2.90856 9.65729099,-5.09651 4.0115986,-2.18234 9.4963606,-4.97485 12.6999996,-6.46607 1.527969,-0.71123 4.266406,-2.00328 6.085416,-2.87122 5.095254,-2.4312 18.538068,-8.23384 24.60625,-10.62138 7.154203,-2.81484 10.885725,-4.4581 12.515527,-5.51149 1.731008,-1.1188 6.48248,-5.62392 6.214303,-5.89209 -0.262305,-0.26231 -6.902823,-0.15837 -9.400447,0.14713 -4.60221,0.56293 -14.893838,2.37327 -21.632508,3.80524 -17.302744,3.67685 -30.9807726,7.99042 -39.2155746,12.36721 -5.251318,2.79107 -8.264022,5.53274 -10.048055,9.14411 -0.990705,2.00545 -1.007202,2.08889 -1.007202,5.09436 0,2.87142 0.04472,3.1316 0.74223,4.31821 1.192599,2.02888 3.354893,3.17452 5.475478,2.90106 0.509323,-0.0657 1.997604,-0.65903 3.30729201,-1.31856 z M 367.20797,280.04831 c 1.36355,-1.07997 1.9436,-1.94584 2.45261,-3.66119 1.19181,-4.01645 -0.30422,-8.50914 -4.06099,-12.19552 -5.85118,-5.74151 -21.21315,-11.59938 -43.26988,-16.4998 -7.2163,-1.60326 -21.18468,-4.10744 -25.19672,-4.51712 -1.95029,-0.19915 -8.27238,-0.23206 -8.46042,-0.044 -0.1351,0.1351 1.30921,1.81663 2.70089,3.14448 1.87286,1.78696 5.68746,4.11569 8.46667,5.16871 5.03814,1.90892 21.62445,8.92935 28.70729,12.15083 5.74728,2.61403 17.05398,8.20781 22.35729,11.06086 2.32834,1.25259 6.07714,3.23519 8.33067,4.40579 4.01244,2.08427 4.12692,2.12488 5.52649,1.96039 1.02618,-0.12061 1.7159,-0.39508 2.4461,-0.9734 z M 286.524,265.34778 c 0.5452,-0.49342 0.61311,-1.37782 0.21026,-2.73887 -1.25375,-4.23611 -1.32273,-7.10556 -0.23842,-9.92147 0.75036,-1.94864 0.78672,-2.19242 0.48684,-3.26352 -0.37979,-1.35649 -2.04166,-3.69295 -3.71843,-5.22781 -2.17921,-1.9948 -4.74231,-3.19854 -8.64457,-4.05986 -2.04603,-0.45161 -12.32985,-2.105 -15.78997,-2.53864 -1.22507,-0.15354 -5.2135,-0.78252 -6.74687,-1.06399 -0.3638,-0.0668 -1.79255,-0.3069 -3.175,-0.53361 -1.38245,-0.2267 -3.34698,-0.58999 -4.36562,-0.80732 -1.60087,-0.34155 -6.01208,-1.20426 -8.0698,-1.57824 -0.3638,-0.0661 -2.20927,-0.47724 -4.10104,-0.91359 -1.89177,-0.43635 -5.16599,-1.1423 -7.27604,-1.56876 -4.12435,-0.83358 -9.26042,-1.3194 -9.26042,-0.87594 0,0.34405 3.02282,2.42708 10.40877,7.1727 3.32374,2.13557 6.68758,4.29956 7.47524,4.80888 6.68803,4.32476 12.39258,7.79746 15.0553,9.16506 3.73356,1.9176 20.67329,9.23179 24.87215,10.73922 7.81685,2.80632 9.22105,3.22369 12.15001,3.61138 0.13407,0.0178 0.46149,-0.16478 0.72761,-0.40562 z M 78.16814,265.1396 c 0.99179,-0.20981 2.636679,-0.69615 3.655324,-1.08074 5.086747,-1.92054 15.299134,-6.04706 17.991666,-7.26989 0.58208,-0.26436 2.48708,-1.09946 4.23333,-1.85578 3.87409,-1.67791 10.39427,-4.93418 12.67434,-6.32974 1.78112,-1.09016 3.43162,-2.1512 11.27045,-7.24534 7.96513,-5.17621 9.85028,-6.37917 11.2448,-7.17557 1.97704,-1.12908 5.42395,-3.588 5.42395,-3.86927 0,-0.3684 -2.56746,-0.29766 -5.62414,0.15496 -1.49063,0.22073 -6.28211,1.1648 -10.64773,2.09793 -12.95146,2.76831 -17.56524,3.6137 -28.971875,5.3086 -10.545842,1.56699 -14.881171,2.39334 -17.236492,3.28543 -3.364812,1.27444 -6.617361,4.14386 -8.185811,7.22157 -0.921967,1.80919 -0.93435,2.04381 -0.20656,3.91389 0.310673,0.79831 0.687784,2.24028 0.838014,3.20438 0.277601,1.7814 0.231167,2.14653 -0.927444,7.29426 -0.456644,2.02893 -0.07636,2.72679 1.485953,2.72679 0.648441,0 1.990461,-0.17167 2.982225,-0.38148 z M -23.041952,235.73795 c 4.461041,-0.56611 19.0171014,-3.48204 25.4904184,-5.10635 12.1516206,-3.04912 30.3340356,-6.92758 40.3489566,-8.60674 2.178246,-0.36522 3.323103,-0.52343 9.789583,-1.35284 7.486497,-0.96023 18.441903,-1.59924 38.575905,-2.25006 13.243479,-0.4281 19.600859,-0.86367 35.048089,-2.40131 6.44498,-0.64154 6.80934,-0.71065 6.80934,-1.29164 0,-1.49446 -4.63309,-3.20275 -16.80104,-6.19476 -3.92907,-0.96613 -7.50094,-1.86506 -7.9375,-1.99762 -0.43657,-0.13256 -2.16297,-0.56023 -3.83646,-0.95039 -1.67349,-0.39016 -5.245366,-1.2403 -7.937501,-1.8892 -19.951144,-4.80897 -21.670089,-4.93754 -38.1,-2.84988 -7.422869,0.94319 -25.314965,3.68728 -33.734374,5.17381 -1.600729,0.28262 -6.601354,1.15524 -11.1125,1.93915 -8.0419166,1.39746 -12.70734159,2.25043 -17.9916656,3.28939 -1.455208,0.28611 -4.074583,0.78291 -5.8208334,1.104 -1.74625,0.32109 -6.746875,1.29485 -11.1125,2.16391 -4.365621,0.86906 -8.294691,1.63543 -8.731251,1.70305 -2.64871,0.41024 -13.42006,2.63745 -16.89236,3.49287 -4.43228,1.0919 -5.4655,1.56244 -5.46394,2.48832 0.004,2.09665 6.12643,8.05916 11.16415,10.87167 4.89408,2.73232 10.85354,3.60265 18.245483,2.66462 z m 416.154642,0.1442 c 5.72402,-0.68976 11.32665,-3.59914 15.91257,-8.26319 2.64845,-2.69357 3.5253,-3.88122 3.78028,-5.12018 0.199,-0.96685 -0.25778,-1.35891 -2.36958,-2.03389 -1.53683,-0.49119 -8.98305,-2.12196 -16.00729,-3.50568 -2.69214,-0.53033 -7.81182,-1.54332 -11.37708,-2.25108 -3.56526,-0.70776 -8.2087,-1.59292 -10.31875,-1.96703 -2.11005,-0.3741 -5.92005,-1.08333 -8.46667,-1.57605 -6.65136,-1.28692 -12.60022,-2.39337 -16.40417,-3.05109 -1.81901,-0.31451 -4.14072,-0.73825 -5.15937,-0.94164 -3.07785,-0.61455 -15.48519,-2.68291 -21.96042,-3.6609 -18.27739,-2.76052 -21.70509,-3.1797 -31.4829,-3.85011 -5.3273,-0.36526 -10.37439,0.38031 -22.29784,3.29386 -2.14413,0.52393 -5.3867,1.30624 -7.20571,1.73846 -3.32627,0.79036 -9.12715,2.2434 -12.56771,3.14804 -1.01865,0.26784 -3.51896,0.92066 -5.55625,1.45073 -4.63016,1.20466 -11.2032,3.20633 -12.69312,3.86539 -1.29273,0.57184 -1.84753,1.13127 -1.6451,1.6588 0.15666,0.40829 1.01433,0.59841 3.75489,0.83238 1.01864,0.087 2.14974,0.2119 2.51354,0.27764 0.3638,0.0657 4.47146,0.47073 9.12812,0.89999 9.58268,0.88336 19.6804,1.45523 32.80833,1.85805 29.21675,0.89649 39.5909,2.21442 68.79167,8.73927 5.09323,1.13807 12.31749,2.78868 16.05391,3.66803 10.3214,2.42908 21.05401,4.48301 25.48567,4.87727 2.29772,0.20442 5.14678,0.17036 7.28298,-0.0871 z M -51.089095,217.3858 c 6.95849,-1.43584 9.29653,-1.94684 14.64381,-3.20054 3.20146,-0.75059 7.78537,-1.76071 10.18646,-2.2447 2.401093,-0.484 7.342187,-1.48851 10.980208,-2.23227 3.63802,-0.74375 7.5670834,-1.52335 8.7312504,-1.73244 1.164166,-0.20909 3.307291,-0.62449 4.762499,-0.92311 1.45520901,-0.29861 4.491302,-0.90312 6.746875,-1.34335 2.255573,-0.44023 4.874948,-0.96834 5.8208326,-1.17357 0.945886,-0.20524 3.446198,-0.67339 5.55625,-1.04035 2.110052,-0.36695 4.788959,-0.83997 5.953125,-1.05114 5.096931,-0.92456 8.706414,-1.54538 16.271875,-2.79871 4.438385,-0.73528 9.796198,-1.63467 11.90625,-1.99865 5.279903,-0.91075 8.953997,-1.4418 10.054166,-1.45321 1.516748,-0.0157 0.425498,-0.42196 -2.782371,-1.03578 -1.598393,-0.30584 -3.511172,-0.72972 -4.250619,-0.94195 -1.559496,-0.4476 -14.226537,-3.16595 -20.219093,-4.33902 -8.202467,-1.60568 -11.216309,-1.74363 -20.769791,-0.95066 -0.727604,0.0604 -2.275417,0.17754 -3.4395826,0.26034 -1.164167,0.0828 -3.843073,0.32329 -5.953125,0.53444 -2.11005199,0.21115 -5.741458,0.57039 -8.069792,0.79832 -6.0678584,0.59401 -13.6772224,1.39606 -16.1395824,1.70117 -22.336415,2.76768 -45.097655,6.10542 -52.443975,7.69046 -2.93732,0.63375 -3.80554,1.97104 -2.78159,4.28433 1.08526,2.45178 3.937,5.13401 9.18807,8.64189 7.1189,4.75566 10.4577,5.70199 16.04785,4.5485 z m 470.917765,-0.27327 c 4.20965,-1.68592 6.88163,-3.30623 12.13564,-7.35926 3.24557,-2.50367 5.32686,-5.37198 5.32686,-7.34114 0,-1.8159 -1.47399,-2.37247 -10.12518,-3.82323 -1.63444,-0.27408 -3.98373,-0.67935 -5.22065,-0.90059 -2.8135,-0.50324 -12.36165,-1.91612 -16.40417,-2.42739 -1.67349,-0.21165 -4.41193,-0.56787 -6.08542,-0.79159 -1.67349,-0.22372 -3.45942,-0.45767 -3.96875,-0.51989 -0.50932,-0.0622 -3.12869,-0.40814 -5.82083,-0.76873 -2.69214,-0.36058 -5.54963,-0.72345 -6.35,-0.80639 -0.80036,-0.0829 -4.13411,-0.44361 -7.40833,-0.80151 -3.27422,-0.3579 -7.38188,-0.77515 -9.12813,-0.92722 -1.74625,-0.15207 -4.24656,-0.39068 -5.55625,-0.53024 -4.52233,-0.48193 -7.67892,-0.79337 -9.39271,-0.92672 -16.44999,-1.28004 -14.95705,-1.40346 -35.45416,2.93095 -1.81901,0.38465 -4.02167,0.84947 -4.89479,1.03294 -4.5724,0.96075 -11.68689,2.6059 -12.00124,2.77515 -0.20061,0.10802 0.44265,0.2731 1.45521,0.37345 0.99814,0.0989 4.67228,0.64332 8.16478,1.20977 3.4925,0.56646 8.31453,1.34473 10.71562,1.72949 3.9683,0.63588 6.45584,1.06523 18.52083,3.19668 3.41141,0.60267 7.70298,1.40128 16.27188,3.028 13.94381,2.6471 36.74208,7.36424 43.92083,9.08757 1.45521,0.34933 4.6699,1.0677 7.14375,1.59637 2.47386,0.52867 5.27182,1.13353 6.21771,1.34414 2.42853,0.54074 6.07332,0.36597 7.9375,-0.38061 z M 123.89221,205.06976 c -4.07942,-1.95315 -15.32032,-7.17354 -19.18229,-8.90848 -2.25557,-1.01328 -4.33628,-1.97262 -4.6238,-2.13186 -0.287526,-0.15923 -2.37112,-1.09249 -4.630212,-2.0739 -2.259092,-0.98141 -6.726819,-2.93673 -9.928278,-4.34516 -3.201457,-1.40843 -6.65427,-2.90101 -7.672916,-3.31684 -1.018645,-0.41583 -2.983177,-1.25281 -4.365624,-1.85997 -1.382448,-0.60716 -6.025886,-2.56734 -10.318751,-4.35597 -4.292864,-1.78863 -9.650677,-4.02183 -11.906249,-4.96267 -5.411007,-2.25701 -11.817117,-4.77672 -23.680208,-9.3141 -2.910417,-1.11317 -5.708386,-2.19051 -6.217708,-2.39409 -3.847087,-1.53771 -7.920966,-3.08443 -11.6416666,-4.41996 -2.401094,-0.86186 -5.183981,-1.8661 -6.184191,-2.23164 -2.400614,-0.87732 -3.07622499,-0.72256 -3.07622499,0.70468 0,0.5795 0.59531199,2.89879 1.32291599,5.15399 0.727604,2.2552 1.322917,4.42011 1.322917,4.81091 0,1.17098 -0.958345,2.79663 -3.18671599,5.40568 -1.16021301,1.35841 -2.07173201,2.58306 -2.02560201,2.72145 0.194956,0.58487 3.519024,1.90545 11.714496,4.65391 12.2793356,4.11804 15.0375476,4.95716 19.6915706,5.9907 2.255573,0.5009 4.815417,1.08097 5.688542,1.28904 0.873125,0.20807 3.849687,0.86501 6.614583,1.45986 2.764896,0.59485 7.22974,1.56474 9.921875,2.15533 2.692135,0.59058 6.502135,1.42293 8.466666,1.84966 10.870052,2.36117 25.544833,5.60148 27.384375,6.0467 1.164166,0.28176 4.021666,0.93783 6.35,1.45795 5.060262,1.13037 6.387786,1.43583 10.715626,2.46561 1.81901,0.43282 4.43838,1.04059 5.82083,1.3506 5.41338,1.21391 13.36691,3.1573 14.06316,3.43623 1.5443,0.61866 1.23031,0.16067 -0.43712,-0.63766 z m 117.27916,-0.66895 c 2.94823,-0.72672 6.46057,-1.56166 7.80521,-1.85544 1.34464,-0.29377 4.60282,-1.06922 7.2404,-1.72321 2.63758,-0.65398 7.40008,-1.77066 10.58333,-2.48148 10.02022,-2.23755 16.57125,-3.69494 18.48774,-4.11294 1.01864,-0.22218 3.99521,-0.88415 6.61458,-1.47106 5.7426,-1.28671 5.4269,-1.21838 14.15521,-3.06376 9.17517,-1.93985 9.46883,-2.00303 14.41979,-3.10225 2.32833,-0.51694 5.42396,-1.18748 6.87917,-1.49008 3.41847,-0.71086 6.49099,-1.48232 9.78958,-2.45802 1.45521,-0.43044 3.00302,-0.8752 3.43958,-0.98836 0.43657,-0.11316 3.11547,-1.00467 5.95313,-1.98115 2.83765,-0.97647 6.58812,-2.25168 8.33437,-2.8338 4.24395,-1.41473 7.54063,-2.84737 7.54063,-3.27693 0,-0.19256 -1.00933,-1.61417 -2.24298,-3.15912 -1.23365,-1.54495 -2.3813,-3.27067 -2.55037,-3.83492 -0.34777,-1.16072 -0.18352,-1.96183 1.45571,-7.10056 1.35601,-4.2509 1.25534,-5.40351 -0.4504,-5.15666 -0.66575,0.0963 -9.30516,3.16515 -10.63175,3.7765 -0.29105,0.13412 -2.55323,0.97528 -5.02709,1.86924 -2.47385,0.89396 -4.8551,1.7808 -5.29166,1.97076 -0.43657,0.18995 -2.87735,1.13794 -5.42396,2.10665 -2.54662,0.9687 -5.37435,2.05391 -6.28386,2.41157 -0.9095,0.35766 -2.39778,0.93749 -3.30729,1.2885 -5.30518,2.0475 -12.45941,4.89857 -15.67656,6.24735 -2.03729,0.85414 -4.34941,1.80364 -5.13805,2.11001 -0.78864,0.30638 -1.91974,0.77739 -2.51354,1.0467 -0.5938,0.26932 -2.38935,1.02351 -3.99008,1.67599 -1.60073,0.65248 -4.99401,2.10629 -7.54062,3.23069 -2.54662,1.1244 -6.11849,2.67103 -7.9375,3.43695 -3.6921,1.55461 -7.08303,3.05137 -10.05417,4.43793 -1.0914,0.50933 -3.59172,1.6062 -5.55625,2.43748 -5.9954,2.53691 -9.82702,4.26009 -18.65312,8.38879 -10.10375,4.72637 -11.31679,5.32128 -10.45104,5.1255 0.3638,-0.0823 3.07364,-0.74416 6.02186,-1.47087 z m -314.439585,-7.53108 c 2.96302,-0.69862 8.12086,-1.63349 20.54399,-3.72366 10.3804,-1.74648 15.14178,-2.4747 21.43832,-3.27884 10.731205,-1.3705 20.12925,-2.4913 25.6707204,-3.06147 3.707405,-0.38147 7.097921,-0.73648 7.534484,-0.78892 0.436562,-0.0524 3.383359,-0.31002 6.548437,-0.5724 3.1650776,-0.26238 5.7541426,-0.53927 5.7534726,-0.61531 -0.0021,-0.25293 -18.8066776,-7.11644 -22.1591436,-8.08794 -4.9497514,-1.43439 -9.8119384,-1.87663 -22.6865204,-2.06349 -5.69417,-0.0827 -17.399,0.18333 -20.32407,0.46184 -0.89999,0.0857 -3.48181,0.2801 -5.73738,0.43203 -2.25558,0.15194 -4.3987,0.32181 -4.7625,0.37751 -0.36381,0.0557 -1.4949,0.17707 -2.51354,0.26972 -8.32937,0.75763 -20.80541,2.46474 -25.03944,3.42617 -5.00132,1.13566 -5.96159,2.03281 -5.16669,4.82708 1.40695,4.94575 6.81637,10.23127 12.74363,12.45172 1.33411,0.49979 1.96757,0.57692 3.96875,0.48327 1.30968,-0.0613 3.19405,-0.30309 4.18748,-0.53731 z m 515.540955,0.0449 c 5.69953,-2.00134 12.71178,-9.70722 12.73924,-13.99936 0.0146,-2.27152 -2.27391,-3.01474 -14.81039,-4.81004 -5.95945,-0.85342 -13.70132,-1.7963 -17.5948,-2.14284 -0.87312,-0.0777 -2.06375,-0.19798 -2.64583,-0.26725 -4.7213,-0.56187 -16.3853,-1.02904 -25.4,-1.01733 -11.55197,0.015 -20.79408,0.63413 -24.73854,1.65722 -3.14349,0.81534 -3.70734,1.00246 -9.6198,3.19253 -3.07657,1.1396 -6.96296,2.57235 -8.63645,3.18388 -1.67349,0.61153 -3.41789,1.27732 -3.87644,1.47952 -0.45857,0.20221 -0.96459,0.36765 -1.12447,0.36765 -0.15992,0 -0.29076,0.11906 -0.29076,0.26458 0,0.14552 0.5488,0.26458 1.21955,0.26458 0.67072,0 3.08173,0.1817 5.35781,0.40377 2.27605,0.22207 5.98374,0.58394 8.23931,0.80415 19.49209,1.90302 36.08504,3.99261 48.15417,6.06416 2.83765,0.48706 5.93328,1.00712 6.87916,1.15569 2.46711,0.38752 10.36638,1.83368 12.7,2.32507 7.07999,1.49081 7.88215,1.61418 10.05417,1.54635 1.23693,-0.0386 2.76426,-0.25118 3.39407,-0.47233 z M -89.097365,176.66371 c 7.90908,-1.5208 14.65443,-2.57828 21.29896,-3.3391 1.96453,-0.22494 4.52437,-0.52479 5.68854,-0.66634 9.53328,-1.1591 27.89495,-1.80596 37.570831,-1.32357 13.26615,0.66137 12.054348,0.66155 13.354947,-0.002 0.649494,-0.33135 1.5228784,-0.85461 1.9408514,-1.16279 0.863788,-0.637 3.62191,-3.79036 3.62191,-4.14104 0,-0.12704 -0.446484,-0.35666 -0.992187,-0.51026 -1.242433,-0.34971 -9.2329454,-1.74239 -12.2369794,-2.1328 -1.236927,-0.16076 -2.606146,-0.34318 -3.042708,-0.40538 -1.33757,-0.19058 -7.521735,-0.90106 -10.318755,-1.18549 -1.4552,-0.14798 -3.06255,-0.32462 -3.57187,-0.39254 -5.69794,-0.75976 -28.71179,-1.55898 -38.62917,-1.34151 -8.19092,0.17962 -20.27081,0.73922 -23.28333,1.07861 -0.50932,0.0574 -1.87854,0.17784 -3.042705,0.26768 -3.14724,0.2429 -7.06265,0.92906 -7.73906,1.35623 -0.81005,0.51158 -0.76617,1.47659 0.17195,3.78181 1.8815,4.62338 4.58563,8.14779 7.40637,9.653 3.177845,1.69578 5.024655,1.76859 11.802405,0.46534 z m 547.649315,0.59655 c 4.17682,-1.07691 6.62575,-3.33631 9.2034,-8.49115 1.71315,-3.42595 2.17929,-5.27464 1.47701,-5.85749 -0.95256,-0.79054 -6.55177,-1.45681 -19.24119,-2.28957 -8.88228,-0.58291 -31.64628,-0.68327 -40.74583,-0.17964 -6.1045,0.33787 -7.59156,0.44419 -11.90625,0.85131 -1.52797,0.14418 -3.37344,0.31286 -4.10104,0.37486 -4.76036,0.4056 -5.75662,0.52396 -11.2448,1.33585 -1.38244,0.20452 -3.46604,0.50243 -4.6302,0.66202 -2.91087,0.39906 -7.90139,1.26824 -9.6573,1.68198 -1.18049,0.27816 -1.4383,0.43522 -1.36567,0.832 0.13224,0.72241 2.35672,3.22519 3.66919,4.12818 2.33595,1.60717 2.48531,1.62925 8.92664,1.31948 16.68402,-0.80235 29.61564,-0.57591 42.87713,0.75082 4.07898,0.40807 13.55064,1.74735 19.84375,2.80588 3.17977,0.53485 12.45667,2.29978 12.54567,2.38682 0.26435,0.25851 2.85986,0.0727 4.34949,-0.31135 z m -88.44476,-15.69303 c 4.7634,-0.89149 19.56448,-2.97311 25.51211,-3.58801 11.51424,-1.1904 14.22889,-1.31069 29.63333,-1.31305 16.61186,-0.003 23.69304,0.32822 35.05729,1.63755 8.09257,0.93238 10.78426,0.94827 12.56771,0.0742 3.61839,-1.77339 7.01145,-7.66257 7.01145,-12.16947 0,-1.29858 -0.0429,-1.3823 -0.88971,-1.73612 -2.71021,-1.1324 -14.16624,-1.62498 -27.96532,-1.20244 -5.32458,0.16304 -9.9699,0.34103 -10.3229,0.39553 -0.35304,0.0545 -2.2492,0.17491 -4.21373,0.26757 -8.58099,0.40472 -24.4847,2.09135 -32.80833,3.47939 -8.96554,1.4951 -24.27343,4.49506 -28.17813,5.5222 -2.67009,0.70238 -5.5109,1.70019 -6.42151,2.2555 -0.47588,0.29022 -1.34165,1.26475 -1.92392,2.16564 -1.37703,2.13052 -2.49534,5.6705 -1.62431,5.1417 0.0991,-0.0602 2.15379,-0.47874 4.56597,-0.9302 z M -4.8275756,161.8397 c 0,-0.76545 -1.066779,-3.19346 -2.086668,-4.74932 -1.101238,-1.67995 -2.275435,-2.41272 -5.3216654,-3.32104 -5.08971,-1.51763 -16.584306,-3.87083 -30.691666,-6.28326 -2.92904,-0.50089 -9.02377,-1.36076 -11.77396,-1.66113 -9.43905,-1.03092 -16.67331,-1.6822 -20.90208,-1.88176 -1.89177,-0.0893 -3.8563,-0.21031 -4.36563,-0.26898 -2.80302,-0.32284 -19.46555,-0.6996 -24.341655,-0.5504 -10.36607,0.31719 -14.62063,0.9108 -15.06417,2.10182 -0.86882,2.33302 1.99544,9.22393 4.89482,11.77606 2.45908,2.16458 4.33496,2.49757 10.05521,1.78494 13.369275,-1.66555 21.722195,-2.12267 38.743295,-2.12024 8.87667,0.001 16.07687,0.12715 18.73049,0.32748 3.92216,0.29608 15.60213,1.44431 18.17889,1.78711 0.58208,0.0774 2.78474,0.37042 4.89479,0.65107 5.770366,0.76751 10.60546,1.5194 14.2874994,2.22181 4.218226,0.8047 4.7625,0.82594 4.7625,0.18584 z M -11.55385,149.55905 c -3.807312,-2.89029 -17.659675,-9.98691 -27.272685,-13.97189 -8.80169,-3.64865 -17.79399,-6.52429 -26.39832,-8.44189 -4.16469,-0.92817 -11.51818,-2.12522 -12.8923,-2.0987 -0.89108,0.0172 -0.8711,0.0375 0.52916,0.53709 0.80037,0.28557 1.93146,0.68246 2.51355,0.88198 1.94923,0.66814 7.08872,2.69833 13.62604,5.38252 6.29446,2.58448 9.07386,3.77438 16.80104,7.19279 9.80025,4.33551 19.34926,7.91085 24.341664,9.11403 6.794291,1.63744 8.236905,1.9588 8.863542,1.97446 l 0.661458,0.0165 z m 386.40335,-0.0427 c 9.26452,-1.84172 15.68945,-4.15553 33.86667,-12.19644 6.91086,-3.0571 17.12031,-7.18188 26.19375,-10.5827 3.79701,-1.42316 5.29143,-2.09758 4.07302,-1.8381 -0.27564,0.0587 -1.9299,0.29955 -3.67615,0.53524 -12.03563,1.62444 -24.72668,5.24684 -37.93008,10.82633 -2.97926,1.25898 -18.08202,8.70179 -19.74908,9.73257 -4.66259,2.883 -5.95313,3.73683 -5.95313,3.9387 0,0.1325 0.26789,0.18195 0.59532,0.1099 0.32742,-0.0721 1.48828,-0.30853 2.57968,-0.5255 z m -418.187175,-5.937 c -0.28216,-0.26203 -11.46336,-5.29478 -14.93573,-6.72269 -1.23693,-0.50865 -3.43959,-1.42225 -4.89479,-2.03022 -8.57435,-3.58227 -19.81159,-7.36211 -30.03021,-10.10118 -3.27666,-0.87829 -3.35999,-0.8864 -8.995835,-0.87471 -4.87746,0.0101 -6.08039,0.0966 -8.43683,0.60671 -9.05039,1.95914 -12.31034,4.60244 -12.28702,9.96281 0.012,2.74596 0.71199,4.82198 1.85012,5.48668 1.05157,0.61415 2.40218,0.64716 8.15811,0.19937 8.38237,-0.65212 30.918855,-0.41852 38.761455,0.40179 0.65484,0.0685 3.45281,0.30843 6.21771,0.53318 4.17604,0.33947 14.25115,1.37564 17.85937,1.83674 0.50932,0.0651 2.11667,0.25355 3.57188,0.4188 1.4552,0.16525 2.69544,0.34899 2.75607,0.4083 0.0606,0.0593 0.23327,0.10785 0.38365,0.10785 0.17149,0 0.1797,-0.087 0.022,-0.23343 z m 451.789265,-0.43429 c 2.11005,-0.22115 5.68192,-0.63569 7.9375,-0.9212 6.06578,-0.76781 16.48071,-1.64048 26.8552,-2.25021 8.19254,-0.4815 24.95183,-0.31138 33.20521,0.33705 3.49946,0.27494 4.6745,0.0773 5.58258,-0.93905 1.42631,-1.59632 1.88251,-4.72483 1.07608,-7.37979 -0.9394,-3.09272 -2.91253,-4.75359 -7.51982,-6.32977 -3.94462,-1.34947 -6.40035,-1.74978 -11.60235,-1.89129 -5.38144,-0.1464 -6.69846,7.9e-4 -11.46689,1.28233 -1.60864,0.4323 -3.63918,0.97461 -4.51231,1.20513 -7.43206,1.96217 -22.53821,7.51215 -32.26405,11.85379 -0.44487,0.19859 -2.5948,1.13661 -4.77761,2.08449 -5.61118,2.43664 -7.48887,3.35128 -6.87917,3.35092 0.29104,-1.7e-4 2.25557,-0.18125 4.36563,-0.4024 z"
       id="path1710" />
  </g>
</svg>
