<?xml version="1.0" encoding="UTF-8" standalone="no"?>
<!-- Created with Inkscape (http://www.inkscape.org/) -->

<svg
   width="502.45392mm"
   height="280.58197mm"
   viewBox="0 0 502.45392 280.58197"
   version="1.1"
   id="svg1983"
   xmlns="http://www.w3.org/2000/svg"
   xmlns:svg="http://www.w3.org/2000/svg">
  <defs
     id="defs1980" />
  <g
     id="layer1"
     transform="translate(72.948315,-14.444817)">
    <path
       style="fill:#000000;stroke-width:0.264583"
       d="m 175.55619,294.45932 c -1.84404,-0.87363 -3.69112,-2.78566 -4.82785,-4.99756 -0.50932,-0.99107 -1.97398,-3.11999 -3.25477,-4.7309 -3.40522,-4.28289 -4.34949,-6.38088 -5.07725,-11.28062 -0.30239,-2.03584 -0.61188,-3.10253 -1.21428,-4.18523 -1.42409,-2.55953 -2.80665,-5.47987 -3.23863,-6.84088 -0.78729,-2.4806 -2.04102,-8.30715 -2.8303,-13.15363 -0.43336,-2.66092 -0.97658,-5.96913 -1.20716,-7.35158 -0.45929,-2.75365 -1.0622,-6.86435 -1.28059,-8.73125 -0.0766,-0.65484 -0.32131,-2.57889 -0.54379,-4.27567 -0.22249,-1.69677 -0.52573,-4.55427 -0.67387,-6.35 -0.14814,-1.79572 -0.3891,-4.69371 -0.53549,-6.43996 -0.61936,-7.3887 -0.79449,-10.14245 -1.05169,-16.53645 -0.14928,-3.71078 -0.32028,-7.40172 -0.38,-8.20209 -0.25836,-3.46197 -0.52541,-7.83119 -0.49731,-8.13593 0.0167,-0.1819 -0.0574,-0.33073 -0.16476,-0.33073 -0.167,0 -1.97387,3.67278 -3.05887,6.21771 -2.33378,5.47391 -6.18546,12.98334 -8.19319,15.97382 -5.63502,8.39322 -13.2011,13.28811 -25.53555,16.52026 -5.90494,1.54737 -11.29728,1.95824 -14.712127,1.12102 -1.762496,-0.4321 -6.801591,-2.77781 -8.376576,-3.89927 -2.054384,-1.46286 -8.127048,-3.46281 -13.026919,-4.29024 -13.969325,-2.35897 -17.564319,-3.14302 -23.93905,-5.22104 -4.189936,-1.36582 -7.967263,-3.02704 -10.844966,-4.76949 -3.104428,-1.87973 -4.115059,-2.71412 -8.10297,-6.68988 -4.553903,-4.54003 -7.065105,-6.88486 -8.985991,-8.39066 -6.006052,-4.70819 -9.378063,-10.23315 -9.378063,-15.36575 0,-3.83053 2.834312,-10.09459 6.359736,-14.05554 0.964586,-1.08374 3.052289,-2.96887 5.176375,-4.67409 3.362835,-2.69969 11.716998,-6.54315 21.669096,-9.96922 l 2.910417,-1.00192 -1.5875,-0.21027 c -2.540908,-0.33654 -17.917051,-0.29934 -21.43125,0.0518 -3.451971,0.34497 -9.313666,1.12145 -13.480758,1.78576 -4.4828464,0.71465 -8.6689914,0.0746 -12.6656314,-1.93654 -5.232685,-2.63314 -8.252785,-5.55688 -18.9650676,-18.36002 -15.325666,-18.31698 -16.251836,-19.52063 -22.893386,-29.752102 -2.49513,-3.843795 -9.45487,-15.428978 -11.04683,-18.388541 -0.43052,-0.800364 -0.87198,-1.574271 -0.98103,-1.719791 -0.10904,-0.145521 -0.59078,-0.978959 -1.07052,-1.852084 -0.47973,-0.873125 -1.13382,-2.06375 -1.45351,-2.645833 -0.31969,-0.582083 -1.54407,-2.803729 -2.72083,-4.936987 -2.29077,-4.152728 -4.54555,-8.549632 -5.81267,-11.334888 -1.6604,-3.649744 -1.89334,-4.179302 -2.96779,-6.746874 -1.47643,-3.528193 -4.53901,-12.488841 -5.56141,-16.271875 -0.58574,-2.167332 -0.86648,-3.902382 -0.97583,-6.030833 -0.14825,-2.88558 -0.12848,-3.03762 0.57626,-4.430522 1.23215,-2.435288 3.92311,-3.91981 9.79609,-5.404207 5.58881,-1.412576 8.39393,-1.72171 15.47812,-1.70575 3.67368,0.0083 7.39939,0.15409 8.59896,0.336539 5.93829,0.903184 7.07848,1.115245 13.493751,2.509639 6.175629,1.342308 17.2559686,5.161606 26.4583326,9.119955 7.207448,3.10025 23.2783984,11.164958 31.0885414,15.600825 11.24296,6.385576 13.674632,7.794738 20.505208,11.882831 2.910416,1.741879 6.125104,3.64526 7.14375,4.229733 1.018645,0.584472 3.399895,2.015421 5.291666,3.179886 1.891771,1.164466 4.927864,2.985873 6.746875,4.047572 1.81901,1.061699 4.259791,2.529904 5.423958,3.262678 1.164166,0.732774 4.438385,2.754064 7.276042,4.491754 2.837656,1.737691 7.123906,4.37733 9.525,5.865865 2.401093,1.488533 5.972967,3.679198 7.937497,4.868143 1.96453,1.188948 5.27296,3.260611 7.35206,4.603702 2.07909,1.343089 5.29225,3.39448 7.14033,4.558647 3.43313,2.162614 19.25167,12.696658 22.19455,14.780008 2.45441,1.73753 8.20018,6.00549 9.41485,6.99334 1.95665,1.59126 1.87828,1.60773 3.12063,-0.65586 1.10943,-2.02144 2.04081,-3.04977 6.59419,-7.28046 1.58033,-1.46834 2.14669,-2.15963 2.02636,-2.47323 -0.40309,-1.05042 -0.73028,-4.28498 -0.57105,-5.6452 0.22196,-1.896266 1.22944,-4.001246 2.412,-5.039534 1.01049,-0.887238 3.30324,-2.134272 3.92395,-2.134272 0.78237,0 0.68943,-0.552972 -0.35031,-2.08406 -0.58406,-0.86007 -1.21494,-1.725271 -1.40194,-1.922666 -0.18699,-0.197395 -0.6508,-0.775618 -1.03069,-1.284941 -1.01809,-1.365001 -5.29701,-6.158841 -7.752,-8.684874 -2.23377,-2.298395 -6.05277,-5.508627 -8.09376,-6.803577 -1.24839,-0.792052 -7.67927,-4.355299 -7.86038,-4.355299 -0.27963,0 -6.5066,-3.077977 -8.8891,-4.393882 -2.29049,-1.2651 -8.49937,-5.211368 -8.91511,-5.666314 -0.0728,-0.07962 -1.14432,-0.828283 -2.38125,-1.663684 -1.23692,-0.835403 -2.66567,-1.887257 -3.175,-2.337451 -0.50932,-0.450196 -1.46182,-1.250801 -2.11666,-1.779124 -0.65485,-0.528323 -1.3462,-1.168945 -1.53636,-1.423607 -0.19015,-0.254661 -0.46543,-0.46302 -0.61169,-0.46302 -0.74999,0 -3.25083,-1.492713 -4.45405,-2.65855 -1.38662,-1.343527 -2.74971,-3.762216 -2.52769,-4.4852 0.15335,-0.499409 -0.0488,-0.775904 -1.1121,-1.521354 -0.90739,-0.636125 -2.00303,-0.755238 -3.10235,-0.337278 -0.952865,0.362283 -0.873279,-0.143812 0.10192,-0.648115 0.42934,-0.222017 1.18872,-0.40367 1.68749,-0.40367 1.03608,0 2.82358,0.672232 2.82358,1.061884 0,0.143568 0.64137,0.261033 1.42531,0.261033 1.16919,0 1.65521,0.154511 2.70475,0.859896 1.55234,1.043313 3.17294,3.125877 3.40816,4.379692 0.0951,0.507029 0.34697,1.095899 0.55967,1.308603 0.22643,0.226417 0.31787,0.603742 0.22058,0.910217 -0.14258,0.449262 -0.0595,0.510955 0.58634,0.435142 0.60519,-0.07105 0.75277,0.01524 0.75391,0.440825 0,0.368755 0.18079,0.531442 0.59314,0.536675 0.32547,0.0041 0.57259,0.06366 0.5492,0.132292 -0.0233,0.06863 0.10493,0.400359 0.28519,0.737179 0.26691,0.498745 0.3995,0.55285 0.71435,0.291537 0.31993,-0.265536 0.44125,-0.176136 0.70342,0.518477 0.22744,0.602525 0.4636,0.818872 0.83706,0.766797 0.36513,-0.05091 0.56973,0.124685 0.6862,0.588918 0.11827,0.471368 0.32486,0.644535 0.7189,0.60257 0.39836,-0.04243 0.6277,0.155567 0.82037,0.708202 0.20886,0.599183 0.38772,0.735626 0.81708,0.623342 0.31943,-0.08353 0.5497,-0.01725 0.5497,0.158242 0,0.166095 0.31417,0.421436 0.69816,0.567428 0.38399,0.145989 0.62777,0.335812 0.54176,0.421825 -0.26464,0.264626 0.54917,0.89471 0.95461,0.739125 0.24038,-0.09224 0.43675,0.0638 0.53026,0.421356 0.11319,0.432872 0.27866,0.526545 0.69604,0.394076 0.42553,-0.135062 0.60462,-0.02357 0.80383,0.500391 0.16428,0.432054 0.3946,0.621104 0.64137,0.526409 0.22831,-0.08761 0.51023,0.08614 0.69258,0.426863 0.20465,0.382408 0.47696,0.530315 0.81404,0.442167 0.36946,-0.09661 0.50652,0.0054 0.50652,0.376981 0,0.403463 0.13012,0.476781 0.62545,0.352456 0.48971,-0.122907 0.65796,-0.0327 0.7752,0.415558 0.1121,0.42873 0.28194,0.530574 0.67612,0.405466 0.38414,-0.121931 0.57271,-0.02111 0.69783,0.373152 0.17503,0.551455 0.66498,0.754544 0.66498,0.27564 0,-0.482399 0.49054,-0.273904 0.66754,0.283718 0.10449,0.329219 0.32282,0.491197 0.54648,0.405382 0.21473,-0.08241 0.55734,0.139287 0.80917,0.523615 0.29565,0.451213 0.52353,0.579726 0.70546,0.397812 0.1819,-0.181914 0.47694,-0.03672 0.91326,0.449437 0.43495,0.484621 0.68667,0.608865 0.77412,0.382058 0.0865,-0.224377 0.30977,-0.107024 0.67164,0.353031 0.41675,0.529802 0.59304,0.607513 0.76245,0.336103 0.17074,-0.273494 0.31655,-0.2165 0.6472,0.252974 0.29282,0.415731 0.58592,0.555511 0.9335,0.44519 0.34632,-0.109916 0.50668,-0.0345 0.50668,0.238279 0,0.568102 0.5442,0.830598 0.82529,0.39807 0.18934,-0.291388 0.33554,-0.23741 0.72784,0.268738 0.27001,0.34835 0.61817,0.554717 0.77372,0.458594 0.15552,-0.09612 0.46191,0.081 0.68088,0.393605 0.21897,0.312605 0.56306,0.505071 0.7647,0.427701 0.20161,-0.07737 0.5058,0.08224 0.67596,0.354701 0.17015,0.272454 0.47667,0.43117 0.68117,0.3527 0.20447,-0.07847 0.55321,0.116358 0.77496,0.432951 0.22175,0.316592 0.5193,0.50387 0.6612,0.416168 0.14189,-0.0877 0.32916,0.02601 0.41616,0.252672 0.087,0.226669 0.26786,0.344305 0.40198,0.261414 0.13412,-0.08289 0.28379,-0.05979 0.33261,0.05134 0.11655,0.265337 2.2312,1.917909 2.45419,1.917909 0.17177,0 0.48144,0.274719 4.50885,3.999833 4.26085,3.941053 6.48665,6.459513 10.58375,11.97524 l 2.33448,3.142779 0.81936,-1.412902 c 0.45064,-0.777097 1.4742,-2.088396 2.27457,-2.913996 1.26045,-1.300194 1.66343,-1.547236 3.01112,-1.845858 1.37152,-0.303911 1.70799,-0.29074 2.83958,0.111162 1.19917,0.425911 1.33951,0.427051 2.1318,0.01733 1.10599,-0.571918 3.62167,-0.338862 4.90525,0.454422 0.98737,0.610238 2.42726,2.33948 3.57605,4.294701 0.39659,0.675005 0.81741,1.227283 0.93515,1.227283 0.11771,0 0.41886,-0.346723 0.66918,-0.770493 2.32307,-3.932634 9.84618,-12.569237 13.98439,-16.054242 0.67572,-0.569052 1.50916,-1.271201 1.85209,-1.560335 0.34292,-0.289131 1.04023,-0.810456 1.54955,-1.158502 0.50933,-0.348046 1.2083,-0.913296 1.55332,-1.256112 0.34499,-0.342818 0.74075,-0.553159 0.87948,-0.467423 0.13872,0.08573 0.53223,-0.107191 0.8745,-0.428726 0.34226,-0.321535 0.73713,-0.513625 0.87751,-0.426865 0.14036,0.08676 0.45482,-0.146863 0.69874,-0.519155 0.35351,-0.539499 0.51914,-0.61413 0.81611,-0.367678 0.29874,0.247938 0.43508,0.172048 0.68794,-0.382972 0.2217,-0.486547 0.45469,-0.647972 0.78425,-0.543374 0.30666,0.09733 0.57153,-0.04305 0.76565,-0.405789 0.20709,-0.386959 0.45228,-0.505251 0.81116,-0.391348 0.33994,0.107894 0.57037,0.01733 0.67951,-0.267073 0.0959,-0.250034 0.33263,-0.366046 0.56493,-0.2769 0.23575,0.09046 0.56137,-0.07722 0.79349,-0.408617 0.31306,-0.446931 0.44193,-0.488786 0.62936,-0.204364 0.18333,0.278217 0.36047,0.191339 0.79735,-0.391065 0.4313,-0.574971 0.6155,-0.66708 0.79378,-0.396875 0.18383,0.278646 0.31631,0.241753 0.63659,-0.1773 0.22243,-0.291041 0.62701,-0.493588 0.89908,-0.450104 0.31226,0.04991 0.55938,-0.124904 0.67021,-0.474077 0.12634,-0.398098 0.31785,-0.507982 0.68318,-0.392028 0.38257,0.12142 0.57394,-0.01331 0.77679,-0.546867 0.22749,-0.598372 0.332,-0.655828 0.67506,-0.371129 0.34087,0.282898 0.42987,0.245126 0.55563,-0.235826 0.16899,-0.646146 0.37216,-0.71189 0.81904,-0.265009 0.23384,0.233836 0.3715,0.139806 0.57362,-0.391821 0.17838,-0.469136 0.3987,-0.648547 0.66908,-0.544801 0.23783,0.09127 0.47225,-0.02551 0.57176,-0.284843 0.0928,-0.241742 0.3301,-0.377592 0.52737,-0.301887 0.19727,0.07571 0.48977,-0.107267 0.64997,-0.406603 0.18415,-0.344112 0.46914,-0.497734 0.77497,-0.417762 0.31832,0.08325 0.52824,-0.04391 0.61402,-0.371938 0.0722,-0.276153 0.36361,-0.49843 0.65341,-0.49843 0.30806,0 0.58254,-0.22729 0.66768,-0.552889 0.10726,-0.410204 0.28043,-0.509772 0.67098,-0.385818 0.38415,0.121931 0.57272,0.02111 0.69784,-0.373152 0.0983,-0.309753 0.40018,-0.540224 0.70758,-0.540224 0.3172,0 0.59377,-0.220527 0.67733,-0.540086 0.0953,-0.364617 0.32157,-0.515048 0.69633,-0.463021 0.37364,0.05188 0.58814,-0.08977 0.65627,-0.43339 0.14753,-0.744135 0.70647,-1.234932 1.03368,-0.907698 0.18044,0.180438 0.36232,-0.004 0.55829,-0.566163 0.2249,-0.645142 0.40347,-0.797978 0.78925,-0.675529 0.54521,0.173035 1.16724,-0.382437 1.04564,-0.933738 -0.0453,-0.205481 0.18859,-0.348613 0.58602,-0.35858 0.4826,-0.01209 0.6848,-0.181144 0.74774,-0.62512 0.0643,-0.453255 0.23305,-0.58828 0.66146,-0.529167 0.3891,0.05369 0.65969,-0.113231 0.83635,-0.515945 0.16354,-0.372766 0.49207,-0.595313 0.87884,-0.595313 0.51734,0 0.60431,-0.118171 0.53546,-0.727604 -0.0569,-0.504211 0.0284,-0.703974 0.27811,-0.650639 0.23153,0.04946 0.30308,-0.07217 0.20018,-0.340315 -0.3466,-0.903187 2.15355,-4.378174 3.99158,-5.547966 0.854,-0.543518 1.39163,-0.694896 2.275,-0.640575 0.86746,0.05335 1.34289,-0.07532 1.90127,-0.514551 0.94906,-0.746522 1.74077,-0.940734 3.09464,-0.759137 0.96277,0.12913 2.64004,1.243288 1.87169,1.243288 -0.16925,0 -0.38134,-0.119063 -0.47128,-0.264584 -0.57729,-0.934061 -4.36562,0.437785 -4.36562,1.580894 0,1.309237 -1.10646,3.414937 -2.47401,4.708315 -1.43444,1.356628 -3.2199,2.434032 -4.0639,2.452278 -0.26045,0.0056 -1.36652,0.844941 -2.45792,1.865135 -1.71985,1.607632 -3.35735,2.864395 -9.52971,7.313914 -2.58347,1.862383 -7.57875,4.661328 -13.80466,7.735009 -9.45656,4.66862 -12.10855,6.388457 -16.71429,10.839272 -2.60408,2.516495 -7.65765,7.928364 -8.54543,9.151305 -0.31472,0.433538 -0.97444,1.324033 -1.46603,1.978877 -1.53453,2.044168 -2.59197,3.655729 -2.59197,3.950277 0,0.155681 0.20836,0.28422 0.46303,0.285641 0.91212,0.0051 3.24273,1.307984 4.38753,2.452788 1.78117,1.78118 2.38543,3.639098 2.21321,6.805044 -0.0752,1.38245 -0.27408,2.86853 -0.44199,3.3024 -0.2963,0.76573 -0.25217,0.83942 1.50522,2.51353 0.99576,0.94858 2.64284,2.45192 3.66019,3.34075 1.40134,1.22434 2.1608,2.17033 3.13304,3.90261 0.70583,1.25759 1.33694,2.28653 1.40248,2.28653 0.0655,0 1.10238,-0.78172 2.30409,-1.73716 6.7141,-5.3381 20.37324,-14.661398 34.81904,-23.766416 2.25557,-1.42166 5.88698,-3.7211 8.06979,-5.109869 2.18281,-1.388766 4.38488,-2.762753 4.89347,-3.053302 0.50861,-0.290547 1.40157,-0.853774 1.98437,-1.251612 0.58283,-0.39784 2.78606,-1.771721 4.89612,-3.053069 9.10389,-5.528426 11.09641,-6.747645 13.09687,-8.014012 1.16417,-0.736955 3.66448,-2.2631 5.55625,-3.391432 1.89177,-1.128331 5.70177,-3.420512 8.46667,-5.093732 2.76489,-1.673222 5.97958,-3.597253 7.14375,-4.275624 1.81967,-1.060347 11.68225,-6.947841 12.83229,-7.660272 0.36708,-0.227401 1.92704,-1.10922 5.95312,-3.365209 0.87313,-0.489249 1.7661,-1.00371 1.98438,-1.143248 4.397,-2.81082 23.47582,-12.790152 31.08854,-16.261125 8.40674,-3.832997 10.51449,-4.69479 18.65312,-7.626622 14.18196,-5.108871 29.09406,-7.645093 40.28094,-6.850909 7.63135,0.541768 14.73946,2.266346 17.7951,4.31746 3.67517,2.466977 4.12348,5.084447 2.21531,12.934084 -2.05155,8.439391 -8.177,23.620111 -13.18482,32.676041 -1.20706,2.182813 -2.84782,5.159375 -3.64615,6.614583 -2.55127,4.65064 -3.01784,5.472922 -5.62983,9.921875 -3.33425,5.679207 -5.65086,9.537187 -6.91105,11.509375 -0.5579,0.873125 -1.96236,3.075781 -3.12102,4.894791 -4.98705,7.829334 -8.24389,12.107034 -18.09134,23.762134 -3.5275,4.17504 -7.55835,8.9602 -8.95747,10.63369 -8.91137,10.65895 -14.76073,14.32797 -22.82256,14.31549 -2.75701,-0.004 -3.82039,-0.11527 -9.28023,-0.96866 -6.07999,-0.95033 -10.83225,-1.26 -18.78542,-1.22411 -4.36562,0.0197 -8.89,0.13071 -10.05416,0.24669 l -2.11667,0.21087 3.83646,1.28637 c 15.41965,5.17022 23.48023,10.1618 28.45141,17.61877 4.47717,6.71589 5.02603,13.13278 1.60274,18.73789 -1.21954,1.99683 -3.88726,4.87673 -6.5714,7.09415 -4.32853,3.57583 -5.37446,4.52858 -9.87121,8.99183 -1.92323,1.90891 -4.25455,4.00615 -5.18073,4.66054 -3.30292,2.3337 -8.3953,4.82856 -13.3256,6.52844 -3.89687,1.34357 -15.42209,3.88874 -22.88646,5.05411 -5.56077,0.86817 -10.51494,2.52886 -15.34583,5.14405 -1.96453,1.06352 -4.52438,2.27193 -5.68855,2.68539 -1.97275,0.70062 -2.39551,0.75224 -6.2177,0.75944 -5.29458,0.0101 -9.92235,-0.90961 -16.10392,-3.19993 -7.59002,-2.81217 -11.93842,-5.74082 -16.57212,-11.16136 -3.71766,-4.34893 -6.22192,-8.72782 -10.89332,-19.04787 -1.10006,-2.43021 -2.23441,-4.93447 -2.52082,-5.56503 -0.28639,-0.63056 -0.5656,-1.10156 -0.6205,-1.04668 -0.17571,0.17572 -0.87469,11.02052 -1.03661,16.08377 -0.4921,15.38615 -3.2203,40.35738 -5.72355,52.3875 -1.89076,9.08662 -2.86739,12.39788 -4.79925,16.27188 -0.72567,1.45521 -1.41126,2.76489 -1.5235,2.91041 -0.11226,0.14553 -0.35213,1.33615 -0.53305,2.64584 -0.45077,3.26292 -1.0894,5.18461 -2.54942,7.67154 -1.09075,1.8579 -3.31523,4.95784 -4.2146,5.87325 -0.17055,0.17359 -0.88908,1.30468 -1.59674,2.51354 -2.23509,3.81812 -4.3068,5.3925 -7.44595,5.65846 -1.24717,0.10567 -1.77274,0.01 -2.91172,-0.52951 z"
       id="path2125" />
  </g>
</svg>
