<?xml version="1.0" encoding="UTF-8" standalone="no"?>
<!-- Created with Inkscape (http://www.inkscape.org/) -->

<svg
   width="531.6076mm"
   height="230.83406mm"
   viewBox="0 0 531.6076 230.83406"
   version="1.1"
   id="svg1822"
   xmlns="http://www.w3.org/2000/svg"
   xmlns:svg="http://www.w3.org/2000/svg">
  <defs
     id="defs1819" />
  <g
     id="layer1"
     transform="translate(118.66918,-123.64159)">
    <path
       style="fill:#000000;stroke-width:0.264583"
       d="m 146.14135,354.35598 c -1.22097,-0.26731 -2.28819,-0.91429 -3.34261,-2.02644 -2.1032,-2.2183 -3.13878,-4.62778 -4.7003,-10.93603 -0.59439,-2.40117 -1.42796,-5.26759 -1.85237,-6.36979 -1.93451,-5.02383 -3.42345,-12.31971 -4.5316,-22.20505 -0.96862,-8.64044 -1.12721,-12.07836 -1.19608,-25.92916 -0.0684,-13.74785 -0.0909,-14.29926 -0.78155,-19.16075 -0.39113,-2.75304 -0.80613,-5.25335 -0.92223,-5.55625 -0.19288,-0.50331 -0.22656,-0.48239 -0.39124,0.24304 -3.66657,16.15245 -8.18957,28.59129 -13.40795,36.87381 -5.92624,9.40599 -13.35865,14.76595 -28.008443,20.19864 -14.975073,5.55328 -27.367547,8.46751 -41.539583,9.76841 -7.100073,0.65178 -17.50783,0.33658 -23.944791,-0.72509 -5.080973,-0.83804 -12.8878115,-2.51841 -16.9333335,-3.64479 -6.37251,-1.7743 -16.1740465,-5.30672 -22.0397875,-7.94303 -14.126848,-6.34918 -25.118258,-13.06047 -32.993544,-20.1456 -6.927069,-6.23207 -10.954931,-11.66672 -12.049821,-16.25839 -1.55146,-6.50641 1.93782,-13.72017 8.934694,-18.47166 6.344039,-4.30815 17.277389,-7.79887 30.023558,-9.58569 9.67381,-1.35611 22.4658995,-1.89881 31.6967755,-1.34472 10.8031625,0.64847 23.4970905,1.53455 25.1354165,1.75453 0.78142,0.10492 5.014618,0.42862 13.758333,1.05205 5.852478,0.41729 17.601618,0.70856 22.489583,0.55754 24.216862,-0.74821 36.634653,-4.94457 51.968923,-17.5619 1.76835,-1.45502 2.00676,-1.7533 1.90328,-2.38125 -0.0651,-0.39482 -0.12805,-1.04528 -0.14004,-1.44546 -0.0119,-0.40019 -0.13129,-0.72761 -0.26519,-0.72761 -0.13391,0 -1.53289,0.97206 -3.10886,2.16013 -8.93495,6.73572 -16.36085,10.64441 -25.003516,13.1608 -6.525683,1.90002 -11.193991,2.57069 -20.592097,2.95832 -10.922794,0.45052 -22.719215,0.0323 -45.111457,-1.59936 -5.820834,-0.42414 -11.893021,-0.84208 -13.49375,-0.92876 -1.600729,-0.0867 -3.743854,-0.21192 -4.7625,-0.27834 -11.01366549,-0.71813 -21.588563,-0.66928 -32.014583,0.14788 -7.80361,0.61163 -12.931756,1.09016 -16.933333,1.58013 -12.069341,1.47784 -14.136917,1.65837 -19.182291,1.67492 -7.384226,0.0242 -11.030286,-0.7053 -16.007296,-3.20286 -3.84525,-1.92961 -7.02042,-4.38947 -12.0637,-9.34595 -7.13369,-7.01091 -11.25337,-12.18598 -17.042247,-21.40816 -3.46069,-5.51318 -8.52849,-16.10809 -11.59834,-24.24786 -3.87711,-10.28027 -4.76377,-13.66901 -4.76663,-18.21777 -0.002,-2.77182 0.0895,-3.44013 0.71859,-5.26293 0.96705,-2.80205 2.21691,-4.60203 4.32625,-6.23042 3.40468,-2.62838 7.7586,-4.2113 14.232337,-5.17434 3.49841,-0.52043 12.84953,-0.71455 18.52083,-0.38447 15.75981,0.91726 40.626284,5.26487 59.928122,10.47773 3.771466,1.01856 31.380022,8.89318 37.438541,10.67837 9.052023,2.66724 26.816763,6.97117 50.799999,12.3075 9.888299,2.20017 13.594238,3.10241 25.929166,6.31263 9.110345,2.37101 16.416685,4.8027 21.960415,7.30883 3.897,1.76171 6.98526,3.27361 8.14745,3.98871 0.71874,0.44225 1.46285,0.74422 1.65359,0.67103 0.19071,-0.0732 0.58764,-0.67765 0.88207,-1.34325 0.88836,-2.00828 3.18468,-5.09912 4.87849,-6.56643 0.87805,-0.76062 1.93456,-1.84969 2.34783,-2.42014 0.74174,-1.02387 0.74491,-1.04426 0.24824,-1.5875 -1.65193,-1.80674 -2.33514,-5.25052 -1.48387,-7.4795 0.59415,-1.55578 2.17017,-3.28893 3.56111,-3.91615 0.58523,-0.2639 1.06405,-0.57193 1.06405,-0.6845 0,-0.33536 -4.08803,-3.31283 -6.52378,-4.75151 -7.50509,-4.43292 -13.29248,-6.74482 -29.85643,-11.92678 -16.701133,-5.22488 -24.071605,-7.82528 -34.26354,-12.08869 -7.227728,-3.02344 -7.922074,-3.3382 -13.213238,-5.98988 -9.693408,-4.85787 -16.3659,-9.1519 -25.280077,-16.26879 -3.41785,-2.72874 -10.994776,-9.99379 -10.987939,-10.53566 0.01056,-0.83567 0.803439,-0.28651 6.463307,4.47646 9.896512,8.32826 18.819024,14.23009 29.127322,19.26637 13.207551,6.45276 27.295899,11.61805 48.815625,17.89756 10.84844,3.1656 14.64836,4.44477 20.10833,6.76911 7.53391,3.20721 11.64781,5.45758 15.95808,8.72926 2.49021,1.89018 2.82295,1.81008 2.83551,-0.68262 0.0191,-3.78562 0.90221,-7.57058 2.27312,-9.74227 0.50438,-0.79897 0.75007,-0.992 0.97557,-0.76648 0.17868,0.17866 0.41297,2.17669 0.57523,4.90556 0.15058,2.53227 0.33555,4.66591 0.41109,4.74143 0.0755,0.0755 0.61021,0.0277 1.18821,-0.10634 1.43661,-0.33307 3.31351,-0.31622 4.33221,0.0389 0.46572,0.16235 0.90448,0.23746 0.97502,0.16691 0.0705,-0.0705 0.22167,-2.22589 0.33583,-4.78965 0.11415,-2.56375 0.28335,-4.73716 0.37598,-4.8298 0.7212,-0.72121 2.35648,2.33888 2.97368,5.5647 0.2159,1.12845 0.39256,3.0387 0.39256,4.24501 0,3.12547 0.25424,3.25509 2.70923,1.38127 2.96825,-2.26559 6.33401,-4.29083 10.38764,-6.25047 7.63466,-3.69081 13.44798,-5.74879 28.83959,-10.20956 22.73053,-6.58773 43.30083,-14.82168 55.69479,-22.29371 5.40146,-3.25642 14.09549,-9.49575 18.12395,-13.00679 4.79198,-4.17649 6.87795,-5.83558 7.33711,-5.83558 0.60246,0 0.50115,0.1975 -1.02947,2.00697 -3.28731,3.88629 -12.92502,11.83149 -20.1939,16.64761 -10.58814,7.01535 -20.21318,11.70515 -37.83978,18.43746 -6.75962,2.58178 -19.57826,6.85893 -26.72291,8.91655 -8.67357,2.49794 -19.07027,6.50362 -24.60625,9.4804 -3.98254,2.14148 -9.26042,5.78223 -9.26042,6.38798 0,0.0989 0.41434,0.40292 0.92078,0.67564 1.25058,0.6735 2.72145,2.18055 3.37738,3.46051 1.06894,2.08583 0.56359,5.58909 -1.11385,7.72159 -0.29617,0.37651 -0.53848,0.85803 -0.53848,1.07002 0,0.212 1.1371,1.47155 2.52691,2.79901 2.4348,2.32561 4.13898,4.55271 5.40454,7.06293 0.33014,0.65484 0.63751,1.23257 0.68302,1.28384 0.0455,0.0513 2.14421,-0.92299 4.66381,-2.16501 8.64777,-4.26288 16.66729,-7.14638 27.99672,-10.06655 2.54662,-0.65639 6.47568,-1.66938 8.73125,-2.25108 2.25558,-0.58171 9.22073,-2.20337 15.47813,-3.6037 6.25739,-1.40033 13.93693,-3.14128 17.06562,-3.86877 3.1287,-0.7275 7.41495,-1.72364 9.525,-2.21364 4.88813,-1.13513 17.804,-4.38199 21.43125,-5.38749 8.47868,-2.35036 18.45707,-5.18929 22.75417,-6.47373 16.56966,-4.95285 28.26395,-7.97736 39.96859,-10.33712 21.51158,-4.33693 38.55723,-6.1624 51.18036,-5.48106 16.35168,0.88258 24.38149,5.9681 24.9351,15.79211 0.258,4.57807 -0.97438,9.65649 -4.77842,19.69095 -5.04799,13.31582 -12.44981,26.64262 -20.0804,36.15428 -3.41892,4.26174 -8.59866,9.60466 -12.51169,12.90584 -4.03847,3.40701 -4.55147,3.77676 -7.27604,5.24436 -7.56587,4.0754 -13.86004,4.61844 -30.42709,2.62517 -5.02046,-0.60404 -11.15218,-1.27786 -13.62604,-1.49739 -2.47385,-0.21953 -5.0337,-0.45677 -5.68854,-0.52721 -8.24383,-0.88682 -25.07845,-0.9677 -36.5125,-0.17541 -12.05658,0.83542 -30.09897,2.13823 -31.48541,2.27351 -0.65485,0.0639 -6.19125,0.25796 -12.30313,0.43125 -23.18919,0.65751 -34.07825,-0.6299 -46.00855,-5.43953 -5.48791,-2.21243 -12.05283,-6.09484 -17.541,-10.37353 -3.70486,-2.88839 -3.78691,-2.90738 -3.78691,-0.87662 0,1.17863 0.0724,1.29751 1.62394,2.66788 3.32359,2.93545 11.04603,8.15155 15.06683,10.17682 9.48581,4.77804 19.41615,6.87384 35.90306,7.57733 7.79639,0.33267 18.13639,0.0723 27.9718,-0.70443 4.93188,-0.38947 17.71462,-1.32476 29.50104,-2.15854 8.46312,-0.59869 23.10103,-0.6043 28.97187,-0.0111 13.40353,1.35429 21.49803,3.0517 29.43654,6.17278 12.58975,4.94976 19.2251,13.41324 17.39347,22.18559 -0.50284,2.40824 -2.19543,5.91314 -4.07133,8.43061 -1.61843,2.17195 -5.95739,6.63468 -8.89201,9.14566 -10.88377,9.31259 -25.9451,17.5763 -43.78854,24.02549 -11.76399,4.25185 -23.13456,6.86842 -34.39583,7.91506 -3.50004,0.32528 -13.45047,0.17158 -17.99167,-0.27789 -11.93996,-1.18184 -22.12377,-3.36558 -33.60208,-7.20537 -19.65238,-6.57421 -28.01745,-12.01103 -34.98043,-22.73532 -4.24413,-6.53676 -9.0464,-19.26043 -12.37658,-32.79199 l -1.23719,-5.02708 -0.32906,2.11666 c -1.50627,9.68957 -1.4646,8.99484 -1.378,22.96783 0.11043,17.81904 -1.18735,31.81804 -3.97825,42.91342 -0.29282,1.16417 -1.16393,4.02167 -1.93577,6.35 -0.77184,2.32833 -1.75662,5.72162 -2.1884,7.54063 -1.8678,7.8691 -5.38771,12.00216 -9.46195,11.11022 z"
       id="path1964" />
  </g>
</svg>
