<?xml version="1.0" encoding="UTF-8" standalone="no"?>
<!-- Created with Inkscape (http://www.inkscape.org/) -->

<svg
   width="632.18066mm"
   height="267.40784mm"
   viewBox="0 0 632.18066 267.40784"
   version="1.1"
   id="svg1036"
   xmlns="http://www.w3.org/2000/svg"
   xmlns:svg="http://www.w3.org/2000/svg">
  <defs
     id="defs1033" />
  <g
     id="layer1"
     transform="translate(70.030554,-108.14371)">
    <path
       style="fill:#000000;stroke-width:0.264583"
       d="m 237.46198,375.27119 c -2.89676,-1.02704 -5.51458,-4.50115 -7.23278,-9.59869 -0.2943,-0.87313 -1.02762,-2.77812 -1.62962,-4.23333 -3.01961,-7.29946 -3.76775,-9.31641 -4.85783,-13.09688 -1.80613,-6.26377 -3.85736,-15.99403 -4.54578,-21.56354 -0.0899,-0.7276 -0.32835,-2.39448 -0.52983,-3.70417 -0.69218,-4.49924 -1.77337,-15.47383 -2.37202,-24.07708 -0.22278,-3.20146 -0.51702,-7.42818 -0.65386,-9.39271 -0.13687,-1.96453 -0.37478,-6.07218 -0.52872,-9.12812 -0.43386,-8.61285 -0.81502,-14.50439 -0.97311,-15.04079 -0.10033,-0.34043 -0.32729,0.0208 -0.74806,1.19063 -0.33221,0.92363 -1.40372,3.88198 -2.38111,6.57412 -0.97743,2.69213 -2.28833,6.32354 -2.91315,8.06979 -3.38693,9.46584 -7.59195,20.97836 -9.66406,26.45833 -0.85524,2.26174 -4.26672,9.97765 -6.20006,14.02292 -3.35394,7.01762 -6.60681,12.09336 -11.01458,17.18701 -3.95041,4.56515 -9.03084,8.72138 -14.99859,12.27013 -7.1877,4.27424 -13.25804,6.389 -27.44642,9.56168 -6.31279,1.4116 -9.62718,2.0597 -14.15521,2.76793 -8.02612,1.25532 -8.84074,1.36102 -12.43542,1.61349 -1.23692,0.0869 -3.19833,0.26932 -4.35868,0.40542 -7.78023,0.9126 -19.647118,-0.61616 -29.050433,-3.74243 -16.321791,-5.42644 -32.449217,-17.27615 -43.738835,-32.13732 -4.66201,-6.13688 -6.6405,-9.46192 -9.36046,-15.73112 -5.53769,-12.76377 -3.86005,-23.6464 5.50632,-35.71875 4.85848,-6.26211 13.441699,-13.18216 21.735426,-17.52375 l 0.926042,-0.48476 -0.79375,0.13687 c -0.436563,0.0753 -2.460625,0.31852 -4.497917,0.54054 -2.037292,0.22202 -4.180416,0.45675 -4.7625,0.52163 -8.316181,0.92696 -10.545361,1.05389 -18.520831,1.05454 -9.14674,8e-4 -10.64853,-0.15765 -15.3124996,-1.61498 -5.95694,-1.86136 -13.56002,-6.75417 -23.9691604,-15.42488 -11.11128,-9.25558 -22.04702,-21.23505 -28.93125,-31.69249 -4.49878,-6.83383 -10.27659,-18.58318 -14.47721,-29.43981 -8.07636,-20.87358 -13.67847,-46.4381 -12.43333,-56.73787 0.68287,-5.6487 1.95419,-8.88271 4.47758,-11.39012 3.83127,-3.80702 9.18018,-5.6374 19.07608,-6.52779 4.91528,-0.44226 19.38406,-0.4443 23.54791,-0.003 20.6991604,2.19214 30.9556004,4.67507 64.82292,15.69269 21.152717,6.88134 28.581206,9.2684 38.629165,12.41303 4.729427,1.48013 10.384896,3.26368 12.567708,3.96345 2.182813,0.69977 4.683125,1.46833 5.55625,1.70792 2.195395,0.60241 11.797715,3.50662 18.785415,5.68163 3.20146,0.99648 7.30912,2.2537 9.12813,2.7938 5.0216,1.49103 10.32004,3.2657 17.3302,5.80461 12.34369,4.47058 16.45389,6.06594 25.79688,10.01301 9.62657,4.06685 10.18752,4.32062 16.16183,7.31121 11.595,5.80417 18.45689,9.92164 25.67607,15.4069 1.69204,1.28564 3.15055,2.33753 3.24115,2.33753 0.0906,0 0.1647,-0.22434 0.1647,-0.49853 0,-0.97198 2.11055,-4.69621 3.58431,-6.32475 1.8288,-2.02088 4.76141,-4.42857 6.80058,-5.58325 0.83675,-0.47381 1.52136,-0.98153 1.52136,-1.12826 0,-0.14674 -0.42069,-0.9846 -0.93488,-1.86192 -0.51419,-0.87732 -1.18647,-2.50469 -1.494,-3.61639 -0.48532,-1.75448 -0.52395,-2.26942 -0.29265,-3.90126 0.62844,-4.4337 3.60301,-7.98929 7.44781,-8.9026 0.74752,-0.17757 1.35913,-0.38677 1.35913,-0.46488 0,-0.0781 -0.92273,-1.046 -2.05052,-2.15085 -8.49558,-8.32284 -16.76934,-12.9922 -31.55156,-17.80642 -16.3255,-5.31684 -20.71785,-7.22754 -28.32147,-12.32006 -7.25575,-4.85952 -19.83269,-16.76244 -19.83269,-18.76982 0,-0.71673 0.96586,-1.47925 1.40845,-1.11193 0.19802,0.16434 0.4223,0.23653 0.49842,0.16041 0.0761,-0.0761 2.0333,1.62156 4.3493,3.77261 11.27512,10.4721 15.58804,13.69069 23.50945,17.54431 5.27129,2.56438 7.57783,3.42032 16.32029,6.05636 8.65762,2.61045 10.70838,3.33592 15.54472,5.49901 8.38526,3.75038 14.71303,8.15757 21.15556,14.73445 1.51233,1.54389 2.79225,2.80708 2.84427,2.80708 0.052,0 0.0945,-1.17158 0.0945,-2.60351 0,-5.22078 2.36924,-11.41941 4.36472,-11.41941 0.33316,0 0.67802,0.18833 0.76634,0.41851 0.0883,0.23019 0.1606,2.20746 0.1606,4.39394 0,3.37145 0.0585,3.95296 0.38521,3.8276 0.21185,-0.0813 1.09712,-0.29486 1.96723,-0.47458 1.51696,-0.31333 3.0046,-0.17149 4.57438,0.43613 0.40298,0.15599 0.45243,-0.22634 0.52916,-4.09262 0.0667,-3.36023 0.1655,-4.31455 0.46588,-4.49981 0.72522,-0.44728 1.75215,0.42483 2.76106,2.34478 1.43515,2.73107 2.06465,5.40534 2.11071,8.96694 l 0.0387,2.98652 2.2483,-2.4368 c 2.75283,-2.98363 7.98427,-7.41274 11.42928,-9.67638 3.08055,-2.02418 8.4832,-4.85814 12.64846,-6.63478 3.21014,-1.36924 6.24152,-2.40476 12.96458,-4.42871 18.43633,-5.55019 25.25038,-9.56151 39.88097,-23.4773 2.21644,-2.10816 4.4065,-3.98902 4.86679,-4.17968 0.76624,-0.31739 0.87691,-0.29721 1.31112,0.23903 0.80005,0.98802 0.191,1.94025 -3.96478,6.19893 -9.50468,9.74002 -17.32526,15.54695 -26.49786,19.67515 -1.81121,0.81515 -7.69842,2.94214 -13.08269,4.72664 -10.22493,3.38883 -11.68406,3.91558 -15.63153,5.643 -4.15581,1.81859 -7.01951,3.35519 -10.29764,5.52552 -4.04199,2.67603 -6.50751,4.68371 -9.65205,7.85963 -2.00139,2.02134 -2.39107,2.53334 -1.92818,2.53334 0.31909,0 1.2391,0.24653 2.04441,0.54785 2.10148,0.78626 4.1488,2.7542 5.31037,5.10448 1.85753,3.75845 1.47995,7.56666 -1.1511,11.60988 -0.78975,1.21362 -0.67423,1.39736 1.78261,2.83565 4.10085,2.40074 7.51549,6.09846 9.04978,9.80005 0.45241,1.09141 0.85566,2.02123 0.89614,2.06628 0.0405,0.0451 1.18867,-0.7884 2.55149,-1.85209 9.59305,-7.48739 27.82392,-17.42989 43.08715,-23.49826 1.38245,-0.54963 3.40651,-1.37572 4.49792,-1.83575 10.26432,-4.32642 28.32925,-10.71589 41.14271,-14.55195 21.79254,-6.5242 48.10868,-14.74696 64.29375,-20.08927 3.93631,-1.29929 20.4688,-6.6406 29.64756,-9.57854 19.64333,-6.28743 34.524,-9.70773 48.27223,-11.09531 10.79841,-1.08987 17.00318,-1.28815 24.73854,-0.79059 11.44973,0.7365 17.90263,2.67769 21.77558,6.55065 4.84385,4.84386 5.89481,13.18311 3.47564,27.579 -2.32722,13.84853 -6.71661,29.2552 -12.28704,43.12708 -6.84905,17.0561 -13.54968,28.55068 -23.28955,39.95209 -5.06619,5.93042 -15.31868,15.82927 -21.68922,20.94103 -11.68741,9.37806 -19.27584,13.49678 -26.9875,14.64777 -2.71869,0.40577 -12.51132,0.56061 -16.15156,0.25539 -2.11326,-0.17719 -10.60741,-1.02067 -17.18593,-1.70659 -2.47386,-0.25794 -4.53356,-0.43839 -4.57711,-0.40101 -0.0436,0.0374 0.96848,0.63373 2.24896,1.32521 12.9422,6.98906 23.71981,18.54048 27.15032,29.09966 1.25743,3.87039 1.58853,6.2231 1.43201,10.17498 -0.22112,5.58159 -1.67439,10.49424 -5.12467,17.32324 -3.48456,6.89684 -8.3313,13.4071 -15.15496,20.35646 -5.60493,5.70823 -10.40664,9.7046 -16.16101,13.45049 -10.16392,6.61636 -18.70549,10.13346 -30.6365,12.61502 -3.14156,0.65339 -9.97979,1.14543 -13.94579,1.0034 -6.14974,-0.22021 -16.35107,-1.37742 -22.48959,-2.55114 -0.7276,-0.13911 -2.09682,-0.38197 -3.0427,-0.53967 -6.97514,-1.16289 -19.71495,-4.18864 -25.09079,-5.9591 -6.62368,-2.18146 -14.05051,-6.25816 -19.74516,-10.83839 -3.36132,-2.70351 -8.46545,-8.05768 -10.74108,-11.26723 -3.7184,-5.24446 -7.6046,-12.44563 -10.6979,-19.82327 -2.30507,-5.49775 -3.0394,-7.31412 -4.81353,-11.90625 -1.09631,-2.83766 -2.80599,-7.48109 -3.79932,-10.31875 -1.56911,-4.48257 -3.24477,-9.12535 -7.97369,-22.09271 -0.58375,-1.60073 -1.23986,-3.41629 -1.45804,-4.03458 -0.78028,-2.21125 -0.64979,-3.46457 -2.07309,19.90958 -1.40163,23.01817 -2.74344,36.53539 -4.49117,45.24375 -0.48273,2.40527 -1.1711,6.10058 -1.35541,7.27604 -0.46201,2.94693 -2.54037,10.58122 -3.91019,14.36301 -0.4857,1.34091 -1.71768,4.4621 -2.73775,6.93595 -1.02005,2.47385 -2.06344,5.15276 -2.31863,5.95312 -1.33336,4.18206 -3.66522,7.4992 -6.26544,8.91281 -1.38279,0.75179 -4.58843,0.62 -7.15772,-0.29427 l -2.04872,-0.729 -2.87096,0.81772 c -2.9645,0.84439 -4.62354,0.9812 -5.9962,0.49456 z"
       id="path1178" />
  </g>
</svg>
