<?xml version="1.0" encoding="UTF-8" standalone="no"?>
<!-- Created with Inkscape (http://www.inkscape.org/) -->

<svg
   width="611.83929mm"
   height="260.46207mm"
   viewBox="0 0 611.83929 260.46207"
   version="1.1"
   id="svg2100"
   xmlns="http://www.w3.org/2000/svg"
   xmlns:svg="http://www.w3.org/2000/svg">
  <defs
     id="defs2097" />
  <g
     id="layer1"
     transform="translate(189.90644,-126.63561)">
    <path
       style="fill:#000000;stroke-width:0.264583"
       d="m 120.32621,387.02347 c -0.0782,-0.0783 -2.85396,-0.1552 -6.16823,-0.17102 l -6.026,-0.0288 -1.26582,-0.74406 c -1.27026,-0.74669 -3.11057,-2.83195 -3.94165,-4.46628 -0.24474,-0.4813 -1.11268,-2.30142 -1.92874,-4.04474 -1.640307,-3.50408 -2.691523,-5.2805 -6.544147,-11.05876 -2.826994,-4.24 -3.761555,-5.9377 -4.839018,-8.79033 -0.762238,-2.01811 -2.342224,-8.28376 -2.930763,-11.62243 -0.226007,-1.28196 -0.622961,-2.48005 -1.021001,-3.08155 -0.358192,-0.54126 -0.84066,-1.715 -1.072144,-2.60831 -0.56478,-2.17962 -1.191339,-9.51408 -1.120352,-13.11479 0.03942,-1.99885 -0.102737,-3.73912 -0.453813,-5.55625 -0.55835,-2.88983 -0.719349,-10.60537 -0.367136,-17.59479 0.13716,-2.7217 0.109829,-3.41444 -0.114803,-2.91042 -4.098924,9.19678 -5.567653,11.65035 -9.047638,15.11465 -4.564856,4.54423 -18.769568,12.78733 -27.794637,16.12941 -7.522554,2.78567 -12.081484,2.94527 -19.579167,0.68533 -5.394457,-1.62597 -9.984475,-1.57483 -18.2562495,0.20336 -9.0551558,1.94656 -13.7712238,2.52793 -20.4973075,2.52677 -12.596674,-0.003 -23.970709,-2.17255 -32.948524,-6.28711 -6.862178,-3.14495 -11.827256,-6.53783 -14.99738,-10.24845 -2.831007,-3.31369 -3.656851,-5.64352 -3.65389,-10.30819 0.0039,-6.2197 1.881018,-10.79174 7.28227,-17.73764 1.536559,-1.97599 3.592994,-4.07883 5.614312,-5.74102 0.472943,-0.38891 0.859896,-0.769 0.859896,-0.84463 0,-0.0756 -0.744141,0.13994 -1.653646,0.47904 -2.804694,1.04573 -5.444728,1.91318 -9.98802,3.2818 -12.020537,3.62107 -22.246222,4.71982 -31.261566,3.35907 -3.84712,-0.58067 -14.118356,-2.70341 -16.760306,-3.46382 -1.30969,-0.37695 -3.03609,-0.86362 -3.83646,-1.08147 -2.01838,-0.54941 -10.0137,-2.95082 -10.9802,-3.29793 -0.43657,-0.15679 -1.03188,-0.3835 -1.32292,-0.50379 -0.29104,-0.12029 -1.53534,-0.54274 -2.76512,-0.93876 -3.82261,-1.23101 -12.31211,-4.81164 -17.35908,-7.32156 -9.28238,-4.61626 -16.27138,-9.0897 -24.72268,-15.82419 -15.4055,-12.27602 -21.34182,-23.75869 -17.75902,-34.35142 2.29868,-6.79618 9.2481,-13.53526 20.00798,-19.40239 14.00848,-7.63852 36.11275,-13.79131 57.67917,-16.05518 11.815766,-1.24032 15.288586,-1.44888 31.491819,-1.89125 9.775642,-0.26688 39.740386,-0.002 46.427965,0.41113 2.613142,0.16125 14.108459,0.3502 32.67604072,0.5371 13.45001428,0.13539 36.61462928,0.75018 39.42291628,1.04629 0.582083,0.0614 2.368021,0.18341 3.96875,0.27118 13.931079,0.76384 28.454826,3.18311 37.428592,6.2346 1.668013,0.5672 3.100811,0.94345 3.18397,0.83611 0.08319,-0.10734 0.619469,-0.89616 1.191736,-1.75293 2.215197,-3.31645 6.06208,-6.19264 10.226093,-7.64572 0.268658,-0.0937 0.507841,-0.59211 0.621638,-1.29528 0.216879,-1.34003 1.027192,-3.30183 1.646423,-3.98609 0.40468,-0.44716 0.401664,-0.61194 -0.04254,-2.32458 -0.550439,-2.12232 -0.615924,-5.58115 -0.133641,-7.06098 0.823198,-2.52586 3.067552,-4.78578 5.630148,-5.66918 0.8047,-0.2774 1.33686,-0.61099 1.29461,-0.81154 -0.22133,-1.05062 -7.335873,-6.09776 -12.110305,-8.59113 -7.352136,-3.83956 -18.885085,-7.94829 -32.532558,-11.59004 -2.037291,-0.54364 -6.383073,-1.7375 -9.657291,-2.65303 -3.274219,-0.91552 -8.691562,-2.40113 -12.038542,-3.30136 -3.346979,-0.90022 -7.484295,-2.04841 -9.194032,-2.55153 -3.943588,-1.16049 -7.839631,-1.9063 -11.046592,-2.11463 -3.186695,-0.20702 -9.5843912,0.25737 -14.8407518,1.07725 -8.6827645,1.35433 -12.1653725,1.49252 -13.9789842,0.55466 -1.148213,-0.59376 -1.115521,-1.67623 0.08582,-2.8418 1.136857,-1.10299 4.6476417,-2.87015 7.5672477,-3.80898 1.236927,-0.39775 2.427552,-0.78097 2.645833,-0.8516 0.218281,-0.0706 0.51593702,-0.15524 0.66145802,-0.188 0.145521,-0.0328 1.157552,-0.31 2.24895858,-0.61609 5.6485656,-1.58414 12.2462657,-2.5404 16.1894037,-2.34645 4.474581,0.22008 5.616919,0.61177 15.052014,5.16105 9.512749,4.58675 12.289763,5.70504 19.823165,7.98276 28.700068,8.67742 32.276414,9.92896 40.216666,14.07379 5.059256,2.64095 8.85399,5.27315 12.62719,8.7588 0.90582,0.83681 1.74717,1.52146 1.86965,1.52146 0.1225,0 0.6568,-0.92273 1.18739,-2.05052 1.63357,-3.47227 3.07714,-4.47457 3.62009,-2.51354 0.15108,0.54571 0.36404,1.11219 0.47321,1.25887 0.10919,0.14667 1.38914,0.28252 2.84435,0.30189 1.45521,0.0194 2.87136,0.078 3.14701,0.1302 0.39748,0.0753 0.58904,-0.17866 0.92604,-1.22794 0.5647,-1.75833 1.23433,-1.88032 2.38014,-0.43363 0.7308,0.92272 1.74577,2.89322 2.24681,4.36206 0.14282,0.41867 0.43463,0.24775 2.03274,-1.19062 7.11923,-6.40766 13.93815,-10.24725 25.54182,-14.38203 4.39348,-1.56556 5.73003,-1.98251 20.74315,-6.47119 11.86365,-3.54703 17.4893,-5.64563 25.44386,-9.49159 11.54695,-5.58284 13.02142,-6.03433 18.87384,-5.7792 10.77847,0.46987 27.38438,6.06129 27.38438,9.22068 0,2.33268 -3.91861,2.61875 -13.89063,1.01406 -7.95295,-1.27978 -13.47427,-1.6123 -17.4625,-1.05166 -2.8,0.39361 -5.6683,1.10104 -16.80104,4.14378 -5.60255,1.53125 -11.25802,3.07686 -12.5677,3.43468 -1.30969,0.35781 -3.0361,0.83105 -3.83646,1.05164 -0.80037,0.22059 -2.28865,0.61709 -3.30729,0.8811 -1.01865,0.26402 -3.16178,0.86099 -4.7625,1.3266 -1.60073,0.46562 -3.26761,0.94314 -3.70417,1.06117 -7.87387,2.12876 -19.05762,6.05278 -24.31277,8.53056 -4.83923,2.28169 -10.31193,5.72127 -14.0353,8.82118 -1.57983,1.3153 -1.76414,1.55494 -1.32292,1.72008 0.28197,0.10552 1.07487,0.39071 1.76199,0.63375 2.33098,0.82445 4.7294,3.55465 5.35199,6.09233 0.31367,1.27854 0.17272,4.94497 -0.24992,6.50103 -0.38606,1.42137 -0.38182,1.45317 0.40219,3.02397 0.4358,0.87313 0.97155,2.24924 1.19057,3.05803 0.38402,1.41817 0.44517,1.48741 1.71733,1.94487 1.44381,0.51919 3.97013,2.06528 5.78676,3.54146 1.04584,0.84985 4.05715,4.5958 4.31406,5.36654 0.0703,0.21078 1.28249,-0.075 3.7965,-0.89496 10.47674,-3.41711 23.99824,-5.37769 45.10056,-6.53942 10.69276,-0.58867 14.84281,-0.71065 25.66458,-0.7544 6.03912,-0.0244 13.00427,-0.10278 15.47813,-0.17414 2.47385,-0.0714 12.22711,-0.2528 21.6739,-0.40318 9.44679,-0.15039 17.26178,-0.32646 17.36666,-0.39128 0.10491,-0.0648 8.27056,-0.12333 18.1459,-0.13002 15.99887,-0.0109 32.20603,0.38876 38.32812,0.94501 2.26729,0.206 7.11192,0.68642 7.80521,0.774 0.3638,0.046 1.85208,0.21773 3.30729,0.38171 24.16349,2.72294 46.73295,9.74679 61.11875,19.02077 6.05213,3.90158 12.07841,10.09808 13.95873,14.35302 1.74082,3.93921 2.16193,9.41769 1.01435,13.19583 -1.7232,5.67328 -5.67184,11.66332 -11.23725,17.04675 -3.48017,3.36638 -9.58709,8.35482 -13.39312,10.94018 -8.31398,5.64752 -12.1974,7.94806 -19.05,11.28523 -5.33861,2.59986 -6.97349,3.32078 -11.90625,5.25014 -3.85535,1.50794 -13.03624,4.46329 -19.84375,6.38774 -7.14505,2.01987 -8.33591,2.32764 -11.87453,3.06887 -7.32282,1.53393 -9.16334,1.72587 -16.56818,1.72784 -6.00845,0.002 -7.31454,-0.0751 -10.31875,-0.60635 -5.38454,-0.95209 -13.75606,-3.18888 -19.97488,-5.33709 -2.10939,-0.72867 -3.98589,-1.32486 -4.16999,-1.32486 -0.18407,0 0.31189,0.58554 1.10212,1.3012 2.11307,1.9136 5.61465,5.74463 6.91198,7.56235 3.86953,5.42157 5.40885,9.78428 5.46121,15.47812 0.047,5.10673 -1.17703,7.74893 -5.52691,11.93096 -2.77273,2.66573 -6.07473,4.89159 -10.93184,7.3691 -7.24858,3.69736 -11.92525,5.07269 -22.61336,6.65027 -2.65067,0.39127 -5.66634,0.58867 -10.60341,0.69419 -8.15893,0.17439 -9.74545,0.005 -20.74971,-2.21861 -6.77987,-1.36983 -7.54668,-1.47227 -11.24479,-1.50233 -4.21524,-0.0342 -4.89231,0.0678 -10.36693,1.56207 -5.32456,1.45336 -9.49778,1.4754 -14.23932,0.0753 -4.86114,-1.43547 -12.5453,-4.86034 -17.76241,-7.91676 -10.58246,-6.19974 -14.77602,-9.52979 -17.79484,-14.1306 -1.93998,-2.95658 -4.28646,-7.91406 -4.8841,-10.31875 -0.0723,-0.29104 -0.0882,3.28084 -0.0353,7.9375 0.073,6.42351 0.005,9.07323 -0.2836,10.98021 -0.20889,1.38245 -0.49819,5.43057 -0.64289,8.99583 -0.33306,8.20672 -0.87701,11.56354 -2.22858,13.75326 -0.52282,0.84703 -0.95118,1.81975 -0.95192,2.16162 -0.003,0.61386 -0.95457,5.35183 -1.74861,8.69137 -0.96856,4.07355 -2.51531,7.29867 -6.04051,12.59491 -3.69073,5.5449 -5.719,8.95982 -7.08052,11.92104 -2.40294,5.22631 -4.11474,7.2639 -6.83442,8.13514 -1.33689,0.42826 -3.32507,0.70316 -3.53891,0.48932 z"
       id="path2242" />
  </g>
</svg>
